G04*
G04 #@! TF.GenerationSoftware,Altium Limited,Altium Designer,24.6.1 (21)*
G04*
G04 Layer_Color=128*
%FSLAX25Y25*%
%MOIN*%
G70*
G04*
G04 #@! TF.SameCoordinates,02BDBD07-9C05-4181-BE98-5AEDC2C123D6*
G04*
G04*
G04 #@! TF.FilePolarity,Positive*
G04*
G01*
G75*
G04:AMPARAMS|DCode=36|XSize=70.87mil|YSize=153.54mil|CornerRadius=3.54mil|HoleSize=0mil|Usage=FLASHONLY|Rotation=180.000|XOffset=0mil|YOffset=0mil|HoleType=Round|Shape=RoundedRectangle|*
%AMROUNDEDRECTD36*
21,1,0.07087,0.14646,0,0,180.0*
21,1,0.06378,0.15354,0,0,180.0*
1,1,0.00709,-0.03189,0.07323*
1,1,0.00709,0.03189,0.07323*
1,1,0.00709,0.03189,-0.07323*
1,1,0.00709,-0.03189,-0.07323*
%
%ADD36ROUNDEDRECTD36*%
G04:AMPARAMS|DCode=37|XSize=51.18mil|YSize=177.17mil|CornerRadius=2.56mil|HoleSize=0mil|Usage=FLASHONLY|Rotation=180.000|XOffset=0mil|YOffset=0mil|HoleType=Round|Shape=RoundedRectangle|*
%AMROUNDEDRECTD37*
21,1,0.05118,0.17205,0,0,180.0*
21,1,0.04606,0.17717,0,0,180.0*
1,1,0.00512,-0.02303,0.08602*
1,1,0.00512,0.02303,0.08602*
1,1,0.00512,0.02303,-0.08602*
1,1,0.00512,-0.02303,-0.08602*
%
%ADD37ROUNDEDRECTD37*%
G04:AMPARAMS|DCode=38|XSize=85.04mil|YSize=88.98mil|CornerRadius=4.25mil|HoleSize=0mil|Usage=FLASHONLY|Rotation=90.000|XOffset=0mil|YOffset=0mil|HoleType=Round|Shape=RoundedRectangle|*
%AMROUNDEDRECTD38*
21,1,0.08504,0.08047,0,0,90.0*
21,1,0.07653,0.08898,0,0,90.0*
1,1,0.00850,0.04024,0.03827*
1,1,0.00850,0.04024,-0.03827*
1,1,0.00850,-0.04024,-0.03827*
1,1,0.00850,-0.04024,0.03827*
%
%ADD38ROUNDEDRECTD38*%
G04:AMPARAMS|DCode=39|XSize=21.65mil|YSize=23.62mil|CornerRadius=1.08mil|HoleSize=0mil|Usage=FLASHONLY|Rotation=270.000|XOffset=0mil|YOffset=0mil|HoleType=Round|Shape=RoundedRectangle|*
%AMROUNDEDRECTD39*
21,1,0.02165,0.02146,0,0,270.0*
21,1,0.01949,0.02362,0,0,270.0*
1,1,0.00217,-0.01073,-0.00974*
1,1,0.00217,-0.01073,0.00974*
1,1,0.00217,0.01073,0.00974*
1,1,0.00217,0.01073,-0.00974*
%
%ADD39ROUNDEDRECTD39*%
G04:AMPARAMS|DCode=41|XSize=94.49mil|YSize=118.11mil|CornerRadius=4.72mil|HoleSize=0mil|Usage=FLASHONLY|Rotation=270.000|XOffset=0mil|YOffset=0mil|HoleType=Round|Shape=RoundedRectangle|*
%AMROUNDEDRECTD41*
21,1,0.09449,0.10866,0,0,270.0*
21,1,0.08504,0.11811,0,0,270.0*
1,1,0.00945,-0.05433,-0.04252*
1,1,0.00945,-0.05433,0.04252*
1,1,0.00945,0.05433,0.04252*
1,1,0.00945,0.05433,-0.04252*
%
%ADD41ROUNDEDRECTD41*%
G04:AMPARAMS|DCode=44|XSize=23.62mil|YSize=19.68mil|CornerRadius=0mil|HoleSize=0mil|Usage=FLASHONLY|Rotation=270.000|XOffset=0mil|YOffset=0mil|HoleType=Round|Shape=RoundedRectangle|*
%AMROUNDEDRECTD44*
21,1,0.02362,0.01968,0,0,270.0*
21,1,0.02362,0.01968,0,0,270.0*
1,1,0.00000,-0.00984,-0.01181*
1,1,0.00000,-0.00984,0.01181*
1,1,0.00000,0.00984,0.01181*
1,1,0.00000,0.00984,-0.01181*
%
%ADD44ROUNDEDRECTD44*%
D36*
X-23819Y9252D02*
D03*
X-98228D02*
D03*
D37*
X-36417Y36024D02*
D03*
X-46260D02*
D03*
X-56102D02*
D03*
X-65945D02*
D03*
X-75787D02*
D03*
X-85630D02*
D03*
D38*
X-15748Y224213D02*
D03*
Y204921D02*
D03*
D39*
X-102362Y218799D02*
D03*
Y222146D02*
D03*
X-112205Y218799D02*
D03*
Y222146D02*
D03*
D41*
X-47244Y203031D02*
D03*
Y222165D02*
D03*
D44*
X-68504Y219094D02*
D03*
X-64764Y226969D02*
D03*
X-72244D02*
D03*
X-87599Y219183D02*
D03*
X-83858Y227057D02*
D03*
X-91339D02*
D03*
M02*
