G04*
G04 #@! TF.GenerationSoftware,Altium Limited,Altium Designer,24.6.1 (21)*
G04*
G04 Layer_Color=128*
%FSLAX25Y25*%
%MOIN*%
G70*
G04*
G04 #@! TF.SameCoordinates,02BDBD07-9C05-4181-BE98-5AEDC2C123D6*
G04*
G04*
G04 #@! TF.FilePolarity,Positive*
G04*
G01*
G75*
%ADD46C,0.00500*%
D46*
X-22244Y239764D02*
X-16339D01*
X-19291Y236811D02*
Y242717D01*
X-43110Y239764D02*
X-37205D01*
X-40157Y236811D02*
Y242717D01*
X-110767Y18024D02*
X-106830D01*
X-108798Y16055D02*
Y19992D01*
X-110767Y28024D02*
X-106830D01*
X-108798Y26055D02*
Y29992D01*
X-110767Y38024D02*
X-106830D01*
X-108798Y36055D02*
Y39992D01*
X-110767Y48024D02*
X-106830D01*
X-108798Y46055D02*
Y49992D01*
X-110767Y58024D02*
X-106830D01*
X-108798Y56055D02*
Y59992D01*
X-110767Y68024D02*
X-106830D01*
X-108798Y66055D02*
Y69992D01*
X-110767Y78024D02*
X-106830D01*
X-108798Y76055D02*
Y79992D01*
X-110767Y98024D02*
X-106830D01*
X-108798Y96055D02*
Y99992D01*
X-110767Y108024D02*
X-106830D01*
X-108798Y106055D02*
Y109992D01*
X-110767Y118024D02*
X-106830D01*
X-108798Y116055D02*
Y119992D01*
X-110767Y128024D02*
X-106830D01*
X-108798Y126055D02*
Y129992D01*
X-20767Y138024D02*
X-16830D01*
X-18798Y136055D02*
Y139992D01*
X-110767Y138024D02*
X-106830D01*
X-108798Y136055D02*
Y139992D01*
X-20767Y118024D02*
X-16830D01*
X-18798Y116055D02*
Y119992D01*
X-20767Y108024D02*
X-16830D01*
X-18798Y106055D02*
Y109992D01*
X-20767Y98024D02*
X-16830D01*
X-18798Y96055D02*
Y99992D01*
X-20767Y88024D02*
X-16830D01*
X-18798Y86055D02*
Y89992D01*
X-20767Y78024D02*
X-16830D01*
X-18798Y76055D02*
Y79992D01*
X-20767Y68024D02*
X-16830D01*
X-18798Y66055D02*
Y69992D01*
X-20767Y58024D02*
X-16830D01*
X-18798Y56055D02*
Y59992D01*
X-20767Y48024D02*
X-16830D01*
X-18798Y46055D02*
Y49992D01*
X-20767Y38024D02*
X-16830D01*
X-18798Y36055D02*
Y39992D01*
X-110767Y88024D02*
X-106830D01*
X-108798Y86055D02*
Y89992D01*
X-20767Y128024D02*
X-16830D01*
X-18798Y126055D02*
Y129992D01*
X-31102Y222441D02*
X-27953D01*
X-29528Y220866D02*
Y224016D01*
X-31102Y202756D02*
X-27953D01*
X-29528Y201181D02*
Y204331D01*
X-112453Y165175D02*
X-106941D01*
X-109697Y162419D02*
Y167930D01*
X-112453Y181710D02*
X-106941D01*
X-109697Y178954D02*
Y184466D01*
X-90799Y165175D02*
X-85288D01*
X-88043Y162419D02*
Y167930D01*
X-90799Y181710D02*
X-85288D01*
X-88043Y178954D02*
Y184466D01*
X-51220Y177165D02*
X-47205D01*
X-49213Y175157D02*
Y179173D01*
X-39409Y177165D02*
X-35394D01*
X-37402Y175157D02*
Y179173D01*
X-27598Y177165D02*
X-23583D01*
X-25591Y175157D02*
Y179173D01*
X-51220Y165354D02*
X-47205D01*
X-49213Y163346D02*
Y167362D01*
X-39409Y165354D02*
X-35394D01*
X-37402Y163346D02*
Y167362D01*
X-27598Y165354D02*
X-23583D01*
X-25591Y163346D02*
Y167362D01*
X-63031Y161653D02*
X-59016D01*
X-61024Y159645D02*
Y163661D01*
X-15787Y161653D02*
X-11772D01*
X-13780Y159645D02*
Y163661D01*
X-113976Y210630D02*
X-110433D01*
X-112205Y208858D02*
Y212402D01*
X-104134Y210630D02*
X-100591D01*
X-102362Y208858D02*
Y212402D01*
X-94291Y210630D02*
X-90748D01*
X-92520Y208858D02*
Y212402D01*
X-84449Y210630D02*
X-80906D01*
X-82677Y208858D02*
Y212402D01*
X-74606Y210630D02*
X-71063D01*
X-72835Y208858D02*
Y212402D01*
X-64764Y210630D02*
X-61221D01*
X-62992Y208858D02*
Y212402D01*
X-19891Y244685D02*
X-18691D01*
X-19291Y244085D02*
Y245285D01*
X-15315Y239764D02*
X-14115D01*
X-14715Y239164D02*
Y240364D01*
X-24468Y239764D02*
X-23268D01*
X-23868Y239164D02*
Y240364D01*
X-22942Y235827D02*
X-21743D01*
X-22343Y235227D02*
Y236427D01*
X-16840Y235827D02*
X-15640D01*
X-16240Y235227D02*
Y236427D01*
X-19891Y233858D02*
X-18691D01*
X-19291Y233258D02*
Y234458D01*
X-15315Y244685D02*
X-14115D01*
X-14715Y244085D02*
Y245285D01*
X-24468Y244685D02*
X-23268D01*
X-23868Y244085D02*
Y245285D01*
X-40758Y244685D02*
X-39557D01*
X-40157Y244085D02*
Y245285D01*
X-36181Y239764D02*
X-34981D01*
X-35581Y239164D02*
Y240364D01*
X-45334Y239764D02*
X-44134D01*
X-44734Y239164D02*
Y240364D01*
X-43809Y235827D02*
X-42609D01*
X-43209Y235227D02*
Y236427D01*
X-37706Y235827D02*
X-36506D01*
X-37106Y235227D02*
Y236427D01*
X-40758Y233858D02*
X-39557D01*
X-40157Y233258D02*
Y234458D01*
X-36181Y244685D02*
X-34981D01*
X-35581Y244085D02*
Y245285D01*
X-45334Y244685D02*
X-44134D01*
X-44734Y244085D02*
Y245285D01*
X-124606Y13780D02*
X-123425D01*
X-124016Y13189D02*
Y14370D01*
X-16339Y151575D02*
X-15157D01*
X-15748Y150984D02*
Y152165D01*
X-106890Y145276D02*
X-105709D01*
X-106299Y144685D02*
Y145866D01*
X-16339Y23622D02*
X-15157D01*
X-15748Y23031D02*
Y24213D01*
X-16339Y13780D02*
X-15157D01*
X-15748Y13189D02*
Y14370D01*
X-110039Y199213D02*
X-108858D01*
X-109449Y198622D02*
Y199803D01*
X-89173Y194488D02*
X-87992D01*
X-88583Y193898D02*
Y195079D01*
X-89173Y203543D02*
X-87992D01*
X-88583Y202953D02*
Y204134D01*
X-49409Y151181D02*
X-48228D01*
X-48819Y150591D02*
Y151772D01*
X-61221Y137402D02*
X-60039D01*
X-60630Y136811D02*
Y137992D01*
X-38780Y140551D02*
X-37598D01*
X-38189Y139961D02*
Y141142D01*
X-26575Y132677D02*
X-25394D01*
X-25984Y132087D02*
Y133268D01*
X-16339Y190945D02*
X-15157D01*
X-15748Y190354D02*
Y191535D01*
X-104921Y230315D02*
X-103740D01*
X-104331Y229724D02*
Y230906D01*
X-114764Y230315D02*
X-113583D01*
X-114173Y229724D02*
Y230906D01*
X-16339Y181102D02*
X-15157D01*
X-15748Y180512D02*
Y181693D01*
X-16339Y171260D02*
X-15157D01*
X-15748Y170669D02*
Y171850D01*
X-41929Y118110D02*
X-40748D01*
X-41339Y117520D02*
Y118701D01*
X-36024Y112205D02*
X-34843D01*
X-35433Y111614D02*
Y112795D01*
X-30118Y106299D02*
X-28937D01*
X-29528Y105709D02*
Y106890D01*
X-30118Y92520D02*
X-28937D01*
X-29528Y91929D02*
Y93110D01*
X-39961Y96457D02*
X-38780D01*
X-39370Y95866D02*
Y97047D01*
X-45866Y100394D02*
X-44685D01*
X-45276Y99803D02*
Y100984D01*
X-51772Y106299D02*
X-50591D01*
X-51181Y105709D02*
Y106890D01*
X-39961Y53150D02*
X-38780D01*
X-39370Y52559D02*
Y53740D01*
X-28150Y53150D02*
X-26969D01*
X-27559Y52559D02*
Y53740D01*
X-41929Y62992D02*
X-40748D01*
X-41339Y62402D02*
Y63583D01*
X-30118Y62992D02*
X-28937D01*
X-29528Y62402D02*
Y63583D01*
X-54921Y79134D02*
X-53740D01*
X-54331Y78543D02*
Y79724D01*
X-65551Y78740D02*
X-64370D01*
X-64961Y78150D02*
Y79331D01*
X-75394Y72835D02*
X-74213D01*
X-74803Y72244D02*
Y73425D01*
X-65551Y72835D02*
X-64370D01*
X-64961Y72244D02*
Y73425D01*
X-65551Y62992D02*
X-64370D01*
X-64961Y62402D02*
Y63583D01*
X-85236Y62992D02*
X-84055D01*
X-84646Y62402D02*
Y63583D01*
X-75394Y62992D02*
X-74213D01*
X-74803Y62402D02*
Y63583D01*
X-75394Y53150D02*
X-74213D01*
X-74803Y52559D02*
Y53740D01*
X-85236Y53150D02*
X-84055D01*
X-84646Y52559D02*
Y53740D01*
X-95079Y53150D02*
X-93898D01*
X-94488Y52559D02*
Y53740D01*
X-95079Y43307D02*
X-93898D01*
X-94488Y42717D02*
Y43898D01*
X-95079Y33465D02*
X-93898D01*
X-94488Y32874D02*
Y34055D01*
X-95079Y23622D02*
X-93898D01*
X-94488Y23031D02*
Y24213D01*
X-26181Y33465D02*
X-25000D01*
X-25591Y32874D02*
Y34055D01*
X-26181Y23622D02*
X-25000D01*
X-25591Y23031D02*
Y24213D01*
X-36024Y23622D02*
X-34843D01*
X-35433Y23031D02*
Y24213D01*
X-36024Y13780D02*
X-34843D01*
X-35433Y13189D02*
Y14370D01*
X-45866Y23622D02*
X-44685D01*
X-45276Y23031D02*
Y24213D01*
X-45866Y13780D02*
X-44685D01*
X-45276Y13189D02*
Y14370D01*
X-55709Y23622D02*
X-54528D01*
X-55118Y23031D02*
Y24213D01*
X-55709Y13780D02*
X-54528D01*
X-55118Y13189D02*
Y14370D01*
X-65551Y23622D02*
X-64370D01*
X-64961Y23031D02*
Y24213D01*
X-65551Y13780D02*
X-64370D01*
X-64961Y13189D02*
Y14370D01*
X-75394Y23622D02*
X-74213D01*
X-74803Y23031D02*
Y24213D01*
X-75394Y13780D02*
X-74213D01*
X-74803Y13189D02*
Y14370D01*
X-85236Y23622D02*
X-84055D01*
X-84646Y23031D02*
Y24213D01*
X-85236Y13780D02*
X-84055D01*
X-84646Y13189D02*
Y14370D01*
X-102953Y96063D02*
X-101772D01*
X-102362Y95472D02*
Y96653D01*
X-102953Y101181D02*
X-101772D01*
X-102362Y100591D02*
Y101772D01*
X-97047Y101575D02*
X-95866D01*
X-96457Y100984D02*
Y102165D01*
X-90354Y107087D02*
X-89173D01*
X-89764Y106496D02*
Y107677D01*
X-85236Y112205D02*
X-84055D01*
X-84646Y111614D02*
Y112795D01*
X-80512Y116929D02*
X-79331D01*
X-79921Y116339D02*
Y117520D01*
X-73032Y124409D02*
X-71850D01*
X-72441Y123819D02*
Y125000D01*
X-68701Y132283D02*
X-67520D01*
X-68110Y131693D02*
Y132874D01*
X-68701Y142126D02*
X-67520D01*
X-68110Y141535D02*
Y142717D01*
X-68701Y148819D02*
X-67520D01*
X-68110Y148228D02*
Y149409D01*
X-68701Y168504D02*
X-67520D01*
X-68110Y167913D02*
Y169095D01*
X-92323Y171653D02*
X-91142D01*
X-91732Y171063D02*
Y172244D01*
X-95472Y175197D02*
X-94291D01*
X-94882Y174606D02*
Y175787D01*
X-99410Y179921D02*
X-98228D01*
X-98819Y179331D02*
Y180512D01*
X-110039Y189764D02*
X-108858D01*
X-109449Y189173D02*
Y190354D01*
X-112795Y173228D02*
X-111614D01*
X-112205Y172638D02*
Y173819D01*
X-106102Y156693D02*
X-104921D01*
X-105512Y156102D02*
Y157283D01*
X-82284Y155512D02*
X-81102D01*
X-81693Y154921D02*
Y156102D01*
X-82284Y139764D02*
X-81102D01*
X-81693Y139173D02*
Y140354D01*
X-51772Y72835D02*
X-50591D01*
X-51181Y72244D02*
Y73425D01*
X-43898Y72835D02*
X-42717D01*
X-43307Y72244D02*
Y73425D01*
X-36024Y72835D02*
X-34843D01*
X-35433Y72244D02*
Y73425D01*
X-28150Y72835D02*
X-26969D01*
X-27559Y72244D02*
Y73425D01*
X-28150Y80709D02*
X-26969D01*
X-27559Y80118D02*
Y81299D01*
X-36024Y80709D02*
X-34843D01*
X-35433Y80118D02*
Y81299D01*
X-43898Y80709D02*
X-42717D01*
X-43307Y80118D02*
Y81299D01*
X-49803Y84646D02*
X-48622D01*
X-49213Y84055D02*
Y85236D01*
X-55709Y90551D02*
X-54528D01*
X-55118Y89961D02*
Y91142D01*
X-61614Y96457D02*
X-60433D01*
X-61024Y95866D02*
Y97047D01*
X-67520Y90551D02*
X-66339D01*
X-66929Y89961D02*
Y91142D01*
X-75394Y84646D02*
X-74213D01*
X-74803Y84055D02*
Y85236D01*
X-81299Y78740D02*
X-80118D01*
X-80709Y78150D02*
Y79331D01*
X-87205Y72835D02*
X-86024D01*
X-86614Y72244D02*
Y73425D01*
X-95079Y64961D02*
X-93898D01*
X-94488Y64370D02*
Y65551D01*
X-100984Y59055D02*
X-99803D01*
X-100394Y58465D02*
Y59646D01*
X-30118Y215551D02*
X-28937D01*
X-29528Y214961D02*
Y216142D01*
X-30118Y193898D02*
X-28937D01*
X-29528Y193307D02*
Y194488D01*
X-46850Y187992D02*
X-45669D01*
X-46260Y187402D02*
Y188583D01*
X-41929Y193898D02*
X-40748D01*
X-41339Y193307D02*
Y194488D01*
X-82284Y134843D02*
X-81102D01*
X-81693Y134252D02*
Y135433D01*
X-82284Y144685D02*
X-81102D01*
X-81693Y144095D02*
Y145276D01*
X-82284Y160433D02*
X-81102D01*
X-81693Y159843D02*
Y161024D01*
X-78543Y182283D02*
X-77362D01*
X-77953Y181693D02*
Y182874D01*
X-59646Y196850D02*
X-58465D01*
X-59055Y196260D02*
Y197441D01*
X-68701Y188976D02*
X-67520D01*
X-68110Y188386D02*
Y189567D01*
X-16339Y3937D02*
X-15157D01*
X-15748Y3347D02*
Y4528D01*
X-36024Y3937D02*
X-34843D01*
X-35433Y3347D02*
Y4528D01*
X-45866Y3937D02*
X-44685D01*
X-45276Y3347D02*
Y4528D01*
X-55709Y3937D02*
X-54528D01*
X-55118Y3347D02*
Y4528D01*
X-65551Y3937D02*
X-64370D01*
X-64961Y3347D02*
Y4528D01*
X-75394Y3937D02*
X-74213D01*
X-74803Y3347D02*
Y4528D01*
X-85236Y3937D02*
X-84055D01*
X-84646Y3347D02*
Y4528D01*
X-104921Y3937D02*
X-103740D01*
X-104331Y3347D02*
Y4528D01*
X-114764Y3937D02*
X-113583D01*
X-114173Y3347D02*
Y4528D01*
X-65551Y240158D02*
X-64370D01*
X-64961Y239567D02*
Y240748D01*
X-75394Y240158D02*
X-74213D01*
X-74803Y239567D02*
Y240748D01*
X-85236Y240158D02*
X-84055D01*
X-84646Y239567D02*
Y240748D01*
X-95079Y240158D02*
X-93898D01*
X-94488Y239567D02*
Y240748D01*
X-104921Y240158D02*
X-103740D01*
X-104331Y239567D02*
Y240748D01*
X-114764Y240158D02*
X-113583D01*
X-114173Y239567D02*
Y240748D01*
X-4528Y3937D02*
X-3347D01*
X-3937Y3347D02*
Y4528D01*
X-4528Y13780D02*
X-3347D01*
X-3937Y13189D02*
Y14370D01*
X-4528Y33465D02*
X-3347D01*
X-3937Y32874D02*
Y34055D01*
X-4528Y43307D02*
X-3347D01*
X-3937Y42717D02*
Y43898D01*
X-4528Y53150D02*
X-3347D01*
X-3937Y52559D02*
Y53740D01*
X-4528Y62992D02*
X-3347D01*
X-3937Y62402D02*
Y63583D01*
X-4528Y72835D02*
X-3347D01*
X-3937Y72244D02*
Y73425D01*
X-4528Y82677D02*
X-3347D01*
X-3937Y82087D02*
Y83268D01*
X-4528Y92520D02*
X-3347D01*
X-3937Y91929D02*
Y93110D01*
X-4528Y102362D02*
X-3347D01*
X-3937Y101772D02*
Y102953D01*
X-4528Y112205D02*
X-3347D01*
X-3937Y111614D02*
Y112795D01*
X-4528Y122047D02*
X-3347D01*
X-3937Y121457D02*
Y122638D01*
X-4528Y131890D02*
X-3347D01*
X-3937Y131299D02*
Y132480D01*
X-4528Y141732D02*
X-3347D01*
X-3937Y141142D02*
Y142323D01*
X-4528Y151575D02*
X-3347D01*
X-3937Y150984D02*
Y152165D01*
X-4528Y161417D02*
X-3347D01*
X-3937Y160827D02*
Y162008D01*
X-4528Y171260D02*
X-3347D01*
X-3937Y170669D02*
Y171850D01*
X-4528Y181102D02*
X-3347D01*
X-3937Y180512D02*
Y181693D01*
X-4528Y190945D02*
X-3347D01*
X-3937Y190354D02*
Y191535D01*
X-4528Y200787D02*
X-3347D01*
X-3937Y200197D02*
Y201378D01*
X-4528Y210630D02*
X-3347D01*
X-3937Y210039D02*
Y211221D01*
X-4528Y220472D02*
X-3347D01*
X-3937Y219882D02*
Y221063D01*
X-4528Y240158D02*
X-3347D01*
X-3937Y239567D02*
Y240748D01*
X-124606Y240158D02*
X-123425D01*
X-124016Y239567D02*
Y240748D01*
X-124606Y220472D02*
X-123425D01*
X-124016Y219882D02*
Y221063D01*
X-124606Y210630D02*
X-123425D01*
X-124016Y210039D02*
Y211221D01*
X-124606Y200787D02*
X-123425D01*
X-124016Y200197D02*
Y201378D01*
X-124606Y190945D02*
X-123425D01*
X-124016Y190354D02*
Y191535D01*
X-124606Y181102D02*
X-123425D01*
X-124016Y180512D02*
Y181693D01*
X-124606Y171260D02*
X-123425D01*
X-124016Y170669D02*
Y171850D01*
X-124606Y161417D02*
X-123425D01*
X-124016Y160827D02*
Y162008D01*
X-124606Y151575D02*
X-123425D01*
X-124016Y150984D02*
Y152165D01*
X-124606Y141732D02*
X-123425D01*
X-124016Y141142D02*
Y142323D01*
X-124606Y131890D02*
X-123425D01*
X-124016Y131299D02*
Y132480D01*
X-124606Y122047D02*
X-123425D01*
X-124016Y121457D02*
Y122638D01*
X-124606Y112205D02*
X-123425D01*
X-124016Y111614D02*
Y112795D01*
X-124606Y102362D02*
X-123425D01*
X-124016Y101772D02*
Y102953D01*
X-124606Y92520D02*
X-123425D01*
X-124016Y91929D02*
Y93110D01*
X-124606Y82677D02*
X-123425D01*
X-124016Y82087D02*
Y83268D01*
X-124606Y72835D02*
X-123425D01*
X-124016Y72244D02*
Y73425D01*
X-124606Y62992D02*
X-123425D01*
X-124016Y62402D02*
Y63583D01*
X-124606Y53150D02*
X-123425D01*
X-124016Y52559D02*
Y53740D01*
X-124606Y43307D02*
X-123425D01*
X-124016Y42717D02*
Y43898D01*
X-124606Y33465D02*
X-123425D01*
X-124016Y32874D02*
Y34055D01*
X-124606Y3937D02*
X-123425D01*
X-124016Y3347D02*
Y4528D01*
M02*
