M48
;Layer_Color=9474304
;FILE_FORMAT=2:4
INCH,TZ
;TYPE=PLATED
T01F00S00C0.0118
T02F00S00C0.0120
T03F00S00C0.0315
T04F00S00C0.0354
T05F00S00C0.0394
T06F00S00C0.0402
T07F00S00C0.0551
T08F00S00C0.0591
;TYPE=NON_PLATED
T09F00S00C0.0402
%
T01
X-12402Y394
Y1378
X-11417Y394
X-10433
X-8465
Y1378
X-7480
X-6496
X-5512
X-4528
X-3543
Y2362
X-2559
X-1575
Y1378
Y394
X-394
Y1378
Y3346
Y4331
Y5315
Y6299
Y7283
Y8268
Y9252
Y10236
Y11220
Y12205
Y13189
Y14173
Y15157
X-1575
X-2598Y13268
X-3819Y14055
X-4882Y15118
X-6811Y14882
Y14213
Y13228
X-7244Y12441
X-7992Y11693
X-8465Y11220
X-8976Y10709
X-9646Y10157
X-10236Y10118
Y9606
X-12402Y9252
Y10236
Y11220
Y12205
Y13189
Y14173
Y15157
X-10630Y14528
X-8169Y14468
Y13976
Y13484
Y15551
X-6063Y13740
X-4134Y11811
X-3543Y11220
X-2953Y10630
Y9252
X-3937Y9646
X-4528Y10039
X-5118Y10630
X-6102Y9646
X-5512Y9055
X-4921Y8465
X-4331Y8071
Y7283
X-5118
X-5433Y7913
X-6496Y7874
Y7283
X-7480
Y6299
X-6496
X-8465
Y5315
X-7480
X-9449
Y4331
Y3346
Y2362
X-8465
X-7480
X-6496
X-5512
X-4528
Y394
X-3543
X-5512
X-6496
X-7480
X-2559Y3346
X-2756Y5315
X-3937
X-4134Y6299
X-2953
X-2756Y7283
X-3543
Y8071
X-2756
X-6693Y9055
X-7480Y8465
X-8071Y7874
X-8661Y7283
X-9449Y6496
X-10039Y5906
X-12402Y6299
Y7283
Y8268
Y5315
Y4331
Y3346
Y16142
Y17126
Y18110
Y19094
Y20079
Y21063
Y22047
X-11417Y23031
X-10433
Y24016
X-9449
X-8465
X-7480
X-6496
X-5906Y19685
X-6811Y18898
X-7795Y18228
X-8858Y19449
Y20354
X-10945Y19921
Y18976
X-11220Y17323
X-9488Y17520
X-9173Y17165
X-9882Y17992
X-10551Y15669
X-8169Y16043
X-6811Y16850
X-4626Y18799
X-4134Y19390
X-2953
X-1575Y19094
Y18110
Y17126
X-394
Y16142
Y18110
Y19094
Y20079
Y21063
Y22047
Y24016
X-2953Y21555
X-11417Y24016
X-12402
T02
X-4321Y23583
X-4016Y23386
X-3711Y23583
X-3558Y23976
Y24469
X-4016
X-4473
Y23976
X-2387
Y24469
X-1929
X-1471
Y23976
X-1624Y23583
X-1929Y23386
X-2234Y23583
T03
X-2953Y20276
Y22244
T04
X-11220Y21063
X-10236
X-9252
X-8268
X-7283
X-6299
T05
X-10880Y1802
Y2802
Y3802
Y4802
Y5802
Y6802
Y7802
Y8802
Y9802
Y10802
Y11802
Y12802
Y13802
X-1880
Y12802
Y11802
Y10802
Y9802
Y8802
Y7802
Y6802
Y5802
Y4802
Y3802
T06
X-4921Y16535
Y17717
X-3740
X-2559
Y16535
X-3740
T07
X-10970Y16517
Y18171
X-8804
Y16517
T08
X-4016Y23976
X-1929
T09
X-6102Y16165
X-1378
M30
