G04*
G04 #@! TF.GenerationSoftware,Altium Limited,Altium Designer,24.6.1 (21)*
G04*
G04 Layer_Color=2752767*
%FSLAX25Y25*%
%MOIN*%
G70*
G04*
G04 #@! TF.SameCoordinates,02BDBD07-9C05-4181-BE98-5AEDC2C123D6*
G04*
G04*
G04 #@! TF.FilePolarity,Positive*
G04*
G01*
G75*
%ADD46C,0.00500*%
%ADD48C,0.00667*%
D46*
X-21291Y237764D02*
X-20291Y239764D01*
X-21291Y241764D01*
X-19291Y240764D01*
X-17291Y241764D01*
X-18291Y239764D01*
X-17291Y237764D01*
X-19291Y238764D01*
X-21291Y237764D01*
X-42158D02*
X-41157Y239764D01*
X-42158Y241764D01*
X-40157Y240764D01*
X-38157Y241764D01*
X-39158Y239764D01*
X-38157Y237764D01*
X-40157Y238764D01*
X-42158Y237764D01*
X-31528Y220441D02*
Y224441D01*
X-27528D01*
Y220441D01*
X-31528D01*
Y200756D02*
Y204756D01*
X-27528D01*
Y200756D01*
X-31528D01*
X-109697Y163175D02*
X-108697Y164175D01*
X-107697D01*
X-108697Y165175D01*
X-107697Y166175D01*
X-108697D01*
X-109697Y167175D01*
X-110697Y166175D01*
X-111697D01*
X-110697Y165175D01*
X-111697Y164175D01*
X-110697D01*
X-109697Y163175D01*
Y179710D02*
X-108697Y180710D01*
X-107697D01*
X-108697Y181710D01*
X-107697Y182710D01*
X-108697D01*
X-109697Y183710D01*
X-110697Y182710D01*
X-111697D01*
X-110697Y181710D01*
X-111697Y180710D01*
X-110697D01*
X-109697Y179710D01*
X-88043Y163175D02*
X-87043Y164175D01*
X-86044D01*
X-87043Y165175D01*
X-86044Y166175D01*
X-87043D01*
X-88043Y167175D01*
X-89043Y166175D01*
X-90043D01*
X-89043Y165175D01*
X-90043Y164175D01*
X-89043D01*
X-88043Y163175D01*
Y179710D02*
X-87043Y180710D01*
X-86044D01*
X-87043Y181710D01*
X-86044Y182710D01*
X-87043D01*
X-88043Y183710D01*
X-89043Y182710D01*
X-90043D01*
X-89043Y181710D01*
X-90043Y180710D01*
X-89043D01*
X-88043Y179710D01*
X-51213Y175165D02*
X-50213D01*
X-49213Y176165D01*
X-48213Y175165D01*
X-47212D01*
Y176165D01*
X-48213Y177165D01*
X-47212Y178165D01*
Y179165D01*
X-48213D01*
X-49213Y178165D01*
X-50213Y179165D01*
X-51213D01*
Y178165D01*
X-50213Y177165D01*
X-51213Y176165D01*
Y175165D01*
X-39402D02*
X-38401D01*
X-37402Y176165D01*
X-36402Y175165D01*
X-35401D01*
Y176165D01*
X-36402Y177165D01*
X-35401Y178165D01*
Y179165D01*
X-36402D01*
X-37402Y178165D01*
X-38401Y179165D01*
X-39402D01*
Y178165D01*
X-38401Y177165D01*
X-39402Y176165D01*
Y175165D01*
X-27591D02*
X-26590D01*
X-25591Y176165D01*
X-24590Y175165D01*
X-23591D01*
Y176165D01*
X-24590Y177165D01*
X-23591Y178165D01*
Y179165D01*
X-24590D01*
X-25591Y178165D01*
X-26590Y179165D01*
X-27591D01*
Y178165D01*
X-26590Y177165D01*
X-27591Y176165D01*
Y175165D01*
X-51213Y163354D02*
X-50213D01*
X-49213Y164354D01*
X-48213Y163354D01*
X-47212D01*
Y164354D01*
X-48213Y165354D01*
X-47212Y166354D01*
Y167354D01*
X-48213D01*
X-49213Y166354D01*
X-50213Y167354D01*
X-51213D01*
Y166354D01*
X-50213Y165354D01*
X-51213Y164354D01*
Y163354D01*
X-39402D02*
X-38401D01*
X-37402Y164354D01*
X-36402Y163354D01*
X-35401D01*
Y164354D01*
X-36402Y165354D01*
X-35401Y166354D01*
Y167354D01*
X-36402D01*
X-37402Y166354D01*
X-38401Y167354D01*
X-39402D01*
Y166354D01*
X-38401Y165354D01*
X-39402Y164354D01*
Y163354D01*
X-27591D02*
X-26590D01*
X-25591Y164354D01*
X-24590Y163354D01*
X-23591D01*
Y164354D01*
X-24590Y165354D01*
X-23591Y166354D01*
Y167354D01*
X-24590D01*
X-25591Y166354D01*
X-26590Y167354D01*
X-27591D01*
Y166354D01*
X-26590Y165354D01*
X-27591Y164354D01*
Y163354D01*
X-62024Y160653D02*
Y159653D01*
X-60024D01*
Y160653D01*
X-59024D01*
Y162653D01*
X-60024D01*
Y163653D01*
X-62024D01*
Y162653D01*
X-63024D01*
Y160653D01*
X-62024D01*
X-14780D02*
Y159653D01*
X-12779D01*
Y160653D01*
X-11779D01*
Y162653D01*
X-12779D01*
Y163653D01*
X-14780D01*
Y162653D01*
X-15779D01*
Y160653D01*
X-14780D01*
X-112205Y208630D02*
X-114205Y212630D01*
X-110205D01*
X-112205Y208630D01*
X-102362D02*
X-104362Y212630D01*
X-100362D01*
X-102362Y208630D01*
X-92520D02*
X-94520Y212630D01*
X-90520D01*
X-92520Y208630D01*
X-82677D02*
X-84677Y212630D01*
X-80677D01*
X-82677Y208630D01*
X-72835D02*
X-74835Y212630D01*
X-70835D01*
X-72835Y208630D01*
X-62992D02*
X-64992Y212630D01*
X-60992D01*
X-62992Y208630D01*
X-21291Y242685D02*
Y246685D01*
X-17291D01*
Y242685D01*
X-21291D01*
X-20491Y243485D02*
Y245885D01*
X-18091D01*
Y243485D01*
X-20491D01*
X-16715Y237764D02*
Y241764D01*
X-12715D01*
Y237764D01*
X-16715D01*
X-15915Y238564D02*
Y240964D01*
X-13515D01*
Y238564D01*
X-15915D01*
X-25868Y237764D02*
Y241764D01*
X-21868D01*
Y237764D01*
X-25868D01*
X-25068Y238564D02*
Y240964D01*
X-22668D01*
Y238564D01*
X-25068D01*
X-24342Y233827D02*
Y237827D01*
X-20343D01*
Y233827D01*
X-24342D01*
X-23542Y234627D02*
Y237027D01*
X-21143D01*
Y234627D01*
X-23542D01*
X-18240Y233827D02*
Y237827D01*
X-14240D01*
Y233827D01*
X-18240D01*
X-17440Y234627D02*
Y237027D01*
X-15040D01*
Y234627D01*
X-17440D01*
X-21291Y231858D02*
Y235858D01*
X-17291D01*
Y231858D01*
X-21291D01*
X-20491Y232658D02*
Y235058D01*
X-18091D01*
Y232658D01*
X-20491D01*
X-16715Y242685D02*
Y246685D01*
X-12715D01*
Y242685D01*
X-16715D01*
X-15915Y243485D02*
Y245885D01*
X-13515D01*
Y243485D01*
X-15915D01*
X-25868Y242685D02*
Y246685D01*
X-21868D01*
Y242685D01*
X-25868D01*
X-25068Y243485D02*
Y245885D01*
X-22668D01*
Y243485D01*
X-25068D01*
X-42158Y242685D02*
Y246685D01*
X-38157D01*
Y242685D01*
X-42158D01*
X-41357Y243485D02*
Y245885D01*
X-38958D01*
Y243485D01*
X-41357D01*
X-37581Y237764D02*
Y241764D01*
X-33581D01*
Y237764D01*
X-37581D01*
X-36781Y238564D02*
Y240964D01*
X-34381D01*
Y238564D01*
X-36781D01*
X-46734Y237764D02*
Y241764D01*
X-42734D01*
Y237764D01*
X-46734D01*
X-45934Y238564D02*
Y240964D01*
X-43534D01*
Y238564D01*
X-45934D01*
X-45209Y233827D02*
Y237827D01*
X-41209D01*
Y233827D01*
X-45209D01*
X-44409Y234627D02*
Y237027D01*
X-42009D01*
Y234627D01*
X-44409D01*
X-39106Y233827D02*
Y237827D01*
X-35106D01*
Y233827D01*
X-39106D01*
X-38306Y234627D02*
Y237027D01*
X-35906D01*
Y234627D01*
X-38306D01*
X-42158Y231858D02*
Y235858D01*
X-38157D01*
Y231858D01*
X-42158D01*
X-41357Y232658D02*
Y235058D01*
X-38958D01*
Y232658D01*
X-41357D01*
X-37581Y242685D02*
Y246685D01*
X-33581D01*
Y242685D01*
X-37581D01*
X-36781Y243485D02*
Y245885D01*
X-34381D01*
Y243485D01*
X-36781D01*
X-46734Y242685D02*
Y246685D01*
X-42734D01*
Y242685D01*
X-46734D01*
X-45934Y243485D02*
Y245885D01*
X-43534D01*
Y243485D01*
X-45934D01*
X-126016Y13780D02*
X-124016Y15779D01*
X-122016Y13780D01*
X-124016Y11779D01*
X-126016Y13780D01*
X-17748Y151575D02*
X-15748Y153575D01*
X-13748Y151575D01*
X-15748Y149575D01*
X-17748Y151575D01*
X-108299Y145276D02*
X-106299Y147276D01*
X-104299Y145276D01*
X-106299Y143276D01*
X-108299Y145276D01*
X-17748Y23622D02*
X-15748Y25622D01*
X-13748Y23622D01*
X-15748Y21622D01*
X-17748Y23622D01*
Y13780D02*
X-15748Y15779D01*
X-13748Y13780D01*
X-15748Y11779D01*
X-17748Y13780D01*
X-111449Y199213D02*
X-109449Y201213D01*
X-107449Y199213D01*
X-109449Y197213D01*
X-111449Y199213D01*
X-90583Y194488D02*
X-88583Y196488D01*
X-86583Y194488D01*
X-88583Y192488D01*
X-90583Y194488D01*
Y203543D02*
X-88583Y205543D01*
X-86583Y203543D01*
X-88583Y201543D01*
X-90583Y203543D01*
X-50819Y151181D02*
X-48819Y153181D01*
X-46819Y151181D01*
X-48819Y149181D01*
X-50819Y151181D01*
X-62630Y137402D02*
X-60630Y139402D01*
X-58630Y137402D01*
X-60630Y135402D01*
X-62630Y137402D01*
X-40189Y140551D02*
X-38189Y142551D01*
X-36189Y140551D01*
X-38189Y138551D01*
X-40189Y140551D01*
X-27984Y132677D02*
X-25984Y134677D01*
X-23984Y132677D01*
X-25984Y130677D01*
X-27984Y132677D01*
X-17748Y190945D02*
X-15748Y192945D01*
X-13748Y190945D01*
X-15748Y188945D01*
X-17748Y190945D01*
X-106331Y230315D02*
X-104331Y232315D01*
X-102331Y230315D01*
X-104331Y228315D01*
X-106331Y230315D01*
X-116173D02*
X-114173Y232315D01*
X-112173Y230315D01*
X-114173Y228315D01*
X-116173Y230315D01*
X-17748Y181102D02*
X-15748Y183102D01*
X-13748Y181102D01*
X-15748Y179102D01*
X-17748Y181102D01*
Y171260D02*
X-15748Y173260D01*
X-13748Y171260D01*
X-15748Y169260D01*
X-17748Y171260D01*
X-43339Y118110D02*
X-41339Y120110D01*
X-39339Y118110D01*
X-41339Y116110D01*
X-43339Y118110D01*
X-37433Y112205D02*
X-35433Y114205D01*
X-33433Y112205D01*
X-35433Y110205D01*
X-37433Y112205D01*
X-31528Y106299D02*
X-29528Y108299D01*
X-27528Y106299D01*
X-29528Y104299D01*
X-31528Y106299D01*
Y92520D02*
X-29528Y94520D01*
X-27528Y92520D01*
X-29528Y90520D01*
X-31528Y92520D01*
X-41370Y96457D02*
X-39370Y98457D01*
X-37370Y96457D01*
X-39370Y94457D01*
X-41370Y96457D01*
X-47276Y100394D02*
X-45276Y102394D01*
X-43276Y100394D01*
X-45276Y98394D01*
X-47276Y100394D01*
X-53181Y106299D02*
X-51181Y108299D01*
X-49181Y106299D01*
X-51181Y104299D01*
X-53181Y106299D01*
X-41370Y53150D02*
X-39370Y55150D01*
X-37370Y53150D01*
X-39370Y51150D01*
X-41370Y53150D01*
X-29559D02*
X-27559Y55150D01*
X-25559Y53150D01*
X-27559Y51150D01*
X-29559Y53150D01*
X-43339Y62992D02*
X-41339Y64992D01*
X-39339Y62992D01*
X-41339Y60992D01*
X-43339Y62992D01*
X-31528D02*
X-29528Y64992D01*
X-27528Y62992D01*
X-29528Y60992D01*
X-31528Y62992D01*
X-56331Y79134D02*
X-54331Y81134D01*
X-52331Y79134D01*
X-54331Y77134D01*
X-56331Y79134D01*
X-66961Y78740D02*
X-64961Y80740D01*
X-62961Y78740D01*
X-64961Y76740D01*
X-66961Y78740D01*
X-76803Y72835D02*
X-74803Y74835D01*
X-72803Y72835D01*
X-74803Y70835D01*
X-76803Y72835D01*
X-66961D02*
X-64961Y74835D01*
X-62961Y72835D01*
X-64961Y70835D01*
X-66961Y72835D01*
Y62992D02*
X-64961Y64992D01*
X-62961Y62992D01*
X-64961Y60992D01*
X-66961Y62992D01*
X-86646D02*
X-84646Y64992D01*
X-82646Y62992D01*
X-84646Y60992D01*
X-86646Y62992D01*
X-76803D02*
X-74803Y64992D01*
X-72803Y62992D01*
X-74803Y60992D01*
X-76803Y62992D01*
Y53150D02*
X-74803Y55150D01*
X-72803Y53150D01*
X-74803Y51150D01*
X-76803Y53150D01*
X-86646D02*
X-84646Y55150D01*
X-82646Y53150D01*
X-84646Y51150D01*
X-86646Y53150D01*
X-96488D02*
X-94488Y55150D01*
X-92488Y53150D01*
X-94488Y51150D01*
X-96488Y53150D01*
Y43307D02*
X-94488Y45307D01*
X-92488Y43307D01*
X-94488Y41307D01*
X-96488Y43307D01*
Y33465D02*
X-94488Y35465D01*
X-92488Y33465D01*
X-94488Y31465D01*
X-96488Y33465D01*
Y23622D02*
X-94488Y25622D01*
X-92488Y23622D01*
X-94488Y21622D01*
X-96488Y23622D01*
X-27591Y33465D02*
X-25591Y35465D01*
X-23591Y33465D01*
X-25591Y31465D01*
X-27591Y33465D01*
Y23622D02*
X-25591Y25622D01*
X-23591Y23622D01*
X-25591Y21622D01*
X-27591Y23622D01*
X-37433D02*
X-35433Y25622D01*
X-33433Y23622D01*
X-35433Y21622D01*
X-37433Y23622D01*
Y13780D02*
X-35433Y15779D01*
X-33433Y13780D01*
X-35433Y11779D01*
X-37433Y13780D01*
X-47276Y23622D02*
X-45276Y25622D01*
X-43276Y23622D01*
X-45276Y21622D01*
X-47276Y23622D01*
Y13780D02*
X-45276Y15779D01*
X-43276Y13780D01*
X-45276Y11779D01*
X-47276Y13780D01*
X-57118Y23622D02*
X-55118Y25622D01*
X-53118Y23622D01*
X-55118Y21622D01*
X-57118Y23622D01*
Y13780D02*
X-55118Y15779D01*
X-53118Y13780D01*
X-55118Y11779D01*
X-57118Y13780D01*
X-66961Y23622D02*
X-64961Y25622D01*
X-62961Y23622D01*
X-64961Y21622D01*
X-66961Y23622D01*
Y13780D02*
X-64961Y15779D01*
X-62961Y13780D01*
X-64961Y11779D01*
X-66961Y13780D01*
X-76803Y23622D02*
X-74803Y25622D01*
X-72803Y23622D01*
X-74803Y21622D01*
X-76803Y23622D01*
Y13780D02*
X-74803Y15779D01*
X-72803Y13780D01*
X-74803Y11779D01*
X-76803Y13780D01*
X-86646Y23622D02*
X-84646Y25622D01*
X-82646Y23622D01*
X-84646Y21622D01*
X-86646Y23622D01*
Y13780D02*
X-84646Y15779D01*
X-82646Y13780D01*
X-84646Y11779D01*
X-86646Y13780D01*
X-104362Y96063D02*
X-102362Y98063D01*
X-100362Y96063D01*
X-102362Y94063D01*
X-104362Y96063D01*
Y101181D02*
X-102362Y103181D01*
X-100362Y101181D01*
X-102362Y99181D01*
X-104362Y101181D01*
X-98457Y101575D02*
X-96457Y103575D01*
X-94457Y101575D01*
X-96457Y99575D01*
X-98457Y101575D01*
X-91764Y107087D02*
X-89764Y109087D01*
X-87764Y107087D01*
X-89764Y105087D01*
X-91764Y107087D01*
X-86646Y112205D02*
X-84646Y114205D01*
X-82646Y112205D01*
X-84646Y110205D01*
X-86646Y112205D01*
X-81921Y116929D02*
X-79921Y118929D01*
X-77921Y116929D01*
X-79921Y114929D01*
X-81921Y116929D01*
X-74441Y124409D02*
X-72441Y126409D01*
X-70441Y124409D01*
X-72441Y122409D01*
X-74441Y124409D01*
X-70110Y132283D02*
X-68110Y134283D01*
X-66110Y132283D01*
X-68110Y130283D01*
X-70110Y132283D01*
Y142126D02*
X-68110Y144126D01*
X-66110Y142126D01*
X-68110Y140126D01*
X-70110Y142126D01*
Y148819D02*
X-68110Y150819D01*
X-66110Y148819D01*
X-68110Y146819D01*
X-70110Y148819D01*
Y168504D02*
X-68110Y170504D01*
X-66110Y168504D01*
X-68110Y166504D01*
X-70110Y168504D01*
X-93732Y171653D02*
X-91732Y173653D01*
X-89732Y171653D01*
X-91732Y169653D01*
X-93732Y171653D01*
X-96882Y175197D02*
X-94882Y177197D01*
X-92882Y175197D01*
X-94882Y173197D01*
X-96882Y175197D01*
X-100819Y179921D02*
X-98819Y181921D01*
X-96819Y179921D01*
X-98819Y177921D01*
X-100819Y179921D01*
X-111449Y189764D02*
X-109449Y191764D01*
X-107449Y189764D01*
X-109449Y187764D01*
X-111449Y189764D01*
X-114205Y173228D02*
X-112205Y175228D01*
X-110205Y173228D01*
X-112205Y171228D01*
X-114205Y173228D01*
X-107512Y156693D02*
X-105512Y158693D01*
X-103512Y156693D01*
X-105512Y154693D01*
X-107512Y156693D01*
X-83693Y155512D02*
X-81693Y157512D01*
X-79693Y155512D01*
X-81693Y153512D01*
X-83693Y155512D01*
Y139764D02*
X-81693Y141764D01*
X-79693Y139764D01*
X-81693Y137764D01*
X-83693Y139764D01*
X-53181Y72835D02*
X-51181Y74835D01*
X-49181Y72835D01*
X-51181Y70835D01*
X-53181Y72835D01*
X-45307D02*
X-43307Y74835D01*
X-41307Y72835D01*
X-43307Y70835D01*
X-45307Y72835D01*
X-37433D02*
X-35433Y74835D01*
X-33433Y72835D01*
X-35433Y70835D01*
X-37433Y72835D01*
X-29559D02*
X-27559Y74835D01*
X-25559Y72835D01*
X-27559Y70835D01*
X-29559Y72835D01*
Y80709D02*
X-27559Y82709D01*
X-25559Y80709D01*
X-27559Y78709D01*
X-29559Y80709D01*
X-37433D02*
X-35433Y82709D01*
X-33433Y80709D01*
X-35433Y78709D01*
X-37433Y80709D01*
X-45307D02*
X-43307Y82709D01*
X-41307Y80709D01*
X-43307Y78709D01*
X-45307Y80709D01*
X-51213Y84646D02*
X-49213Y86646D01*
X-47213Y84646D01*
X-49213Y82646D01*
X-51213Y84646D01*
X-57118Y90551D02*
X-55118Y92551D01*
X-53118Y90551D01*
X-55118Y88551D01*
X-57118Y90551D01*
X-63024Y96457D02*
X-61024Y98457D01*
X-59024Y96457D01*
X-61024Y94457D01*
X-63024Y96457D01*
X-68929Y90551D02*
X-66929Y92551D01*
X-64929Y90551D01*
X-66929Y88551D01*
X-68929Y90551D01*
X-76803Y84646D02*
X-74803Y86646D01*
X-72803Y84646D01*
X-74803Y82646D01*
X-76803Y84646D01*
X-82709Y78740D02*
X-80709Y80740D01*
X-78709Y78740D01*
X-80709Y76740D01*
X-82709Y78740D01*
X-88614Y72835D02*
X-86614Y74835D01*
X-84614Y72835D01*
X-86614Y70835D01*
X-88614Y72835D01*
X-96488Y64961D02*
X-94488Y66961D01*
X-92488Y64961D01*
X-94488Y62961D01*
X-96488Y64961D01*
X-102394Y59055D02*
X-100394Y61055D01*
X-98394Y59055D01*
X-100394Y57055D01*
X-102394Y59055D01*
X-31528Y215551D02*
X-29528Y217551D01*
X-27528Y215551D01*
X-29528Y213551D01*
X-31528Y215551D01*
Y193898D02*
X-29528Y195898D01*
X-27528Y193898D01*
X-29528Y191898D01*
X-31528Y193898D01*
X-48260Y187992D02*
X-46260Y189992D01*
X-44260Y187992D01*
X-46260Y185992D01*
X-48260Y187992D01*
X-43339Y193898D02*
X-41339Y195898D01*
X-39339Y193898D01*
X-41339Y191898D01*
X-43339Y193898D01*
X-83693Y134843D02*
X-81693Y136843D01*
X-79693Y134843D01*
X-81693Y132843D01*
X-83693Y134843D01*
Y144685D02*
X-81693Y146685D01*
X-79693Y144685D01*
X-81693Y142685D01*
X-83693Y144685D01*
Y160433D02*
X-81693Y162433D01*
X-79693Y160433D01*
X-81693Y158433D01*
X-83693Y160433D01*
X-79953Y182283D02*
X-77953Y184283D01*
X-75953Y182283D01*
X-77953Y180283D01*
X-79953Y182283D01*
X-61055Y196850D02*
X-59055Y198850D01*
X-57055Y196850D01*
X-59055Y194850D01*
X-61055Y196850D01*
X-70110Y188976D02*
X-68110Y190976D01*
X-66110Y188976D01*
X-68110Y186976D01*
X-70110Y188976D01*
X-17748Y3937D02*
X-15748Y5937D01*
X-13748Y3937D01*
X-15748Y1937D01*
X-17748Y3937D01*
X-37433D02*
X-35433Y5937D01*
X-33433Y3937D01*
X-35433Y1937D01*
X-37433Y3937D01*
X-47276D02*
X-45276Y5937D01*
X-43276Y3937D01*
X-45276Y1937D01*
X-47276Y3937D01*
X-57118D02*
X-55118Y5937D01*
X-53118Y3937D01*
X-55118Y1937D01*
X-57118Y3937D01*
X-66961D02*
X-64961Y5937D01*
X-62961Y3937D01*
X-64961Y1937D01*
X-66961Y3937D01*
X-76803D02*
X-74803Y5937D01*
X-72803Y3937D01*
X-74803Y1937D01*
X-76803Y3937D01*
X-86646D02*
X-84646Y5937D01*
X-82646Y3937D01*
X-84646Y1937D01*
X-86646Y3937D01*
X-106331D02*
X-104331Y5937D01*
X-102331Y3937D01*
X-104331Y1937D01*
X-106331Y3937D01*
X-116173D02*
X-114173Y5937D01*
X-112173Y3937D01*
X-114173Y1937D01*
X-116173Y3937D01*
X-66961Y240158D02*
X-64961Y242158D01*
X-62961Y240158D01*
X-64961Y238158D01*
X-66961Y240158D01*
X-76803D02*
X-74803Y242158D01*
X-72803Y240158D01*
X-74803Y238158D01*
X-76803Y240158D01*
X-86646D02*
X-84646Y242158D01*
X-82646Y240158D01*
X-84646Y238158D01*
X-86646Y240158D01*
X-96488D02*
X-94488Y242158D01*
X-92488Y240158D01*
X-94488Y238158D01*
X-96488Y240158D01*
X-106331D02*
X-104331Y242158D01*
X-102331Y240158D01*
X-104331Y238158D01*
X-106331Y240158D01*
X-116173D02*
X-114173Y242158D01*
X-112173Y240158D01*
X-114173Y238158D01*
X-116173Y240158D01*
X-5937Y3937D02*
X-3937Y5937D01*
X-1937Y3937D01*
X-3937Y1937D01*
X-5937Y3937D01*
Y13780D02*
X-3937Y15779D01*
X-1937Y13780D01*
X-3937Y11779D01*
X-5937Y13780D01*
Y33465D02*
X-3937Y35465D01*
X-1937Y33465D01*
X-3937Y31465D01*
X-5937Y33465D01*
Y43307D02*
X-3937Y45307D01*
X-1937Y43307D01*
X-3937Y41307D01*
X-5937Y43307D01*
Y53150D02*
X-3937Y55150D01*
X-1937Y53150D01*
X-3937Y51150D01*
X-5937Y53150D01*
Y62992D02*
X-3937Y64992D01*
X-1937Y62992D01*
X-3937Y60992D01*
X-5937Y62992D01*
Y72835D02*
X-3937Y74835D01*
X-1937Y72835D01*
X-3937Y70835D01*
X-5937Y72835D01*
Y82677D02*
X-3937Y84677D01*
X-1937Y82677D01*
X-3937Y80677D01*
X-5937Y82677D01*
Y92520D02*
X-3937Y94520D01*
X-1937Y92520D01*
X-3937Y90520D01*
X-5937Y92520D01*
Y102362D02*
X-3937Y104362D01*
X-1937Y102362D01*
X-3937Y100362D01*
X-5937Y102362D01*
Y112205D02*
X-3937Y114205D01*
X-1937Y112205D01*
X-3937Y110205D01*
X-5937Y112205D01*
Y122047D02*
X-3937Y124047D01*
X-1937Y122047D01*
X-3937Y120047D01*
X-5937Y122047D01*
Y131890D02*
X-3937Y133890D01*
X-1937Y131890D01*
X-3937Y129890D01*
X-5937Y131890D01*
Y141732D02*
X-3937Y143732D01*
X-1937Y141732D01*
X-3937Y139732D01*
X-5937Y141732D01*
Y151575D02*
X-3937Y153575D01*
X-1937Y151575D01*
X-3937Y149575D01*
X-5937Y151575D01*
Y161417D02*
X-3937Y163417D01*
X-1937Y161417D01*
X-3937Y159417D01*
X-5937Y161417D01*
Y171260D02*
X-3937Y173260D01*
X-1937Y171260D01*
X-3937Y169260D01*
X-5937Y171260D01*
Y181102D02*
X-3937Y183102D01*
X-1937Y181102D01*
X-3937Y179102D01*
X-5937Y181102D01*
Y190945D02*
X-3937Y192945D01*
X-1937Y190945D01*
X-3937Y188945D01*
X-5937Y190945D01*
Y200787D02*
X-3937Y202787D01*
X-1937Y200787D01*
X-3937Y198787D01*
X-5937Y200787D01*
Y210630D02*
X-3937Y212630D01*
X-1937Y210630D01*
X-3937Y208630D01*
X-5937Y210630D01*
Y220472D02*
X-3937Y222472D01*
X-1937Y220472D01*
X-3937Y218472D01*
X-5937Y220472D01*
Y240158D02*
X-3937Y242158D01*
X-1937Y240158D01*
X-3937Y238158D01*
X-5937Y240158D01*
X-126016D02*
X-124016Y242158D01*
X-122016Y240158D01*
X-124016Y238158D01*
X-126016Y240158D01*
Y220472D02*
X-124016Y222472D01*
X-122016Y220472D01*
X-124016Y218472D01*
X-126016Y220472D01*
Y210630D02*
X-124016Y212630D01*
X-122016Y210630D01*
X-124016Y208630D01*
X-126016Y210630D01*
Y200787D02*
X-124016Y202787D01*
X-122016Y200787D01*
X-124016Y198787D01*
X-126016Y200787D01*
Y190945D02*
X-124016Y192945D01*
X-122016Y190945D01*
X-124016Y188945D01*
X-126016Y190945D01*
Y181102D02*
X-124016Y183102D01*
X-122016Y181102D01*
X-124016Y179102D01*
X-126016Y181102D01*
Y171260D02*
X-124016Y173260D01*
X-122016Y171260D01*
X-124016Y169260D01*
X-126016Y171260D01*
Y161417D02*
X-124016Y163417D01*
X-122016Y161417D01*
X-124016Y159417D01*
X-126016Y161417D01*
Y151575D02*
X-124016Y153575D01*
X-122016Y151575D01*
X-124016Y149575D01*
X-126016Y151575D01*
Y141732D02*
X-124016Y143732D01*
X-122016Y141732D01*
X-124016Y139732D01*
X-126016Y141732D01*
Y131890D02*
X-124016Y133890D01*
X-122016Y131890D01*
X-124016Y129890D01*
X-126016Y131890D01*
Y122047D02*
X-124016Y124047D01*
X-122016Y122047D01*
X-124016Y120047D01*
X-126016Y122047D01*
Y112205D02*
X-124016Y114205D01*
X-122016Y112205D01*
X-124016Y110205D01*
X-126016Y112205D01*
Y102362D02*
X-124016Y104362D01*
X-122016Y102362D01*
X-124016Y100362D01*
X-126016Y102362D01*
Y92520D02*
X-124016Y94520D01*
X-122016Y92520D01*
X-124016Y90520D01*
X-126016Y92520D01*
Y82677D02*
X-124016Y84677D01*
X-122016Y82677D01*
X-124016Y80677D01*
X-126016Y82677D01*
Y72835D02*
X-124016Y74835D01*
X-122016Y72835D01*
X-124016Y70835D01*
X-126016Y72835D01*
Y62992D02*
X-124016Y64992D01*
X-122016Y62992D01*
X-124016Y60992D01*
X-126016Y62992D01*
Y53150D02*
X-124016Y55150D01*
X-122016Y53150D01*
X-124016Y51150D01*
X-126016Y53150D01*
Y43307D02*
X-124016Y45307D01*
X-122016Y43307D01*
X-124016Y41307D01*
X-126016Y43307D01*
Y33465D02*
X-124016Y35465D01*
X-122016Y33465D01*
X-124016Y31465D01*
X-126016Y33465D01*
Y3937D02*
X-124016Y5937D01*
X-122016Y3937D01*
X-124016Y1937D01*
X-126016Y3937D01*
D48*
X-106798Y18024D02*
G03*
X-106798Y18024I-2000J0D01*
G01*
Y28024D02*
G03*
X-106798Y28024I-2000J0D01*
G01*
Y38024D02*
G03*
X-106798Y38024I-2000J0D01*
G01*
Y48024D02*
G03*
X-106798Y48024I-2000J0D01*
G01*
Y58024D02*
G03*
X-106798Y58024I-2000J0D01*
G01*
Y68024D02*
G03*
X-106798Y68024I-2000J0D01*
G01*
Y78024D02*
G03*
X-106798Y78024I-2000J0D01*
G01*
Y98024D02*
G03*
X-106798Y98024I-2000J0D01*
G01*
Y108024D02*
G03*
X-106798Y108024I-2000J0D01*
G01*
Y118024D02*
G03*
X-106798Y118024I-2000J0D01*
G01*
Y128024D02*
G03*
X-106798Y128024I-2000J0D01*
G01*
X-16798Y138024D02*
G03*
X-16798Y138024I-2000J0D01*
G01*
X-106798D02*
G03*
X-106798Y138024I-2000J0D01*
G01*
X-16798Y118024D02*
G03*
X-16798Y118024I-2000J0D01*
G01*
Y108024D02*
G03*
X-16798Y108024I-2000J0D01*
G01*
Y98024D02*
G03*
X-16798Y98024I-2000J0D01*
G01*
Y88024D02*
G03*
X-16798Y88024I-2000J0D01*
G01*
Y78024D02*
G03*
X-16798Y78024I-2000J0D01*
G01*
Y68024D02*
G03*
X-16798Y68024I-2000J0D01*
G01*
Y58024D02*
G03*
X-16798Y58024I-2000J0D01*
G01*
Y48024D02*
G03*
X-16798Y48024I-2000J0D01*
G01*
Y38024D02*
G03*
X-16798Y38024I-2000J0D01*
G01*
X-106798Y88024D02*
G03*
X-106798Y88024I-2000J0D01*
G01*
X-16798Y128024D02*
G03*
X-16798Y128024I-2000J0D01*
G01*
M02*
