G04*
G04 #@! TF.GenerationSoftware,Altium Limited,Altium Designer,24.6.1 (21)*
G04*
G04 Layer_Color=16711935*
%FSLAX25Y25*%
%MOIN*%
G70*
G04*
G04 #@! TF.SameCoordinates,02BDBD07-9C05-4181-BE98-5AEDC2C123D6*
G04*
G04*
G04 #@! TF.FilePolarity,Negative*
G04*
G01*
G75*
%ADD13C,0.07587*%
%ADD14R,0.07587X0.07587*%
%ADD15C,0.05618*%
%ADD16R,0.05618X0.05618*%
%ADD17R,0.08465X0.08465*%
%ADD18C,0.08465*%
%ADD19R,0.06181X0.06181*%
%ADD20C,0.06181*%
%ADD21C,0.04016*%
%ADD22C,0.05512*%
%ADD23R,0.05512X0.05512*%
%ADD24C,0.02500*%
G04:AMPARAMS|DCode=36|XSize=70.87mil|YSize=153.54mil|CornerRadius=3.54mil|HoleSize=0mil|Usage=FLASHONLY|Rotation=180.000|XOffset=0mil|YOffset=0mil|HoleType=Round|Shape=RoundedRectangle|*
%AMROUNDEDRECTD36*
21,1,0.07087,0.14646,0,0,180.0*
21,1,0.06378,0.15354,0,0,180.0*
1,1,0.00709,-0.03189,0.07323*
1,1,0.00709,0.03189,0.07323*
1,1,0.00709,0.03189,-0.07323*
1,1,0.00709,-0.03189,-0.07323*
%
%ADD36ROUNDEDRECTD36*%
G04:AMPARAMS|DCode=37|XSize=51.18mil|YSize=177.17mil|CornerRadius=2.56mil|HoleSize=0mil|Usage=FLASHONLY|Rotation=180.000|XOffset=0mil|YOffset=0mil|HoleType=Round|Shape=RoundedRectangle|*
%AMROUNDEDRECTD37*
21,1,0.05118,0.17205,0,0,180.0*
21,1,0.04606,0.17717,0,0,180.0*
1,1,0.00512,-0.02303,0.08602*
1,1,0.00512,0.02303,0.08602*
1,1,0.00512,0.02303,-0.08602*
1,1,0.00512,-0.02303,-0.08602*
%
%ADD37ROUNDEDRECTD37*%
G04:AMPARAMS|DCode=38|XSize=85.04mil|YSize=88.98mil|CornerRadius=4.25mil|HoleSize=0mil|Usage=FLASHONLY|Rotation=90.000|XOffset=0mil|YOffset=0mil|HoleType=Round|Shape=RoundedRectangle|*
%AMROUNDEDRECTD38*
21,1,0.08504,0.08047,0,0,90.0*
21,1,0.07653,0.08898,0,0,90.0*
1,1,0.00850,0.04024,0.03827*
1,1,0.00850,0.04024,-0.03827*
1,1,0.00850,-0.04024,-0.03827*
1,1,0.00850,-0.04024,0.03827*
%
%ADD38ROUNDEDRECTD38*%
G04:AMPARAMS|DCode=41|XSize=94.49mil|YSize=118.11mil|CornerRadius=4.72mil|HoleSize=0mil|Usage=FLASHONLY|Rotation=270.000|XOffset=0mil|YOffset=0mil|HoleType=Round|Shape=RoundedRectangle|*
%AMROUNDEDRECTD41*
21,1,0.09449,0.10866,0,0,270.0*
21,1,0.08504,0.11811,0,0,270.0*
1,1,0.00945,-0.05433,-0.04252*
1,1,0.00945,-0.05433,0.04252*
1,1,0.00945,0.05433,0.04252*
1,1,0.00945,0.05433,-0.04252*
%
%ADD41ROUNDEDRECTD41*%
G04:AMPARAMS|DCode=42|XSize=27.17mil|YSize=29.13mil|CornerRadius=3.84mil|HoleSize=0mil|Usage=FLASHONLY|Rotation=270.000|XOffset=0mil|YOffset=0mil|HoleType=Round|Shape=RoundedRectangle|*
%AMROUNDEDRECTD42*
21,1,0.02717,0.02146,0,0,270.0*
21,1,0.01949,0.02913,0,0,270.0*
1,1,0.00768,-0.01073,-0.00974*
1,1,0.00768,-0.01073,0.00974*
1,1,0.00768,0.01073,0.00974*
1,1,0.00768,0.01073,-0.00974*
%
%ADD42ROUNDEDRECTD42*%
G04:AMPARAMS|DCode=43|XSize=32.56mil|YSize=28.62mil|CornerRadius=3.68mil|HoleSize=0mil|Usage=FLASHONLY|Rotation=270.000|XOffset=0mil|YOffset=0mil|HoleType=Round|Shape=RoundedRectangle|*
%AMROUNDEDRECTD43*
21,1,0.03256,0.02126,0,0,270.0*
21,1,0.02520,0.02862,0,0,270.0*
1,1,0.00736,-0.01063,-0.01260*
1,1,0.00736,-0.01063,0.01260*
1,1,0.00736,0.01063,0.01260*
1,1,0.00736,0.01063,-0.01260*
%
%ADD43ROUNDEDRECTD43*%
G36*
X-13189Y246904D02*
X-13150Y246901D01*
X-13112Y246892D01*
X-13075Y246877D01*
X-13042Y246856D01*
X-13012Y246831D01*
X-12986Y246801D01*
X-12966Y246767D01*
X-12950Y246731D01*
X-12941Y246693D01*
X-12938Y246654D01*
Y234941D01*
X-12941Y234902D01*
X-12950Y234863D01*
X-12966Y234827D01*
X-12986Y234793D01*
X-13012Y234764D01*
X-16063Y231712D01*
X-16093Y231687D01*
X-16126Y231666D01*
X-16163Y231651D01*
X-16201Y231642D01*
X-16240Y231639D01*
X-22343D01*
X-22382Y231642D01*
X-22420Y231651D01*
X-22456Y231666D01*
X-22490Y231687D01*
X-22520Y231712D01*
X-25571Y234764D01*
X-25597Y234793D01*
X-25617Y234827D01*
X-25632Y234863D01*
X-25641Y234902D01*
X-25644Y234941D01*
Y246654D01*
X-25641Y246693D01*
X-25632Y246731D01*
X-25617Y246767D01*
X-25597Y246801D01*
X-25571Y246831D01*
X-25541Y246856D01*
X-25508Y246877D01*
X-25471Y246892D01*
X-25433Y246901D01*
X-25394Y246904D01*
X-13189Y246904D01*
D02*
G37*
G36*
X-34016Y246901D02*
X-33978Y246892D01*
X-33941Y246877D01*
X-33908Y246856D01*
X-33878Y246831D01*
X-33852Y246801D01*
X-33832Y246767D01*
X-33817Y246731D01*
X-33807Y246693D01*
X-33804Y246654D01*
Y234941D01*
X-33807Y234902D01*
X-33817Y234863D01*
X-33832Y234827D01*
X-33852Y234793D01*
X-33878Y234764D01*
X-36929Y231712D01*
X-36959Y231687D01*
X-36992Y231666D01*
X-37029Y231651D01*
X-37067Y231642D01*
X-37106Y231639D01*
X-43209D01*
X-43248Y231642D01*
X-43286Y231651D01*
X-43323Y231666D01*
X-43356Y231687D01*
X-43386Y231712D01*
X-46437Y234764D01*
X-46463Y234793D01*
X-46483Y234827D01*
X-46498Y234863D01*
X-46507Y234902D01*
X-46511Y234941D01*
Y246654D01*
X-46507Y246693D01*
X-46498Y246731D01*
X-46483Y246767D01*
X-46463Y246801D01*
X-46437Y246831D01*
X-46407Y246856D01*
X-46374Y246877D01*
X-46337Y246892D01*
X-46299Y246901D01*
X-46260Y246904D01*
X-34055Y246904D01*
X-34016Y246901D01*
D02*
G37*
D13*
X-108798Y18024D02*
D03*
Y28024D02*
D03*
Y38024D02*
D03*
Y48024D02*
D03*
Y58024D02*
D03*
Y68024D02*
D03*
Y78024D02*
D03*
Y98024D02*
D03*
Y108024D02*
D03*
Y118024D02*
D03*
Y128024D02*
D03*
X-18798Y138024D02*
D03*
Y118024D02*
D03*
Y108024D02*
D03*
Y98024D02*
D03*
Y88024D02*
D03*
Y78024D02*
D03*
Y68024D02*
D03*
Y58024D02*
D03*
Y48024D02*
D03*
Y38024D02*
D03*
X-108798Y88024D02*
D03*
X-18798Y128024D02*
D03*
D14*
X-108798Y138024D02*
D03*
D15*
X-29528Y222441D02*
D03*
D16*
Y202756D02*
D03*
D17*
X-109697Y165175D02*
D03*
D18*
Y181710D02*
D03*
X-88043Y165175D02*
D03*
Y181710D02*
D03*
D19*
X-49213Y177165D02*
D03*
D20*
X-37402D02*
D03*
X-25591D02*
D03*
X-49213Y165354D02*
D03*
X-37402D02*
D03*
X-25591D02*
D03*
D21*
X-61024Y161653D02*
D03*
X-13780D02*
D03*
D22*
X-112205Y210630D02*
D03*
X-102362D02*
D03*
X-92520D02*
D03*
X-82677D02*
D03*
X-72835D02*
D03*
D23*
X-62992D02*
D03*
D24*
X-19291Y244685D02*
D03*
X-14715Y239764D02*
D03*
X-23868D02*
D03*
X-22343Y235827D02*
D03*
X-16240D02*
D03*
X-19291Y233858D02*
D03*
X-14715Y244685D02*
D03*
X-23868D02*
D03*
X-40157D02*
D03*
X-35581Y239764D02*
D03*
X-44734D02*
D03*
X-43209Y235827D02*
D03*
X-37106D02*
D03*
X-40157Y233858D02*
D03*
X-35581Y244685D02*
D03*
X-44734D02*
D03*
D36*
X-23819Y9252D02*
D03*
X-98228D02*
D03*
D37*
X-36417Y36024D02*
D03*
X-46260D02*
D03*
X-56102D02*
D03*
X-65945D02*
D03*
X-75787D02*
D03*
X-85630D02*
D03*
D38*
X-15748Y224213D02*
D03*
Y204921D02*
D03*
D41*
X-47244Y203031D02*
D03*
Y222165D02*
D03*
D42*
X-102362Y218799D02*
D03*
Y222146D02*
D03*
X-112205Y218799D02*
D03*
Y222146D02*
D03*
D43*
X-68504Y219094D02*
D03*
X-64764Y226969D02*
D03*
X-72244D02*
D03*
X-87599Y219183D02*
D03*
X-83858Y227057D02*
D03*
X-91339D02*
D03*
M02*
