G04*
G04 #@! TF.GenerationSoftware,Altium Limited,Altium Designer,24.6.1 (21)*
G04*
G04 Layer_Color=255*
%FSLAX25Y25*%
%MOIN*%
G70*
G04*
G04 #@! TF.SameCoordinates,02BDBD07-9C05-4181-BE98-5AEDC2C123D6*
G04*
G04*
G04 #@! TF.FilePolarity,Positive*
G04*
G01*
G75*
%ADD17R,0.08465X0.08465*%
%ADD18C,0.08465*%
%ADD19R,0.06181X0.06181*%
%ADD20C,0.06181*%
%ADD21C,0.04016*%
%ADD22C,0.05512*%
%ADD23R,0.05512X0.05512*%
%AMCUSTOMSHAPE28*
4,1,6,-0.06102,-0.04823,-0.03051,-0.07874,0.03051,-0.07874,0.06102,-0.04823,0.06102,0.06890,-0.06102,0.06890,-0.06102,-0.04823,0.0*%
%ADD28CUSTOMSHAPE28*%

%AMCUSTOMSHAPE29*
4,1,6,-0.06102,-0.04823,-0.03051,-0.07874,0.03051,-0.07874,0.06102,-0.04823,0.06102,0.06890,-0.06102,0.06890,-0.06102,-0.04823,0.0*%
%ADD29CUSTOMSHAPE29*%

%ADD30C,0.07087*%
%ADD31R,0.07087X0.07087*%
%ADD32C,0.05118*%
%ADD33R,0.05118X0.05118*%
D17*
X-109697Y165175D02*
D03*
D18*
Y181710D02*
D03*
X-88043Y165175D02*
D03*
Y181710D02*
D03*
D19*
X-49213Y177165D02*
D03*
D20*
X-37402D02*
D03*
X-25591D02*
D03*
X-49213Y165354D02*
D03*
X-37402D02*
D03*
X-25591D02*
D03*
D21*
X-61024Y161653D02*
D03*
X-13780D02*
D03*
D22*
X-112205Y210630D02*
D03*
X-102362D02*
D03*
X-92520D02*
D03*
X-82677D02*
D03*
X-72835D02*
D03*
D23*
X-62992D02*
D03*
D28*
X-19291Y239764D02*
D03*
D29*
X-40157D02*
D03*
D30*
X-108798Y18024D02*
D03*
Y28024D02*
D03*
Y38024D02*
D03*
Y48024D02*
D03*
Y58024D02*
D03*
Y68024D02*
D03*
Y78024D02*
D03*
Y98024D02*
D03*
Y108024D02*
D03*
Y118024D02*
D03*
Y128024D02*
D03*
X-18798Y138024D02*
D03*
Y118024D02*
D03*
Y108024D02*
D03*
Y98024D02*
D03*
Y88024D02*
D03*
Y78024D02*
D03*
Y68024D02*
D03*
Y58024D02*
D03*
Y48024D02*
D03*
Y38024D02*
D03*
X-108798Y88024D02*
D03*
X-18798Y128024D02*
D03*
D31*
X-108798Y138024D02*
D03*
D32*
X-29528Y222441D02*
D03*
D33*
Y202756D02*
D03*
M02*
