G04*
G04 #@! TF.GenerationSoftware,Altium Limited,Altium Designer,24.6.1 (21)*
G04*
G04 Layer_Physical_Order=3*
G04 Layer_Color=16440176*
%FSLAX25Y25*%
%MOIN*%
G70*
G04*
G04 #@! TF.SameCoordinates,02BDBD07-9C05-4181-BE98-5AEDC2C123D6*
G04*
G04*
G04 #@! TF.FilePolarity,Positive*
G04*
G01*
G75*
%ADD17R,0.08465X0.08465*%
%ADD18C,0.08465*%
%ADD19R,0.06181X0.06181*%
%ADD20C,0.06181*%
%ADD21C,0.04016*%
%ADD22C,0.05512*%
%ADD23R,0.05512X0.05512*%
%AMCUSTOMSHAPE28*
4,1,6,-0.06102,-0.04823,-0.03051,-0.07874,0.03051,-0.07874,0.06102,-0.04823,0.06102,0.06890,-0.06102,0.06890,-0.06102,-0.04823,0.0*%
%ADD28CUSTOMSHAPE28*%

%AMCUSTOMSHAPE29*
4,1,6,-0.06102,-0.04823,-0.03051,-0.07874,0.03051,-0.07874,0.06102,-0.04823,0.06102,0.06890,-0.06102,0.06890,-0.06102,-0.04823,0.0*%
%ADD29CUSTOMSHAPE29*%

%ADD30C,0.07087*%
%ADD31R,0.07087X0.07087*%
%ADD32C,0.05118*%
%ADD33R,0.05118X0.05118*%
%ADD34C,0.02000*%
%ADD35C,0.02047*%
G36*
X-1529Y239134D02*
X-4621Y237588D01*
X-4815Y237438D01*
X-5018Y237302D01*
X-5049Y237256D01*
X-5092Y237223D01*
X-5214Y237010D01*
X-5350Y236806D01*
X-5361Y236752D01*
X-5388Y236704D01*
X-5418Y236461D01*
X-5466Y236220D01*
Y224410D01*
X-5418Y224169D01*
X-5388Y223926D01*
X-5361Y223878D01*
X-5350Y223824D01*
X-5214Y223620D01*
X-5092Y223407D01*
X-5049Y223374D01*
X-5018Y223328D01*
X-4815Y223192D01*
X-4621Y223042D01*
X-1529Y221496D01*
Y32441D01*
X-4621Y30896D01*
X-4815Y30745D01*
X-5018Y30609D01*
X-5049Y30563D01*
X-5092Y30530D01*
X-5214Y30317D01*
X-5350Y30113D01*
X-5361Y30059D01*
X-5388Y30011D01*
X-5418Y29768D01*
X-5466Y29528D01*
Y17717D01*
X-5418Y17476D01*
X-5388Y17233D01*
X-5361Y17185D01*
X-5350Y17131D01*
X-5214Y16927D01*
X-5092Y16714D01*
X-5049Y16681D01*
X-5018Y16635D01*
X-4815Y16499D01*
X-4621Y16349D01*
X-1529Y14803D01*
Y1529D01*
X-126423D01*
Y14803D01*
X-123332Y16349D01*
X-123138Y16499D01*
X-122934Y16635D01*
X-122904Y16681D01*
X-122860Y16714D01*
X-122739Y16927D01*
X-122603Y17131D01*
X-122592Y17185D01*
X-122565Y17233D01*
X-122534Y17476D01*
X-122486Y17717D01*
Y29528D01*
X-122534Y29768D01*
X-122565Y30011D01*
X-122592Y30059D01*
X-122603Y30113D01*
X-122739Y30317D01*
X-122860Y30530D01*
X-122904Y30563D01*
X-122934Y30609D01*
X-123138Y30745D01*
X-123332Y30896D01*
X-126423Y32441D01*
Y221496D01*
X-123332Y223042D01*
X-123138Y223192D01*
X-122934Y223328D01*
X-122904Y223374D01*
X-122860Y223407D01*
X-122739Y223620D01*
X-122603Y223824D01*
X-122592Y223878D01*
X-122565Y223926D01*
X-122534Y224169D01*
X-122486Y224410D01*
Y236220D01*
X-122534Y236461D01*
X-122565Y236704D01*
X-122592Y236752D01*
X-122603Y236806D01*
X-122739Y237010D01*
X-122860Y237223D01*
X-122904Y237256D01*
X-122934Y237302D01*
X-123138Y237438D01*
X-123332Y237588D01*
X-126423Y239134D01*
Y246502D01*
X-47279D01*
Y234941D01*
X-47202Y234551D01*
X-46981Y234220D01*
X-43930Y231169D01*
X-43599Y230948D01*
X-43209Y230870D01*
X-37106D01*
X-36716Y230948D01*
X-36385Y231169D01*
X-33334Y234220D01*
X-33113Y234551D01*
X-33035Y234941D01*
Y246502D01*
X-1529D01*
Y239134D01*
D02*
G37*
%LPC*%
G36*
X-59236Y214386D02*
X-66748D01*
Y206874D01*
X-59236D01*
Y214386D01*
D02*
G37*
G36*
X-72340D02*
X-73329D01*
X-74284Y214130D01*
X-75141Y213635D01*
X-75840Y212936D01*
X-76335Y212080D01*
X-76591Y211124D01*
Y210135D01*
X-76335Y209180D01*
X-75840Y208324D01*
X-75141Y207624D01*
X-74284Y207130D01*
X-73329Y206874D01*
X-72340D01*
X-71385Y207130D01*
X-70529Y207624D01*
X-69829Y208324D01*
X-69335Y209180D01*
X-69079Y210135D01*
Y211124D01*
X-69335Y212080D01*
X-69829Y212936D01*
X-70529Y213635D01*
X-71385Y214130D01*
X-72340Y214386D01*
D02*
G37*
G36*
X-82183D02*
X-83172D01*
X-84127Y214130D01*
X-84983Y213635D01*
X-85683Y212936D01*
X-86177Y212080D01*
X-86433Y211124D01*
Y210135D01*
X-86177Y209180D01*
X-85683Y208324D01*
X-84983Y207624D01*
X-84127Y207130D01*
X-83172Y206874D01*
X-82183D01*
X-81227Y207130D01*
X-80371Y207624D01*
X-79672Y208324D01*
X-79177Y209180D01*
X-78921Y210135D01*
Y211124D01*
X-79177Y212080D01*
X-79672Y212936D01*
X-80371Y213635D01*
X-81227Y214130D01*
X-82183Y214386D01*
D02*
G37*
G36*
X-92025D02*
X-93014D01*
X-93969Y214130D01*
X-94826Y213635D01*
X-95525Y212936D01*
X-96020Y212080D01*
X-96276Y211124D01*
Y210135D01*
X-96020Y209180D01*
X-95525Y208324D01*
X-94826Y207624D01*
X-93969Y207130D01*
X-93014Y206874D01*
X-92025D01*
X-91070Y207130D01*
X-90214Y207624D01*
X-89514Y208324D01*
X-89020Y209180D01*
X-88764Y210135D01*
Y211124D01*
X-89020Y212080D01*
X-89514Y212936D01*
X-90214Y213635D01*
X-91070Y214130D01*
X-92025Y214386D01*
D02*
G37*
G36*
X-101868D02*
X-102857D01*
X-103812Y214130D01*
X-104668Y213635D01*
X-105368Y212936D01*
X-105862Y212080D01*
X-106118Y211124D01*
Y210135D01*
X-105862Y209180D01*
X-105368Y208324D01*
X-104668Y207624D01*
X-103812Y207130D01*
X-102857Y206874D01*
X-101868D01*
X-100912Y207130D01*
X-100056Y207624D01*
X-99357Y208324D01*
X-98862Y209180D01*
X-98606Y210135D01*
Y211124D01*
X-98862Y212080D01*
X-99357Y212936D01*
X-100056Y213635D01*
X-100912Y214130D01*
X-101868Y214386D01*
D02*
G37*
G36*
X-111710D02*
X-112699D01*
X-113654Y214130D01*
X-114511Y213635D01*
X-115210Y212936D01*
X-115705Y212080D01*
X-115961Y211124D01*
Y210135D01*
X-115705Y209180D01*
X-115210Y208324D01*
X-114511Y207624D01*
X-113654Y207130D01*
X-112699Y206874D01*
X-111710D01*
X-110755Y207130D01*
X-109899Y207624D01*
X-109199Y208324D01*
X-108705Y209180D01*
X-108449Y210135D01*
Y211124D01*
X-108705Y212080D01*
X-109199Y212936D01*
X-109899Y213635D01*
X-110755Y214130D01*
X-111710Y214386D01*
D02*
G37*
G36*
X-25969Y206315D02*
X-33087D01*
Y199197D01*
X-25969D01*
Y206315D01*
D02*
G37*
G36*
X-87355Y186942D02*
X-88732D01*
X-90063Y186586D01*
X-91256Y185897D01*
X-92230Y184923D01*
X-92919Y183730D01*
X-93276Y182399D01*
Y181021D01*
X-92919Y179690D01*
X-92230Y178497D01*
X-91256Y177523D01*
X-90063Y176834D01*
X-88732Y176478D01*
X-87355D01*
X-86024Y176834D01*
X-84831Y177523D01*
X-83857Y178497D01*
X-83168Y179690D01*
X-82811Y181021D01*
Y182399D01*
X-83168Y183730D01*
X-83857Y184923D01*
X-84831Y185897D01*
X-86024Y186586D01*
X-87355Y186942D01*
D02*
G37*
G36*
X-109008D02*
X-110386D01*
X-111717Y186586D01*
X-112910Y185897D01*
X-113884Y184923D01*
X-114573Y183730D01*
X-114929Y182399D01*
Y181021D01*
X-114573Y179690D01*
X-113884Y178497D01*
X-112910Y177523D01*
X-111717Y176834D01*
X-110386Y176478D01*
X-109008D01*
X-107677Y176834D01*
X-106484Y177523D01*
X-105510Y178497D01*
X-104821Y179690D01*
X-104465Y181021D01*
Y182399D01*
X-104821Y183730D01*
X-105510Y184923D01*
X-106484Y185897D01*
X-107677Y186586D01*
X-109008Y186942D01*
D02*
G37*
G36*
X-25052Y181256D02*
X-26129D01*
X-27169Y180977D01*
X-28102Y180438D01*
X-28864Y179677D01*
X-29402Y178744D01*
X-29681Y177704D01*
Y176627D01*
X-29402Y175586D01*
X-28864Y174653D01*
X-28102Y173892D01*
X-27169Y173353D01*
X-26129Y173075D01*
X-25052D01*
X-24012Y173353D01*
X-23079Y173892D01*
X-22317Y174653D01*
X-21779Y175586D01*
X-21500Y176627D01*
Y177704D01*
X-21779Y178744D01*
X-22317Y179677D01*
X-23079Y180438D01*
X-24012Y180977D01*
X-25052Y181256D01*
D02*
G37*
G36*
X-36863D02*
X-37940D01*
X-38980Y180977D01*
X-39913Y180438D01*
X-40675Y179677D01*
X-41213Y178744D01*
X-41492Y177704D01*
Y176627D01*
X-41213Y175586D01*
X-40675Y174653D01*
X-39913Y173892D01*
X-38980Y173353D01*
X-37940Y173075D01*
X-36863D01*
X-35823Y173353D01*
X-34890Y173892D01*
X-34128Y174653D01*
X-33590Y175586D01*
X-33311Y176627D01*
Y177704D01*
X-33590Y178744D01*
X-34128Y179677D01*
X-34890Y180438D01*
X-35823Y180977D01*
X-36863Y181256D01*
D02*
G37*
G36*
X-45122D02*
X-53303D01*
Y173075D01*
X-45122D01*
Y181256D01*
D02*
G37*
G36*
X-25052Y169445D02*
X-26129D01*
X-27169Y169166D01*
X-28102Y168627D01*
X-28864Y167866D01*
X-29402Y166933D01*
X-29681Y165893D01*
Y164816D01*
X-29402Y163775D01*
X-28864Y162843D01*
X-28102Y162081D01*
X-27169Y161542D01*
X-26129Y161264D01*
X-25052D01*
X-24012Y161542D01*
X-23079Y162081D01*
X-22317Y162843D01*
X-21779Y163775D01*
X-21500Y164816D01*
Y165893D01*
X-21779Y166933D01*
X-22317Y167866D01*
X-23079Y168627D01*
X-24012Y169166D01*
X-25052Y169445D01*
D02*
G37*
G36*
X-36863D02*
X-37940D01*
X-38980Y169166D01*
X-39913Y168627D01*
X-40675Y167866D01*
X-41213Y166933D01*
X-41492Y165893D01*
Y164816D01*
X-41213Y163775D01*
X-40675Y162843D01*
X-39913Y162081D01*
X-38980Y161542D01*
X-37940Y161264D01*
X-36863D01*
X-35823Y161542D01*
X-34890Y162081D01*
X-34128Y162843D01*
X-33590Y163775D01*
X-33311Y164816D01*
Y165893D01*
X-33590Y166933D01*
X-34128Y167866D01*
X-34890Y168627D01*
X-35823Y169166D01*
X-36863Y169445D01*
D02*
G37*
G36*
X-87355Y170407D02*
X-88732D01*
X-90063Y170050D01*
X-91256Y169361D01*
X-92230Y168387D01*
X-92919Y167194D01*
X-93276Y165863D01*
Y164486D01*
X-92919Y163155D01*
X-92230Y161962D01*
X-91256Y160988D01*
X-90063Y160299D01*
X-88732Y159942D01*
X-87355D01*
X-86024Y160299D01*
X-84831Y160988D01*
X-83857Y161962D01*
X-83168Y163155D01*
X-82811Y164486D01*
Y165863D01*
X-83168Y167194D01*
X-83857Y168387D01*
X-84831Y169361D01*
X-86024Y170050D01*
X-87355Y170407D01*
D02*
G37*
G36*
X-104465D02*
X-114929D01*
Y159942D01*
X-104465D01*
Y170407D01*
D02*
G37*
G36*
X-13384Y164661D02*
X-14175D01*
X-14941Y164456D01*
X-15626Y164060D01*
X-16186Y163500D01*
X-16582Y162814D01*
X-16787Y162049D01*
Y161257D01*
X-16582Y160492D01*
X-16186Y159807D01*
X-15626Y159247D01*
X-14941Y158851D01*
X-14175Y158645D01*
X-13384D01*
X-12618Y158851D01*
X-11933Y159247D01*
X-11373Y159807D01*
X-10977Y160492D01*
X-10772Y161257D01*
Y162049D01*
X-10977Y162814D01*
X-11373Y163500D01*
X-11933Y164060D01*
X-12618Y164456D01*
X-13384Y164661D01*
D02*
G37*
G36*
X-60628D02*
X-61420D01*
X-62185Y164456D01*
X-62870Y164060D01*
X-63430Y163500D01*
X-63826Y162814D01*
X-64031Y162049D01*
Y161257D01*
X-63826Y160492D01*
X-63430Y159807D01*
X-62870Y159247D01*
X-62185Y158851D01*
X-61420Y158645D01*
X-60628D01*
X-59863Y158851D01*
X-59177Y159247D01*
X-58617Y159807D01*
X-58221Y160492D01*
X-58016Y161257D01*
Y162049D01*
X-58221Y162814D01*
X-58617Y163500D01*
X-59177Y164060D01*
X-59863Y164456D01*
X-60628Y164661D01*
D02*
G37*
G36*
X-18200Y142567D02*
X-19397D01*
X-20552Y142257D01*
X-21588Y141659D01*
X-22434Y140813D01*
X-23032Y139777D01*
X-23342Y138622D01*
Y137425D01*
X-23032Y136270D01*
X-22434Y135234D01*
X-21588Y134388D01*
X-20552Y133790D01*
X-19397Y133480D01*
X-18200D01*
X-17045Y133790D01*
X-16009Y134388D01*
X-15163Y135234D01*
X-14565Y136270D01*
X-14255Y137425D01*
Y138622D01*
X-14565Y139777D01*
X-15163Y140813D01*
X-16009Y141659D01*
X-17045Y142257D01*
X-18200Y142567D01*
D02*
G37*
G36*
X-104255D02*
X-113342D01*
Y133480D01*
X-104255D01*
Y142567D01*
D02*
G37*
G36*
X-18200Y132567D02*
X-19397D01*
X-20552Y132257D01*
X-21588Y131659D01*
X-22434Y130813D01*
X-23032Y129777D01*
X-23342Y128622D01*
Y127425D01*
X-23032Y126270D01*
X-22434Y125234D01*
X-21588Y124388D01*
X-20552Y123790D01*
X-19397Y123480D01*
X-18200D01*
X-17045Y123790D01*
X-16009Y124388D01*
X-15163Y125234D01*
X-14565Y126270D01*
X-14255Y127425D01*
Y128622D01*
X-14565Y129777D01*
X-15163Y130813D01*
X-16009Y131659D01*
X-17045Y132257D01*
X-18200Y132567D01*
D02*
G37*
G36*
X-108200D02*
X-109397D01*
X-110552Y132257D01*
X-111588Y131659D01*
X-112434Y130813D01*
X-113032Y129777D01*
X-113342Y128622D01*
Y127425D01*
X-113032Y126270D01*
X-112434Y125234D01*
X-111588Y124388D01*
X-110552Y123790D01*
X-109397Y123480D01*
X-108200D01*
X-107045Y123790D01*
X-106009Y124388D01*
X-105163Y125234D01*
X-104565Y126270D01*
X-104255Y127425D01*
Y128622D01*
X-104565Y129777D01*
X-105163Y130813D01*
X-106009Y131659D01*
X-107045Y132257D01*
X-108200Y132567D01*
D02*
G37*
G36*
X-18200Y122567D02*
X-19397D01*
X-20552Y122257D01*
X-21588Y121659D01*
X-22434Y120813D01*
X-23032Y119777D01*
X-23342Y118622D01*
Y117425D01*
X-23032Y116270D01*
X-22434Y115234D01*
X-21588Y114388D01*
X-20552Y113790D01*
X-19397Y113480D01*
X-18200D01*
X-17045Y113790D01*
X-16009Y114388D01*
X-15163Y115234D01*
X-14565Y116270D01*
X-14255Y117425D01*
Y118622D01*
X-14565Y119777D01*
X-15163Y120813D01*
X-16009Y121659D01*
X-17045Y122257D01*
X-18200Y122567D01*
D02*
G37*
G36*
X-108200D02*
X-109397D01*
X-110552Y122257D01*
X-111588Y121659D01*
X-112434Y120813D01*
X-113032Y119777D01*
X-113342Y118622D01*
Y117425D01*
X-113032Y116270D01*
X-112434Y115234D01*
X-111588Y114388D01*
X-110552Y113790D01*
X-109397Y113480D01*
X-108200D01*
X-107045Y113790D01*
X-106009Y114388D01*
X-105163Y115234D01*
X-104565Y116270D01*
X-104255Y117425D01*
Y118622D01*
X-104565Y119777D01*
X-105163Y120813D01*
X-106009Y121659D01*
X-107045Y122257D01*
X-108200Y122567D01*
D02*
G37*
G36*
X-18200Y112567D02*
X-19397D01*
X-20552Y112257D01*
X-21588Y111659D01*
X-22434Y110813D01*
X-23032Y109777D01*
X-23342Y108622D01*
Y107425D01*
X-23032Y106270D01*
X-22434Y105234D01*
X-21588Y104388D01*
X-20552Y103790D01*
X-19397Y103480D01*
X-18200D01*
X-17045Y103790D01*
X-16009Y104388D01*
X-15163Y105234D01*
X-14565Y106270D01*
X-14255Y107425D01*
Y108622D01*
X-14565Y109777D01*
X-15163Y110813D01*
X-16009Y111659D01*
X-17045Y112257D01*
X-18200Y112567D01*
D02*
G37*
G36*
X-108200D02*
X-109397D01*
X-110552Y112257D01*
X-111588Y111659D01*
X-112434Y110813D01*
X-113032Y109777D01*
X-113342Y108622D01*
Y107425D01*
X-113032Y106270D01*
X-112434Y105234D01*
X-111588Y104388D01*
X-110552Y103790D01*
X-109397Y103480D01*
X-108200D01*
X-107045Y103790D01*
X-106009Y104388D01*
X-105163Y105234D01*
X-104565Y106270D01*
X-104255Y107425D01*
Y108622D01*
X-104565Y109777D01*
X-105163Y110813D01*
X-106009Y111659D01*
X-107045Y112257D01*
X-108200Y112567D01*
D02*
G37*
G36*
X-18200Y102567D02*
X-19397D01*
X-20552Y102257D01*
X-21588Y101659D01*
X-22434Y100813D01*
X-23032Y99777D01*
X-23342Y98622D01*
Y97425D01*
X-23032Y96270D01*
X-22434Y95234D01*
X-21588Y94388D01*
X-20552Y93790D01*
X-19397Y93480D01*
X-18200D01*
X-17045Y93790D01*
X-16009Y94388D01*
X-15163Y95234D01*
X-14565Y96270D01*
X-14255Y97425D01*
Y98622D01*
X-14565Y99777D01*
X-15163Y100813D01*
X-16009Y101659D01*
X-17045Y102257D01*
X-18200Y102567D01*
D02*
G37*
G36*
Y92567D02*
X-19397D01*
X-20552Y92257D01*
X-21588Y91659D01*
X-22434Y90813D01*
X-23032Y89777D01*
X-23342Y88622D01*
Y87425D01*
X-23032Y86270D01*
X-22434Y85234D01*
X-21588Y84388D01*
X-20552Y83790D01*
X-19397Y83480D01*
X-18200D01*
X-17045Y83790D01*
X-16009Y84388D01*
X-15163Y85234D01*
X-14565Y86270D01*
X-14255Y87425D01*
Y88622D01*
X-14565Y89777D01*
X-15163Y90813D01*
X-16009Y91659D01*
X-17045Y92257D01*
X-18200Y92567D01*
D02*
G37*
G36*
X-108200D02*
X-109397D01*
X-110552Y92257D01*
X-111588Y91659D01*
X-112434Y90813D01*
X-113032Y89777D01*
X-113342Y88622D01*
Y87425D01*
X-113032Y86270D01*
X-112434Y85234D01*
X-111588Y84388D01*
X-110552Y83790D01*
X-109397Y83480D01*
X-108200D01*
X-107045Y83790D01*
X-106009Y84388D01*
X-105163Y85234D01*
X-104565Y86270D01*
X-104255Y87425D01*
Y88622D01*
X-104565Y89777D01*
X-105163Y90813D01*
X-106009Y91659D01*
X-107045Y92257D01*
X-108200Y92567D01*
D02*
G37*
G36*
Y82567D02*
X-109397D01*
X-110552Y82257D01*
X-111588Y81659D01*
X-112434Y80813D01*
X-113032Y79777D01*
X-113342Y78622D01*
Y77425D01*
X-113032Y76270D01*
X-112434Y75234D01*
X-111588Y74388D01*
X-110552Y73790D01*
X-109397Y73480D01*
X-108200D01*
X-107045Y73790D01*
X-106009Y74388D01*
X-105163Y75234D01*
X-104565Y76270D01*
X-104255Y77425D01*
Y78622D01*
X-104565Y79777D01*
X-105163Y80813D01*
X-106009Y81659D01*
X-107045Y82257D01*
X-108200Y82567D01*
D02*
G37*
G36*
X-18200Y72567D02*
X-19397D01*
X-20552Y72257D01*
X-21588Y71659D01*
X-22434Y70813D01*
X-23032Y69777D01*
X-23342Y68622D01*
Y67425D01*
X-23032Y66270D01*
X-22434Y65234D01*
X-21588Y64388D01*
X-20552Y63790D01*
X-19397Y63480D01*
X-18200D01*
X-17045Y63790D01*
X-16009Y64388D01*
X-15163Y65234D01*
X-14565Y66270D01*
X-14255Y67425D01*
Y68622D01*
X-14565Y69777D01*
X-15163Y70813D01*
X-16009Y71659D01*
X-17045Y72257D01*
X-18200Y72567D01*
D02*
G37*
G36*
X-108200D02*
X-109397D01*
X-110552Y72257D01*
X-111588Y71659D01*
X-112434Y70813D01*
X-113032Y69777D01*
X-113342Y68622D01*
Y67425D01*
X-113032Y66270D01*
X-112434Y65234D01*
X-111588Y64388D01*
X-110552Y63790D01*
X-109397Y63480D01*
X-108200D01*
X-107045Y63790D01*
X-106009Y64388D01*
X-105163Y65234D01*
X-104565Y66270D01*
X-104255Y67425D01*
Y68622D01*
X-104565Y69777D01*
X-105163Y70813D01*
X-106009Y71659D01*
X-107045Y72257D01*
X-108200Y72567D01*
D02*
G37*
G36*
X-18200Y62567D02*
X-19397D01*
X-20552Y62257D01*
X-21588Y61659D01*
X-22434Y60813D01*
X-23032Y59777D01*
X-23342Y58622D01*
Y57425D01*
X-23032Y56270D01*
X-22434Y55234D01*
X-21588Y54388D01*
X-20552Y53790D01*
X-19397Y53480D01*
X-18200D01*
X-17045Y53790D01*
X-16009Y54388D01*
X-15163Y55234D01*
X-14565Y56270D01*
X-14255Y57425D01*
Y58622D01*
X-14565Y59777D01*
X-15163Y60813D01*
X-16009Y61659D01*
X-17045Y62257D01*
X-18200Y62567D01*
D02*
G37*
G36*
X-108200D02*
X-109397D01*
X-110552Y62257D01*
X-111588Y61659D01*
X-112434Y60813D01*
X-113032Y59777D01*
X-113342Y58622D01*
Y57425D01*
X-113032Y56270D01*
X-112434Y55234D01*
X-111588Y54388D01*
X-110552Y53790D01*
X-109397Y53480D01*
X-108200D01*
X-107045Y53790D01*
X-106009Y54388D01*
X-105163Y55234D01*
X-104565Y56270D01*
X-104255Y57425D01*
Y58622D01*
X-104565Y59777D01*
X-105163Y60813D01*
X-106009Y61659D01*
X-107045Y62257D01*
X-108200Y62567D01*
D02*
G37*
G36*
X-18200Y52567D02*
X-19397D01*
X-20552Y52257D01*
X-21588Y51659D01*
X-22434Y50813D01*
X-23032Y49777D01*
X-23342Y48622D01*
Y47425D01*
X-23032Y46270D01*
X-22434Y45234D01*
X-21588Y44388D01*
X-20552Y43790D01*
X-19397Y43480D01*
X-18200D01*
X-17045Y43790D01*
X-16009Y44388D01*
X-15163Y45234D01*
X-14565Y46270D01*
X-14255Y47425D01*
Y48622D01*
X-14565Y49777D01*
X-15163Y50813D01*
X-16009Y51659D01*
X-17045Y52257D01*
X-18200Y52567D01*
D02*
G37*
G36*
X-108200D02*
X-109397D01*
X-110552Y52257D01*
X-111588Y51659D01*
X-112434Y50813D01*
X-113032Y49777D01*
X-113342Y48622D01*
Y47425D01*
X-113032Y46270D01*
X-112434Y45234D01*
X-111588Y44388D01*
X-110552Y43790D01*
X-109397Y43480D01*
X-108200D01*
X-107045Y43790D01*
X-106009Y44388D01*
X-105163Y45234D01*
X-104565Y46270D01*
X-104255Y47425D01*
Y48622D01*
X-104565Y49777D01*
X-105163Y50813D01*
X-106009Y51659D01*
X-107045Y52257D01*
X-108200Y52567D01*
D02*
G37*
G36*
X-18200Y42567D02*
X-19397D01*
X-20552Y42257D01*
X-21588Y41659D01*
X-22434Y40813D01*
X-23032Y39777D01*
X-23342Y38622D01*
Y37425D01*
X-23032Y36270D01*
X-22434Y35234D01*
X-21588Y34388D01*
X-20552Y33790D01*
X-19397Y33480D01*
X-18200D01*
X-17045Y33790D01*
X-16009Y34388D01*
X-15163Y35234D01*
X-14565Y36270D01*
X-14255Y37425D01*
Y38622D01*
X-14565Y39777D01*
X-15163Y40813D01*
X-16009Y41659D01*
X-17045Y42257D01*
X-18200Y42567D01*
D02*
G37*
G36*
X-108200D02*
X-109397D01*
X-110552Y42257D01*
X-111588Y41659D01*
X-112434Y40813D01*
X-113032Y39777D01*
X-113342Y38622D01*
Y37425D01*
X-113032Y36270D01*
X-112434Y35234D01*
X-111588Y34388D01*
X-110552Y33790D01*
X-109397Y33480D01*
X-108200D01*
X-107045Y33790D01*
X-106009Y34388D01*
X-105163Y35234D01*
X-104565Y36270D01*
X-104255Y37425D01*
Y38622D01*
X-104565Y39777D01*
X-105163Y40813D01*
X-106009Y41659D01*
X-107045Y42257D01*
X-108200Y42567D01*
D02*
G37*
G36*
Y32567D02*
X-109397D01*
X-110552Y32257D01*
X-111588Y31659D01*
X-112434Y30813D01*
X-113032Y29777D01*
X-113342Y28622D01*
Y27425D01*
X-113032Y26270D01*
X-112434Y25234D01*
X-111588Y24388D01*
X-110552Y23790D01*
X-109397Y23480D01*
X-108200D01*
X-107045Y23790D01*
X-106009Y24388D01*
X-105163Y25234D01*
X-104565Y26270D01*
X-104255Y27425D01*
Y28622D01*
X-104565Y29777D01*
X-105163Y30813D01*
X-106009Y31659D01*
X-107045Y32257D01*
X-108200Y32567D01*
D02*
G37*
G36*
Y22567D02*
X-109397D01*
X-110552Y22257D01*
X-111588Y21659D01*
X-112434Y20813D01*
X-113032Y19777D01*
X-113342Y18622D01*
Y17425D01*
X-113032Y16270D01*
X-112434Y15234D01*
X-111588Y14388D01*
X-110552Y13790D01*
X-109397Y13480D01*
X-108200D01*
X-107045Y13790D01*
X-106009Y14388D01*
X-105163Y15234D01*
X-104565Y16270D01*
X-104255Y17425D01*
Y18622D01*
X-104565Y19777D01*
X-105163Y20813D01*
X-106009Y21659D01*
X-107045Y22257D01*
X-108200Y22567D01*
D02*
G37*
%LPD*%
D17*
X-109697Y165175D02*
D03*
D18*
Y181710D02*
D03*
X-88043Y165175D02*
D03*
Y181710D02*
D03*
D19*
X-49213Y177165D02*
D03*
D20*
X-37402D02*
D03*
X-25591D02*
D03*
X-49213Y165354D02*
D03*
X-37402D02*
D03*
X-25591D02*
D03*
D21*
X-61024Y161653D02*
D03*
X-13780D02*
D03*
D22*
X-112205Y210630D02*
D03*
X-102362D02*
D03*
X-92520D02*
D03*
X-82677D02*
D03*
X-72835D02*
D03*
D23*
X-62992D02*
D03*
D28*
X-19291Y239764D02*
D03*
D29*
X-40157D02*
D03*
D30*
X-108798Y18024D02*
D03*
Y28024D02*
D03*
Y38024D02*
D03*
Y48024D02*
D03*
Y58024D02*
D03*
Y68024D02*
D03*
Y78024D02*
D03*
Y98024D02*
D03*
Y108024D02*
D03*
Y118024D02*
D03*
Y128024D02*
D03*
X-18798Y138024D02*
D03*
Y118024D02*
D03*
Y108024D02*
D03*
Y98024D02*
D03*
Y88024D02*
D03*
Y78024D02*
D03*
Y68024D02*
D03*
Y58024D02*
D03*
Y48024D02*
D03*
Y38024D02*
D03*
X-108798Y88024D02*
D03*
X-18798Y128024D02*
D03*
D31*
X-108798Y138024D02*
D03*
D32*
X-29528Y222441D02*
D03*
D33*
Y202756D02*
D03*
D34*
X-19291Y244685D02*
D03*
X-14715Y239764D02*
D03*
X-23868D02*
D03*
X-22343Y235827D02*
D03*
X-16240D02*
D03*
X-19291Y233858D02*
D03*
X-14715Y244685D02*
D03*
X-23868D02*
D03*
X-40157D02*
D03*
X-35581Y239764D02*
D03*
X-44734D02*
D03*
X-43209Y235827D02*
D03*
X-37106D02*
D03*
X-40157Y233858D02*
D03*
X-35581Y244685D02*
D03*
X-44734D02*
D03*
D35*
X-124016Y13780D02*
D03*
X-15748Y151575D02*
D03*
X-106299Y145276D02*
D03*
X-15748Y23622D02*
D03*
Y13780D02*
D03*
X-109449Y199213D02*
D03*
X-88583Y194488D02*
D03*
Y203543D02*
D03*
X-48819Y151181D02*
D03*
X-60630Y137402D02*
D03*
X-38189Y140551D02*
D03*
X-25984Y132677D02*
D03*
X-15748Y190945D02*
D03*
X-104331Y230315D02*
D03*
X-114173D02*
D03*
X-15748Y181102D02*
D03*
Y171260D02*
D03*
X-41339Y118110D02*
D03*
X-35433Y112205D02*
D03*
X-29528Y106299D02*
D03*
Y92520D02*
D03*
X-39370Y96457D02*
D03*
X-45276Y100394D02*
D03*
X-51181Y106299D02*
D03*
X-39370Y53150D02*
D03*
X-27559D02*
D03*
X-41339Y62992D02*
D03*
X-29528D02*
D03*
X-54331Y79134D02*
D03*
X-64961Y78740D02*
D03*
X-74803Y72835D02*
D03*
X-64961D02*
D03*
Y62992D02*
D03*
X-84646D02*
D03*
X-74803D02*
D03*
Y53150D02*
D03*
X-84646D02*
D03*
X-94488D02*
D03*
Y43307D02*
D03*
Y33465D02*
D03*
Y23622D02*
D03*
X-25591Y33465D02*
D03*
Y23622D02*
D03*
X-35433D02*
D03*
Y13780D02*
D03*
X-45276Y23622D02*
D03*
Y13780D02*
D03*
X-55118Y23622D02*
D03*
Y13780D02*
D03*
X-64961Y23622D02*
D03*
Y13780D02*
D03*
X-74803Y23622D02*
D03*
Y13780D02*
D03*
X-84646Y23622D02*
D03*
Y13780D02*
D03*
X-102362Y96063D02*
D03*
Y101181D02*
D03*
X-96457Y101575D02*
D03*
X-89764Y107087D02*
D03*
X-84646Y112205D02*
D03*
X-79921Y116929D02*
D03*
X-72441Y124409D02*
D03*
X-68110Y132283D02*
D03*
Y142126D02*
D03*
Y148819D02*
D03*
Y168504D02*
D03*
X-91732Y171653D02*
D03*
X-94882Y175197D02*
D03*
X-98819Y179921D02*
D03*
X-109449Y189764D02*
D03*
X-112205Y173228D02*
D03*
X-105512Y156693D02*
D03*
X-81693Y155512D02*
D03*
Y139764D02*
D03*
X-51181Y72835D02*
D03*
X-43307D02*
D03*
X-35433D02*
D03*
X-27559D02*
D03*
Y80709D02*
D03*
X-35433D02*
D03*
X-43307D02*
D03*
X-49213Y84646D02*
D03*
X-55118Y90551D02*
D03*
X-61024Y96457D02*
D03*
X-66929Y90551D02*
D03*
X-74803Y84646D02*
D03*
X-80709Y78740D02*
D03*
X-86614Y72835D02*
D03*
X-94488Y64961D02*
D03*
X-100394Y59055D02*
D03*
X-29528Y215551D02*
D03*
Y193898D02*
D03*
X-46260Y187992D02*
D03*
X-41339Y193898D02*
D03*
X-81693Y134843D02*
D03*
Y144685D02*
D03*
Y160433D02*
D03*
X-77953Y182283D02*
D03*
X-59055Y196850D02*
D03*
X-68110Y188976D02*
D03*
X-15748Y3937D02*
D03*
X-35433D02*
D03*
X-45276D02*
D03*
X-55118D02*
D03*
X-64961D02*
D03*
X-74803D02*
D03*
X-84646D02*
D03*
X-104331D02*
D03*
X-114173D02*
D03*
X-64961Y240158D02*
D03*
X-74803D02*
D03*
X-84646D02*
D03*
X-94488D02*
D03*
X-104331D02*
D03*
X-114173D02*
D03*
X-3937Y3937D02*
D03*
Y13780D02*
D03*
Y33465D02*
D03*
Y43307D02*
D03*
Y53150D02*
D03*
Y62992D02*
D03*
Y72835D02*
D03*
Y82677D02*
D03*
Y92520D02*
D03*
Y102362D02*
D03*
Y112205D02*
D03*
Y122047D02*
D03*
Y131890D02*
D03*
Y141732D02*
D03*
Y151575D02*
D03*
Y161417D02*
D03*
Y171260D02*
D03*
Y181102D02*
D03*
Y190945D02*
D03*
Y200787D02*
D03*
Y210630D02*
D03*
Y220472D02*
D03*
Y240158D02*
D03*
X-124016D02*
D03*
Y220472D02*
D03*
Y210630D02*
D03*
Y200787D02*
D03*
Y190945D02*
D03*
Y181102D02*
D03*
Y171260D02*
D03*
Y161417D02*
D03*
Y151575D02*
D03*
Y141732D02*
D03*
Y131890D02*
D03*
Y122047D02*
D03*
Y112205D02*
D03*
Y102362D02*
D03*
Y92520D02*
D03*
Y82677D02*
D03*
Y72835D02*
D03*
Y62992D02*
D03*
Y53150D02*
D03*
Y43307D02*
D03*
Y33465D02*
D03*
Y3937D02*
D03*
M02*
