G04*
G04 #@! TF.GenerationSoftware,Altium Limited,Altium Designer,24.6.1 (21)*
G04*
G04 Layer_Color=65535*
%FSLAX25Y25*%
%MOIN*%
G70*
G04*
G04 #@! TF.SameCoordinates,02BDBD07-9C05-4181-BE98-5AEDC2C123D6*
G04*
G04*
G04 #@! TF.FilePolarity,Positive*
G04*
G01*
G75*
%ADD10C,0.00787*%
%ADD11C,0.01968*%
%ADD12C,0.01000*%
G36*
X-119963Y40503D02*
X-125984D01*
Y143701D01*
X-119963D01*
Y40503D01*
D02*
G37*
G36*
X-34256Y8769D02*
X-34188Y8763D01*
X-34107Y8757D01*
X-34027Y8744D01*
X-33934Y8732D01*
X-33736Y8688D01*
X-33637Y8658D01*
X-33538Y8627D01*
X-33439Y8583D01*
X-33346Y8534D01*
X-33259Y8478D01*
X-33179Y8416D01*
X-33173Y8410D01*
X-33160Y8398D01*
X-33142Y8379D01*
X-33117Y8354D01*
X-33086Y8317D01*
X-33049Y8274D01*
X-33012Y8224D01*
X-32968Y8169D01*
X-32931Y8100D01*
X-32894Y8032D01*
X-32857Y7952D01*
X-32826Y7865D01*
X-32795Y7779D01*
X-32770Y7680D01*
X-32752Y7581D01*
X-32746Y7469D01*
X-33612Y7438D01*
Y7444D01*
Y7451D01*
X-33624Y7494D01*
X-33637Y7550D01*
X-33662Y7618D01*
X-33692Y7698D01*
X-33736Y7772D01*
X-33792Y7847D01*
X-33854Y7909D01*
X-33860Y7915D01*
X-33884Y7933D01*
X-33928Y7958D01*
X-33990Y7983D01*
X-34064Y8008D01*
X-34157Y8032D01*
X-34268Y8051D01*
X-34398Y8057D01*
X-34460D01*
X-34528Y8051D01*
X-34609Y8039D01*
X-34701Y8020D01*
X-34800Y7989D01*
X-34893Y7952D01*
X-34980Y7896D01*
X-34986Y7890D01*
X-34999Y7878D01*
X-35023Y7859D01*
X-35048Y7828D01*
X-35073Y7791D01*
X-35098Y7741D01*
X-35110Y7692D01*
X-35116Y7630D01*
Y7624D01*
Y7605D01*
X-35110Y7574D01*
X-35098Y7543D01*
X-35085Y7500D01*
X-35067Y7457D01*
X-35036Y7413D01*
X-34992Y7370D01*
X-34986Y7364D01*
X-34955Y7345D01*
X-34937Y7333D01*
X-34906Y7321D01*
X-34875Y7302D01*
X-34832Y7283D01*
X-34782Y7265D01*
X-34726Y7240D01*
X-34658Y7215D01*
X-34590Y7191D01*
X-34503Y7166D01*
X-34411Y7141D01*
X-34312Y7116D01*
X-34200Y7085D01*
X-34194D01*
X-34169Y7079D01*
X-34138Y7073D01*
X-34095Y7061D01*
X-34045Y7048D01*
X-33983Y7030D01*
X-33915Y7011D01*
X-33847Y6993D01*
X-33699Y6943D01*
X-33544Y6893D01*
X-33395Y6838D01*
X-33334Y6807D01*
X-33272Y6776D01*
X-33265D01*
X-33259Y6770D01*
X-33222Y6745D01*
X-33166Y6708D01*
X-33098Y6658D01*
X-33024Y6596D01*
X-32943Y6522D01*
X-32863Y6435D01*
X-32795Y6336D01*
X-32789Y6324D01*
X-32770Y6287D01*
X-32739Y6231D01*
X-32708Y6151D01*
X-32677Y6052D01*
X-32646Y5934D01*
X-32628Y5804D01*
X-32622Y5655D01*
Y5649D01*
Y5637D01*
Y5618D01*
Y5593D01*
X-32628Y5563D01*
X-32634Y5519D01*
X-32646Y5433D01*
X-32671Y5321D01*
X-32708Y5204D01*
X-32764Y5086D01*
X-32832Y4962D01*
Y4956D01*
X-32844Y4950D01*
X-32869Y4913D01*
X-32919Y4851D01*
X-32981Y4783D01*
X-33061Y4702D01*
X-33166Y4628D01*
X-33278Y4554D01*
X-33414Y4485D01*
X-33420D01*
X-33432Y4479D01*
X-33451Y4473D01*
X-33482Y4461D01*
X-33519Y4448D01*
X-33562Y4436D01*
X-33612Y4424D01*
X-33668Y4411D01*
X-33736Y4393D01*
X-33804Y4380D01*
X-33965Y4355D01*
X-34144Y4337D01*
X-34343Y4331D01*
X-34423D01*
X-34479Y4337D01*
X-34547Y4343D01*
X-34621Y4349D01*
X-34708Y4362D01*
X-34800Y4380D01*
X-35005Y4424D01*
X-35110Y4455D01*
X-35209Y4485D01*
X-35314Y4529D01*
X-35413Y4578D01*
X-35506Y4634D01*
X-35593Y4702D01*
X-35599Y4708D01*
X-35611Y4721D01*
X-35636Y4739D01*
X-35661Y4770D01*
X-35698Y4814D01*
X-35735Y4863D01*
X-35779Y4919D01*
X-35822Y4981D01*
X-35865Y5055D01*
X-35909Y5136D01*
X-35952Y5228D01*
X-35995Y5327D01*
X-36026Y5433D01*
X-36063Y5550D01*
X-36088Y5674D01*
X-36107Y5804D01*
X-35265Y5884D01*
Y5878D01*
X-35259Y5866D01*
Y5841D01*
X-35252Y5816D01*
X-35228Y5742D01*
X-35197Y5649D01*
X-35160Y5544D01*
X-35104Y5439D01*
X-35042Y5346D01*
X-34962Y5259D01*
X-34949Y5253D01*
X-34918Y5228D01*
X-34869Y5197D01*
X-34794Y5160D01*
X-34701Y5123D01*
X-34596Y5092D01*
X-34473Y5067D01*
X-34330Y5061D01*
X-34262D01*
X-34188Y5074D01*
X-34095Y5086D01*
X-33996Y5105D01*
X-33891Y5136D01*
X-33792Y5179D01*
X-33705Y5235D01*
X-33692Y5241D01*
X-33668Y5266D01*
X-33637Y5303D01*
X-33593Y5352D01*
X-33556Y5414D01*
X-33519Y5488D01*
X-33494Y5563D01*
X-33488Y5649D01*
Y5655D01*
Y5674D01*
X-33494Y5705D01*
X-33501Y5742D01*
X-33513Y5779D01*
X-33525Y5823D01*
X-33550Y5866D01*
X-33581Y5909D01*
X-33587Y5915D01*
X-33600Y5928D01*
X-33618Y5946D01*
X-33649Y5971D01*
X-33692Y6002D01*
X-33748Y6033D01*
X-33810Y6064D01*
X-33891Y6095D01*
X-33897D01*
X-33922Y6107D01*
X-33965Y6120D01*
X-33996Y6132D01*
X-34033Y6138D01*
X-34076Y6151D01*
X-34126Y6169D01*
X-34181Y6182D01*
X-34243Y6200D01*
X-34318Y6219D01*
X-34398Y6237D01*
X-34485Y6262D01*
X-34584Y6287D01*
X-34590D01*
X-34615Y6293D01*
X-34652Y6305D01*
X-34695Y6318D01*
X-34751Y6336D01*
X-34819Y6355D01*
X-34887Y6380D01*
X-34968Y6404D01*
X-35129Y6466D01*
X-35283Y6541D01*
X-35364Y6578D01*
X-35432Y6621D01*
X-35500Y6664D01*
X-35556Y6708D01*
X-35562Y6714D01*
X-35574Y6726D01*
X-35593Y6745D01*
X-35618Y6770D01*
X-35649Y6807D01*
X-35680Y6850D01*
X-35717Y6893D01*
X-35748Y6949D01*
X-35822Y7079D01*
X-35884Y7228D01*
X-35909Y7308D01*
X-35927Y7389D01*
X-35939Y7481D01*
X-35946Y7574D01*
Y7581D01*
Y7587D01*
Y7605D01*
Y7630D01*
X-35933Y7692D01*
X-35921Y7772D01*
X-35902Y7865D01*
X-35871Y7970D01*
X-35828Y8082D01*
X-35766Y8187D01*
Y8193D01*
X-35760Y8200D01*
X-35729Y8237D01*
X-35692Y8286D01*
X-35630Y8348D01*
X-35556Y8416D01*
X-35463Y8490D01*
X-35358Y8558D01*
X-35234Y8620D01*
X-35228D01*
X-35215Y8627D01*
X-35197Y8633D01*
X-35172Y8645D01*
X-35135Y8658D01*
X-35098Y8670D01*
X-35048Y8682D01*
X-34992Y8701D01*
X-34869Y8726D01*
X-34726Y8750D01*
X-34565Y8769D01*
X-34386Y8775D01*
X-34312D01*
X-34256Y8769D01*
D02*
G37*
G36*
X-44420D02*
X-44352Y8763D01*
X-44271Y8757D01*
X-44185Y8750D01*
X-44092Y8732D01*
X-43894Y8695D01*
X-43689Y8633D01*
X-43584Y8596D01*
X-43485Y8552D01*
X-43392Y8503D01*
X-43306Y8441D01*
X-43299Y8435D01*
X-43287Y8428D01*
X-43262Y8404D01*
X-43231Y8379D01*
X-43194Y8348D01*
X-43157Y8305D01*
X-43114Y8255D01*
X-43064Y8200D01*
X-43015Y8138D01*
X-42965Y8070D01*
X-42916Y7995D01*
X-42872Y7909D01*
X-42823Y7822D01*
X-42786Y7729D01*
X-42748Y7624D01*
X-42724Y7519D01*
X-43584Y7358D01*
Y7364D01*
X-43590Y7370D01*
X-43603Y7407D01*
X-43628Y7463D01*
X-43665Y7537D01*
X-43708Y7618D01*
X-43770Y7698D01*
X-43844Y7779D01*
X-43931Y7853D01*
X-43943Y7859D01*
X-43974Y7884D01*
X-44030Y7915D01*
X-44098Y7946D01*
X-44191Y7983D01*
X-44296Y8008D01*
X-44414Y8032D01*
X-44550Y8039D01*
X-44605D01*
X-44643Y8032D01*
X-44692Y8026D01*
X-44748Y8020D01*
X-44810Y8008D01*
X-44878Y7995D01*
X-45020Y7952D01*
X-45094Y7921D01*
X-45169Y7884D01*
X-45243Y7841D01*
X-45317Y7797D01*
X-45385Y7735D01*
X-45454Y7673D01*
X-45460Y7667D01*
X-45466Y7655D01*
X-45485Y7636D01*
X-45503Y7605D01*
X-45528Y7568D01*
X-45559Y7525D01*
X-45590Y7469D01*
X-45614Y7407D01*
X-45645Y7333D01*
X-45676Y7253D01*
X-45707Y7166D01*
X-45732Y7073D01*
X-45751Y6968D01*
X-45769Y6850D01*
X-45775Y6733D01*
X-45782Y6602D01*
Y6596D01*
Y6572D01*
Y6528D01*
X-45775Y6479D01*
X-45769Y6411D01*
X-45763Y6342D01*
X-45751Y6256D01*
X-45738Y6169D01*
X-45701Y5984D01*
X-45639Y5792D01*
X-45602Y5699D01*
X-45559Y5612D01*
X-45503Y5525D01*
X-45447Y5451D01*
X-45441Y5445D01*
X-45429Y5433D01*
X-45410Y5414D01*
X-45385Y5389D01*
X-45348Y5364D01*
X-45311Y5327D01*
X-45262Y5296D01*
X-45206Y5259D01*
X-45144Y5222D01*
X-45082Y5191D01*
X-44927Y5129D01*
X-44841Y5105D01*
X-44754Y5086D01*
X-44655Y5074D01*
X-44556Y5067D01*
X-44506D01*
X-44457Y5074D01*
X-44383Y5080D01*
X-44302Y5092D01*
X-44209Y5111D01*
X-44110Y5136D01*
X-44011Y5173D01*
X-44005D01*
X-43999Y5179D01*
X-43968Y5191D01*
X-43912Y5216D01*
X-43850Y5247D01*
X-43776Y5284D01*
X-43696Y5327D01*
X-43615Y5377D01*
X-43541Y5433D01*
Y5984D01*
X-44531D01*
Y6708D01*
X-42668D01*
Y4987D01*
X-42680Y4975D01*
X-42699Y4962D01*
X-42717Y4944D01*
X-42748Y4919D01*
X-42779Y4894D01*
X-42866Y4832D01*
X-42984Y4764D01*
X-43120Y4684D01*
X-43275Y4603D01*
X-43460Y4529D01*
X-43466D01*
X-43485Y4523D01*
X-43510Y4510D01*
X-43547Y4498D01*
X-43597Y4485D01*
X-43652Y4467D01*
X-43714Y4448D01*
X-43782Y4430D01*
X-43937Y4393D01*
X-44117Y4362D01*
X-44302Y4337D01*
X-44500Y4331D01*
X-44568D01*
X-44612Y4337D01*
X-44674D01*
X-44742Y4343D01*
X-44816Y4355D01*
X-44903Y4368D01*
X-45082Y4399D01*
X-45280Y4448D01*
X-45485Y4516D01*
X-45577Y4560D01*
X-45676Y4609D01*
X-45683Y4615D01*
X-45695Y4622D01*
X-45726Y4640D01*
X-45757Y4665D01*
X-45800Y4690D01*
X-45843Y4727D01*
X-45899Y4770D01*
X-45955Y4820D01*
X-46079Y4931D01*
X-46202Y5074D01*
X-46320Y5235D01*
X-46425Y5420D01*
Y5426D01*
X-46438Y5445D01*
X-46450Y5476D01*
X-46463Y5513D01*
X-46481Y5563D01*
X-46506Y5618D01*
X-46524Y5686D01*
X-46549Y5761D01*
X-46574Y5841D01*
X-46593Y5934D01*
X-46636Y6126D01*
X-46661Y6336D01*
X-46673Y6565D01*
Y6572D01*
Y6596D01*
Y6634D01*
X-46667Y6677D01*
Y6739D01*
X-46661Y6807D01*
X-46648Y6881D01*
X-46636Y6968D01*
X-46605Y7147D01*
X-46555Y7351D01*
X-46487Y7556D01*
X-46444Y7655D01*
X-46394Y7754D01*
X-46388Y7760D01*
X-46382Y7779D01*
X-46363Y7803D01*
X-46345Y7841D01*
X-46314Y7884D01*
X-46277Y7933D01*
X-46233Y7989D01*
X-46190Y8051D01*
X-46134Y8113D01*
X-46073Y8181D01*
X-46004Y8249D01*
X-45930Y8317D01*
X-45850Y8379D01*
X-45769Y8447D01*
X-45577Y8558D01*
X-45571D01*
X-45559Y8571D01*
X-45534Y8577D01*
X-45503Y8596D01*
X-45460Y8608D01*
X-45416Y8627D01*
X-45355Y8645D01*
X-45293Y8670D01*
X-45224Y8688D01*
X-45144Y8707D01*
X-45057Y8726D01*
X-44971Y8744D01*
X-44773Y8769D01*
X-44550Y8775D01*
X-44475D01*
X-44420Y8769D01*
D02*
G37*
G36*
X-67700Y4411D02*
X-68567D01*
Y6287D01*
X-70257D01*
Y4411D01*
X-71123D01*
Y8695D01*
X-70257D01*
Y7011D01*
X-68567D01*
Y8695D01*
X-67700D01*
Y4411D01*
D02*
G37*
G36*
X-82018D02*
X-82885D01*
X-84624Y7234D01*
Y4411D01*
X-85422D01*
Y8695D01*
X-84587D01*
X-82816Y5810D01*
Y8695D01*
X-82018D01*
Y4411D01*
D02*
G37*
G36*
X-36794Y6435D02*
Y6429D01*
Y6404D01*
Y6361D01*
Y6312D01*
Y6250D01*
X-36800Y6175D01*
Y6095D01*
Y6015D01*
X-36812Y5835D01*
X-36825Y5649D01*
X-36831Y5569D01*
X-36843Y5488D01*
X-36856Y5414D01*
X-36868Y5346D01*
Y5340D01*
X-36874Y5334D01*
Y5315D01*
X-36880Y5296D01*
X-36899Y5235D01*
X-36924Y5160D01*
X-36961Y5074D01*
X-37004Y4987D01*
X-37060Y4894D01*
X-37128Y4807D01*
X-37134Y4795D01*
X-37159Y4770D01*
X-37202Y4733D01*
X-37258Y4684D01*
X-37332Y4628D01*
X-37419Y4572D01*
X-37518Y4510D01*
X-37629Y4461D01*
X-37636D01*
X-37642Y4455D01*
X-37660Y4448D01*
X-37685Y4442D01*
X-37716Y4430D01*
X-37753Y4417D01*
X-37803Y4405D01*
X-37852Y4399D01*
X-37970Y4374D01*
X-38112Y4349D01*
X-38273Y4337D01*
X-38453Y4331D01*
X-38552D01*
X-38607Y4337D01*
X-38663D01*
X-38731Y4343D01*
X-38799Y4349D01*
X-38948Y4362D01*
X-39103Y4386D01*
X-39257Y4424D01*
X-39325Y4442D01*
X-39387Y4467D01*
X-39393D01*
X-39400Y4473D01*
X-39437Y4492D01*
X-39499Y4523D01*
X-39567Y4566D01*
X-39647Y4622D01*
X-39734Y4684D01*
X-39814Y4758D01*
X-39889Y4838D01*
X-39895Y4851D01*
X-39920Y4876D01*
X-39951Y4925D01*
X-39988Y4987D01*
X-40025Y5055D01*
X-40068Y5136D01*
X-40099Y5222D01*
X-40130Y5315D01*
Y5321D01*
X-40136Y5334D01*
Y5352D01*
X-40143Y5383D01*
X-40149Y5420D01*
X-40155Y5470D01*
X-40161Y5525D01*
X-40167Y5587D01*
X-40180Y5662D01*
X-40186Y5742D01*
X-40192Y5829D01*
X-40198Y5928D01*
X-40204Y6033D01*
Y6151D01*
X-40211Y6274D01*
Y6404D01*
Y8695D01*
X-39344D01*
Y6367D01*
Y6361D01*
Y6342D01*
Y6318D01*
Y6281D01*
Y6231D01*
Y6182D01*
X-39338Y6070D01*
Y5946D01*
X-39332Y5829D01*
X-39325Y5773D01*
Y5723D01*
X-39319Y5686D01*
X-39313Y5649D01*
Y5637D01*
X-39301Y5606D01*
X-39282Y5556D01*
X-39257Y5494D01*
X-39226Y5426D01*
X-39177Y5358D01*
X-39121Y5284D01*
X-39053Y5222D01*
X-39041Y5216D01*
X-39016Y5197D01*
X-38966Y5173D01*
X-38905Y5148D01*
X-38818Y5117D01*
X-38719Y5092D01*
X-38607Y5074D01*
X-38477Y5067D01*
X-38416D01*
X-38354Y5074D01*
X-38273Y5086D01*
X-38180Y5105D01*
X-38094Y5129D01*
X-38001Y5166D01*
X-37927Y5216D01*
X-37920Y5222D01*
X-37896Y5241D01*
X-37865Y5272D01*
X-37827Y5315D01*
X-37790Y5371D01*
X-37753Y5433D01*
X-37722Y5501D01*
X-37704Y5581D01*
Y5593D01*
X-37697Y5624D01*
X-37691Y5680D01*
X-37679Y5754D01*
Y5804D01*
X-37673Y5860D01*
Y5922D01*
X-37666Y5984D01*
Y6058D01*
X-37660Y6138D01*
Y6225D01*
Y6318D01*
Y8695D01*
X-36794D01*
Y6435D01*
D02*
G37*
G36*
X-47434D02*
Y6429D01*
Y6404D01*
Y6361D01*
Y6312D01*
Y6250D01*
X-47440Y6175D01*
Y6095D01*
Y6015D01*
X-47453Y5835D01*
X-47465Y5649D01*
X-47471Y5569D01*
X-47484Y5488D01*
X-47496Y5414D01*
X-47509Y5346D01*
Y5340D01*
X-47515Y5334D01*
Y5315D01*
X-47521Y5296D01*
X-47540Y5235D01*
X-47564Y5160D01*
X-47602Y5074D01*
X-47645Y4987D01*
X-47701Y4894D01*
X-47769Y4807D01*
X-47775Y4795D01*
X-47800Y4770D01*
X-47843Y4733D01*
X-47899Y4684D01*
X-47973Y4628D01*
X-48059Y4572D01*
X-48159Y4510D01*
X-48270Y4461D01*
X-48276D01*
X-48282Y4455D01*
X-48301Y4448D01*
X-48326Y4442D01*
X-48357Y4430D01*
X-48394Y4417D01*
X-48443Y4405D01*
X-48493Y4399D01*
X-48610Y4374D01*
X-48753Y4349D01*
X-48914Y4337D01*
X-49093Y4331D01*
X-49192D01*
X-49248Y4337D01*
X-49304D01*
X-49372Y4343D01*
X-49440Y4349D01*
X-49589Y4362D01*
X-49743Y4386D01*
X-49898Y4424D01*
X-49966Y4442D01*
X-50028Y4467D01*
X-50034D01*
X-50040Y4473D01*
X-50077Y4492D01*
X-50139Y4523D01*
X-50208Y4566D01*
X-50288Y4622D01*
X-50375Y4684D01*
X-50455Y4758D01*
X-50529Y4838D01*
X-50536Y4851D01*
X-50560Y4876D01*
X-50591Y4925D01*
X-50628Y4987D01*
X-50665Y5055D01*
X-50709Y5136D01*
X-50740Y5222D01*
X-50771Y5315D01*
Y5321D01*
X-50777Y5334D01*
Y5352D01*
X-50783Y5383D01*
X-50789Y5420D01*
X-50796Y5470D01*
X-50802Y5525D01*
X-50808Y5587D01*
X-50820Y5662D01*
X-50826Y5742D01*
X-50833Y5829D01*
X-50839Y5928D01*
X-50845Y6033D01*
Y6151D01*
X-50851Y6274D01*
Y6404D01*
Y8695D01*
X-49985D01*
Y6367D01*
Y6361D01*
Y6342D01*
Y6318D01*
Y6281D01*
Y6231D01*
Y6182D01*
X-49978Y6070D01*
Y5946D01*
X-49972Y5829D01*
X-49966Y5773D01*
Y5723D01*
X-49960Y5686D01*
X-49954Y5649D01*
Y5637D01*
X-49941Y5606D01*
X-49923Y5556D01*
X-49898Y5494D01*
X-49867Y5426D01*
X-49817Y5358D01*
X-49762Y5284D01*
X-49694Y5222D01*
X-49681Y5216D01*
X-49657Y5197D01*
X-49607Y5173D01*
X-49545Y5148D01*
X-49459Y5117D01*
X-49359Y5092D01*
X-49248Y5074D01*
X-49118Y5067D01*
X-49056D01*
X-48994Y5074D01*
X-48914Y5086D01*
X-48821Y5105D01*
X-48734Y5129D01*
X-48641Y5166D01*
X-48567Y5216D01*
X-48561Y5222D01*
X-48536Y5241D01*
X-48505Y5272D01*
X-48468Y5315D01*
X-48431Y5371D01*
X-48394Y5433D01*
X-48363Y5501D01*
X-48344Y5581D01*
Y5593D01*
X-48338Y5624D01*
X-48332Y5680D01*
X-48320Y5754D01*
Y5804D01*
X-48313Y5860D01*
Y5922D01*
X-48307Y5984D01*
Y6058D01*
X-48301Y6138D01*
Y6225D01*
Y6318D01*
Y8695D01*
X-47434D01*
Y6435D01*
D02*
G37*
G36*
X-29892Y8688D02*
X-29768Y8682D01*
X-29644Y8676D01*
X-29527Y8664D01*
X-29421Y8651D01*
X-29409D01*
X-29378Y8645D01*
X-29335Y8633D01*
X-29273Y8614D01*
X-29205Y8590D01*
X-29131Y8558D01*
X-29050Y8521D01*
X-28976Y8472D01*
X-28970Y8466D01*
X-28945Y8447D01*
X-28908Y8416D01*
X-28858Y8379D01*
X-28809Y8323D01*
X-28753Y8261D01*
X-28697Y8193D01*
X-28648Y8113D01*
X-28642Y8100D01*
X-28629Y8076D01*
X-28604Y8026D01*
X-28580Y7964D01*
X-28555Y7890D01*
X-28530Y7810D01*
X-28518Y7711D01*
X-28512Y7611D01*
Y7605D01*
Y7599D01*
Y7562D01*
X-28518Y7506D01*
X-28530Y7432D01*
X-28555Y7345D01*
X-28580Y7253D01*
X-28623Y7160D01*
X-28679Y7061D01*
X-28685Y7048D01*
X-28710Y7017D01*
X-28747Y6974D01*
X-28790Y6918D01*
X-28852Y6863D01*
X-28926Y6794D01*
X-29013Y6739D01*
X-29112Y6683D01*
X-29106D01*
X-29093Y6677D01*
X-29075Y6671D01*
X-29050Y6664D01*
X-28976Y6634D01*
X-28889Y6590D01*
X-28796Y6541D01*
X-28691Y6472D01*
X-28598Y6392D01*
X-28512Y6293D01*
X-28505Y6281D01*
X-28480Y6244D01*
X-28443Y6188D01*
X-28406Y6114D01*
X-28369Y6015D01*
X-28332Y5909D01*
X-28307Y5785D01*
X-28301Y5649D01*
Y5643D01*
Y5637D01*
Y5600D01*
X-28307Y5544D01*
X-28320Y5470D01*
X-28332Y5383D01*
X-28357Y5284D01*
X-28394Y5185D01*
X-28437Y5080D01*
X-28443Y5067D01*
X-28462Y5036D01*
X-28493Y4987D01*
X-28536Y4925D01*
X-28586Y4851D01*
X-28654Y4783D01*
X-28722Y4708D01*
X-28809Y4640D01*
X-28821Y4634D01*
X-28852Y4615D01*
X-28901Y4585D01*
X-28970Y4554D01*
X-29056Y4516D01*
X-29155Y4485D01*
X-29267Y4455D01*
X-29390Y4436D01*
X-29415D01*
X-29440Y4430D01*
X-29502D01*
X-29545Y4424D01*
X-29663D01*
X-29737Y4417D01*
X-29923D01*
X-30028Y4411D01*
X-31885D01*
Y8695D01*
X-30003D01*
X-29892Y8688D01*
D02*
G37*
G36*
X-53612Y5136D02*
X-51458D01*
Y4411D01*
X-54479D01*
Y8664D01*
X-53612D01*
Y5136D01*
D02*
G37*
G36*
X-56843Y8688D02*
X-56682D01*
X-56509Y8676D01*
X-56336Y8664D01*
X-56261Y8658D01*
X-56187Y8651D01*
X-56125Y8639D01*
X-56076Y8627D01*
X-56069D01*
X-56057Y8620D01*
X-56038Y8614D01*
X-56014Y8608D01*
X-55946Y8577D01*
X-55859Y8540D01*
X-55766Y8484D01*
X-55661Y8410D01*
X-55562Y8317D01*
X-55463Y8206D01*
Y8200D01*
X-55450Y8193D01*
X-55438Y8175D01*
X-55426Y8150D01*
X-55401Y8113D01*
X-55382Y8076D01*
X-55357Y8032D01*
X-55333Y7983D01*
X-55289Y7859D01*
X-55246Y7723D01*
X-55221Y7556D01*
X-55209Y7376D01*
Y7370D01*
Y7358D01*
Y7339D01*
Y7308D01*
X-55215Y7277D01*
Y7234D01*
X-55228Y7147D01*
X-55246Y7042D01*
X-55271Y6924D01*
X-55308Y6813D01*
X-55357Y6708D01*
X-55364Y6695D01*
X-55382Y6664D01*
X-55413Y6615D01*
X-55457Y6553D01*
X-55506Y6491D01*
X-55574Y6417D01*
X-55642Y6349D01*
X-55723Y6287D01*
X-55735Y6281D01*
X-55760Y6262D01*
X-55803Y6237D01*
X-55859Y6206D01*
X-55927Y6169D01*
X-56001Y6138D01*
X-56082Y6107D01*
X-56168Y6083D01*
X-56181D01*
X-56199Y6076D01*
X-56224D01*
X-56255Y6070D01*
X-56298Y6064D01*
X-56342Y6058D01*
X-56397D01*
X-56453Y6052D01*
X-56521Y6045D01*
X-56595Y6039D01*
X-56676Y6033D01*
X-56763D01*
X-56855Y6027D01*
X-57623D01*
Y4411D01*
X-58490D01*
Y8695D01*
X-56911D01*
X-56843Y8688D01*
D02*
G37*
G36*
X-59053Y7970D02*
X-60316D01*
Y4411D01*
X-61182D01*
Y7970D01*
X-62451D01*
Y8695D01*
X-59053D01*
Y7970D01*
D02*
G37*
G36*
X-73352Y7970D02*
X-74615D01*
Y4411D01*
X-75481D01*
Y7970D01*
X-76750D01*
Y8695D01*
X-73352D01*
Y7970D01*
D02*
G37*
G36*
X-94305Y8688D02*
X-94187Y8682D01*
X-94057Y8676D01*
X-93921Y8658D01*
X-93791Y8639D01*
X-93674Y8608D01*
X-93667D01*
X-93655Y8602D01*
X-93637Y8596D01*
X-93612Y8590D01*
X-93537Y8558D01*
X-93451Y8515D01*
X-93352Y8460D01*
X-93240Y8391D01*
X-93135Y8311D01*
X-93030Y8212D01*
X-93024D01*
X-93018Y8200D01*
X-92987Y8162D01*
X-92937Y8100D01*
X-92881Y8020D01*
X-92813Y7921D01*
X-92745Y7803D01*
X-92677Y7667D01*
X-92621Y7519D01*
Y7512D01*
X-92615Y7500D01*
X-92609Y7475D01*
X-92597Y7444D01*
X-92590Y7407D01*
X-92578Y7358D01*
X-92566Y7302D01*
X-92547Y7240D01*
X-92535Y7172D01*
X-92522Y7091D01*
X-92510Y7011D01*
X-92504Y6918D01*
X-92485Y6726D01*
X-92479Y6510D01*
Y6503D01*
Y6485D01*
Y6460D01*
Y6423D01*
X-92485Y6374D01*
Y6324D01*
X-92491Y6262D01*
X-92497Y6194D01*
X-92510Y6052D01*
X-92535Y5903D01*
X-92572Y5748D01*
X-92615Y5600D01*
Y5593D01*
X-92621Y5581D01*
X-92634Y5556D01*
X-92646Y5519D01*
X-92659Y5482D01*
X-92683Y5439D01*
X-92733Y5327D01*
X-92795Y5210D01*
X-92875Y5080D01*
X-92968Y4956D01*
X-93073Y4838D01*
X-93086Y4826D01*
X-93116Y4801D01*
X-93166Y4764D01*
X-93234Y4715D01*
X-93321Y4659D01*
X-93420Y4603D01*
X-93544Y4547D01*
X-93680Y4498D01*
X-93686D01*
X-93692Y4492D01*
X-93711D01*
X-93729Y4485D01*
X-93797Y4473D01*
X-93884Y4455D01*
X-93989Y4436D01*
X-94119Y4424D01*
X-94274Y4417D01*
X-94441Y4411D01*
X-96063D01*
Y8695D01*
X-94354D01*
X-94305Y8688D01*
D02*
G37*
G36*
X-64822Y8769D02*
X-64760D01*
X-64680Y8757D01*
X-64587Y8744D01*
X-64482Y8726D01*
X-64370Y8701D01*
X-64253Y8670D01*
X-64129Y8633D01*
X-64005Y8583D01*
X-63875Y8528D01*
X-63751Y8460D01*
X-63627Y8379D01*
X-63510Y8286D01*
X-63398Y8181D01*
X-63392Y8175D01*
X-63374Y8156D01*
X-63343Y8119D01*
X-63312Y8076D01*
X-63268Y8014D01*
X-63219Y7940D01*
X-63169Y7853D01*
X-63114Y7754D01*
X-63058Y7649D01*
X-63008Y7525D01*
X-62959Y7389D01*
X-62915Y7246D01*
X-62878Y7085D01*
X-62854Y6918D01*
X-62835Y6739D01*
X-62829Y6547D01*
Y6534D01*
Y6504D01*
X-62835Y6448D01*
Y6374D01*
X-62847Y6287D01*
X-62860Y6188D01*
X-62878Y6070D01*
X-62897Y5953D01*
X-62928Y5823D01*
X-62965Y5686D01*
X-63015Y5550D01*
X-63070Y5414D01*
X-63132Y5284D01*
X-63213Y5154D01*
X-63299Y5030D01*
X-63398Y4913D01*
X-63405Y4906D01*
X-63423Y4888D01*
X-63454Y4857D01*
X-63504Y4820D01*
X-63559Y4776D01*
X-63627Y4727D01*
X-63708Y4677D01*
X-63794Y4622D01*
X-63900Y4566D01*
X-64011Y4516D01*
X-64135Y4467D01*
X-64271Y4424D01*
X-64413Y4386D01*
X-64568Y4355D01*
X-64729Y4337D01*
X-64903Y4331D01*
X-64946D01*
X-64995Y4337D01*
X-65057Y4343D01*
X-65138Y4349D01*
X-65231Y4362D01*
X-65336Y4380D01*
X-65447Y4405D01*
X-65571Y4436D01*
X-65689Y4473D01*
X-65819Y4523D01*
X-65942Y4578D01*
X-66072Y4640D01*
X-66190Y4721D01*
X-66308Y4807D01*
X-66419Y4913D01*
X-66425Y4919D01*
X-66444Y4937D01*
X-66469Y4975D01*
X-66506Y5018D01*
X-66549Y5080D01*
X-66599Y5154D01*
X-66648Y5235D01*
X-66698Y5334D01*
X-66753Y5439D01*
X-66803Y5563D01*
X-66852Y5693D01*
X-66896Y5835D01*
X-66933Y5990D01*
X-66958Y6157D01*
X-66976Y6336D01*
X-66982Y6522D01*
Y6528D01*
Y6553D01*
Y6584D01*
X-66976Y6634D01*
Y6689D01*
X-66970Y6751D01*
X-66964Y6825D01*
X-66958Y6906D01*
X-66933Y7079D01*
X-66902Y7265D01*
X-66852Y7451D01*
X-66790Y7624D01*
Y7630D01*
X-66784Y7636D01*
X-66772Y7655D01*
X-66766Y7680D01*
X-66729Y7741D01*
X-66685Y7822D01*
X-66629Y7915D01*
X-66561Y8008D01*
X-66481Y8113D01*
X-66394Y8212D01*
X-66388Y8218D01*
X-66382Y8224D01*
X-66351Y8255D01*
X-66295Y8305D01*
X-66227Y8360D01*
X-66147Y8422D01*
X-66054Y8490D01*
X-65949Y8552D01*
X-65837Y8602D01*
X-65831D01*
X-65819Y8608D01*
X-65794Y8620D01*
X-65763Y8627D01*
X-65726Y8645D01*
X-65682Y8658D01*
X-65627Y8670D01*
X-65571Y8688D01*
X-65435Y8720D01*
X-65280Y8750D01*
X-65101Y8769D01*
X-64915Y8775D01*
X-64872D01*
X-64822Y8769D01*
D02*
G37*
G36*
X-79121Y8769D02*
X-79059D01*
X-78979Y8757D01*
X-78886Y8744D01*
X-78781Y8726D01*
X-78669Y8701D01*
X-78552Y8670D01*
X-78428Y8633D01*
X-78304Y8583D01*
X-78174Y8528D01*
X-78050Y8460D01*
X-77926Y8379D01*
X-77809Y8286D01*
X-77697Y8181D01*
X-77691Y8175D01*
X-77672Y8156D01*
X-77641Y8119D01*
X-77611Y8076D01*
X-77567Y8014D01*
X-77518Y7940D01*
X-77468Y7853D01*
X-77412Y7754D01*
X-77357Y7649D01*
X-77307Y7525D01*
X-77258Y7389D01*
X-77214Y7246D01*
X-77177Y7085D01*
X-77153Y6918D01*
X-77134Y6739D01*
X-77128Y6547D01*
Y6534D01*
Y6503D01*
X-77134Y6448D01*
Y6374D01*
X-77146Y6287D01*
X-77159Y6188D01*
X-77177Y6070D01*
X-77196Y5953D01*
X-77227Y5822D01*
X-77264Y5686D01*
X-77314Y5550D01*
X-77369Y5414D01*
X-77431Y5284D01*
X-77512Y5154D01*
X-77598Y5030D01*
X-77697Y4913D01*
X-77703Y4906D01*
X-77722Y4888D01*
X-77753Y4857D01*
X-77802Y4820D01*
X-77858Y4776D01*
X-77926Y4727D01*
X-78007Y4677D01*
X-78093Y4622D01*
X-78199Y4566D01*
X-78310Y4516D01*
X-78434Y4467D01*
X-78570Y4424D01*
X-78712Y4386D01*
X-78867Y4355D01*
X-79028Y4337D01*
X-79201Y4331D01*
X-79245D01*
X-79294Y4337D01*
X-79356Y4343D01*
X-79437Y4349D01*
X-79530Y4362D01*
X-79635Y4380D01*
X-79746Y4405D01*
X-79870Y4436D01*
X-79988Y4473D01*
X-80117Y4523D01*
X-80241Y4578D01*
X-80371Y4640D01*
X-80489Y4721D01*
X-80607Y4807D01*
X-80718Y4913D01*
X-80724Y4919D01*
X-80743Y4937D01*
X-80768Y4975D01*
X-80805Y5018D01*
X-80848Y5080D01*
X-80897Y5154D01*
X-80947Y5235D01*
X-80997Y5333D01*
X-81052Y5439D01*
X-81102Y5563D01*
X-81151Y5693D01*
X-81195Y5835D01*
X-81232Y5990D01*
X-81257Y6157D01*
X-81275Y6336D01*
X-81281Y6522D01*
Y6528D01*
Y6553D01*
Y6584D01*
X-81275Y6633D01*
Y6689D01*
X-81269Y6751D01*
X-81263Y6825D01*
X-81257Y6906D01*
X-81232Y7079D01*
X-81201Y7265D01*
X-81151Y7451D01*
X-81089Y7624D01*
Y7630D01*
X-81083Y7636D01*
X-81071Y7655D01*
X-81065Y7680D01*
X-81028Y7741D01*
X-80984Y7822D01*
X-80928Y7915D01*
X-80860Y8008D01*
X-80780Y8113D01*
X-80693Y8212D01*
X-80687Y8218D01*
X-80681Y8224D01*
X-80650Y8255D01*
X-80594Y8305D01*
X-80526Y8360D01*
X-80446Y8422D01*
X-80353Y8490D01*
X-80247Y8552D01*
X-80136Y8602D01*
X-80130D01*
X-80117Y8608D01*
X-80093Y8620D01*
X-80062Y8627D01*
X-80025Y8645D01*
X-79981Y8658D01*
X-79926Y8670D01*
X-79870Y8688D01*
X-79734Y8720D01*
X-79579Y8750D01*
X-79400Y8769D01*
X-79214Y8775D01*
X-79171D01*
X-79121Y8769D01*
D02*
G37*
G36*
X-89762D02*
X-89700D01*
X-89619Y8757D01*
X-89526Y8744D01*
X-89421Y8726D01*
X-89310Y8701D01*
X-89192Y8670D01*
X-89068Y8633D01*
X-88945Y8583D01*
X-88815Y8528D01*
X-88691Y8460D01*
X-88567Y8379D01*
X-88449Y8286D01*
X-88338Y8181D01*
X-88332Y8175D01*
X-88313Y8156D01*
X-88282Y8119D01*
X-88251Y8076D01*
X-88208Y8014D01*
X-88158Y7940D01*
X-88109Y7853D01*
X-88053Y7754D01*
X-87997Y7649D01*
X-87948Y7525D01*
X-87898Y7389D01*
X-87855Y7246D01*
X-87818Y7085D01*
X-87793Y6918D01*
X-87775Y6739D01*
X-87768Y6547D01*
Y6534D01*
Y6503D01*
X-87775Y6448D01*
Y6374D01*
X-87787Y6287D01*
X-87799Y6188D01*
X-87818Y6070D01*
X-87836Y5953D01*
X-87867Y5822D01*
X-87905Y5686D01*
X-87954Y5550D01*
X-88010Y5414D01*
X-88072Y5284D01*
X-88152Y5154D01*
X-88239Y5030D01*
X-88338Y4913D01*
X-88344Y4906D01*
X-88363Y4888D01*
X-88394Y4857D01*
X-88443Y4820D01*
X-88499Y4776D01*
X-88567Y4727D01*
X-88647Y4677D01*
X-88734Y4622D01*
X-88839Y4566D01*
X-88951Y4516D01*
X-89074Y4467D01*
X-89211Y4424D01*
X-89353Y4386D01*
X-89508Y4355D01*
X-89669Y4337D01*
X-89842Y4331D01*
X-89885D01*
X-89935Y4337D01*
X-89997Y4343D01*
X-90077Y4349D01*
X-90170Y4362D01*
X-90275Y4380D01*
X-90387Y4405D01*
X-90510Y4436D01*
X-90628Y4473D01*
X-90758Y4523D01*
X-90882Y4578D01*
X-91012Y4640D01*
X-91129Y4721D01*
X-91247Y4807D01*
X-91359Y4913D01*
X-91365Y4919D01*
X-91383Y4937D01*
X-91408Y4975D01*
X-91445Y5018D01*
X-91489Y5080D01*
X-91538Y5154D01*
X-91588Y5235D01*
X-91637Y5333D01*
X-91693Y5439D01*
X-91742Y5563D01*
X-91792Y5693D01*
X-91835Y5835D01*
X-91872Y5990D01*
X-91897Y6157D01*
X-91916Y6336D01*
X-91922Y6522D01*
Y6528D01*
Y6553D01*
Y6584D01*
X-91916Y6633D01*
Y6689D01*
X-91909Y6751D01*
X-91903Y6825D01*
X-91897Y6906D01*
X-91872Y7079D01*
X-91841Y7265D01*
X-91792Y7451D01*
X-91730Y7624D01*
Y7630D01*
X-91724Y7636D01*
X-91711Y7655D01*
X-91705Y7680D01*
X-91668Y7741D01*
X-91625Y7822D01*
X-91569Y7915D01*
X-91501Y8008D01*
X-91421Y8113D01*
X-91334Y8212D01*
X-91328Y8218D01*
X-91321Y8224D01*
X-91290Y8255D01*
X-91235Y8305D01*
X-91167Y8360D01*
X-91086Y8422D01*
X-90993Y8490D01*
X-90888Y8552D01*
X-90777Y8602D01*
X-90771D01*
X-90758Y8608D01*
X-90733Y8620D01*
X-90702Y8627D01*
X-90665Y8645D01*
X-90622Y8658D01*
X-90566Y8670D01*
X-90510Y8688D01*
X-90374Y8720D01*
X-90220Y8750D01*
X-90040Y8769D01*
X-89854Y8775D01*
X-89811D01*
X-89762Y8769D01*
D02*
G37*
G36*
X-101870Y7907D02*
X-102068Y5866D01*
X-102511D01*
X-102709Y7907D01*
Y8857D01*
X-101870D01*
Y7907D01*
D02*
G37*
G36*
X-101905Y4823D02*
X-102680D01*
Y5598D01*
X-101905D01*
Y4823D01*
D02*
G37*
G36*
X-21161Y7907D02*
X-21360Y5866D01*
X-21803D01*
X-22001Y7907D01*
Y8857D01*
X-21161D01*
Y7907D01*
D02*
G37*
G36*
X-21196Y4823D02*
X-21972D01*
Y5598D01*
X-21196D01*
Y4823D01*
D02*
G37*
G36*
X-4921Y36417D02*
X-9772D01*
Y90781D01*
X-4921D01*
Y36417D01*
D02*
G37*
G36*
X-8021Y246063D02*
Y235560D01*
X-12205D01*
Y246063D01*
X-8021D01*
D02*
G37*
G36*
X-28930Y234652D02*
X-33071D01*
Y246063D01*
X-28930D01*
Y234652D01*
D02*
G37*
G36*
X-37635Y189370D02*
X-43701D01*
Y193450D01*
X-37635D01*
Y189370D01*
D02*
G37*
G36*
X-58623D02*
X-64173D01*
Y193450D01*
X-58623D01*
Y189370D01*
D02*
G37*
G36*
X-10436D02*
X-16535D01*
Y193511D01*
X-10436D01*
Y189370D01*
D02*
G37*
G36*
X-78221Y194882D02*
X-85039D01*
Y199061D01*
X-78221D01*
Y194882D01*
D02*
G37*
G36*
X-10630Y145821D02*
X-17448D01*
Y150000D01*
X-10630D01*
Y145821D01*
D02*
G37*
G36*
X-34252Y145878D02*
X-40432D01*
Y150000D01*
X-34252D01*
Y145878D01*
D02*
G37*
G36*
X-53543Y145817D02*
X-64046D01*
Y150000D01*
X-53543D01*
Y145817D01*
D02*
G37*
G36*
X-78347Y150000D02*
Y145821D01*
X-84914D01*
Y150000D01*
X-78347D01*
D02*
G37*
G36*
X-112992Y146333D02*
X-119744D01*
Y150394D01*
X-112992D01*
Y146333D01*
D02*
G37*
G36*
X-113922Y194882D02*
X-119685D01*
Y198942D01*
X-113922D01*
Y194882D01*
D02*
G37*
%LPC*%
G36*
X-120356Y143118D02*
Y143110D01*
D01*
Y143118D01*
D02*
G37*
G36*
Y143096D02*
Y143088D01*
D01*
Y143096D01*
D02*
G37*
G36*
Y142046D02*
Y142031D01*
D01*
Y142046D01*
D02*
G37*
G36*
Y141995D02*
Y141988D01*
D01*
Y141995D01*
D02*
G37*
G36*
Y141849D02*
D01*
D01*
D01*
D02*
G37*
G36*
Y141601D02*
Y141543D01*
D01*
Y141601D01*
D02*
G37*
G36*
Y141492D02*
Y141470D01*
D01*
Y141492D01*
D02*
G37*
G36*
Y141448D02*
Y141419D01*
D01*
Y141448D01*
D02*
G37*
G36*
Y141368D02*
Y141324D01*
D01*
Y141368D01*
D02*
G37*
G36*
Y141295D02*
D01*
D01*
D01*
D02*
G37*
G36*
X-123855Y143307D02*
D01*
X-124009Y143285D01*
X-124154Y143256D01*
X-124293Y143212D01*
X-124417Y143176D01*
X-124533Y143125D01*
X-124643Y143074D01*
X-124738Y143023D01*
X-124825Y142972D01*
X-124898Y142921D01*
X-124964Y142870D01*
X-125022Y142826D01*
X-125073Y142782D01*
X-125109Y142753D01*
X-125131Y142724D01*
X-125146Y142709D01*
X-125153Y142702D01*
X-125233Y142600D01*
X-125299Y142491D01*
X-125357Y142374D01*
X-125408Y142250D01*
X-125445Y142133D01*
X-125481Y142009D01*
X-125532Y141769D01*
X-125554Y141659D01*
X-125569Y141558D01*
X-125576Y141470D01*
X-125583Y141390D01*
X-125591Y141324D01*
Y141229D01*
X-125583Y140996D01*
X-125561Y140785D01*
X-125532Y140595D01*
X-125518Y140515D01*
X-125496Y140435D01*
X-125481Y140369D01*
X-125467Y140311D01*
X-125452Y140260D01*
X-125437Y140216D01*
X-125423Y140180D01*
X-125416Y140158D01*
X-125408Y140143D01*
Y140136D01*
X-125328Y139976D01*
X-125241Y139844D01*
X-125153Y139720D01*
X-125058Y139626D01*
X-124978Y139553D01*
X-124905Y139494D01*
X-124862Y139465D01*
X-124854Y139451D01*
X-124847D01*
X-124701Y139371D01*
X-124563Y139305D01*
X-124424Y139261D01*
X-124293Y139232D01*
X-124191Y139217D01*
X-124140Y139210D01*
X-124103Y139203D01*
X-125591D01*
X-124030D01*
X-123855Y139210D01*
X-123702Y139232D01*
X-123564Y139268D01*
X-123447Y139305D01*
X-123353Y139341D01*
X-123287Y139378D01*
X-123243Y139400D01*
X-123229Y139407D01*
X-123112Y139487D01*
X-123010Y139582D01*
X-122922Y139677D01*
X-122850Y139764D01*
X-122791Y139844D01*
X-122748Y139910D01*
X-122718Y139954D01*
X-122711Y139961D01*
Y139968D01*
X-122675Y140041D01*
X-122638Y140114D01*
X-122573Y140289D01*
X-122514Y140471D01*
X-122456Y140646D01*
X-122434Y140726D01*
X-122412Y140807D01*
X-122390Y140879D01*
X-122376Y140938D01*
X-122361Y140989D01*
X-122354Y141025D01*
X-122346Y141054D01*
Y141062D01*
X-122310Y141193D01*
X-122281Y141310D01*
X-122252Y141419D01*
X-122223Y141521D01*
X-122193Y141601D01*
X-122164Y141681D01*
X-122135Y141747D01*
X-122113Y141805D01*
X-122091Y141856D01*
X-122070Y141893D01*
X-122055Y141929D01*
X-122040Y141951D01*
X-122019Y141988D01*
X-122011Y141995D01*
X-121960Y142046D01*
X-121909Y142082D01*
X-121858Y142104D01*
X-121807Y142119D01*
X-121771Y142133D01*
X-121734Y142141D01*
X-121712D01*
X-121705D01*
X-121632Y142133D01*
X-121574Y142119D01*
X-121515Y142090D01*
X-121472Y142060D01*
X-121435Y142031D01*
X-121413Y142002D01*
X-121399Y141988D01*
X-121391Y141980D01*
X-121326Y141878D01*
X-121282Y141769D01*
X-121246Y141652D01*
X-121224Y141543D01*
X-121209Y141448D01*
X-121202Y141368D01*
Y141295D01*
X-121209Y141142D01*
X-121231Y141011D01*
X-121260Y140901D01*
X-121290Y140814D01*
X-121319Y140741D01*
X-121348Y140690D01*
X-121370Y140661D01*
X-121377Y140654D01*
X-121450Y140581D01*
X-121537Y140515D01*
X-121625Y140464D01*
X-121720Y140427D01*
X-121800Y140398D01*
X-121865Y140384D01*
X-121916Y140369D01*
X-121924D01*
X-121931D01*
X-121895Y139349D01*
X-121763Y139356D01*
X-121647Y139378D01*
X-121530Y139407D01*
X-121428Y139443D01*
X-121326Y139480D01*
X-121231Y139524D01*
X-121151Y139567D01*
X-121071Y139611D01*
X-121005Y139662D01*
X-120947Y139706D01*
X-120896Y139750D01*
X-120852Y139786D01*
X-120823Y139815D01*
X-120801Y139837D01*
X-120786Y139852D01*
X-120779Y139859D01*
X-120706Y139954D01*
X-120641Y140056D01*
X-120582Y140165D01*
X-120531Y140282D01*
X-120495Y140398D01*
X-120458Y140515D01*
X-120407Y140748D01*
X-120393Y140858D01*
X-120378Y140952D01*
X-120371Y141047D01*
X-120364Y141127D01*
X-120356Y141193D01*
Y141280D01*
X-120364Y141492D01*
X-120386Y141681D01*
X-120415Y141849D01*
X-120444Y141995D01*
X-120466Y142060D01*
X-120480Y142119D01*
X-120495Y142163D01*
X-120509Y142206D01*
X-120524Y142236D01*
X-120531Y142257D01*
X-120539Y142272D01*
Y142279D01*
X-120612Y142425D01*
X-120692Y142549D01*
X-120779Y142658D01*
X-120859Y142746D01*
X-120932Y142819D01*
X-120991Y142862D01*
X-121034Y142899D01*
X-121042Y142906D01*
X-121049D01*
X-121173Y142979D01*
X-121304Y143030D01*
X-121428Y143067D01*
X-121537Y143088D01*
X-121632Y143103D01*
X-121705Y143118D01*
X-121734D01*
X-121756D01*
X-121763D01*
X-121771D01*
X-121880Y143110D01*
X-121989Y143096D01*
X-122084Y143074D01*
X-122179Y143045D01*
X-122354Y142972D01*
X-122507Y142884D01*
X-122573Y142848D01*
X-122624Y142804D01*
X-122675Y142768D01*
X-122718Y142731D01*
X-122748Y142702D01*
X-122769Y142680D01*
X-122784Y142666D01*
X-122791Y142658D01*
X-122842Y142593D01*
X-122893Y142513D01*
X-122944Y142432D01*
X-122988Y142338D01*
X-123075Y142155D01*
X-123148Y141966D01*
X-123178Y141871D01*
X-123207Y141791D01*
X-123229Y141711D01*
X-123250Y141645D01*
X-123265Y141594D01*
X-123280Y141550D01*
X-123287Y141521D01*
Y141514D01*
X-123316Y141397D01*
X-123345Y141295D01*
X-123367Y141200D01*
X-123389Y141113D01*
X-123411Y141040D01*
X-123425Y140974D01*
X-123447Y140916D01*
X-123462Y140865D01*
X-123469Y140821D01*
X-123484Y140785D01*
X-123498Y140734D01*
X-123513Y140705D01*
Y140697D01*
X-123549Y140603D01*
X-123586Y140530D01*
X-123622Y140464D01*
X-123659Y140413D01*
X-123688Y140376D01*
X-123710Y140355D01*
X-123724Y140340D01*
X-123732Y140333D01*
X-123783Y140296D01*
X-123834Y140267D01*
X-123885Y140253D01*
X-123928Y140238D01*
X-123972Y140231D01*
X-124009Y140223D01*
X-124030D01*
X-124038D01*
X-124140Y140231D01*
X-124227Y140260D01*
X-124315Y140304D01*
X-124388Y140347D01*
X-124446Y140398D01*
X-124490Y140435D01*
X-124519Y140464D01*
X-124526Y140479D01*
X-124592Y140581D01*
X-124643Y140697D01*
X-124679Y140821D01*
X-124701Y140938D01*
X-124716Y141047D01*
X-124730Y141135D01*
Y141215D01*
X-124723Y141383D01*
X-124694Y141528D01*
X-124657Y141652D01*
X-124614Y141762D01*
X-124570Y141849D01*
X-124533Y141907D01*
X-124504Y141944D01*
X-124497Y141958D01*
X-124395Y142053D01*
X-124286Y142126D01*
X-124162Y142192D01*
X-124038Y142236D01*
X-123928Y142272D01*
X-123841Y142301D01*
X-123812Y142308D01*
X-123783D01*
X-123768Y142316D01*
X-123761D01*
X-123855Y143307D01*
D02*
G37*
G36*
X-120451Y138335D02*
X-125496D01*
Y134472D01*
D01*
Y137315D01*
X-123593D01*
Y136411D01*
X-123586Y136301D01*
Y136199D01*
X-123579Y136105D01*
X-123571Y136017D01*
X-123564Y135937D01*
X-123557Y135871D01*
Y135806D01*
X-123549Y135755D01*
X-123542Y135704D01*
X-123535Y135667D01*
Y135638D01*
X-123528Y135616D01*
Y135602D01*
X-123498Y135500D01*
X-123462Y135405D01*
X-123425Y135317D01*
X-123382Y135237D01*
X-123345Y135171D01*
X-123316Y135120D01*
X-123294Y135091D01*
X-123287Y135077D01*
X-123214Y134982D01*
X-123134Y134902D01*
X-123046Y134821D01*
X-122973Y134763D01*
X-122900Y134712D01*
X-122842Y134676D01*
X-122806Y134654D01*
X-122791Y134647D01*
X-122667Y134588D01*
X-122536Y134545D01*
X-122397Y134515D01*
X-122274Y134494D01*
X-122171Y134479D01*
X-122120D01*
X-122084Y134472D01*
X-125496D01*
X-120451D01*
X-122004D01*
X-121792Y134486D01*
X-121596Y134515D01*
X-121435Y134566D01*
X-121290Y134617D01*
X-121231Y134647D01*
X-121180Y134676D01*
X-121136Y134698D01*
X-121093Y134727D01*
X-121063Y134741D01*
X-121042Y134756D01*
X-121034Y134771D01*
X-121027D01*
X-120896Y134887D01*
X-120786Y135004D01*
X-120699Y135128D01*
X-120633Y135237D01*
X-120590Y135339D01*
X-120553Y135419D01*
X-120546Y135449D01*
X-120539Y135470D01*
X-120531Y135485D01*
Y135492D01*
X-120517Y135550D01*
X-120502Y135623D01*
X-120495Y135711D01*
X-120488Y135798D01*
X-120473Y136003D01*
X-120458Y136207D01*
Y136396D01*
X-120451Y136476D01*
Y138335D01*
D02*
G37*
G36*
Y134151D02*
X-125496D01*
Y129092D01*
D01*
X-120451Y131118D01*
Y132197D01*
X-125496Y134151D01*
X-120451D01*
D02*
G37*
G36*
X-122959Y128727D02*
X-123017D01*
X-123236Y128720D01*
X-123440Y128698D01*
X-123637Y128669D01*
X-123812Y128625D01*
X-123979Y128581D01*
X-124140Y128523D01*
X-124278Y128465D01*
X-124402Y128406D01*
X-124519Y128348D01*
X-124621Y128290D01*
X-124701Y128231D01*
X-124774Y128188D01*
X-124825Y128144D01*
X-124869Y128115D01*
X-124891Y128093D01*
X-124898Y128086D01*
X-125022Y127962D01*
X-125124Y127830D01*
X-125219Y127692D01*
X-125292Y127553D01*
X-125357Y127415D01*
X-125416Y127276D01*
X-125459Y127145D01*
X-125496Y127021D01*
X-125525Y126897D01*
X-125547Y126788D01*
X-125561Y126686D01*
X-125569Y126606D01*
X-125576Y126533D01*
X-125583Y126482D01*
Y128727D01*
D01*
Y124338D01*
D01*
Y126438D01*
X-125576Y126285D01*
X-125569Y126146D01*
X-125547Y126008D01*
X-125518Y125884D01*
X-125488Y125767D01*
X-125459Y125658D01*
X-125423Y125556D01*
X-125379Y125461D01*
X-125343Y125381D01*
X-125306Y125308D01*
X-125277Y125242D01*
X-125248Y125191D01*
X-125219Y125148D01*
X-125197Y125119D01*
X-125190Y125104D01*
X-125182Y125097D01*
X-125102Y125002D01*
X-125015Y124914D01*
X-124818Y124754D01*
X-124614Y124623D01*
X-124417Y124521D01*
X-124322Y124477D01*
X-124235Y124441D01*
X-124154Y124411D01*
X-124089Y124382D01*
X-124030Y124360D01*
X-123987Y124346D01*
X-123958Y124338D01*
X-125583D01*
X-120356D01*
X-123950D01*
X-123644Y125330D01*
X-123841Y125388D01*
X-124009Y125454D01*
X-124147Y125520D01*
X-124264Y125592D01*
X-124351Y125651D01*
X-124410Y125702D01*
X-124446Y125738D01*
X-124461Y125753D01*
X-124548Y125869D01*
X-124606Y125986D01*
X-124650Y126103D01*
X-124687Y126205D01*
X-124701Y126300D01*
X-124708Y126380D01*
X-124716Y126409D01*
Y126445D01*
X-124708Y126547D01*
X-124701Y126642D01*
X-124650Y126817D01*
X-124592Y126970D01*
X-124512Y127094D01*
X-124439Y127196D01*
X-124380Y127269D01*
X-124351Y127298D01*
X-124329Y127320D01*
X-124322Y127327D01*
X-124315Y127335D01*
X-124235Y127393D01*
X-124140Y127444D01*
X-124038Y127495D01*
X-123928Y127532D01*
X-123702Y127590D01*
X-123476Y127634D01*
X-123367Y127648D01*
X-123272Y127655D01*
X-123178Y127670D01*
X-123097D01*
X-123039Y127677D01*
X-122988D01*
X-122952D01*
X-122944D01*
X-122777Y127670D01*
X-122624Y127663D01*
X-122485Y127648D01*
X-122354Y127626D01*
X-122237Y127597D01*
X-122128Y127568D01*
X-122033Y127539D01*
X-121946Y127502D01*
X-121873Y127473D01*
X-121807Y127444D01*
X-121756Y127415D01*
X-121712Y127386D01*
X-121676Y127364D01*
X-121654Y127349D01*
X-121639Y127335D01*
X-121632D01*
X-121559Y127269D01*
X-121494Y127196D01*
X-121442Y127123D01*
X-121399Y127043D01*
X-121326Y126890D01*
X-121275Y126744D01*
X-121246Y126620D01*
X-121238Y126562D01*
X-121231Y126518D01*
X-121224Y126474D01*
Y126424D01*
X-121231Y126278D01*
X-121260Y126146D01*
X-121297Y126030D01*
X-121341Y125928D01*
X-121384Y125847D01*
X-121421Y125789D01*
X-121450Y125753D01*
X-121457Y125738D01*
X-121545Y125643D01*
X-121647Y125556D01*
X-121749Y125490D01*
X-121851Y125439D01*
X-121938Y125403D01*
X-122004Y125381D01*
X-122033Y125366D01*
X-122055D01*
X-122062Y125359D01*
X-122070D01*
X-121829Y124353D01*
X-121617Y124426D01*
X-121435Y124506D01*
X-121275Y124594D01*
X-121144Y124674D01*
X-121042Y124754D01*
X-120998Y124783D01*
X-120961Y124812D01*
X-120940Y124834D01*
X-120918Y124856D01*
X-120903Y124863D01*
Y124871D01*
X-120808Y124980D01*
X-120721Y125104D01*
X-120648Y125221D01*
X-120590Y125345D01*
X-120531Y125476D01*
X-120488Y125600D01*
X-120451Y125724D01*
X-120422Y125840D01*
X-120400Y125950D01*
X-120386Y126052D01*
X-120371Y126139D01*
X-120364Y126219D01*
X-120356Y126285D01*
Y126372D01*
X-120364Y126562D01*
X-120386Y126751D01*
X-120422Y126919D01*
X-120466Y127087D01*
X-120517Y127233D01*
X-120575Y127378D01*
X-120641Y127502D01*
X-120706Y127619D01*
X-120772Y127728D01*
X-120837Y127816D01*
X-120896Y127896D01*
X-120947Y127962D01*
X-120991Y128013D01*
X-121027Y128049D01*
X-121049Y128071D01*
X-121056Y128078D01*
X-121195Y128195D01*
X-121341Y128290D01*
X-121494Y128377D01*
X-121654Y128450D01*
X-121822Y128516D01*
X-121982Y128567D01*
X-122142Y128610D01*
X-122295Y128647D01*
X-122449Y128676D01*
X-122580Y128691D01*
X-122704Y128705D01*
X-122806Y128720D01*
X-122893D01*
X-122959Y128727D01*
D02*
G37*
G36*
X-120451Y123456D02*
X-125496D01*
Y119622D01*
X-124643D01*
Y122436D01*
X-123272D01*
Y119906D01*
X-122419D01*
Y122436D01*
X-121304D01*
Y119717D01*
X-120451D01*
Y123456D01*
D02*
G37*
G36*
Y116808D02*
X-125496D01*
Y111953D01*
X-120451D01*
Y113484D01*
X-123899Y114380D01*
X-120451Y115284D01*
Y116808D01*
D02*
G37*
G36*
X-120356Y111129D02*
X-123010D01*
X-123229Y111122D01*
X-123440Y111100D01*
X-123637Y111071D01*
X-123819Y111027D01*
X-123987Y110976D01*
X-124140Y110918D01*
X-124286Y110859D01*
X-124410Y110794D01*
X-124526Y110735D01*
X-124621Y110677D01*
X-124708Y110619D01*
X-124781Y110568D01*
X-124832Y110524D01*
X-124876Y110495D01*
X-124898Y110473D01*
X-124905Y110466D01*
X-125029Y110334D01*
X-125131Y110196D01*
X-125226Y110057D01*
X-125299Y109904D01*
X-125365Y109758D01*
X-125423Y109605D01*
X-125467Y109467D01*
X-125503Y109321D01*
X-125532Y109190D01*
X-125554Y109066D01*
X-125569Y108957D01*
X-125576Y108862D01*
X-125583Y108789D01*
X-125591Y108731D01*
Y111129D01*
D01*
Y106237D01*
D01*
Y108680D01*
X-125583Y108475D01*
X-125561Y108286D01*
X-125525Y108104D01*
X-125481Y107936D01*
X-125430Y107776D01*
X-125372Y107630D01*
X-125313Y107499D01*
X-125248Y107375D01*
X-125182Y107273D01*
X-125124Y107178D01*
X-125066Y107098D01*
X-125015Y107032D01*
X-124971Y106974D01*
X-124934Y106937D01*
X-124913Y106915D01*
X-124905Y106908D01*
X-124767Y106791D01*
X-124621Y106689D01*
X-124468Y106595D01*
X-124315Y106522D01*
X-124154Y106456D01*
X-123994Y106398D01*
X-123834Y106354D01*
X-123681Y106318D01*
X-123542Y106296D01*
X-123404Y106274D01*
X-123287Y106259D01*
X-123185Y106245D01*
X-123097D01*
X-123032Y106237D01*
X-125591D01*
X-120356D01*
X-122981D01*
X-122755Y106245D01*
X-122543Y106267D01*
X-122346Y106296D01*
X-122157Y106340D01*
X-121989Y106391D01*
X-121829Y106449D01*
X-121683Y106507D01*
X-121559Y106573D01*
X-121442Y106638D01*
X-121341Y106697D01*
X-121253Y106755D01*
X-121180Y106806D01*
X-121129Y106843D01*
X-121085Y106879D01*
X-121063Y106901D01*
X-121056Y106908D01*
X-120932Y107039D01*
X-120823Y107178D01*
X-120728Y107324D01*
X-120648Y107469D01*
X-120582Y107623D01*
X-120524Y107768D01*
X-120480Y107914D01*
X-120444Y108053D01*
X-120415Y108184D01*
X-120393Y108308D01*
X-120378Y108417D01*
X-120364Y108512D01*
Y108585D01*
X-120356Y108643D01*
Y108694D01*
X-120364Y108913D01*
X-120386Y109124D01*
X-120422Y109307D01*
X-120458Y109467D01*
X-120480Y109532D01*
X-120495Y109598D01*
X-120509Y109649D01*
X-120531Y109693D01*
X-120539Y109729D01*
X-120553Y109758D01*
X-120560Y109773D01*
Y109780D01*
X-120619Y109912D01*
X-120692Y110036D01*
X-120772Y110145D01*
X-120845Y110240D01*
X-120910Y110320D01*
X-120969Y110385D01*
X-121005Y110422D01*
X-121012Y110429D01*
X-121020Y110436D01*
X-121136Y110538D01*
X-121260Y110633D01*
X-121370Y110714D01*
X-121479Y110779D01*
X-121574Y110830D01*
X-121647Y110874D01*
X-121676Y110881D01*
X-121698Y110896D01*
X-121705Y110903D01*
X-121712D01*
X-121916Y110976D01*
X-122135Y111034D01*
X-122354Y111071D01*
X-122558Y111100D01*
X-122653Y111107D01*
X-122740Y111115D01*
X-122813Y111122D01*
X-122879D01*
X-122937Y111129D01*
X-120356D01*
D02*
G37*
G36*
Y108643D02*
D01*
Y108621D01*
D01*
Y108643D01*
D02*
G37*
G36*
Y108512D02*
Y108475D01*
D01*
Y108512D01*
D02*
G37*
G36*
Y108308D02*
Y108286D01*
D01*
Y108308D01*
D02*
G37*
G36*
Y107921D02*
Y107914D01*
D01*
Y107921D01*
D02*
G37*
G36*
Y107608D02*
Y107586D01*
D01*
Y107608D01*
D02*
G37*
G36*
Y107382D02*
Y107375D01*
D01*
Y107382D01*
D02*
G37*
G36*
Y107287D02*
Y107273D01*
D01*
Y107287D01*
D02*
G37*
G36*
X-120451Y105436D02*
X-125496D01*
Y101426D01*
X-120451D01*
Y102366D01*
X-123848D01*
X-120451Y104451D01*
Y105436D01*
D02*
G37*
G36*
Y100347D02*
X-125496D01*
Y95791D01*
D01*
X-122419Y97796D01*
X-120451Y95886D01*
Y97256D01*
X-122696Y99326D01*
X-120451D01*
Y100347D01*
D02*
G37*
G36*
Y95259D02*
X-125496D01*
Y91424D01*
X-124643D01*
Y94238D01*
X-123272D01*
Y91708D01*
X-122419D01*
Y94238D01*
X-121304D01*
Y91519D01*
X-120451D01*
Y95259D01*
D02*
G37*
G36*
Y91082D02*
X-125496D01*
Y86372D01*
D01*
Y88217D01*
X-123382D01*
X-120451Y86372D01*
D01*
Y87546D01*
X-122449Y88705D01*
X-120451Y89893D01*
Y91082D01*
X-123374Y89237D01*
X-125496D01*
Y91082D01*
X-120451D01*
D01*
D02*
G37*
G36*
X-120356Y85935D02*
Y85927D01*
D01*
Y85935D01*
D02*
G37*
G36*
X-123855Y86124D02*
X-125591D01*
Y85913D01*
D01*
Y86124D01*
X-123855D01*
D02*
G37*
G36*
X-120356Y85913D02*
Y85906D01*
D01*
Y85913D01*
D02*
G37*
G36*
X-125591Y85906D02*
Y85847D01*
D01*
Y85906D01*
D02*
G37*
G36*
Y85840D02*
Y85410D01*
D01*
Y85840D01*
D02*
G37*
G36*
Y85330D02*
Y85133D01*
D01*
Y85330D01*
D02*
G37*
G36*
Y85126D02*
Y85118D01*
D01*
Y85126D01*
D02*
G37*
G36*
Y85096D02*
Y85089D01*
D01*
Y85096D01*
D02*
G37*
G36*
Y85089D02*
Y85075D01*
D01*
Y85089D01*
D02*
G37*
G36*
Y85067D02*
Y85053D01*
D01*
Y85067D01*
D02*
G37*
G36*
Y85053D02*
Y84958D01*
D01*
Y85053D01*
D02*
G37*
G36*
Y84958D02*
Y84951D01*
D01*
Y84958D01*
D02*
G37*
G36*
Y84943D02*
Y84936D01*
D01*
Y84943D01*
D02*
G37*
G36*
Y84936D02*
Y84907D01*
D01*
Y84936D01*
D02*
G37*
G36*
Y84900D02*
Y84878D01*
D01*
Y84900D01*
D02*
G37*
G36*
Y84878D02*
Y84870D01*
D01*
Y84878D01*
D02*
G37*
G36*
X-120356Y84863D02*
Y84849D01*
D01*
Y84863D01*
D02*
G37*
G36*
X-125591D02*
Y84827D01*
D01*
Y84863D01*
D02*
G37*
G36*
X-120356Y84812D02*
Y84805D01*
D01*
Y84812D01*
D02*
G37*
G36*
X-125591D02*
Y84805D01*
D01*
Y84812D01*
D02*
G37*
G36*
Y84805D02*
Y84776D01*
D01*
Y84805D01*
D02*
G37*
G36*
Y84768D02*
Y84725D01*
D01*
Y84768D01*
D02*
G37*
G36*
Y84710D02*
Y84688D01*
D01*
Y84710D01*
D02*
G37*
G36*
X-120356Y84666D02*
D01*
D01*
D01*
D02*
G37*
G36*
X-125591Y84674D02*
Y84623D01*
D01*
Y84674D01*
D02*
G37*
G36*
Y84608D02*
Y84499D01*
D01*
Y84608D01*
D02*
G37*
G36*
Y84477D02*
Y84469D01*
D01*
Y84477D01*
D02*
G37*
G36*
Y84469D02*
Y84367D01*
D01*
Y84469D01*
D02*
G37*
G36*
X-120356Y84418D02*
Y84360D01*
D01*
Y84418D01*
D02*
G37*
G36*
X-125591Y84360D02*
Y84309D01*
D01*
Y84360D01*
D02*
G37*
G36*
X-120356Y84309D02*
Y84287D01*
D01*
Y84309D01*
D02*
G37*
G36*
Y84265D02*
Y84236D01*
D01*
Y84265D01*
D02*
G37*
G36*
Y84185D02*
Y84141D01*
D01*
Y84185D01*
D02*
G37*
G36*
Y84112D02*
D01*
D01*
D01*
D02*
G37*
G36*
Y84010D02*
Y83959D01*
D01*
Y84010D01*
D02*
G37*
G36*
X-125591Y83959D02*
Y83930D01*
D01*
Y83959D01*
D02*
G37*
G36*
Y83879D02*
Y83864D01*
D01*
Y83879D01*
D02*
G37*
G36*
Y83864D02*
Y83857D01*
D01*
Y83864D01*
D02*
G37*
G36*
Y83813D02*
Y83806D01*
D01*
Y83813D01*
D02*
G37*
G36*
X-120356Y83631D02*
Y83624D01*
D01*
Y83631D01*
D02*
G37*
G36*
X-125591Y83792D02*
Y83624D01*
D01*
Y83792D01*
D02*
G37*
G36*
Y83602D02*
Y83514D01*
D01*
Y83602D01*
D02*
G37*
G36*
Y83507D02*
Y83478D01*
D01*
Y83507D01*
D02*
G37*
G36*
Y83464D02*
Y83420D01*
D01*
Y83464D01*
D02*
G37*
G36*
Y83412D02*
Y83289D01*
D01*
Y83412D01*
D02*
G37*
G36*
Y83281D02*
D01*
D01*
D01*
D02*
G37*
G36*
Y83252D02*
D01*
D01*
D01*
D02*
G37*
G36*
Y83245D02*
Y83230D01*
D01*
Y83245D01*
D02*
G37*
G36*
Y83216D02*
D01*
D01*
D01*
D02*
G37*
G36*
D02*
Y83187D01*
D01*
Y83216D01*
D02*
G37*
G36*
X-120356Y83187D02*
D01*
D01*
D01*
D02*
G37*
G36*
X-125591D02*
Y83157D01*
D01*
Y83187D01*
D02*
G37*
G36*
Y83128D02*
Y83121D01*
D01*
Y83128D01*
D02*
G37*
G36*
Y83114D02*
Y83048D01*
D01*
Y83114D01*
D02*
G37*
G36*
Y82997D02*
Y82982D01*
D01*
Y82997D01*
D02*
G37*
G36*
X-120356Y82982D02*
Y82975D01*
D01*
Y82982D01*
D02*
G37*
G36*
X-125591Y82975D02*
Y82953D01*
D01*
Y82975D01*
D02*
G37*
G36*
Y82931D02*
Y82676D01*
D01*
Y82931D01*
D02*
G37*
G36*
X-120356Y82632D02*
Y82603D01*
D01*
Y82632D01*
D02*
G37*
G36*
X-125591Y82669D02*
Y82567D01*
D01*
Y82669D01*
D02*
G37*
G36*
X-120356Y82261D02*
Y82224D01*
D01*
Y82261D01*
D02*
G37*
G36*
X-125591Y82538D02*
Y82173D01*
D01*
Y82538D01*
D02*
G37*
G36*
X-123855Y86124D02*
D01*
X-124009Y86102D01*
X-124154Y86073D01*
X-124293Y86030D01*
X-124417Y85993D01*
X-124533Y85942D01*
X-124643Y85891D01*
X-124738Y85840D01*
X-124825Y85789D01*
X-124898Y85738D01*
X-124964Y85687D01*
X-125022Y85643D01*
X-125073Y85599D01*
X-125109Y85570D01*
X-125131Y85541D01*
X-125146Y85527D01*
X-125153Y85519D01*
X-125233Y85417D01*
X-125299Y85308D01*
X-125357Y85191D01*
X-125408Y85067D01*
X-125445Y84951D01*
X-125481Y84827D01*
X-125532Y84586D01*
X-125554Y84477D01*
X-125569Y84375D01*
X-125576Y84287D01*
X-125583Y84207D01*
X-125591Y84141D01*
Y84236D01*
Y84047D01*
D01*
X-125583Y83813D01*
X-125561Y83602D01*
X-125532Y83412D01*
X-125518Y83332D01*
X-125496Y83252D01*
X-125481Y83187D01*
X-125467Y83128D01*
X-125452Y83077D01*
X-125437Y83033D01*
X-125423Y82997D01*
X-125416Y82975D01*
X-125408Y82960D01*
Y82953D01*
X-125328Y82793D01*
X-125241Y82662D01*
X-125153Y82538D01*
X-125058Y82443D01*
X-124978Y82370D01*
X-124905Y82312D01*
X-124862Y82283D01*
X-124854Y82268D01*
X-124847D01*
X-124701Y82188D01*
X-124563Y82122D01*
X-124424Y82078D01*
X-124293Y82049D01*
X-124191Y82035D01*
X-124140Y82027D01*
X-124103Y82020D01*
X-125591D01*
X-120356D01*
X-124030D01*
X-123855Y82027D01*
X-123702Y82049D01*
X-123564Y82086D01*
X-123447Y82122D01*
X-123353Y82159D01*
X-123287Y82195D01*
X-123243Y82217D01*
X-123229Y82224D01*
X-123112Y82304D01*
X-123010Y82399D01*
X-122922Y82494D01*
X-122850Y82581D01*
X-122791Y82662D01*
X-122748Y82727D01*
X-122718Y82771D01*
X-122711Y82778D01*
Y82785D01*
X-122675Y82858D01*
X-122638Y82931D01*
X-122573Y83106D01*
X-122514Y83289D01*
X-122456Y83464D01*
X-122434Y83544D01*
X-122412Y83624D01*
X-122390Y83697D01*
X-122376Y83755D01*
X-122361Y83806D01*
X-122354Y83843D01*
X-122346Y83872D01*
Y83879D01*
X-122310Y84010D01*
X-122281Y84127D01*
X-122252Y84236D01*
X-122223Y84338D01*
X-122193Y84418D01*
X-122164Y84499D01*
X-122135Y84564D01*
X-122113Y84623D01*
X-122091Y84674D01*
X-122070Y84710D01*
X-122055Y84746D01*
X-122040Y84768D01*
X-122019Y84805D01*
X-122011Y84812D01*
X-121960Y84863D01*
X-121909Y84900D01*
X-121858Y84921D01*
X-121807Y84936D01*
X-121771Y84951D01*
X-121734Y84958D01*
X-121712D01*
X-121705D01*
X-121632Y84951D01*
X-121574Y84936D01*
X-121515Y84907D01*
X-121472Y84878D01*
X-121435Y84849D01*
X-121413Y84819D01*
X-121399Y84805D01*
X-121391Y84798D01*
X-121326Y84696D01*
X-121282Y84586D01*
X-121246Y84469D01*
X-121224Y84360D01*
X-121209Y84265D01*
X-121202Y84185D01*
Y84112D01*
X-121209Y83959D01*
X-121231Y83828D01*
X-121260Y83719D01*
X-121290Y83631D01*
X-121319Y83558D01*
X-121348Y83507D01*
X-121370Y83478D01*
X-121377Y83471D01*
X-121450Y83398D01*
X-121537Y83332D01*
X-121625Y83281D01*
X-121720Y83245D01*
X-121800Y83216D01*
X-121865Y83201D01*
X-121916Y83187D01*
X-121924D01*
X-121931D01*
X-121895Y82166D01*
X-121763Y82173D01*
X-121647Y82195D01*
X-121530Y82224D01*
X-121428Y82261D01*
X-121326Y82297D01*
X-121231Y82341D01*
X-121151Y82385D01*
X-121071Y82428D01*
X-121005Y82479D01*
X-120947Y82523D01*
X-120896Y82567D01*
X-120852Y82603D01*
X-120823Y82632D01*
X-120801Y82654D01*
X-120786Y82669D01*
X-120779Y82676D01*
X-120706Y82771D01*
X-120641Y82873D01*
X-120582Y82982D01*
X-120531Y83099D01*
X-120495Y83216D01*
X-120458Y83332D01*
X-120407Y83565D01*
X-120393Y83675D01*
X-120378Y83770D01*
X-120371Y83864D01*
X-120364Y83945D01*
X-120356Y84010D01*
Y84098D01*
X-120364Y84309D01*
X-120386Y84499D01*
X-120415Y84666D01*
X-120444Y84812D01*
X-120466Y84878D01*
X-120480Y84936D01*
X-120495Y84980D01*
X-120509Y85023D01*
X-120524Y85053D01*
X-120531Y85075D01*
X-120539Y85089D01*
Y85096D01*
X-120612Y85242D01*
X-120692Y85366D01*
X-120779Y85475D01*
X-120859Y85563D01*
X-120932Y85636D01*
X-120991Y85680D01*
X-121034Y85716D01*
X-121042Y85723D01*
X-121049D01*
X-121173Y85796D01*
X-121304Y85847D01*
X-121428Y85884D01*
X-121537Y85906D01*
X-121632Y85920D01*
X-121705Y85935D01*
X-121734D01*
X-121756D01*
X-121763D01*
X-121771D01*
X-121880Y85927D01*
X-121989Y85913D01*
X-122084Y85891D01*
X-122179Y85862D01*
X-122354Y85789D01*
X-122507Y85702D01*
X-122573Y85665D01*
X-122624Y85621D01*
X-122675Y85585D01*
X-122718Y85548D01*
X-122748Y85519D01*
X-122769Y85497D01*
X-122784Y85483D01*
X-122791Y85475D01*
X-122842Y85410D01*
X-122893Y85330D01*
X-122944Y85250D01*
X-122988Y85155D01*
X-123075Y84973D01*
X-123148Y84783D01*
X-123178Y84688D01*
X-123207Y84608D01*
X-123229Y84528D01*
X-123250Y84462D01*
X-123265Y84411D01*
X-123280Y84367D01*
X-123287Y84338D01*
Y84331D01*
X-123316Y84214D01*
X-123345Y84112D01*
X-123367Y84017D01*
X-123389Y83930D01*
X-123411Y83857D01*
X-123425Y83792D01*
X-123447Y83733D01*
X-123462Y83682D01*
X-123469Y83638D01*
X-123484Y83602D01*
X-123498Y83551D01*
X-123513Y83522D01*
Y83514D01*
X-123549Y83420D01*
X-123586Y83347D01*
X-123622Y83281D01*
X-123659Y83230D01*
X-123688Y83194D01*
X-123710Y83172D01*
X-123724Y83157D01*
X-123732Y83150D01*
X-123783Y83114D01*
X-123834Y83084D01*
X-123885Y83070D01*
X-123928Y83055D01*
X-123972Y83048D01*
X-124009Y83041D01*
X-124030D01*
X-124038D01*
X-124140Y83048D01*
X-124227Y83077D01*
X-124315Y83121D01*
X-124388Y83165D01*
X-124446Y83216D01*
X-124490Y83252D01*
X-124519Y83281D01*
X-124526Y83296D01*
X-124592Y83398D01*
X-124643Y83514D01*
X-124679Y83638D01*
X-124701Y83755D01*
X-124716Y83864D01*
X-124730Y83952D01*
Y84032D01*
X-124723Y84200D01*
X-124694Y84346D01*
X-124657Y84469D01*
X-124614Y84579D01*
X-124570Y84666D01*
X-124533Y84725D01*
X-124504Y84761D01*
X-124497Y84776D01*
X-124395Y84870D01*
X-124286Y84943D01*
X-124162Y85009D01*
X-124038Y85053D01*
X-123928Y85089D01*
X-123841Y85118D01*
X-123812Y85126D01*
X-123783D01*
X-123768Y85133D01*
X-123761D01*
X-123855Y86124D01*
D02*
G37*
G36*
X-125591Y82166D02*
Y82020D01*
D01*
Y82166D01*
D02*
G37*
G36*
X-120356Y79024D02*
Y78995D01*
D01*
Y79024D01*
D02*
G37*
G36*
Y78608D02*
Y78543D01*
D01*
Y78608D01*
D02*
G37*
G36*
Y78462D02*
Y78375D01*
D01*
Y78462D01*
D02*
G37*
G36*
Y78324D02*
Y78317D01*
D01*
Y78324D01*
D02*
G37*
G36*
Y78302D02*
Y78295D01*
D01*
Y78302D01*
D02*
G37*
G36*
Y78280D02*
Y78273D01*
D01*
Y78280D01*
D02*
G37*
G36*
Y78244D02*
Y78237D01*
D01*
Y78244D01*
D02*
G37*
G36*
Y78091D02*
Y78062D01*
D01*
Y78091D01*
D02*
G37*
G36*
Y78011D02*
Y77996D01*
D01*
Y78011D01*
D02*
G37*
G36*
Y77981D02*
D01*
D01*
D01*
D02*
G37*
G36*
Y77945D02*
Y77923D01*
D01*
Y77945D01*
D02*
G37*
G36*
Y77690D02*
Y77668D01*
D01*
Y77690D01*
D02*
G37*
G36*
Y77566D02*
Y77544D01*
D01*
Y77566D01*
D02*
G37*
G36*
Y77391D02*
Y77289D01*
D01*
Y77391D01*
D02*
G37*
G36*
Y77267D02*
Y77252D01*
D01*
Y77267D01*
D02*
G37*
G36*
X-122959Y79374D02*
X-123017D01*
X-123236Y79366D01*
X-123440Y79345D01*
X-123637Y79316D01*
X-123812Y79272D01*
X-123979Y79228D01*
X-124140Y79170D01*
X-124278Y79111D01*
X-124402Y79053D01*
X-124519Y78995D01*
X-124621Y78936D01*
X-124701Y78878D01*
X-124774Y78834D01*
X-124825Y78791D01*
X-124869Y78761D01*
X-124891Y78740D01*
X-124898Y78732D01*
X-125022Y78608D01*
X-125124Y78477D01*
X-125219Y78339D01*
X-125292Y78200D01*
X-125357Y78062D01*
X-125416Y77923D01*
X-125459Y77792D01*
X-125496Y77668D01*
X-125525Y77544D01*
X-125547Y77435D01*
X-125561Y77333D01*
X-125569Y77252D01*
X-125576Y77179D01*
X-125583Y77128D01*
Y79374D01*
D01*
Y74985D01*
D01*
Y77085D01*
X-125576Y76932D01*
X-125569Y76793D01*
X-125547Y76655D01*
X-125518Y76531D01*
X-125488Y76414D01*
X-125459Y76305D01*
X-125423Y76203D01*
X-125379Y76108D01*
X-125343Y76028D01*
X-125306Y75955D01*
X-125277Y75889D01*
X-125248Y75838D01*
X-125219Y75794D01*
X-125197Y75765D01*
X-125190Y75751D01*
X-125182Y75743D01*
X-125102Y75649D01*
X-125015Y75561D01*
X-124818Y75401D01*
X-124614Y75270D01*
X-124417Y75168D01*
X-124322Y75124D01*
X-124235Y75087D01*
X-124154Y75058D01*
X-124089Y75029D01*
X-124030Y75007D01*
X-123987Y74993D01*
X-123958Y74985D01*
X-125583D01*
X-120356D01*
X-123950D01*
X-123644Y75977D01*
X-123841Y76035D01*
X-124009Y76101D01*
X-124147Y76166D01*
X-124264Y76239D01*
X-124351Y76297D01*
X-124410Y76348D01*
X-124446Y76385D01*
X-124461Y76399D01*
X-124548Y76516D01*
X-124606Y76633D01*
X-124650Y76749D01*
X-124687Y76851D01*
X-124701Y76946D01*
X-124708Y77026D01*
X-124716Y77056D01*
Y77092D01*
X-124708Y77194D01*
X-124701Y77289D01*
X-124650Y77464D01*
X-124592Y77617D01*
X-124512Y77741D01*
X-124439Y77843D01*
X-124380Y77916D01*
X-124351Y77945D01*
X-124329Y77967D01*
X-124322Y77974D01*
X-124315Y77981D01*
X-124235Y78040D01*
X-124140Y78091D01*
X-124038Y78142D01*
X-123928Y78178D01*
X-123702Y78237D01*
X-123476Y78280D01*
X-123367Y78295D01*
X-123272Y78302D01*
X-123178Y78317D01*
X-123097D01*
X-123039Y78324D01*
X-122988D01*
X-122952D01*
X-122944D01*
X-122777Y78317D01*
X-122624Y78310D01*
X-122485Y78295D01*
X-122354Y78273D01*
X-122237Y78244D01*
X-122128Y78215D01*
X-122033Y78185D01*
X-121946Y78149D01*
X-121873Y78120D01*
X-121807Y78091D01*
X-121756Y78062D01*
X-121712Y78032D01*
X-121676Y78011D01*
X-121654Y77996D01*
X-121639Y77981D01*
X-121632D01*
X-121559Y77916D01*
X-121494Y77843D01*
X-121442Y77770D01*
X-121399Y77690D01*
X-121326Y77537D01*
X-121275Y77391D01*
X-121246Y77267D01*
X-121238Y77209D01*
X-121231Y77165D01*
X-121224Y77121D01*
Y77070D01*
X-121231Y76924D01*
X-121260Y76793D01*
X-121297Y76676D01*
X-121341Y76574D01*
X-121384Y76494D01*
X-121421Y76436D01*
X-121450Y76399D01*
X-121457Y76385D01*
X-121545Y76290D01*
X-121647Y76203D01*
X-121749Y76137D01*
X-121851Y76086D01*
X-121938Y76050D01*
X-122004Y76028D01*
X-122033Y76013D01*
X-122055D01*
X-122062Y76006D01*
X-122070D01*
X-121829Y75000D01*
X-121617Y75073D01*
X-121435Y75153D01*
X-121275Y75240D01*
X-121144Y75321D01*
X-121042Y75401D01*
X-120998Y75430D01*
X-120961Y75459D01*
X-120940Y75481D01*
X-120918Y75503D01*
X-120903Y75510D01*
Y75517D01*
X-120808Y75627D01*
X-120721Y75751D01*
X-120648Y75867D01*
X-120590Y75991D01*
X-120531Y76122D01*
X-120488Y76246D01*
X-120451Y76370D01*
X-120422Y76487D01*
X-120400Y76596D01*
X-120386Y76698D01*
X-120371Y76786D01*
X-120364Y76866D01*
X-120356Y76932D01*
D01*
D01*
D01*
D01*
Y77019D01*
X-120364Y77209D01*
X-120386Y77398D01*
X-120422Y77566D01*
X-120466Y77733D01*
X-120517Y77879D01*
X-120575Y78025D01*
X-120641Y78149D01*
X-120706Y78266D01*
X-120772Y78375D01*
X-120837Y78462D01*
X-120896Y78543D01*
X-120947Y78608D01*
X-120991Y78659D01*
X-121027Y78696D01*
X-121049Y78718D01*
X-121056Y78725D01*
X-121195Y78842D01*
X-121341Y78936D01*
X-121494Y79024D01*
X-121654Y79097D01*
X-121822Y79162D01*
X-121982Y79213D01*
X-122142Y79257D01*
X-122295Y79294D01*
X-122449Y79323D01*
X-122580Y79337D01*
X-122704Y79352D01*
X-122806Y79366D01*
X-122893D01*
X-122959Y79374D01*
D02*
G37*
G36*
X-120356Y77092D02*
Y77056D01*
D01*
Y77092D01*
D02*
G37*
G36*
Y76851D02*
Y76793D01*
D01*
Y76851D01*
D02*
G37*
G36*
Y76655D02*
Y76633D01*
D01*
Y76655D01*
D02*
G37*
G36*
Y76574D02*
Y76531D01*
D01*
Y76574D01*
D02*
G37*
G36*
Y76487D02*
Y76436D01*
D01*
Y76487D01*
D02*
G37*
G36*
Y76399D02*
D01*
D01*
D01*
D02*
G37*
G36*
Y76385D02*
Y76370D01*
D01*
Y76385D01*
D02*
G37*
G36*
Y76239D02*
Y76203D01*
D01*
Y76239D01*
D02*
G37*
G36*
Y76203D02*
Y76166D01*
D01*
Y76203D01*
D02*
G37*
G36*
Y76122D02*
Y76108D01*
D01*
Y76122D01*
D02*
G37*
G36*
Y76028D02*
Y76013D01*
D01*
Y76028D01*
D02*
G37*
G36*
Y75991D02*
Y75977D01*
D01*
Y75991D01*
D02*
G37*
G36*
X-120451Y74621D02*
X-125496D01*
Y69561D01*
D01*
X-120451Y71588D01*
Y72667D01*
X-125496Y74621D01*
X-120451D01*
D02*
G37*
G36*
Y69015D02*
X-125496D01*
Y65151D01*
D01*
Y67994D01*
X-123593D01*
Y67090D01*
X-123586Y66981D01*
Y66879D01*
X-123579Y66784D01*
X-123571Y66697D01*
X-123564Y66616D01*
X-123557Y66551D01*
Y66485D01*
X-123549Y66434D01*
X-123542Y66383D01*
X-123535Y66347D01*
Y66317D01*
X-123528Y66295D01*
Y66281D01*
X-123498Y66179D01*
X-123462Y66084D01*
X-123425Y65997D01*
X-123382Y65916D01*
X-123345Y65851D01*
X-123316Y65800D01*
X-123294Y65771D01*
X-123287Y65756D01*
X-123214Y65661D01*
X-123134Y65581D01*
X-123046Y65501D01*
X-122973Y65443D01*
X-122900Y65392D01*
X-122842Y65355D01*
X-122806Y65333D01*
X-122791Y65326D01*
X-122667Y65268D01*
X-122536Y65224D01*
X-122397Y65195D01*
X-122274Y65173D01*
X-122171Y65158D01*
X-122120D01*
X-122084Y65151D01*
X-122004D01*
X-121792Y65166D01*
X-121596Y65195D01*
X-121435Y65246D01*
X-121290Y65297D01*
X-121231Y65326D01*
X-121180Y65355D01*
X-121136Y65377D01*
X-121093Y65406D01*
X-121063Y65421D01*
X-121042Y65435D01*
X-121034Y65450D01*
X-121027D01*
X-120896Y65566D01*
X-120786Y65683D01*
X-120699Y65807D01*
X-120633Y65916D01*
X-120590Y66018D01*
X-120553Y66099D01*
X-120546Y66128D01*
X-120539Y66150D01*
X-120531Y66164D01*
Y66172D01*
X-120517Y66230D01*
X-120502Y66303D01*
X-120495Y66390D01*
X-120488Y66478D01*
X-120473Y66682D01*
X-120458Y66886D01*
Y67076D01*
X-120451Y67156D01*
Y69015D01*
D02*
G37*
G36*
X-123855Y64582D02*
D01*
X-124009Y64561D01*
X-124154Y64531D01*
X-124293Y64488D01*
X-124417Y64451D01*
X-124533Y64400D01*
X-124643Y64349D01*
X-124738Y64298D01*
X-124825Y64247D01*
X-124898Y64196D01*
X-124964Y64145D01*
X-125022Y64101D01*
X-125073Y64057D01*
X-125109Y64028D01*
X-125131Y63999D01*
X-125146Y63985D01*
X-125153Y63977D01*
X-125233Y63875D01*
X-125299Y63766D01*
X-125357Y63649D01*
X-125408Y63525D01*
X-125445Y63409D01*
X-125481Y63285D01*
X-125532Y63044D01*
X-125554Y62935D01*
X-125569Y62833D01*
X-125576Y62745D01*
X-125583Y62665D01*
X-125591Y62599D01*
Y64582D01*
X-123855D01*
X-125591D01*
Y60478D01*
D01*
Y62505D01*
X-125583Y62271D01*
X-125561Y62060D01*
X-125532Y61870D01*
X-125518Y61790D01*
X-125496Y61710D01*
X-125481Y61645D01*
X-125467Y61586D01*
X-125452Y61535D01*
X-125437Y61491D01*
X-125423Y61455D01*
X-125416Y61433D01*
X-125408Y61418D01*
Y61411D01*
X-125328Y61251D01*
X-125241Y61120D01*
X-125153Y60996D01*
X-125058Y60901D01*
X-124978Y60828D01*
X-124905Y60770D01*
X-124862Y60741D01*
X-124854Y60726D01*
X-124847D01*
X-124701Y60646D01*
X-124563Y60580D01*
X-124424Y60536D01*
X-124293Y60507D01*
X-124191Y60493D01*
X-124140Y60485D01*
X-124103Y60478D01*
X-124030D01*
D01*
X-120356D01*
X-124030D01*
X-123855Y60485D01*
X-123702Y60507D01*
X-123564Y60544D01*
X-123447Y60580D01*
X-123353Y60617D01*
X-123287Y60653D01*
X-123243Y60675D01*
X-123229Y60682D01*
X-123112Y60762D01*
X-123010Y60857D01*
X-122922Y60952D01*
X-122850Y61039D01*
X-122791Y61120D01*
X-122748Y61185D01*
X-122718Y61229D01*
X-122711Y61236D01*
Y61244D01*
X-122675Y61317D01*
X-122638Y61389D01*
X-122573Y61564D01*
X-122514Y61747D01*
X-122456Y61922D01*
X-122434Y62002D01*
X-122412Y62082D01*
X-122390Y62155D01*
X-122376Y62213D01*
X-122361Y62264D01*
X-122354Y62301D01*
X-122346Y62330D01*
Y62337D01*
X-122310Y62468D01*
X-122281Y62585D01*
X-122252Y62694D01*
X-122223Y62796D01*
X-122193Y62876D01*
X-122164Y62957D01*
X-122135Y63022D01*
X-122113Y63081D01*
X-122091Y63132D01*
X-122070Y63168D01*
X-122055Y63205D01*
X-122040Y63226D01*
X-122019Y63263D01*
X-122011Y63270D01*
X-121960Y63321D01*
X-121909Y63358D01*
X-121858Y63380D01*
X-121807Y63394D01*
X-121771Y63409D01*
X-121734Y63416D01*
X-121712D01*
X-121705D01*
X-121632Y63409D01*
X-121574Y63394D01*
X-121515Y63365D01*
X-121472Y63336D01*
X-121435Y63307D01*
X-121413Y63278D01*
X-121399Y63263D01*
X-121391Y63256D01*
X-121326Y63153D01*
X-121282Y63044D01*
X-121246Y62928D01*
X-121224Y62818D01*
X-121209Y62723D01*
X-121202Y62643D01*
Y62570D01*
X-121209Y62417D01*
X-121231Y62286D01*
X-121260Y62177D01*
X-121290Y62089D01*
X-121319Y62016D01*
X-121348Y61965D01*
X-121370Y61936D01*
X-121377Y61929D01*
X-121450Y61856D01*
X-121537Y61790D01*
X-121625Y61739D01*
X-121720Y61703D01*
X-121800Y61674D01*
X-121865Y61659D01*
X-121916Y61645D01*
X-121924D01*
X-121931D01*
X-121895Y60624D01*
X-121763Y60631D01*
X-121647Y60653D01*
X-121530Y60682D01*
X-121428Y60719D01*
X-121326Y60755D01*
X-121231Y60799D01*
X-121151Y60843D01*
X-121071Y60886D01*
X-121005Y60937D01*
X-120947Y60981D01*
X-120896Y61025D01*
X-120852Y61061D01*
X-120823Y61090D01*
X-120801Y61112D01*
X-120786Y61127D01*
X-120779Y61134D01*
X-120706Y61229D01*
X-120641Y61331D01*
X-120582Y61440D01*
X-120531Y61557D01*
X-120495Y61674D01*
X-120458Y61790D01*
X-120407Y62024D01*
X-120393Y62133D01*
X-120378Y62228D01*
X-120371Y62322D01*
X-120364Y62403D01*
X-120356Y62468D01*
Y62556D01*
X-120364Y62767D01*
X-120386Y62957D01*
X-120415Y63124D01*
X-120444Y63270D01*
X-120466Y63336D01*
X-120480Y63394D01*
X-120495Y63438D01*
X-120509Y63482D01*
X-120524Y63511D01*
X-120531Y63533D01*
X-120539Y63547D01*
Y63555D01*
X-120612Y63700D01*
X-120692Y63824D01*
X-120779Y63934D01*
X-120859Y64021D01*
X-120932Y64094D01*
X-120991Y64138D01*
X-121034Y64174D01*
X-121042Y64181D01*
X-121049D01*
X-121173Y64254D01*
X-121304Y64305D01*
X-121428Y64342D01*
X-121537Y64364D01*
X-121632Y64378D01*
X-121705Y64393D01*
X-121734D01*
X-121756D01*
X-121763D01*
X-121771D01*
X-121880Y64386D01*
X-121989Y64371D01*
X-122084Y64349D01*
X-122179Y64320D01*
X-122354Y64247D01*
X-122507Y64160D01*
X-122573Y64123D01*
X-122624Y64079D01*
X-122675Y64043D01*
X-122718Y64007D01*
X-122748Y63977D01*
X-122769Y63955D01*
X-122784Y63941D01*
X-122791Y63934D01*
X-122842Y63868D01*
X-122893Y63788D01*
X-122944Y63708D01*
X-122988Y63613D01*
X-123075Y63431D01*
X-123148Y63241D01*
X-123178Y63146D01*
X-123207Y63066D01*
X-123229Y62986D01*
X-123250Y62920D01*
X-123265Y62869D01*
X-123280Y62826D01*
X-123287Y62796D01*
Y62789D01*
X-123316Y62672D01*
X-123345Y62570D01*
X-123367Y62476D01*
X-123389Y62388D01*
X-123411Y62315D01*
X-123425Y62250D01*
X-123447Y62191D01*
X-123462Y62140D01*
X-123469Y62097D01*
X-123484Y62060D01*
X-123498Y62009D01*
X-123513Y61980D01*
Y61973D01*
X-123549Y61878D01*
X-123586Y61805D01*
X-123622Y61739D01*
X-123659Y61688D01*
X-123688Y61652D01*
X-123710Y61630D01*
X-123724Y61615D01*
X-123732Y61608D01*
X-123783Y61572D01*
X-123834Y61542D01*
X-123885Y61528D01*
X-123928Y61513D01*
X-123972Y61506D01*
X-124009Y61499D01*
X-124030D01*
X-124038D01*
X-124140Y61506D01*
X-124227Y61535D01*
X-124315Y61579D01*
X-124388Y61623D01*
X-124446Y61674D01*
X-124490Y61710D01*
X-124519Y61739D01*
X-124526Y61754D01*
X-124592Y61856D01*
X-124643Y61973D01*
X-124679Y62097D01*
X-124701Y62213D01*
X-124716Y62322D01*
X-124730Y62410D01*
Y62490D01*
X-124723Y62658D01*
X-124694Y62804D01*
X-124657Y62928D01*
X-124614Y63037D01*
X-124570Y63124D01*
X-124533Y63183D01*
X-124504Y63219D01*
X-124497Y63234D01*
X-124395Y63328D01*
X-124286Y63401D01*
X-124162Y63467D01*
X-124038Y63511D01*
X-123928Y63547D01*
X-123841Y63576D01*
X-123812Y63584D01*
X-123783D01*
X-123768Y63591D01*
X-123761D01*
X-123855Y64582D01*
D02*
G37*
G36*
X-124103Y60478D02*
X-125591D01*
X-124103D01*
D01*
D02*
G37*
G36*
X-120451Y59968D02*
X-121304D01*
Y58473D01*
X-125496D01*
Y59968D01*
D01*
Y55966D01*
D01*
Y57453D01*
X-121304D01*
Y55966D01*
X-125496D01*
X-120451D01*
Y59968D01*
D02*
G37*
G36*
X-122937Y55514D02*
X-123010D01*
X-123229Y55506D01*
X-123440Y55484D01*
X-123637Y55455D01*
X-123819Y55412D01*
X-123987Y55361D01*
X-124140Y55302D01*
X-124286Y55244D01*
X-124410Y55178D01*
X-124526Y55120D01*
X-124621Y55062D01*
X-124708Y55003D01*
X-124781Y54952D01*
X-124832Y54909D01*
X-124876Y54879D01*
X-124898Y54857D01*
X-124905Y54850D01*
X-125029Y54719D01*
X-125131Y54580D01*
X-125226Y54442D01*
X-125299Y54289D01*
X-125365Y54143D01*
X-125423Y53990D01*
X-125467Y53851D01*
X-125503Y53706D01*
X-125532Y53575D01*
X-125554Y53451D01*
X-125569Y53341D01*
X-125576Y53246D01*
X-125583Y53174D01*
X-125591Y53115D01*
Y55514D01*
D01*
Y50622D01*
D01*
Y53064D01*
X-125583Y52860D01*
X-125561Y52671D01*
X-125525Y52488D01*
X-125481Y52321D01*
X-125430Y52160D01*
X-125372Y52014D01*
X-125313Y51883D01*
X-125248Y51759D01*
X-125182Y51657D01*
X-125124Y51562D01*
X-125066Y51482D01*
X-125015Y51417D01*
X-124971Y51358D01*
X-124934Y51322D01*
X-124913Y51300D01*
X-124905Y51293D01*
X-124767Y51176D01*
X-124621Y51074D01*
X-124468Y50979D01*
X-124315Y50906D01*
X-124154Y50841D01*
X-123994Y50782D01*
X-123834Y50739D01*
X-123681Y50702D01*
X-123542Y50680D01*
X-123404Y50659D01*
X-123287Y50644D01*
X-123185Y50629D01*
X-123097D01*
X-123032Y50622D01*
X-125591D01*
X-120356D01*
D01*
X-122981D01*
X-122755Y50629D01*
X-122543Y50651D01*
X-122346Y50680D01*
X-122157Y50724D01*
X-121989Y50775D01*
X-121829Y50833D01*
X-121683Y50892D01*
X-121559Y50957D01*
X-121442Y51023D01*
X-121341Y51081D01*
X-121253Y51140D01*
X-121180Y51191D01*
X-121129Y51227D01*
X-121085Y51263D01*
X-121063Y51285D01*
X-121056Y51293D01*
X-120932Y51424D01*
X-120823Y51562D01*
X-120728Y51708D01*
X-120648Y51854D01*
X-120582Y52007D01*
X-120524Y52153D01*
X-120480Y52299D01*
X-120444Y52437D01*
X-120415Y52569D01*
X-120393Y52692D01*
X-120378Y52802D01*
X-120364Y52896D01*
Y52969D01*
X-120356Y53028D01*
Y53079D01*
X-120364Y53298D01*
X-120386Y53509D01*
X-120422Y53691D01*
X-120458Y53851D01*
X-120480Y53917D01*
X-120495Y53983D01*
X-120509Y54034D01*
X-120531Y54078D01*
X-120539Y54114D01*
X-120553Y54143D01*
X-120560Y54158D01*
Y54165D01*
X-120619Y54296D01*
X-120692Y54420D01*
X-120772Y54530D01*
X-120845Y54624D01*
X-120910Y54704D01*
X-120969Y54770D01*
X-121005Y54807D01*
X-121012Y54814D01*
X-121020Y54821D01*
X-121136Y54923D01*
X-121260Y55018D01*
X-121370Y55098D01*
X-121479Y55164D01*
X-121574Y55215D01*
X-121647Y55259D01*
X-121676Y55266D01*
X-121698Y55280D01*
X-121705Y55288D01*
X-121712D01*
X-121916Y55361D01*
X-122135Y55419D01*
X-122354Y55455D01*
X-122558Y55484D01*
X-122653Y55492D01*
X-122740Y55499D01*
X-122813Y55506D01*
X-122879D01*
X-122937Y55514D01*
D02*
G37*
G36*
X-120451Y49820D02*
X-125496D01*
Y45811D01*
X-120451D01*
Y46751D01*
X-123848D01*
X-120451Y48836D01*
Y49820D01*
D02*
G37*
G36*
Y44732D02*
X-125496D01*
Y40897D01*
X-120451D01*
Y44732D01*
D02*
G37*
%LPD*%
G36*
X-121304Y136556D02*
X-121311Y136484D01*
Y136418D01*
X-121319Y136352D01*
Y136258D01*
X-121326Y136185D01*
X-121333Y136134D01*
X-121341Y136105D01*
Y136097D01*
X-121362Y136010D01*
X-121391Y135930D01*
X-121428Y135857D01*
X-121472Y135798D01*
X-121508Y135755D01*
X-121537Y135718D01*
X-121559Y135696D01*
X-121566Y135689D01*
X-121639Y135631D01*
X-121712Y135594D01*
X-121792Y135565D01*
X-121865Y135543D01*
X-121931Y135529D01*
X-121982Y135521D01*
X-122011D01*
X-122026D01*
X-122106Y135529D01*
X-122179Y135536D01*
X-122244Y135558D01*
X-122303Y135580D01*
X-122354Y135602D01*
X-122390Y135616D01*
X-122412Y135631D01*
X-122419Y135638D01*
X-122478Y135682D01*
X-122529Y135740D01*
X-122573Y135791D01*
X-122609Y135842D01*
X-122631Y135886D01*
X-122653Y135922D01*
X-122660Y135951D01*
X-122667Y135959D01*
X-122682Y136003D01*
X-122689Y136054D01*
X-122711Y136170D01*
X-122726Y136301D01*
X-122733Y136433D01*
Y136564D01*
X-122740Y136615D01*
Y137315D01*
X-121304D01*
Y136556D01*
D02*
G37*
G36*
X-121625Y131665D02*
X-123498Y130958D01*
Y132350D01*
X-121625Y131665D01*
D02*
G37*
G36*
X-124351Y132656D02*
Y130630D01*
X-125496Y130192D01*
Y133072D01*
X-124351Y132656D01*
D02*
G37*
G36*
X-125496Y114876D02*
Y115867D01*
X-121530D01*
X-125496Y114876D01*
D02*
G37*
G36*
X-121530Y112900D02*
X-125496Y112893D01*
Y113892D01*
X-121530Y112900D01*
D02*
G37*
G36*
X-122813Y110072D02*
X-122667Y110065D01*
X-122529Y110043D01*
X-122397Y110021D01*
X-122281Y109992D01*
X-122171Y109963D01*
X-122077Y109926D01*
X-121989Y109890D01*
X-121909Y109853D01*
X-121844Y109817D01*
X-121792Y109788D01*
X-121741Y109758D01*
X-121705Y109737D01*
X-121683Y109715D01*
X-121669Y109707D01*
X-121661Y109700D01*
X-121581Y109627D01*
X-121515Y109547D01*
X-121457Y109460D01*
X-121406Y109379D01*
X-121362Y109292D01*
X-121333Y109204D01*
X-121275Y109044D01*
X-121246Y108898D01*
X-121238Y108840D01*
X-121231Y108782D01*
X-121224Y108738D01*
Y108680D01*
X-121231Y108563D01*
X-121246Y108454D01*
X-121260Y108352D01*
X-121290Y108257D01*
X-121362Y108089D01*
X-121399Y108009D01*
X-121435Y107943D01*
X-121479Y107878D01*
X-121515Y107827D01*
X-121552Y107783D01*
X-121588Y107739D01*
X-121617Y107710D01*
X-121632Y107688D01*
X-121647Y107681D01*
X-121654Y107674D01*
X-121741Y107608D01*
X-121836Y107542D01*
X-121931Y107491D01*
X-122040Y107448D01*
X-122259Y107382D01*
X-122470Y107338D01*
X-122565Y107316D01*
X-122660Y107309D01*
X-122740Y107302D01*
X-122813Y107294D01*
X-122879Y107287D01*
X-122922D01*
X-122952D01*
X-122959D01*
X-123119Y107294D01*
X-123272Y107302D01*
X-123411Y107324D01*
X-123535Y107345D01*
X-123659Y107375D01*
X-123768Y107411D01*
X-123863Y107448D01*
X-123950Y107484D01*
X-124030Y107520D01*
X-124096Y107557D01*
X-124154Y107586D01*
X-124205Y107623D01*
X-124242Y107644D01*
X-124264Y107666D01*
X-124278Y107674D01*
X-124286Y107681D01*
X-124366Y107754D01*
X-124431Y107834D01*
X-124490Y107921D01*
X-124541Y108002D01*
X-124577Y108089D01*
X-124614Y108169D01*
X-124665Y108330D01*
X-124701Y108468D01*
X-124708Y108527D01*
X-124716Y108578D01*
X-124723Y108621D01*
Y108680D01*
X-124716Y108789D01*
X-124701Y108898D01*
X-124679Y109000D01*
X-124650Y109095D01*
X-124584Y109270D01*
X-124497Y109409D01*
X-124461Y109474D01*
X-124417Y109525D01*
X-124380Y109576D01*
X-124344Y109613D01*
X-124322Y109642D01*
X-124300Y109664D01*
X-124286Y109678D01*
X-124278Y109686D01*
X-124191Y109751D01*
X-124096Y109817D01*
X-123994Y109868D01*
X-123885Y109912D01*
X-123673Y109985D01*
X-123462Y110028D01*
X-123360Y110043D01*
X-123272Y110057D01*
X-123185Y110065D01*
X-123112Y110072D01*
X-123054Y110079D01*
X-123010D01*
X-122981D01*
X-122973D01*
X-122813Y110072D01*
D02*
G37*
G36*
X-125496Y102447D02*
Y104495D01*
X-122171D01*
X-125496Y102447D01*
D02*
G37*
G36*
X-123126Y98503D02*
X-125496Y97110D01*
Y99326D01*
X-123972D01*
X-123126Y98503D01*
D02*
G37*
G36*
X-121625Y72135D02*
X-123498Y71428D01*
Y72820D01*
X-121625Y72135D01*
D02*
G37*
G36*
X-124351Y73126D02*
Y71100D01*
X-125496Y70662D01*
Y73542D01*
X-124351Y73126D01*
D02*
G37*
G36*
X-121304Y67236D02*
X-121311Y67163D01*
Y67097D01*
X-121319Y67032D01*
Y66937D01*
X-121326Y66864D01*
X-121333Y66813D01*
X-121341Y66784D01*
Y66777D01*
X-121362Y66689D01*
X-121391Y66609D01*
X-121428Y66536D01*
X-121472Y66478D01*
X-121508Y66434D01*
X-121537Y66398D01*
X-121559Y66376D01*
X-121566Y66368D01*
X-121639Y66310D01*
X-121712Y66274D01*
X-121792Y66245D01*
X-121865Y66223D01*
X-121931Y66208D01*
X-121982Y66201D01*
X-122011D01*
X-122026D01*
X-122106Y66208D01*
X-122179Y66215D01*
X-122244Y66237D01*
X-122303Y66259D01*
X-122354Y66281D01*
X-122390Y66295D01*
X-122412Y66310D01*
X-122419Y66317D01*
X-122478Y66361D01*
X-122529Y66420D01*
X-122573Y66470D01*
X-122609Y66522D01*
X-122631Y66565D01*
X-122653Y66602D01*
X-122660Y66631D01*
X-122667Y66638D01*
X-122682Y66682D01*
X-122689Y66733D01*
X-122711Y66850D01*
X-122726Y66981D01*
X-122733Y67112D01*
Y67243D01*
X-122740Y67294D01*
Y67994D01*
X-121304D01*
Y67236D01*
D02*
G37*
G36*
X-122813Y54457D02*
X-122667Y54449D01*
X-122529Y54427D01*
X-122397Y54405D01*
X-122281Y54376D01*
X-122171Y54347D01*
X-122077Y54311D01*
X-121989Y54274D01*
X-121909Y54238D01*
X-121844Y54201D01*
X-121792Y54172D01*
X-121741Y54143D01*
X-121705Y54121D01*
X-121683Y54099D01*
X-121669Y54092D01*
X-121661Y54085D01*
X-121581Y54012D01*
X-121515Y53932D01*
X-121457Y53844D01*
X-121406Y53764D01*
X-121362Y53676D01*
X-121333Y53589D01*
X-121275Y53429D01*
X-121246Y53283D01*
X-121238Y53225D01*
X-121231Y53166D01*
X-121224Y53123D01*
Y53064D01*
X-121231Y52947D01*
X-121246Y52838D01*
X-121260Y52736D01*
X-121290Y52641D01*
X-121362Y52474D01*
X-121399Y52394D01*
X-121435Y52328D01*
X-121479Y52262D01*
X-121515Y52211D01*
X-121552Y52167D01*
X-121588Y52124D01*
X-121617Y52095D01*
X-121632Y52073D01*
X-121647Y52065D01*
X-121654Y52058D01*
X-121741Y51993D01*
X-121836Y51927D01*
X-121931Y51876D01*
X-122040Y51832D01*
X-122259Y51767D01*
X-122470Y51723D01*
X-122565Y51701D01*
X-122660Y51694D01*
X-122740Y51686D01*
X-122813Y51679D01*
X-122879Y51672D01*
X-122922D01*
X-122952D01*
X-122959D01*
X-123119Y51679D01*
X-123272Y51686D01*
X-123411Y51708D01*
X-123535Y51730D01*
X-123659Y51759D01*
X-123768Y51796D01*
X-123863Y51832D01*
X-123950Y51869D01*
X-124030Y51905D01*
X-124096Y51942D01*
X-124154Y51971D01*
X-124205Y52007D01*
X-124242Y52029D01*
X-124264Y52051D01*
X-124278Y52058D01*
X-124286Y52065D01*
X-124366Y52138D01*
X-124431Y52219D01*
X-124490Y52306D01*
X-124541Y52386D01*
X-124577Y52474D01*
X-124614Y52554D01*
X-124665Y52714D01*
X-124701Y52853D01*
X-124708Y52911D01*
X-124716Y52962D01*
X-124723Y53006D01*
Y53064D01*
X-124716Y53174D01*
X-124701Y53283D01*
X-124679Y53385D01*
X-124650Y53480D01*
X-124584Y53655D01*
X-124497Y53793D01*
X-124461Y53859D01*
X-124417Y53910D01*
X-124380Y53961D01*
X-124344Y53997D01*
X-124322Y54027D01*
X-124300Y54048D01*
X-124286Y54063D01*
X-124278Y54070D01*
X-124191Y54136D01*
X-124096Y54201D01*
X-123994Y54252D01*
X-123885Y54296D01*
X-123673Y54369D01*
X-123462Y54413D01*
X-123360Y54427D01*
X-123272Y54442D01*
X-123185Y54449D01*
X-123112Y54457D01*
X-123054Y54464D01*
X-123010D01*
X-122981D01*
X-122973D01*
X-122813Y54457D01*
D02*
G37*
G36*
X-125496Y46831D02*
Y48880D01*
X-122171D01*
X-125496Y46831D01*
D02*
G37*
G36*
X-121304Y40992D02*
X-120451D01*
Y40897D01*
X-124643D01*
Y43711D01*
X-123272D01*
Y41181D01*
X-122419D01*
Y43711D01*
X-121304D01*
Y40992D01*
D02*
G37*
%LPC*%
G36*
X-30158Y7983D02*
X-31018D01*
Y6993D01*
X-30189D01*
X-30084Y6999D01*
X-29892D01*
X-29855Y7005D01*
X-29818D01*
X-29793Y7011D01*
X-29756Y7017D01*
X-29700Y7036D01*
X-29644Y7054D01*
X-29589Y7079D01*
X-29533Y7110D01*
X-29483Y7153D01*
X-29477Y7160D01*
X-29465Y7178D01*
X-29440Y7203D01*
X-29415Y7246D01*
X-29397Y7296D01*
X-29372Y7351D01*
X-29359Y7420D01*
X-29353Y7494D01*
Y7500D01*
Y7525D01*
X-29359Y7562D01*
X-29366Y7611D01*
X-29378Y7661D01*
X-29403Y7711D01*
X-29428Y7766D01*
X-29465Y7816D01*
X-29471Y7822D01*
X-29483Y7834D01*
X-29514Y7859D01*
X-29545Y7884D01*
X-29595Y7909D01*
X-29651Y7933D01*
X-29719Y7952D01*
X-29793Y7964D01*
X-29799D01*
X-29824Y7970D01*
X-29892D01*
X-29929Y7977D01*
X-30090D01*
X-30158Y7983D01*
D02*
G37*
G36*
X-30121Y6281D02*
X-31018D01*
Y5136D01*
X-30065D01*
X-29972Y5142D01*
X-29873D01*
X-29774Y5148D01*
X-29694Y5154D01*
X-29657D01*
X-29632Y5160D01*
X-29626D01*
X-29601Y5166D01*
X-29564Y5179D01*
X-29520Y5191D01*
X-29471Y5216D01*
X-29415Y5247D01*
X-29366Y5284D01*
X-29316Y5327D01*
X-29310Y5334D01*
X-29298Y5352D01*
X-29279Y5383D01*
X-29254Y5426D01*
X-29230Y5476D01*
X-29211Y5538D01*
X-29199Y5612D01*
X-29192Y5693D01*
Y5699D01*
Y5723D01*
X-29199Y5761D01*
X-29205Y5804D01*
X-29217Y5860D01*
X-29236Y5909D01*
X-29261Y5965D01*
X-29291Y6021D01*
X-29298Y6027D01*
X-29310Y6045D01*
X-29329Y6070D01*
X-29359Y6095D01*
X-29397Y6132D01*
X-29446Y6163D01*
X-29502Y6194D01*
X-29564Y6219D01*
X-29570D01*
X-29601Y6231D01*
X-29651Y6237D01*
X-29681Y6244D01*
X-29725Y6250D01*
X-29768Y6256D01*
X-29824Y6262D01*
X-29886Y6268D01*
X-29960D01*
X-30034Y6274D01*
X-30121Y6281D01*
D02*
G37*
G36*
X-56979Y7970D02*
X-57623D01*
Y6751D01*
X-57029D01*
X-56985Y6757D01*
X-56874D01*
X-56763Y6763D01*
X-56651Y6776D01*
X-56552Y6794D01*
X-56509Y6801D01*
X-56472Y6813D01*
X-56466Y6819D01*
X-56441Y6825D01*
X-56410Y6844D01*
X-56373Y6863D01*
X-56329Y6893D01*
X-56286Y6931D01*
X-56236Y6974D01*
X-56199Y7023D01*
X-56193Y7030D01*
X-56181Y7048D01*
X-56168Y7079D01*
X-56150Y7123D01*
X-56131Y7172D01*
X-56113Y7228D01*
X-56107Y7290D01*
X-56100Y7358D01*
Y7370D01*
Y7395D01*
X-56107Y7438D01*
X-56119Y7494D01*
X-56138Y7556D01*
X-56162Y7624D01*
X-56193Y7686D01*
X-56243Y7748D01*
X-56249Y7754D01*
X-56267Y7772D01*
X-56298Y7797D01*
X-56336Y7828D01*
X-56385Y7865D01*
X-56447Y7896D01*
X-56515Y7921D01*
X-56589Y7940D01*
X-56595D01*
X-56620Y7946D01*
X-56664Y7952D01*
X-56726Y7958D01*
X-56806D01*
X-56862Y7964D01*
X-56917D01*
X-56979Y7970D01*
D02*
G37*
G36*
X-94633Y7970D02*
X-95196D01*
Y5136D01*
X-94435D01*
X-94354Y5142D01*
X-94268D01*
X-94181Y5154D01*
X-94101Y5160D01*
X-94033Y5173D01*
X-94020D01*
X-93995Y5185D01*
X-93958Y5197D01*
X-93909Y5216D01*
X-93853Y5241D01*
X-93797Y5272D01*
X-93742Y5309D01*
X-93686Y5352D01*
X-93680Y5358D01*
X-93661Y5377D01*
X-93637Y5408D01*
X-93606Y5451D01*
X-93575Y5507D01*
X-93531Y5575D01*
X-93500Y5662D01*
X-93463Y5761D01*
Y5767D01*
X-93457Y5773D01*
Y5792D01*
X-93451Y5816D01*
X-93438Y5841D01*
X-93432Y5878D01*
X-93414Y5971D01*
X-93401Y6083D01*
X-93383Y6213D01*
X-93376Y6374D01*
X-93370Y6547D01*
Y6553D01*
Y6572D01*
Y6596D01*
Y6627D01*
Y6671D01*
X-93376Y6720D01*
X-93383Y6825D01*
X-93395Y6949D01*
X-93407Y7079D01*
X-93432Y7197D01*
X-93463Y7308D01*
Y7314D01*
X-93469Y7321D01*
X-93482Y7351D01*
X-93500Y7401D01*
X-93525Y7463D01*
X-93562Y7525D01*
X-93606Y7593D01*
X-93655Y7661D01*
X-93711Y7723D01*
X-93717Y7729D01*
X-93735Y7748D01*
X-93773Y7772D01*
X-93816Y7803D01*
X-93878Y7841D01*
X-93946Y7871D01*
X-94020Y7902D01*
X-94107Y7927D01*
X-94113D01*
X-94144Y7933D01*
X-94194Y7940D01*
X-94262Y7952D01*
X-94305D01*
X-94361Y7958D01*
X-94416D01*
X-94478Y7964D01*
X-94553D01*
X-94633Y7970D01*
D02*
G37*
G36*
X-64903Y8039D02*
X-64952D01*
X-64989Y8032D01*
X-65039Y8026D01*
X-65088Y8020D01*
X-65212Y7995D01*
X-65348Y7946D01*
X-65422Y7921D01*
X-65497Y7884D01*
X-65565Y7841D01*
X-65639Y7791D01*
X-65707Y7735D01*
X-65769Y7667D01*
X-65775Y7661D01*
X-65781Y7649D01*
X-65800Y7630D01*
X-65819Y7599D01*
X-65843Y7556D01*
X-65868Y7512D01*
X-65899Y7457D01*
X-65930Y7389D01*
X-65961Y7314D01*
X-65992Y7234D01*
X-66017Y7141D01*
X-66041Y7042D01*
X-66060Y6931D01*
X-66079Y6813D01*
X-66085Y6689D01*
X-66091Y6553D01*
Y6547D01*
Y6522D01*
Y6485D01*
X-66085Y6435D01*
X-66079Y6374D01*
X-66072Y6299D01*
X-66060Y6225D01*
X-66048Y6138D01*
X-66010Y5959D01*
X-65949Y5779D01*
X-65912Y5686D01*
X-65868Y5600D01*
X-65812Y5519D01*
X-65757Y5445D01*
X-65750Y5439D01*
X-65738Y5426D01*
X-65720Y5408D01*
X-65695Y5389D01*
X-65664Y5358D01*
X-65621Y5327D01*
X-65577Y5290D01*
X-65522Y5259D01*
X-65404Y5185D01*
X-65255Y5129D01*
X-65175Y5105D01*
X-65088Y5086D01*
X-64995Y5074D01*
X-64903Y5067D01*
X-64853D01*
X-64816Y5074D01*
X-64772Y5080D01*
X-64723Y5086D01*
X-64605Y5117D01*
X-64469Y5160D01*
X-64401Y5191D01*
X-64327Y5222D01*
X-64259Y5266D01*
X-64184Y5315D01*
X-64116Y5371D01*
X-64055Y5439D01*
X-64048Y5445D01*
X-64042Y5457D01*
X-64024Y5476D01*
X-64005Y5507D01*
X-63974Y5550D01*
X-63949Y5600D01*
X-63918Y5655D01*
X-63887Y5723D01*
X-63856Y5798D01*
X-63826Y5878D01*
X-63794Y5971D01*
X-63770Y6076D01*
X-63751Y6182D01*
X-63733Y6299D01*
X-63726Y6429D01*
X-63720Y6565D01*
Y6572D01*
Y6596D01*
Y6634D01*
X-63726Y6689D01*
X-63733Y6751D01*
X-63739Y6819D01*
X-63745Y6900D01*
X-63763Y6980D01*
X-63801Y7160D01*
X-63856Y7345D01*
X-63894Y7438D01*
X-63937Y7519D01*
X-63993Y7599D01*
X-64048Y7673D01*
X-64055Y7680D01*
X-64061Y7692D01*
X-64079Y7704D01*
X-64104Y7729D01*
X-64141Y7760D01*
X-64178Y7791D01*
X-64222Y7822D01*
X-64277Y7859D01*
X-64333Y7890D01*
X-64401Y7921D01*
X-64543Y7983D01*
X-64624Y8008D01*
X-64711Y8020D01*
X-64803Y8032D01*
X-64903Y8039D01*
D02*
G37*
G36*
X-79201Y8039D02*
X-79251D01*
X-79288Y8032D01*
X-79338Y8026D01*
X-79387Y8020D01*
X-79511Y7995D01*
X-79647Y7946D01*
X-79721Y7921D01*
X-79796Y7884D01*
X-79864Y7841D01*
X-79938Y7791D01*
X-80006Y7735D01*
X-80068Y7667D01*
X-80074Y7661D01*
X-80080Y7649D01*
X-80099Y7630D01*
X-80117Y7599D01*
X-80142Y7556D01*
X-80167Y7512D01*
X-80198Y7457D01*
X-80229Y7389D01*
X-80260Y7314D01*
X-80291Y7234D01*
X-80316Y7141D01*
X-80340Y7042D01*
X-80359Y6931D01*
X-80378Y6813D01*
X-80384Y6689D01*
X-80390Y6553D01*
Y6547D01*
Y6522D01*
Y6485D01*
X-80384Y6435D01*
X-80378Y6374D01*
X-80371Y6299D01*
X-80359Y6225D01*
X-80347Y6138D01*
X-80309Y5959D01*
X-80247Y5779D01*
X-80210Y5686D01*
X-80167Y5600D01*
X-80111Y5519D01*
X-80056Y5445D01*
X-80049Y5439D01*
X-80037Y5426D01*
X-80019Y5408D01*
X-79994Y5389D01*
X-79963Y5358D01*
X-79919Y5327D01*
X-79876Y5290D01*
X-79820Y5259D01*
X-79703Y5185D01*
X-79554Y5129D01*
X-79474Y5105D01*
X-79387Y5086D01*
X-79294Y5074D01*
X-79201Y5067D01*
X-79152D01*
X-79115Y5074D01*
X-79071Y5080D01*
X-79022Y5086D01*
X-78904Y5117D01*
X-78768Y5160D01*
X-78700Y5191D01*
X-78626Y5222D01*
X-78558Y5265D01*
X-78483Y5315D01*
X-78415Y5371D01*
X-78353Y5439D01*
X-78347Y5445D01*
X-78341Y5457D01*
X-78322Y5476D01*
X-78304Y5507D01*
X-78273Y5550D01*
X-78248Y5600D01*
X-78217Y5655D01*
X-78186Y5723D01*
X-78155Y5798D01*
X-78124Y5878D01*
X-78093Y5971D01*
X-78069Y6076D01*
X-78050Y6182D01*
X-78031Y6299D01*
X-78025Y6429D01*
X-78019Y6565D01*
Y6572D01*
Y6596D01*
Y6633D01*
X-78025Y6689D01*
X-78031Y6751D01*
X-78038Y6819D01*
X-78044Y6900D01*
X-78062Y6980D01*
X-78100Y7160D01*
X-78155Y7345D01*
X-78192Y7438D01*
X-78236Y7519D01*
X-78291Y7599D01*
X-78347Y7673D01*
X-78353Y7680D01*
X-78360Y7692D01*
X-78378Y7704D01*
X-78403Y7729D01*
X-78440Y7760D01*
X-78477Y7791D01*
X-78521Y7822D01*
X-78576Y7859D01*
X-78632Y7890D01*
X-78700Y7921D01*
X-78842Y7983D01*
X-78923Y8008D01*
X-79009Y8020D01*
X-79102Y8032D01*
X-79201Y8039D01*
D02*
G37*
G36*
X-89842D02*
X-89891D01*
X-89929Y8032D01*
X-89978Y8026D01*
X-90028Y8020D01*
X-90152Y7995D01*
X-90288Y7946D01*
X-90362Y7921D01*
X-90436Y7884D01*
X-90504Y7841D01*
X-90579Y7791D01*
X-90647Y7735D01*
X-90709Y7667D01*
X-90715Y7661D01*
X-90721Y7649D01*
X-90740Y7630D01*
X-90758Y7599D01*
X-90783Y7556D01*
X-90808Y7512D01*
X-90839Y7457D01*
X-90870Y7389D01*
X-90900Y7314D01*
X-90931Y7234D01*
X-90956Y7141D01*
X-90981Y7042D01*
X-91000Y6931D01*
X-91018Y6813D01*
X-91024Y6689D01*
X-91031Y6553D01*
Y6547D01*
Y6522D01*
Y6485D01*
X-91024Y6435D01*
X-91018Y6374D01*
X-91012Y6299D01*
X-91000Y6225D01*
X-90987Y6138D01*
X-90950Y5959D01*
X-90888Y5779D01*
X-90851Y5686D01*
X-90808Y5600D01*
X-90752Y5519D01*
X-90696Y5445D01*
X-90690Y5439D01*
X-90678Y5426D01*
X-90659Y5408D01*
X-90634Y5389D01*
X-90603Y5358D01*
X-90560Y5327D01*
X-90517Y5290D01*
X-90461Y5259D01*
X-90343Y5185D01*
X-90195Y5129D01*
X-90114Y5105D01*
X-90028Y5086D01*
X-89935Y5074D01*
X-89842Y5067D01*
X-89793D01*
X-89755Y5074D01*
X-89712Y5080D01*
X-89662Y5086D01*
X-89545Y5117D01*
X-89409Y5160D01*
X-89341Y5191D01*
X-89266Y5222D01*
X-89198Y5265D01*
X-89124Y5315D01*
X-89056Y5371D01*
X-88994Y5439D01*
X-88988Y5445D01*
X-88982Y5457D01*
X-88963Y5476D01*
X-88945Y5507D01*
X-88914Y5550D01*
X-88889Y5600D01*
X-88858Y5655D01*
X-88827Y5723D01*
X-88796Y5798D01*
X-88765Y5878D01*
X-88734Y5971D01*
X-88709Y6076D01*
X-88691Y6182D01*
X-88672Y6299D01*
X-88666Y6429D01*
X-88660Y6565D01*
Y6572D01*
Y6596D01*
Y6633D01*
X-88666Y6689D01*
X-88672Y6751D01*
X-88678Y6819D01*
X-88684Y6900D01*
X-88703Y6980D01*
X-88740Y7160D01*
X-88796Y7345D01*
X-88833Y7438D01*
X-88876Y7519D01*
X-88932Y7599D01*
X-88988Y7673D01*
X-88994Y7680D01*
X-89000Y7692D01*
X-89019Y7704D01*
X-89043Y7729D01*
X-89081Y7760D01*
X-89118Y7791D01*
X-89161Y7822D01*
X-89217Y7859D01*
X-89272Y7890D01*
X-89341Y7921D01*
X-89483Y7983D01*
X-89564Y8008D01*
X-89650Y8020D01*
X-89743Y8032D01*
X-89842Y8039D01*
D02*
G37*
G36*
X-5982Y90388D02*
X-9336D01*
D01*
X-7093D01*
X-7183Y90383D01*
X-7264Y90373D01*
X-7344Y90359D01*
X-7415Y90345D01*
X-7486Y90321D01*
X-7547Y90298D01*
X-7609Y90274D01*
X-7661Y90246D01*
X-7708Y90217D01*
X-7751Y90194D01*
X-7784Y90170D01*
X-7817Y90146D01*
X-7841Y90132D01*
X-7855Y90118D01*
X-7864Y90109D01*
X-7869Y90104D01*
X-7921Y90052D01*
X-7969Y89995D01*
X-8011Y89938D01*
X-8044Y89882D01*
X-8072Y89825D01*
X-8096Y89768D01*
X-8134Y89664D01*
X-8148Y89617D01*
X-8158Y89569D01*
X-8162Y89532D01*
X-8167Y89499D01*
X-8172Y89470D01*
Y89432D01*
X-8167Y89366D01*
X-8158Y89305D01*
X-8148Y89248D01*
X-8129Y89191D01*
X-8082Y89092D01*
X-8035Y89007D01*
X-7983Y88940D01*
X-7959Y88912D01*
X-7935Y88888D01*
X-7916Y88869D01*
X-7907Y88855D01*
X-7897Y88850D01*
X-7893Y88846D01*
X-7992Y88855D01*
X-8087Y88865D01*
X-8172Y88874D01*
X-8248Y88888D01*
X-8314Y88902D01*
X-8375Y88917D01*
X-8427Y88931D01*
X-8475Y88950D01*
X-8517Y88964D01*
X-8550Y88973D01*
X-8579Y88988D01*
X-8598Y88997D01*
X-8617Y89007D01*
X-8626Y89016D01*
X-8635Y89021D01*
X-8697Y89073D01*
X-8739Y89130D01*
X-8773Y89186D01*
X-8792Y89238D01*
X-8806Y89286D01*
X-8810Y89324D01*
X-8815Y89347D01*
Y89357D01*
X-8810Y89409D01*
X-8801Y89461D01*
X-8787Y89503D01*
X-8773Y89536D01*
X-8754Y89565D01*
X-8739Y89584D01*
X-8730Y89598D01*
X-8725Y89603D01*
X-8687Y89636D01*
X-8645Y89659D01*
X-8598Y89683D01*
X-8555Y89697D01*
X-8512Y89707D01*
X-8479Y89716D01*
X-8460Y89721D01*
X-8451D01*
X-8517Y90326D01*
X-8659Y90293D01*
X-8777Y90246D01*
X-8881Y90194D01*
X-8971Y90142D01*
X-9037Y90090D01*
X-9061Y90071D01*
X-9085Y90047D01*
X-9099Y90033D01*
X-9113Y90019D01*
X-9123Y90014D01*
Y90009D01*
X-9161Y89962D01*
X-9194Y89915D01*
X-9246Y89811D01*
X-9283Y89707D01*
X-9307Y89612D01*
X-9326Y89527D01*
X-9331Y89489D01*
Y89456D01*
X-9336Y89432D01*
Y89394D01*
X-9331Y89295D01*
X-9317Y89205D01*
X-9298Y89115D01*
X-9274Y89035D01*
X-9241Y88959D01*
X-9208Y88884D01*
X-9170Y88822D01*
X-9137Y88761D01*
X-9099Y88709D01*
X-9061Y88661D01*
X-9028Y88623D01*
X-8995Y88590D01*
X-8971Y88562D01*
X-8952Y88543D01*
X-8938Y88534D01*
X-8933Y88529D01*
X-8853Y88472D01*
X-8763Y88420D01*
X-8664Y88377D01*
X-8564Y88340D01*
X-8456Y88306D01*
X-8347Y88278D01*
X-8238Y88254D01*
X-8134Y88240D01*
X-8035Y88226D01*
X-7940Y88217D01*
X-7855Y88207D01*
X-7779Y88203D01*
X-7718Y88198D01*
X-7633D01*
X-7472Y88203D01*
X-7325Y88212D01*
X-7188Y88226D01*
X-7065Y88250D01*
X-6947Y88273D01*
X-6843Y88297D01*
X-6753Y88326D01*
X-6668Y88359D01*
X-6597Y88387D01*
X-6535Y88415D01*
X-6483Y88439D01*
X-6441Y88467D01*
X-6408Y88486D01*
X-6384Y88500D01*
X-6370Y88510D01*
X-6365Y88515D01*
X-6299Y88576D01*
X-6237Y88642D01*
X-6185Y88709D01*
X-6143Y88779D01*
X-6105Y88846D01*
X-6076Y88917D01*
X-6048Y88983D01*
X-6029Y89044D01*
X-6015Y89106D01*
X-6001Y89158D01*
X-5996Y89210D01*
X-5987Y89253D01*
Y89286D01*
X-5982Y89309D01*
Y88510D01*
Y89333D01*
X-5987Y89418D01*
X-5996Y89499D01*
X-6010Y89574D01*
X-6029Y89645D01*
X-6053Y89716D01*
X-6076Y89778D01*
X-6105Y89834D01*
X-6133Y89886D01*
X-6162Y89934D01*
X-6190Y89972D01*
X-6214Y90009D01*
X-6237Y90038D01*
X-6256Y90061D01*
X-6270Y90075D01*
X-6280Y90085D01*
X-6285Y90090D01*
X-6341Y90142D01*
X-6408Y90189D01*
X-6474Y90227D01*
X-6540Y90260D01*
X-6606Y90293D01*
X-6673Y90317D01*
X-6805Y90350D01*
X-6862Y90364D01*
X-6918Y90373D01*
X-6966Y90378D01*
X-7008Y90383D01*
X-7046Y90388D01*
X-5982D01*
D01*
D02*
G37*
G36*
X-6043Y87772D02*
X-9336D01*
D01*
X-8418D01*
X-8489Y87767D01*
X-8560Y87758D01*
X-8626Y87748D01*
X-8687Y87730D01*
X-8796Y87682D01*
X-8891Y87635D01*
X-8933Y87607D01*
X-8967Y87583D01*
X-9000Y87559D01*
X-9023Y87536D01*
X-9042Y87517D01*
X-9061Y87507D01*
X-9066Y87498D01*
X-9071Y87493D01*
X-9118Y87441D01*
X-9161Y87379D01*
X-9194Y87323D01*
X-9222Y87256D01*
X-9269Y87134D01*
X-9302Y87011D01*
X-9312Y86954D01*
X-9321Y86902D01*
X-9326Y86854D01*
X-9331Y86812D01*
X-9336Y86779D01*
Y85573D01*
Y86731D01*
X-9331Y86651D01*
X-9326Y86575D01*
X-9302Y86429D01*
X-9264Y86306D01*
X-9246Y86249D01*
X-9222Y86197D01*
X-9203Y86150D01*
X-9179Y86112D01*
X-9161Y86074D01*
X-9146Y86046D01*
X-9127Y86022D01*
X-9118Y86008D01*
X-9113Y85998D01*
X-9108Y85994D01*
X-9061Y85941D01*
X-9014Y85894D01*
X-8957Y85852D01*
X-8896Y85814D01*
X-8773Y85757D01*
X-8654Y85710D01*
X-8593Y85696D01*
X-8541Y85681D01*
X-8494Y85667D01*
X-8451Y85663D01*
X-8413Y85653D01*
X-8389D01*
X-8371Y85648D01*
X-8366D01*
X-8304Y86273D01*
X-8399Y86282D01*
X-8479Y86301D01*
X-8550Y86320D01*
X-8602Y86344D01*
X-8645Y86362D01*
X-8673Y86381D01*
X-8692Y86396D01*
X-8697Y86400D01*
X-8735Y86448D01*
X-8763Y86500D01*
X-8787Y86552D01*
X-8801Y86604D01*
X-8810Y86646D01*
X-8815Y86684D01*
Y86717D01*
X-8810Y86788D01*
X-8796Y86850D01*
X-8777Y86902D01*
X-8758Y86949D01*
X-8739Y86982D01*
X-8721Y87011D01*
X-8706Y87025D01*
X-8702Y87029D01*
X-8654Y87067D01*
X-8602Y87096D01*
X-8550Y87115D01*
X-8498Y87129D01*
X-8451Y87138D01*
X-8408Y87143D01*
X-8385D01*
X-8380D01*
X-8375D01*
X-8304Y87138D01*
X-8238Y87124D01*
X-8172Y87100D01*
X-8115Y87077D01*
X-8063Y87053D01*
X-8025Y87029D01*
X-8002Y87015D01*
X-7992Y87011D01*
X-7964Y86992D01*
X-7931Y86963D01*
X-7888Y86925D01*
X-7850Y86888D01*
X-7760Y86802D01*
X-7671Y86717D01*
X-7585Y86632D01*
X-7547Y86594D01*
X-7519Y86556D01*
X-7491Y86528D01*
X-7472Y86509D01*
X-7458Y86495D01*
X-7453Y86490D01*
X-7363Y86396D01*
X-7278Y86310D01*
X-7198Y86230D01*
X-7127Y86159D01*
X-7056Y86093D01*
X-6989Y86036D01*
X-6933Y85984D01*
X-6876Y85941D01*
X-6829Y85904D01*
X-6786Y85871D01*
X-6753Y85842D01*
X-6720Y85823D01*
X-6701Y85804D01*
X-6682Y85795D01*
X-6673Y85785D01*
X-6668D01*
X-6559Y85724D01*
X-6445Y85677D01*
X-6341Y85639D01*
X-6247Y85610D01*
X-6162Y85592D01*
X-6129Y85587D01*
X-6100Y85582D01*
X-6076Y85577D01*
X-6058Y85573D01*
X-6043D01*
Y87772D01*
D02*
G37*
G36*
Y85142D02*
X-6673D01*
Y84513D01*
X-6043D01*
Y85142D01*
D02*
G37*
G36*
Y83439D02*
X-9336D01*
Y82001D01*
D01*
Y82929D01*
X-9227Y82881D01*
X-9127Y82820D01*
X-9033Y82753D01*
X-8957Y82687D01*
X-8896Y82630D01*
X-8848Y82578D01*
X-8829Y82560D01*
X-8815Y82545D01*
X-8810Y82536D01*
X-8806Y82531D01*
X-8730Y82427D01*
X-8664Y82328D01*
X-8612Y82238D01*
X-8574Y82157D01*
X-8546Y82091D01*
X-8522Y82044D01*
X-8517Y82025D01*
X-8512Y82011D01*
X-8508Y82006D01*
Y82001D01*
X-9336D01*
X-6043D01*
X-7940D01*
X-8006Y82172D01*
X-8077Y82323D01*
X-8115Y82394D01*
X-8158Y82460D01*
X-8196Y82522D01*
X-8233Y82578D01*
X-8271Y82630D01*
X-8304Y82678D01*
X-8333Y82716D01*
X-8361Y82749D01*
X-8385Y82777D01*
X-8399Y82796D01*
X-8408Y82806D01*
X-8413Y82810D01*
X-6043D01*
Y83439D01*
D02*
G37*
G36*
X-6129Y80038D02*
X-6673D01*
Y79357D01*
Y79409D01*
X-6043D01*
Y79717D01*
X-5977Y79712D01*
X-5920Y79703D01*
X-5868Y79689D01*
X-5826Y79670D01*
X-5793Y79655D01*
X-5769Y79641D01*
X-5755Y79632D01*
X-5750Y79627D01*
X-5712Y79594D01*
X-5679Y79551D01*
X-5646Y79509D01*
X-5622Y79461D01*
X-5604Y79424D01*
X-5589Y79391D01*
X-5580Y79367D01*
X-5575Y79357D01*
D01*
X-5315Y79480D01*
D01*
X-5343Y79551D01*
X-5376Y79618D01*
X-5410Y79674D01*
X-5443Y79722D01*
X-5471Y79759D01*
X-5495Y79788D01*
X-5509Y79807D01*
X-5514Y79812D01*
X-5561Y79859D01*
X-5608Y79897D01*
X-5655Y79925D01*
X-5703Y79953D01*
X-5741Y79967D01*
X-5769Y79982D01*
X-5793Y79991D01*
X-5797D01*
X-5859Y80005D01*
X-5930Y80020D01*
X-6001Y80029D01*
X-6067Y80034D01*
X-6129Y80038D01*
D02*
G37*
G36*
X-6043Y79078D02*
X-9317Y77763D01*
Y75796D01*
X-6043D01*
Y79078D01*
D02*
G37*
G36*
X-9317Y74523D02*
D01*
Y73818D01*
X-6895Y73019D01*
X-9317Y72187D01*
Y71473D01*
X-6043D01*
Y73360D01*
X-9317Y74523D01*
D02*
G37*
G36*
X-6043Y71245D02*
X-6597D01*
Y69420D01*
X-7486D01*
Y71061D01*
X-8039D01*
Y69420D01*
X-8763D01*
Y71184D01*
X-9317D01*
Y71245D01*
D01*
Y68757D01*
X-6043D01*
Y71245D01*
D02*
G37*
G36*
Y68398D02*
X-6682Y67996D01*
X-6748Y67953D01*
X-6814Y67911D01*
X-6871Y67873D01*
X-6923Y67835D01*
X-6971Y67802D01*
X-7018Y67774D01*
X-7089Y67717D01*
X-7146Y67674D01*
X-7183Y67646D01*
X-7207Y67622D01*
X-7212Y67617D01*
X-7268Y67566D01*
X-7321Y67504D01*
X-7363Y67447D01*
X-7406Y67391D01*
X-7439Y67343D01*
X-7462Y67305D01*
X-7481Y67277D01*
X-7486Y67272D01*
Y67268D01*
X-7500Y67348D01*
X-7519Y67419D01*
X-7538Y67485D01*
X-7562Y67551D01*
X-7585Y67608D01*
X-7609Y67660D01*
X-7633Y67712D01*
X-7661Y67755D01*
X-7685Y67792D01*
X-7708Y67826D01*
X-7732Y67854D01*
X-7751Y67873D01*
X-7765Y67892D01*
X-7779Y67906D01*
X-7784Y67911D01*
X-7789Y67915D01*
X-7836Y67953D01*
X-7883Y67987D01*
X-7987Y68043D01*
X-8087Y68081D01*
X-8186Y68105D01*
X-8271Y68124D01*
X-8304Y68128D01*
X-8337D01*
X-8361Y68133D01*
X-8385D01*
X-8394D01*
X-8399D01*
X-8503Y68128D01*
X-8602Y68109D01*
X-8687Y68086D01*
X-8763Y68062D01*
X-8825Y68034D01*
X-8872Y68010D01*
X-8886Y68001D01*
X-8900Y67991D01*
X-8905Y67987D01*
X-8910D01*
X-8990Y67930D01*
X-9056Y67868D01*
X-9108Y67807D01*
X-9156Y67745D01*
X-9184Y67689D01*
X-9208Y67646D01*
X-9222Y67617D01*
X-9227Y67613D01*
Y67608D01*
X-9241Y67561D01*
X-9255Y67509D01*
X-9279Y67391D01*
X-9293Y67263D01*
X-9307Y67140D01*
Y67078D01*
X-9312Y67026D01*
Y66974D01*
X-9317Y66932D01*
Y65456D01*
X-6043D01*
Y66454D01*
Y66118D01*
X-7410D01*
Y66331D01*
X-7406Y66397D01*
X-7401Y66454D01*
X-7391Y66501D01*
X-7387Y66539D01*
X-7377Y66563D01*
X-7373Y66577D01*
Y66582D01*
X-7354Y66619D01*
X-7335Y66657D01*
X-7311Y66690D01*
X-7292Y66724D01*
X-7268Y66747D01*
X-7249Y66766D01*
X-7240Y66776D01*
X-7235Y66780D01*
X-7212Y66799D01*
X-7188Y66823D01*
X-7117Y66875D01*
X-7041Y66932D01*
X-6956Y66993D01*
X-6881Y67045D01*
X-6843Y67069D01*
X-6814Y67088D01*
X-6791Y67107D01*
X-6772Y67121D01*
X-6758Y67126D01*
X-6753Y67130D01*
X-6043Y67603D01*
Y68398D01*
D02*
G37*
G36*
X-6129Y63517D02*
X-6673D01*
Y62836D01*
Y62888D01*
X-6043D01*
Y63195D01*
X-5977Y63190D01*
X-5920Y63181D01*
X-5868Y63167D01*
X-5826Y63148D01*
X-5793Y63134D01*
X-5769Y63119D01*
X-5755Y63110D01*
X-5750Y63105D01*
X-5712Y63072D01*
X-5679Y63029D01*
X-5646Y62987D01*
X-5622Y62940D01*
X-5604Y62902D01*
X-5589Y62869D01*
X-5580Y62845D01*
X-5575Y62836D01*
D01*
X-5315Y62959D01*
D01*
X-5343Y63029D01*
X-5376Y63096D01*
X-5410Y63152D01*
X-5443Y63200D01*
X-5471Y63238D01*
X-5495Y63266D01*
X-5509Y63285D01*
X-5514Y63290D01*
X-5561Y63337D01*
X-5608Y63375D01*
X-5655Y63403D01*
X-5703Y63432D01*
X-5741Y63446D01*
X-5769Y63460D01*
X-5793Y63469D01*
X-5797D01*
X-5859Y63484D01*
X-5930Y63498D01*
X-6001Y63507D01*
X-6067Y63512D01*
X-6129Y63517D01*
D02*
G37*
G36*
X-8763Y62481D02*
X-9317D01*
Y59884D01*
X-6043D01*
X-8763D01*
Y60854D01*
X-6043D01*
Y61516D01*
X-8763D01*
Y62481D01*
D02*
G37*
G36*
Y59685D02*
X-9317D01*
Y57089D01*
X-6043D01*
X-8763D01*
Y58058D01*
X-6043D01*
Y58720D01*
X-8763D01*
Y59685D01*
D02*
G37*
G36*
X-6043Y56687D02*
X-9317D01*
Y56024D01*
X-6043D01*
Y56687D01*
D02*
G37*
%LPD*%
G36*
Y52903D02*
X-8489Y53555D01*
X-6043Y54198D01*
Y52903D01*
D02*
G37*
%LPC*%
G36*
X-9317Y55703D02*
Y55036D01*
X-7027Y54534D01*
X-9317Y53967D01*
Y53172D01*
X-7065Y52576D01*
X-9317Y52084D01*
Y51408D01*
X-6043Y52184D01*
Y51408D01*
Y52184D01*
Y54913D01*
X-9317Y55703D01*
D02*
G37*
G36*
X-6043Y49757D02*
X-9317D01*
Y47155D01*
X-6043D01*
Y47766D01*
X-8200D01*
X-6043Y49095D01*
Y49757D01*
D02*
G37*
G36*
Y46522D02*
X-9317D01*
Y45860D01*
X-6043D01*
Y46522D01*
D02*
G37*
G36*
Y45320D02*
X-9317D01*
X-6597D01*
Y43494D01*
X-7486D01*
Y45136D01*
X-8039D01*
Y43494D01*
X-8763D01*
Y45259D01*
X-9317D01*
Y42832D01*
X-6043D01*
Y45320D01*
D02*
G37*
G36*
Y42402D02*
X-9317D01*
Y39805D01*
X-8763D01*
Y40775D01*
X-6043D01*
Y41437D01*
X-8763D01*
Y42402D01*
X-6043D01*
D02*
G37*
G36*
X-5982Y39474D02*
X-9378D01*
X-6994D01*
X-7108Y39469D01*
X-7207Y39455D01*
X-7297Y39431D01*
X-7373Y39408D01*
X-7434Y39384D01*
X-7477Y39360D01*
X-7505Y39346D01*
X-7514Y39342D01*
X-7590Y39290D01*
X-7656Y39228D01*
X-7713Y39167D01*
X-7760Y39110D01*
X-7798Y39058D01*
X-7827Y39015D01*
X-7846Y38987D01*
X-7850Y38982D01*
Y38977D01*
X-7874Y38930D01*
X-7897Y38883D01*
X-7940Y38769D01*
X-7978Y38651D01*
X-8016Y38537D01*
X-8030Y38485D01*
X-8044Y38433D01*
X-8058Y38386D01*
X-8068Y38348D01*
X-8077Y38315D01*
X-8082Y38291D01*
X-8087Y38273D01*
Y38268D01*
X-8110Y38183D01*
X-8129Y38107D01*
X-8148Y38036D01*
X-8167Y37970D01*
X-8186Y37918D01*
X-8205Y37866D01*
X-8224Y37823D01*
X-8238Y37785D01*
X-8252Y37752D01*
X-8266Y37729D01*
X-8276Y37705D01*
X-8285Y37691D01*
X-8300Y37667D01*
X-8304Y37662D01*
X-8337Y37629D01*
X-8371Y37606D01*
X-8404Y37591D01*
X-8437Y37582D01*
X-8460Y37573D01*
X-8484Y37568D01*
X-8498D01*
X-8503D01*
X-8550Y37573D01*
X-8588Y37582D01*
X-8626Y37601D01*
X-8654Y37620D01*
X-8678Y37639D01*
X-8692Y37658D01*
X-8702Y37667D01*
X-8706Y37672D01*
X-8749Y37738D01*
X-8777Y37809D01*
X-8801Y37885D01*
X-8815Y37956D01*
X-8825Y38017D01*
X-8829Y38069D01*
Y38116D01*
X-8825Y38216D01*
X-8810Y38301D01*
X-8792Y38372D01*
X-8773Y38429D01*
X-8754Y38476D01*
X-8735Y38509D01*
X-8721Y38528D01*
X-8716Y38533D01*
X-8669Y38580D01*
X-8612Y38623D01*
X-8555Y38656D01*
X-8494Y38679D01*
X-8442Y38698D01*
X-8399Y38708D01*
X-8366Y38717D01*
X-8361D01*
X-8356D01*
X-8380Y39379D01*
X-8465Y39375D01*
X-8541Y39360D01*
X-8617Y39342D01*
X-8683Y39318D01*
X-8749Y39294D01*
X-8810Y39266D01*
X-8862Y39237D01*
X-8914Y39209D01*
X-8957Y39176D01*
X-8995Y39148D01*
X-9028Y39119D01*
X-9056Y39096D01*
X-9075Y39077D01*
X-9089Y39062D01*
X-9099Y39053D01*
X-9104Y39048D01*
X-9151Y38987D01*
X-9194Y38921D01*
X-9231Y38850D01*
X-9264Y38774D01*
X-9288Y38698D01*
X-9312Y38623D01*
X-9345Y38471D01*
X-9354Y38400D01*
X-9364Y38339D01*
X-9369Y38277D01*
X-9373Y38225D01*
X-9378Y38183D01*
D01*
Y38126D01*
X-9373Y37989D01*
X-9359Y37866D01*
X-9340Y37757D01*
X-9321Y37662D01*
X-9307Y37620D01*
X-9298Y37582D01*
X-9288Y37554D01*
X-9279Y37525D01*
X-9269Y37506D01*
X-9264Y37492D01*
X-9260Y37483D01*
Y37478D01*
X-9212Y37383D01*
X-9161Y37303D01*
X-9104Y37232D01*
X-9052Y37175D01*
X-9004Y37128D01*
X-8967Y37099D01*
X-8938Y37076D01*
X-8933Y37071D01*
X-8929D01*
X-8848Y37024D01*
X-8763Y36991D01*
X-8683Y36967D01*
X-8612Y36953D01*
X-8550Y36944D01*
X-8503Y36934D01*
X-8484D01*
X-8470D01*
X-8465D01*
X-8460D01*
X-8389Y36939D01*
X-8319Y36948D01*
X-8257Y36962D01*
X-8196Y36981D01*
X-8082Y37029D01*
X-7983Y37085D01*
X-7940Y37109D01*
X-7907Y37137D01*
X-7874Y37161D01*
X-7846Y37185D01*
X-7827Y37204D01*
X-7812Y37218D01*
X-7803Y37227D01*
X-7798Y37232D01*
X-7765Y37275D01*
X-7732Y37327D01*
X-7699Y37379D01*
X-7671Y37440D01*
X-7614Y37558D01*
X-7566Y37681D01*
X-7547Y37743D01*
X-7529Y37795D01*
X-7514Y37847D01*
X-7500Y37890D01*
X-7491Y37923D01*
X-7481Y37951D01*
X-7477Y37970D01*
Y37975D01*
X-7458Y38050D01*
X-7439Y38116D01*
X-7424Y38178D01*
X-7410Y38235D01*
X-7396Y38282D01*
X-7387Y38325D01*
X-7373Y38363D01*
X-7363Y38396D01*
X-7358Y38424D01*
X-7349Y38448D01*
X-7339Y38481D01*
X-7330Y38500D01*
Y38504D01*
X-7306Y38566D01*
X-7283Y38613D01*
X-7259Y38656D01*
X-7235Y38689D01*
X-7216Y38712D01*
X-7202Y38727D01*
X-7193Y38736D01*
X-7188Y38741D01*
X-7155Y38765D01*
X-7122Y38783D01*
X-7089Y38793D01*
X-7060Y38802D01*
X-7032Y38807D01*
X-7008Y38812D01*
X-6994D01*
X-6989D01*
X-6923Y38807D01*
X-6866Y38788D01*
X-6810Y38760D01*
X-6762Y38731D01*
X-6724Y38698D01*
X-6696Y38675D01*
X-6677Y38656D01*
X-6673Y38646D01*
X-6630Y38580D01*
X-6597Y38504D01*
X-6573Y38424D01*
X-6559Y38348D01*
X-6549Y38277D01*
X-6540Y38221D01*
Y38168D01*
X-6545Y38060D01*
X-6564Y37965D01*
X-6587Y37885D01*
X-6616Y37814D01*
X-6644Y37757D01*
X-6668Y37719D01*
X-6687Y37696D01*
X-6691Y37686D01*
X-6758Y37625D01*
X-6829Y37577D01*
X-6909Y37535D01*
X-6989Y37506D01*
X-7060Y37483D01*
X-7117Y37464D01*
X-7136Y37459D01*
X-7155D01*
X-7164Y37454D01*
X-7169D01*
X-7108Y36811D01*
D01*
X-7008Y36825D01*
X-6914Y36844D01*
X-6824Y36873D01*
X-6743Y36896D01*
X-6668Y36929D01*
X-6597Y36962D01*
X-6535Y36996D01*
X-6479Y37029D01*
X-6431Y37062D01*
X-6389Y37095D01*
X-6351Y37123D01*
X-6318Y37152D01*
X-6294Y37170D01*
X-6280Y37189D01*
X-6270Y37199D01*
X-6266Y37204D01*
X-6214Y37270D01*
X-6171Y37341D01*
X-6133Y37416D01*
X-6100Y37497D01*
X-6076Y37573D01*
X-6053Y37653D01*
X-6020Y37809D01*
X-6005Y37880D01*
X-5996Y37946D01*
X-5991Y38003D01*
X-5987Y38055D01*
X-5982Y38098D01*
Y36811D01*
Y38235D01*
Y38159D01*
X-5987Y38310D01*
X-6001Y38448D01*
X-6020Y38571D01*
X-6029Y38623D01*
X-6043Y38675D01*
X-6053Y38717D01*
X-6062Y38755D01*
X-6072Y38788D01*
X-6081Y38816D01*
X-6091Y38840D01*
X-6095Y38854D01*
X-6100Y38864D01*
Y38869D01*
X-6152Y38973D01*
X-6209Y39058D01*
X-6266Y39138D01*
X-6327Y39200D01*
X-6379Y39247D01*
X-6426Y39285D01*
X-6455Y39304D01*
X-6460Y39313D01*
X-6464D01*
X-6559Y39365D01*
X-6649Y39408D01*
X-6739Y39436D01*
X-6824Y39455D01*
X-6890Y39465D01*
X-6923Y39469D01*
X-6947Y39474D01*
X-5982D01*
D02*
G37*
%LPD*%
G36*
X-6975Y89768D02*
X-6881Y89754D01*
X-6805Y89735D01*
X-6743Y89716D01*
X-6696Y89692D01*
X-6663Y89674D01*
X-6639Y89659D01*
X-6635Y89655D01*
X-6592Y89607D01*
X-6559Y89560D01*
X-6535Y89508D01*
X-6521Y89465D01*
X-6512Y89423D01*
X-6502Y89390D01*
Y89361D01*
X-6512Y89295D01*
X-6531Y89234D01*
X-6554Y89182D01*
X-6587Y89134D01*
X-6616Y89096D01*
X-6644Y89063D01*
X-6663Y89044D01*
X-6668Y89040D01*
X-6734Y88992D01*
X-6810Y88959D01*
X-6890Y88936D01*
X-6966Y88921D01*
X-7037Y88912D01*
X-7089Y88902D01*
X-7112D01*
X-7127D01*
X-7136D01*
X-7141D01*
X-7240Y88907D01*
X-7325Y88921D01*
X-7396Y88940D01*
X-7458Y88964D01*
X-7500Y88988D01*
X-7533Y89007D01*
X-7557Y89021D01*
X-7562Y89025D01*
X-7609Y89073D01*
X-7647Y89125D01*
X-7671Y89177D01*
X-7689Y89224D01*
X-7699Y89267D01*
X-7708Y89305D01*
Y89333D01*
X-7704Y89399D01*
X-7685Y89461D01*
X-7661Y89513D01*
X-7633Y89560D01*
X-7604Y89598D01*
X-7581Y89622D01*
X-7562Y89640D01*
X-7557Y89645D01*
X-7496Y89688D01*
X-7420Y89721D01*
X-7339Y89740D01*
X-7264Y89759D01*
X-7193Y89768D01*
X-7136Y89773D01*
X-7117D01*
X-7098D01*
X-7089D01*
X-7084D01*
X-6975Y89768D01*
D02*
G37*
G36*
X-6625Y86523D02*
X-6687Y86561D01*
X-6739Y86604D01*
X-6762Y86623D01*
X-6781Y86637D01*
X-6791Y86646D01*
X-6795Y86651D01*
X-6814Y86670D01*
X-6838Y86689D01*
X-6890Y86746D01*
X-6951Y86807D01*
X-7013Y86869D01*
X-7070Y86930D01*
X-7117Y86982D01*
X-7136Y87001D01*
X-7150Y87015D01*
X-7155Y87025D01*
X-7160Y87029D01*
X-7259Y87134D01*
X-7339Y87219D01*
X-7415Y87290D01*
X-7472Y87346D01*
X-7519Y87389D01*
X-7552Y87417D01*
X-7576Y87436D01*
X-7581Y87441D01*
X-7661Y87502D01*
X-7737Y87555D01*
X-7808Y87597D01*
X-7869Y87630D01*
X-7921Y87659D01*
X-7964Y87677D01*
X-7987Y87687D01*
X-7997Y87692D01*
X-8072Y87720D01*
X-8148Y87739D01*
X-8219Y87753D01*
X-8285Y87763D01*
X-8337Y87767D01*
X-8380Y87772D01*
X-6625D01*
Y86523D01*
D02*
G37*
G36*
X-7339Y76964D02*
X-8555Y77409D01*
X-7339Y77867D01*
Y76964D01*
D02*
G37*
G36*
X-6043Y76496D02*
X-6786Y76765D01*
Y78080D01*
X-6043Y78364D01*
Y76496D01*
D02*
G37*
G36*
Y75796D02*
X-9317D01*
Y77063D01*
X-6043Y75796D01*
D02*
G37*
G36*
Y71473D02*
X-9317D01*
X-6043Y72645D01*
Y71473D01*
D02*
G37*
G36*
X-8300Y67447D02*
X-8252Y67443D01*
X-8210Y67428D01*
X-8172Y67419D01*
X-8144Y67405D01*
X-8125Y67391D01*
X-8110Y67386D01*
X-8106Y67381D01*
X-8072Y67353D01*
X-8044Y67324D01*
X-8002Y67263D01*
X-7987Y67239D01*
X-7978Y67216D01*
X-7969Y67201D01*
Y67197D01*
X-7964Y67173D01*
X-7954Y67135D01*
X-7950Y67097D01*
X-7945Y67055D01*
X-7940Y66955D01*
X-7935Y66856D01*
X-7931Y66761D01*
Y66118D01*
X-8763D01*
Y66875D01*
X-8758Y66918D01*
Y67022D01*
X-8754Y67064D01*
Y67093D01*
X-8749Y67107D01*
Y67111D01*
X-8735Y67168D01*
X-8716Y67220D01*
X-8697Y67263D01*
X-8673Y67296D01*
X-8650Y67324D01*
X-8635Y67348D01*
X-8621Y67357D01*
X-8617Y67362D01*
X-8579Y67391D01*
X-8531Y67414D01*
X-8489Y67428D01*
X-8446Y67443D01*
X-8408Y67447D01*
X-8380Y67452D01*
X-8361D01*
X-8352D01*
X-8300Y67447D01*
D02*
G37*
G36*
X-9317Y47794D02*
Y49147D01*
X-7112D01*
X-9317Y47794D01*
D02*
G37*
%LPC*%
G36*
X-10051Y245669D02*
X-11811D01*
Y242609D01*
D01*
Y244009D01*
X-11806Y243858D01*
X-11787Y243716D01*
X-11764Y243579D01*
X-11735Y243460D01*
X-11721Y243408D01*
X-11707Y243361D01*
X-11693Y243319D01*
X-11683Y243281D01*
X-11674Y243252D01*
X-11664Y243233D01*
X-11660Y243219D01*
Y243214D01*
X-11603Y243073D01*
X-11541Y242954D01*
X-11480Y242850D01*
X-11428Y242760D01*
X-11381Y242694D01*
X-11362Y242670D01*
X-11343Y242647D01*
X-11328Y242633D01*
X-11319Y242618D01*
X-11310Y242609D01*
X-9995D01*
Y244033D01*
X-10548D01*
Y243276D01*
X-10969D01*
X-11012Y243333D01*
X-11050Y243394D01*
X-11083Y243456D01*
X-11111Y243512D01*
X-11135Y243560D01*
X-11153Y243602D01*
X-11163Y243626D01*
X-11168Y243631D01*
Y243635D01*
X-11196Y243711D01*
X-11215Y243787D01*
X-11229Y243858D01*
X-11239Y243919D01*
X-11243Y243976D01*
X-11248Y244014D01*
Y244052D01*
X-11243Y244127D01*
X-11234Y244203D01*
X-11220Y244269D01*
X-11201Y244335D01*
X-11153Y244454D01*
X-11130Y244501D01*
X-11101Y244548D01*
X-11073Y244591D01*
X-11050Y244629D01*
X-11021Y244657D01*
X-11002Y244685D01*
X-10983Y244704D01*
X-10969Y244719D01*
X-10960Y244728D01*
X-10955Y244733D01*
X-10898Y244775D01*
X-10832Y244818D01*
X-10766Y244851D01*
X-10695Y244879D01*
X-10548Y244927D01*
X-10406Y244955D01*
X-10340Y244965D01*
X-10274Y244974D01*
X-10222Y244979D01*
X-10170Y244983D01*
X-10132Y244988D01*
X-10099D01*
X-10080D01*
X-10075D01*
X-9976Y244983D01*
X-9886Y244979D01*
X-9796Y244965D01*
X-9716Y244950D01*
X-9645Y244931D01*
X-9578Y244908D01*
X-9517Y244884D01*
X-9460Y244860D01*
X-9413Y244842D01*
X-9370Y244818D01*
X-9337Y244794D01*
X-9309Y244775D01*
X-9285Y244761D01*
X-9271Y244747D01*
X-9262Y244742D01*
X-9257Y244738D01*
X-9210Y244685D01*
X-9162Y244633D01*
X-9129Y244577D01*
X-9096Y244520D01*
X-9068Y244463D01*
X-9044Y244406D01*
X-9011Y244298D01*
X-9001Y244246D01*
X-8992Y244198D01*
X-8987Y244156D01*
X-8982Y244118D01*
X-8978Y244090D01*
Y244047D01*
X-8982Y243943D01*
X-9001Y243853D01*
X-9020Y243773D01*
X-9049Y243702D01*
X-9072Y243650D01*
X-9096Y243607D01*
X-9115Y243583D01*
X-9120Y243574D01*
X-9176Y243508D01*
X-9238Y243451D01*
X-9299Y243404D01*
X-9361Y243371D01*
X-9418Y243342D01*
X-9460Y243323D01*
X-9489Y243314D01*
X-9493Y243309D01*
X-9498D01*
X-9375Y242652D01*
X-9295Y242670D01*
X-9214Y242699D01*
X-9143Y242727D01*
X-9077Y242765D01*
X-9011Y242798D01*
X-8954Y242836D01*
X-8902Y242874D01*
X-8855Y242912D01*
X-8812Y242950D01*
X-8774Y242983D01*
X-8741Y243011D01*
X-8718Y243039D01*
X-8699Y243063D01*
X-8680Y243082D01*
X-8675Y243091D01*
X-8670Y243096D01*
X-8623Y243162D01*
X-8585Y243233D01*
X-8552Y243309D01*
X-8524Y243389D01*
X-8476Y243546D01*
X-8448Y243697D01*
X-8434Y243768D01*
X-8429Y243834D01*
X-8424Y243896D01*
X-8420Y243948D01*
X-8415Y243990D01*
Y244047D01*
X-8420Y244217D01*
X-8439Y244369D01*
X-8453Y244435D01*
X-8467Y244501D01*
X-8481Y244563D01*
X-8495Y244615D01*
X-8514Y244662D01*
X-8528Y244709D01*
X-8543Y244742D01*
X-8552Y244775D01*
X-8566Y244799D01*
X-8571Y244818D01*
X-8580Y244827D01*
Y244832D01*
X-8666Y244979D01*
X-8718Y245040D01*
X-8765Y245102D01*
X-8817Y245158D01*
X-8869Y245211D01*
X-8921Y245258D01*
X-8968Y245300D01*
X-9016Y245333D01*
X-9058Y245367D01*
X-9096Y245395D01*
X-9129Y245419D01*
X-9157Y245433D01*
X-9176Y245447D01*
X-9191Y245452D01*
X-9195Y245456D01*
X-9271Y245494D01*
X-9347Y245527D01*
X-9503Y245579D01*
X-9659Y245617D01*
X-9796Y245641D01*
X-9862Y245650D01*
X-9919Y245660D01*
X-9971Y245665D01*
X-10018D01*
X-10051Y245669D01*
D02*
G37*
G36*
X-8476Y241994D02*
X-11750D01*
Y239393D01*
X-8476D01*
Y240055D01*
Y240003D01*
X-10680D01*
X-8476Y241355D01*
Y241994D01*
D02*
G37*
G36*
Y238692D02*
X-11750D01*
Y235954D01*
Y237453D01*
X-11745Y237326D01*
X-11740Y237207D01*
X-11731Y237108D01*
X-11716Y237028D01*
X-11702Y236961D01*
X-11693Y236909D01*
X-11688Y236895D01*
Y236881D01*
X-11683Y236876D01*
Y236872D01*
X-11646Y236767D01*
X-11603Y236673D01*
X-11560Y236597D01*
X-11518Y236531D01*
X-11480Y236479D01*
X-11451Y236441D01*
X-11433Y236417D01*
X-11423Y236408D01*
X-11333Y236328D01*
X-11239Y236257D01*
X-11139Y236195D01*
X-11050Y236148D01*
X-10964Y236110D01*
X-10931Y236091D01*
X-10903Y236082D01*
X-10875Y236072D01*
X-10855Y236063D01*
X-10846Y236058D01*
X-10841D01*
X-10728Y236025D01*
X-10610Y235996D01*
X-10496Y235978D01*
X-10387Y235968D01*
X-10335Y235963D01*
X-10288Y235959D01*
X-10250D01*
X-10212Y235954D01*
X-11750D01*
X-10146D01*
X-9980Y235959D01*
X-9834Y235973D01*
X-9763Y235978D01*
X-9701Y235987D01*
X-9640Y235996D01*
X-9588Y236006D01*
X-9541Y236020D01*
X-9498Y236030D01*
X-9460Y236039D01*
X-9432Y236044D01*
X-9408Y236053D01*
X-9389Y236058D01*
X-9380Y236063D01*
X-9375D01*
X-9262Y236105D01*
X-9157Y236157D01*
X-9068Y236209D01*
X-8992Y236261D01*
X-8930Y236304D01*
X-8883Y236342D01*
X-8855Y236365D01*
X-8845Y236370D01*
Y236375D01*
X-8770Y236455D01*
X-8708Y236536D01*
X-8656Y236621D01*
X-8613Y236697D01*
X-8580Y236763D01*
X-8557Y236820D01*
X-8552Y236838D01*
X-8547Y236853D01*
X-8543Y236862D01*
Y236867D01*
X-8519Y236957D01*
X-8505Y237056D01*
X-8491Y237160D01*
X-8486Y237259D01*
X-8481Y237349D01*
X-8476Y237387D01*
Y238692D01*
D02*
G37*
%LPD*%
G36*
X-10278Y245660D02*
X-10439Y245641D01*
X-10586Y245608D01*
X-10657Y245594D01*
X-10718Y245575D01*
X-10775Y245556D01*
X-10827Y245542D01*
X-10870Y245523D01*
X-10908Y245509D01*
X-10936Y245499D01*
X-10960Y245490D01*
X-10974Y245480D01*
X-10978D01*
X-11120Y245400D01*
X-11243Y245310D01*
X-11352Y245215D01*
X-11437Y245121D01*
X-11475Y245078D01*
X-11508Y245036D01*
X-11537Y245002D01*
X-11556Y244969D01*
X-11575Y244946D01*
X-11589Y244922D01*
X-11593Y244913D01*
X-11598Y244908D01*
X-11636Y244832D01*
X-11669Y244761D01*
X-11721Y244605D01*
X-11759Y244454D01*
X-11783Y244317D01*
X-11792Y244250D01*
X-11802Y244194D01*
X-11806Y244142D01*
Y244094D01*
X-11811Y244061D01*
Y245669D01*
X-10103D01*
X-10278Y245660D01*
D02*
G37*
G36*
X-11750Y240055D02*
Y241384D01*
X-9593D01*
X-11750Y240055D01*
D02*
G37*
G36*
X-9030Y237600D02*
X-9035Y237538D01*
Y237482D01*
X-9039Y237434D01*
Y237392D01*
X-9044Y237349D01*
Y237316D01*
X-9053Y237264D01*
X-9058Y237226D01*
X-9063Y237203D01*
Y237198D01*
X-9082Y237132D01*
X-9105Y237075D01*
X-9129Y237023D01*
X-9157Y236976D01*
X-9181Y236942D01*
X-9200Y236914D01*
X-9214Y236900D01*
X-9219Y236895D01*
X-9266Y236853D01*
X-9318Y236815D01*
X-9370Y236782D01*
X-9418Y236753D01*
X-9465Y236734D01*
X-9503Y236720D01*
X-9526Y236711D01*
X-9531Y236706D01*
X-9536D01*
X-9621Y236682D01*
X-9711Y236663D01*
X-9810Y236654D01*
X-9905Y236644D01*
X-9985Y236640D01*
X-10023Y236635D01*
X-10056D01*
X-10080D01*
X-10099D01*
X-10113D01*
X-10118D01*
X-10250Y236640D01*
X-10373Y236644D01*
X-10472Y236659D01*
X-10558Y236668D01*
X-10628Y236682D01*
X-10657Y236687D01*
X-10676Y236697D01*
X-10695Y236701D01*
X-10709D01*
X-10714Y236706D01*
X-10718D01*
X-10794Y236734D01*
X-10860Y236758D01*
X-10912Y236791D01*
X-10955Y236815D01*
X-10988Y236838D01*
X-11012Y236857D01*
X-11026Y236872D01*
X-11031Y236876D01*
X-11064Y236919D01*
X-11092Y236961D01*
X-11116Y237004D01*
X-11135Y237047D01*
X-11149Y237084D01*
X-11158Y237113D01*
X-11168Y237132D01*
Y237141D01*
X-11177Y237193D01*
X-11182Y237255D01*
X-11191Y237321D01*
Y237387D01*
X-11196Y237449D01*
Y238030D01*
X-9030D01*
Y237600D01*
D02*
G37*
%LPC*%
G36*
X-29863Y245669D02*
Y244813D01*
X-30709D01*
Y245669D01*
X-32143D01*
X-31296D01*
Y244813D01*
X-32143D01*
Y243380D01*
D01*
Y244241D01*
X-31296D01*
Y243380D01*
X-29863D01*
X-30709D01*
Y244241D01*
X-29863D01*
Y245669D01*
D02*
G37*
G36*
X-29324Y242827D02*
D01*
Y241899D01*
X-29432Y241947D01*
X-29532Y242008D01*
X-29626Y242074D01*
X-29702Y242141D01*
X-29763Y242197D01*
X-29811Y242249D01*
X-29830Y242268D01*
X-29844Y242283D01*
X-29849Y242292D01*
X-29853Y242297D01*
X-29929Y242401D01*
X-29995Y242500D01*
X-30047Y242590D01*
X-30085Y242670D01*
X-30114Y242737D01*
X-30137Y242784D01*
X-30142Y242803D01*
X-30147Y242817D01*
X-30151Y242822D01*
Y242827D01*
X-29324D01*
X-30719D01*
X-30653Y242656D01*
X-30582Y242505D01*
X-30544Y242434D01*
X-30501Y242368D01*
X-30463Y242306D01*
X-30426Y242249D01*
X-30388Y242197D01*
X-30355Y242150D01*
X-30326Y242112D01*
X-30298Y242079D01*
X-30274Y242051D01*
X-30260Y242032D01*
X-30251Y242022D01*
X-30246Y242018D01*
X-32616D01*
Y241389D01*
X-29324D01*
Y242827D01*
D02*
G37*
G36*
Y240447D02*
D01*
Y239388D01*
X-29328Y239473D01*
X-29338Y239553D01*
X-29357Y239634D01*
X-29376Y239705D01*
X-29404Y239771D01*
X-29432Y239832D01*
X-29461Y239884D01*
X-29494Y239936D01*
X-29527Y239979D01*
X-29555Y240022D01*
X-29584Y240055D01*
X-29612Y240078D01*
X-29631Y240102D01*
X-29650Y240116D01*
X-29659Y240126D01*
X-29664Y240130D01*
X-29745Y240187D01*
X-29839Y240234D01*
X-29939Y240277D01*
X-30043Y240315D01*
X-30151Y240343D01*
X-30265Y240372D01*
X-30374Y240391D01*
X-30483Y240409D01*
X-30586Y240419D01*
X-30681Y240428D01*
X-30771Y240438D01*
X-30847Y240443D01*
X-30908Y240447D01*
X-32677D01*
X-30998D01*
X-31168Y240443D01*
X-31324Y240433D01*
X-31471Y240419D01*
X-31604Y240400D01*
X-31722Y240381D01*
X-31830Y240357D01*
X-31925Y240329D01*
X-32010Y240301D01*
X-32081Y240277D01*
X-32147Y240249D01*
X-32199Y240225D01*
X-32242Y240201D01*
X-32270Y240187D01*
X-32294Y240173D01*
X-32308Y240164D01*
X-32313Y240159D01*
X-32379Y240102D01*
X-32431Y240041D01*
X-32483Y239979D01*
X-32521Y239913D01*
X-32559Y239851D01*
X-32587Y239785D01*
X-32611Y239724D01*
X-32630Y239662D01*
X-32649Y239605D01*
X-32658Y239553D01*
X-32668Y239506D01*
X-32672Y239468D01*
Y239435D01*
X-32677Y239407D01*
Y239388D01*
X-32672Y239303D01*
X-32663Y239222D01*
X-32644Y239142D01*
X-32625Y239071D01*
X-32601Y239005D01*
X-32573Y238943D01*
X-32540Y238891D01*
X-32507Y238839D01*
X-32478Y238797D01*
X-32445Y238754D01*
X-32417Y238721D01*
X-32393Y238692D01*
X-32375Y238674D01*
X-32355Y238659D01*
X-32346Y238650D01*
X-32341Y238645D01*
X-32261Y238589D01*
X-32166Y238541D01*
X-32067Y238494D01*
X-31958Y238461D01*
X-31849Y238428D01*
X-31741Y238404D01*
X-31627Y238380D01*
X-31518Y238361D01*
X-31414Y238352D01*
X-31320Y238342D01*
X-31230Y238333D01*
X-31154Y238328D01*
X-31093Y238324D01*
X-29324D01*
Y240447D01*
D02*
G37*
G36*
X-29342Y238097D02*
X-32616Y236924D01*
Y236209D01*
X-29342Y235046D01*
Y235751D01*
X-31764Y236550D01*
X-29342Y237382D01*
Y238097D01*
D02*
G37*
%LPD*%
G36*
X-30799Y239780D02*
X-30714D01*
X-30629Y239776D01*
X-30558Y239771D01*
X-30487Y239766D01*
X-30430Y239761D01*
X-30374Y239752D01*
X-30326Y239747D01*
X-30288Y239743D01*
X-30255Y239738D01*
X-30227Y239733D01*
X-30208Y239728D01*
X-30189D01*
X-30185Y239724D01*
X-30180D01*
X-30114Y239705D01*
X-30057Y239681D01*
X-30014Y239662D01*
X-29976Y239638D01*
X-29953Y239620D01*
X-29934Y239605D01*
X-29924Y239596D01*
X-29920Y239591D01*
X-29896Y239558D01*
X-29877Y239520D01*
X-29863Y239487D01*
X-29853Y239454D01*
X-29849Y239430D01*
X-29844Y239407D01*
Y239388D01*
X-29849Y239345D01*
X-29853Y239307D01*
X-29868Y239274D01*
X-29882Y239246D01*
X-29896Y239222D01*
X-29905Y239203D01*
X-29915Y239194D01*
X-29920Y239189D01*
X-29953Y239161D01*
X-29995Y239132D01*
X-30043Y239109D01*
X-30090Y239085D01*
X-30137Y239071D01*
X-30175Y239057D01*
X-30199Y239052D01*
X-30203Y239047D01*
X-30208D01*
X-30251Y239038D01*
X-30303Y239028D01*
X-30364Y239019D01*
X-30426Y239009D01*
X-30553Y239000D01*
X-30686Y238995D01*
X-30747Y238990D01*
X-30809D01*
X-30861Y238986D01*
X-30908D01*
X-30946D01*
X-30979D01*
X-30998D01*
X-31003D01*
X-31107D01*
X-31206Y238990D01*
X-31296D01*
X-31376Y238995D01*
X-31452Y239000D01*
X-31518Y239005D01*
X-31580Y239014D01*
X-31632Y239019D01*
X-31679Y239024D01*
X-31717Y239033D01*
X-31750Y239038D01*
X-31778Y239043D01*
X-31797Y239047D01*
X-31816D01*
X-31821Y239052D01*
X-31826D01*
X-31892Y239071D01*
X-31944Y239095D01*
X-31991Y239118D01*
X-32024Y239137D01*
X-32053Y239156D01*
X-32072Y239175D01*
X-32081Y239184D01*
X-32086Y239189D01*
X-32110Y239222D01*
X-32129Y239255D01*
X-32138Y239288D01*
X-32147Y239322D01*
X-32152Y239345D01*
X-32157Y239369D01*
Y239388D01*
X-32152Y239430D01*
X-32147Y239468D01*
X-32133Y239501D01*
X-32119Y239530D01*
X-32110Y239553D01*
X-32095Y239572D01*
X-32091Y239582D01*
X-32086Y239586D01*
X-32053Y239615D01*
X-32010Y239643D01*
X-31963Y239667D01*
X-31916Y239691D01*
X-31873Y239705D01*
X-31835Y239719D01*
X-31812Y239724D01*
X-31802Y239728D01*
X-31755Y239738D01*
X-31703Y239747D01*
X-31646Y239757D01*
X-31585Y239761D01*
X-31452Y239771D01*
X-31320Y239776D01*
X-31258Y239780D01*
X-31197D01*
X-31145Y239785D01*
X-31097D01*
X-31060D01*
X-31026D01*
X-31008D01*
X-31003D01*
X-30899D01*
X-30799Y239780D01*
D02*
G37*
G36*
X-29324Y238324D02*
X-31003D01*
X-30832Y238328D01*
X-30676Y238338D01*
X-30534Y238352D01*
X-30402Y238376D01*
X-30279Y238399D01*
X-30170Y238423D01*
X-30071Y238456D01*
X-29986Y238484D01*
X-29905Y238513D01*
X-29844Y238541D01*
X-29787Y238570D01*
X-29740Y238593D01*
X-29707Y238617D01*
X-29683Y238631D01*
X-29669Y238640D01*
X-29664Y238645D01*
X-29603Y238697D01*
X-29551Y238754D01*
X-29508Y238815D01*
X-29465Y238877D01*
X-29432Y238938D01*
X-29409Y239000D01*
X-29385Y239057D01*
X-29366Y239118D01*
X-29352Y239175D01*
X-29342Y239222D01*
X-29333Y239270D01*
X-29328Y239307D01*
X-29324Y239340D01*
Y238324D01*
D02*
G37*
%LPC*%
G36*
X-40691Y193037D02*
X-41354D01*
Y191750D01*
X-42645D01*
Y193037D01*
X-43307D01*
Y189764D01*
X-42645D01*
Y191197D01*
X-41354D01*
Y189764D01*
X-40691D01*
Y193037D01*
D02*
G37*
G36*
X-39022Y193056D02*
X-39069D01*
X-39149Y193051D01*
X-39225Y193046D01*
X-39372Y193023D01*
X-39495Y192985D01*
X-39551Y192966D01*
X-39603Y192942D01*
X-39651Y192923D01*
X-39689Y192900D01*
X-39726Y192881D01*
X-39755Y192867D01*
X-39779Y192848D01*
X-39793Y192838D01*
X-39802Y192833D01*
X-39807Y192829D01*
X-39859Y192781D01*
X-39906Y192734D01*
X-39949Y192677D01*
X-39987Y192616D01*
X-40043Y192493D01*
X-40091Y192375D01*
X-40105Y192313D01*
X-40119Y192261D01*
X-40133Y192214D01*
X-40138Y192171D01*
X-40147Y192133D01*
Y192110D01*
X-40152Y192091D01*
Y192086D01*
X-39528Y192025D01*
X-39518Y192119D01*
X-39499Y192200D01*
X-39481Y192271D01*
X-39457Y192323D01*
X-39438Y192365D01*
X-39419Y192394D01*
X-39405Y192413D01*
X-39400Y192417D01*
X-39353Y192455D01*
X-39301Y192483D01*
X-39249Y192507D01*
X-39197Y192521D01*
X-39154Y192531D01*
X-39116Y192536D01*
X-39083D01*
X-39012Y192531D01*
X-38951Y192517D01*
X-38899Y192498D01*
X-38851Y192479D01*
X-38818Y192460D01*
X-38790Y192441D01*
X-38776Y192427D01*
X-38771Y192422D01*
X-38733Y192375D01*
X-38705Y192323D01*
X-38686Y192271D01*
X-38672Y192219D01*
X-38662Y192171D01*
X-38658Y192129D01*
Y192105D01*
Y192100D01*
Y192096D01*
X-38662Y192025D01*
X-38676Y191958D01*
X-38700Y191892D01*
X-38724Y191835D01*
X-38747Y191783D01*
X-38771Y191746D01*
X-38785Y191722D01*
X-38790Y191712D01*
X-38809Y191684D01*
X-38837Y191651D01*
X-38875Y191609D01*
X-38913Y191571D01*
X-38998Y191481D01*
X-39083Y191391D01*
X-39168Y191306D01*
X-39206Y191268D01*
X-39244Y191240D01*
X-39272Y191211D01*
X-39291Y191192D01*
X-39305Y191178D01*
X-39310Y191173D01*
X-39405Y191083D01*
X-39490Y190998D01*
X-39570Y190918D01*
X-39641Y190847D01*
X-39708Y190776D01*
X-39764Y190710D01*
X-39816Y190653D01*
X-39859Y190596D01*
X-39897Y190549D01*
X-39930Y190506D01*
X-39958Y190473D01*
X-39977Y190440D01*
X-39996Y190421D01*
X-40005Y190402D01*
X-40015Y190393D01*
Y190388D01*
X-40077Y190279D01*
X-40124Y190166D01*
X-40162Y190062D01*
X-40190Y189967D01*
X-40209Y189882D01*
X-40214Y189849D01*
X-40218Y189821D01*
X-40223Y189797D01*
X-40228Y189778D01*
Y189764D01*
X-38028D01*
Y190346D01*
X-39277D01*
X-39239Y190407D01*
X-39197Y190459D01*
X-39178Y190483D01*
X-39164Y190502D01*
X-39154Y190511D01*
X-39149Y190516D01*
X-39130Y190535D01*
X-39112Y190558D01*
X-39055Y190610D01*
X-38993Y190672D01*
X-38932Y190733D01*
X-38870Y190790D01*
X-38818Y190838D01*
X-38799Y190856D01*
X-38785Y190871D01*
X-38776Y190875D01*
X-38771Y190880D01*
X-38667Y190979D01*
X-38582Y191060D01*
X-38511Y191136D01*
X-38454Y191192D01*
X-38412Y191240D01*
X-38383Y191273D01*
X-38364Y191296D01*
X-38359Y191301D01*
X-38298Y191381D01*
X-38246Y191457D01*
X-38203Y191528D01*
X-38170Y191590D01*
X-38142Y191642D01*
X-38123Y191684D01*
X-38113Y191708D01*
X-38109Y191717D01*
X-38080Y191793D01*
X-38061Y191869D01*
X-38047Y191940D01*
X-38038Y192006D01*
X-38033Y192058D01*
X-38028Y192100D01*
Y192138D01*
X-38033Y192209D01*
X-38043Y192280D01*
X-38052Y192346D01*
X-38071Y192408D01*
X-38118Y192517D01*
X-38166Y192611D01*
X-38194Y192654D01*
X-38218Y192687D01*
X-38241Y192720D01*
X-38265Y192744D01*
X-38284Y192763D01*
X-38293Y192781D01*
X-38303Y192786D01*
X-38307Y192791D01*
X-38359Y192838D01*
X-38421Y192881D01*
X-38478Y192914D01*
X-38544Y192942D01*
X-38667Y192990D01*
X-38790Y193023D01*
X-38847Y193032D01*
X-38899Y193042D01*
X-38946Y193046D01*
X-38989Y193051D01*
X-39022Y193056D01*
D02*
G37*
G36*
X-61164Y193037D02*
X-61826D01*
Y191750D01*
X-63117D01*
Y193037D01*
X-63779D01*
Y189764D01*
X-63117D01*
Y191197D01*
X-61826D01*
Y189764D01*
X-61164D01*
Y193037D01*
D02*
G37*
G36*
X-59016Y193056D02*
X-59527D01*
X-59575Y192947D01*
X-59636Y192848D01*
X-59702Y192753D01*
X-59768Y192677D01*
X-59825Y192616D01*
X-59877Y192569D01*
X-59896Y192550D01*
X-59910Y192536D01*
X-59920Y192531D01*
X-59925Y192526D01*
X-60029Y192450D01*
X-60128Y192384D01*
X-60218Y192332D01*
X-60298Y192294D01*
X-60365Y192266D01*
X-60412Y192242D01*
X-60431Y192238D01*
X-60445Y192233D01*
X-60450Y192228D01*
X-60454D01*
Y191660D01*
X-60284Y191727D01*
X-60133Y191798D01*
X-60062Y191835D01*
X-59996Y191878D01*
X-59934Y191916D01*
X-59877Y191954D01*
X-59825Y191992D01*
X-59778Y192025D01*
X-59740Y192053D01*
X-59707Y192081D01*
X-59679Y192105D01*
X-59660Y192119D01*
X-59650Y192129D01*
X-59645Y192133D01*
Y189764D01*
X-59016D01*
Y193056D01*
D02*
G37*
G36*
X-13526Y193098D02*
X-14188D01*
Y191812D01*
X-15480D01*
Y193098D01*
X-16142D01*
Y189825D01*
X-15480D01*
Y191259D01*
X-14188D01*
Y189825D01*
X-13526D01*
Y193098D01*
D02*
G37*
G36*
X-11908Y193117D02*
X-11951D01*
X-12050Y193113D01*
X-12140Y193103D01*
X-12225Y193084D01*
X-12296Y193065D01*
X-12353Y193046D01*
X-12400Y193027D01*
X-12429Y193018D01*
X-12433Y193013D01*
X-12438D01*
X-12514Y192971D01*
X-12585Y192923D01*
X-12641Y192876D01*
X-12689Y192833D01*
X-12727Y192791D01*
X-12755Y192758D01*
X-12774Y192739D01*
X-12779Y192729D01*
X-12821Y192658D01*
X-12859Y192583D01*
X-12888Y192502D01*
X-12916Y192427D01*
X-12935Y192356D01*
X-12949Y192304D01*
X-12954Y192280D01*
Y192266D01*
X-12958Y192256D01*
Y192252D01*
X-12381Y192157D01*
X-12367Y192233D01*
X-12348Y192299D01*
X-12329Y192356D01*
X-12306Y192398D01*
X-12282Y192436D01*
X-12263Y192465D01*
X-12249Y192479D01*
X-12244Y192483D01*
X-12202Y192521D01*
X-12154Y192550D01*
X-12107Y192569D01*
X-12065Y192583D01*
X-12027Y192592D01*
X-11998Y192597D01*
X-11970D01*
X-11913Y192592D01*
X-11856Y192583D01*
X-11814Y192564D01*
X-11776Y192550D01*
X-11743Y192531D01*
X-11724Y192512D01*
X-11710Y192502D01*
X-11705Y192498D01*
X-11672Y192460D01*
X-11648Y192413D01*
X-11629Y192370D01*
X-11620Y192327D01*
X-11610Y192290D01*
X-11606Y192261D01*
Y192242D01*
Y192233D01*
X-11610Y192162D01*
X-11625Y192100D01*
X-11648Y192048D01*
X-11672Y192006D01*
X-11700Y191968D01*
X-11719Y191944D01*
X-11738Y191925D01*
X-11743Y191921D01*
X-11800Y191883D01*
X-11861Y191854D01*
X-11927Y191835D01*
X-11989Y191821D01*
X-12046Y191817D01*
X-12093Y191812D01*
X-12135D01*
X-12202Y191306D01*
X-12140Y191320D01*
X-12088Y191334D01*
X-12036Y191344D01*
X-11993Y191348D01*
X-11960Y191353D01*
X-11913D01*
X-11847Y191348D01*
X-11790Y191329D01*
X-11738Y191311D01*
X-11691Y191282D01*
X-11658Y191259D01*
X-11629Y191235D01*
X-11610Y191216D01*
X-11606Y191211D01*
X-11563Y191154D01*
X-11530Y191093D01*
X-11506Y191031D01*
X-11487Y190970D01*
X-11478Y190913D01*
X-11473Y190871D01*
Y190842D01*
Y190838D01*
Y190833D01*
X-11478Y190743D01*
X-11492Y190663D01*
X-11516Y190592D01*
X-11539Y190535D01*
X-11568Y190492D01*
X-11587Y190459D01*
X-11606Y190435D01*
X-11610Y190431D01*
X-11662Y190383D01*
X-11719Y190346D01*
X-11771Y190322D01*
X-11823Y190303D01*
X-11871Y190294D01*
X-11904Y190289D01*
X-11927Y190284D01*
X-11937D01*
X-12003Y190289D01*
X-12060Y190303D01*
X-12112Y190322D01*
X-12159Y190346D01*
X-12192Y190365D01*
X-12221Y190383D01*
X-12240Y190398D01*
X-12244Y190402D01*
X-12287Y190454D01*
X-12325Y190511D01*
X-12348Y190573D01*
X-12372Y190629D01*
X-12386Y190681D01*
X-12396Y190724D01*
X-12400Y190752D01*
Y190757D01*
Y190762D01*
X-13006Y190686D01*
X-12996Y190610D01*
X-12977Y190540D01*
X-12935Y190407D01*
X-12883Y190294D01*
X-12850Y190246D01*
X-12821Y190199D01*
X-12793Y190156D01*
X-12765Y190123D01*
X-12741Y190090D01*
X-12717Y190067D01*
X-12698Y190048D01*
X-12684Y190033D01*
X-12675Y190024D01*
X-12670Y190019D01*
X-12613Y189977D01*
X-12552Y189934D01*
X-12495Y189901D01*
X-12429Y189873D01*
X-12306Y189825D01*
X-12192Y189797D01*
X-12135Y189787D01*
X-12088Y189778D01*
X-12046Y189773D01*
X-12008Y189769D01*
X-11975Y189764D01*
X-11932D01*
X-11847Y189769D01*
X-11762Y189778D01*
X-11686Y189792D01*
X-11610Y189811D01*
X-11544Y189835D01*
X-11478Y189858D01*
X-11417Y189887D01*
X-11364Y189915D01*
X-11317Y189944D01*
X-11270Y189972D01*
X-11237Y189996D01*
X-11204Y190019D01*
X-11180Y190038D01*
X-11161Y190052D01*
X-11152Y190062D01*
X-11147Y190067D01*
X-11090Y190123D01*
X-11043Y190185D01*
X-11000Y190246D01*
X-10962Y190308D01*
X-10934Y190374D01*
X-10906Y190435D01*
X-10868Y190549D01*
X-10858Y190601D01*
X-10849Y190653D01*
X-10839Y190696D01*
X-10835Y190733D01*
X-10830Y190762D01*
Y190804D01*
X-10839Y190913D01*
X-10858Y191008D01*
X-10882Y191098D01*
X-10915Y191169D01*
X-10948Y191230D01*
X-10972Y191273D01*
X-10991Y191301D01*
X-11000Y191311D01*
X-11067Y191381D01*
X-11142Y191443D01*
X-11218Y191490D01*
X-11289Y191528D01*
X-11350Y191556D01*
X-11402Y191571D01*
X-11421Y191580D01*
X-11435D01*
X-11445Y191585D01*
X-11450D01*
X-11364Y191637D01*
X-11293Y191689D01*
X-11232Y191746D01*
X-11175Y191802D01*
X-11128Y191859D01*
X-11090Y191916D01*
X-11062Y191973D01*
X-11033Y192025D01*
X-11014Y192077D01*
X-11000Y192124D01*
X-10991Y192167D01*
X-10986Y192204D01*
X-10981Y192233D01*
X-10977Y192256D01*
Y192271D01*
Y192275D01*
X-10981Y192332D01*
X-10986Y192384D01*
X-11014Y192488D01*
X-11048Y192583D01*
X-11090Y192663D01*
X-11133Y192729D01*
X-11170Y192777D01*
X-11185Y192796D01*
X-11199Y192810D01*
X-11204Y192815D01*
X-11208Y192819D01*
X-11260Y192871D01*
X-11322Y192919D01*
X-11379Y192956D01*
X-11440Y192990D01*
X-11506Y193023D01*
X-11568Y193046D01*
X-11686Y193079D01*
X-11738Y193094D01*
X-11790Y193103D01*
X-11833Y193108D01*
X-11875Y193113D01*
X-11908Y193117D01*
D02*
G37*
G36*
X-78615Y198667D02*
X-81462D01*
D01*
X-79935D01*
X-80058Y198662D01*
X-80181Y198648D01*
X-80289Y198624D01*
X-80398Y198596D01*
X-80493Y198563D01*
X-80587Y198525D01*
X-80668Y198483D01*
X-80743Y198440D01*
X-80814Y198397D01*
X-80871Y198355D01*
X-80923Y198317D01*
X-80966Y198284D01*
X-80999Y198256D01*
X-81023Y198232D01*
X-81037Y198218D01*
X-81041Y198213D01*
X-81117Y198123D01*
X-81179Y198028D01*
X-81235Y197929D01*
X-81283Y197825D01*
X-81325Y197716D01*
X-81358Y197612D01*
X-81387Y197508D01*
X-81410Y197409D01*
X-81429Y197310D01*
X-81439Y197224D01*
X-81448Y197144D01*
X-81458Y197078D01*
Y197021D01*
X-81462Y196978D01*
D01*
Y195276D01*
Y196941D01*
X-81458Y196799D01*
X-81444Y196666D01*
X-81424Y196538D01*
X-81396Y196425D01*
X-81368Y196316D01*
X-81330Y196212D01*
X-81292Y196122D01*
X-81254Y196042D01*
X-81216Y195966D01*
X-81179Y195900D01*
X-81141Y195848D01*
X-81112Y195801D01*
X-81084Y195767D01*
X-81065Y195739D01*
X-81051Y195725D01*
X-81046Y195720D01*
X-80966Y195640D01*
X-80881Y195574D01*
X-80791Y195512D01*
X-80701Y195465D01*
X-80611Y195422D01*
X-80521Y195384D01*
X-80436Y195356D01*
X-80356Y195332D01*
X-80275Y195313D01*
X-80204Y195299D01*
X-80138Y195290D01*
X-80086Y195285D01*
X-80039Y195280D01*
X-80006Y195276D01*
X-79977D01*
X-79878Y195280D01*
X-79788Y195285D01*
X-79698Y195299D01*
X-79618Y195318D01*
X-79542Y195337D01*
X-79471Y195356D01*
X-79405Y195380D01*
X-79343Y195408D01*
X-79291Y195432D01*
X-79244Y195455D01*
X-79201Y195474D01*
X-79168Y195493D01*
X-79140Y195512D01*
X-79121Y195526D01*
X-79112Y195531D01*
X-79107Y195536D01*
X-79045Y195588D01*
X-78989Y195644D01*
X-78885Y195772D01*
X-78799Y195905D01*
X-78733Y196032D01*
X-78705Y196094D01*
X-78681Y196151D01*
X-78662Y196203D01*
X-78643Y196245D01*
X-78629Y196283D01*
X-78620Y196311D01*
X-78615Y196330D01*
Y196335D01*
X-79258Y196534D01*
X-79296Y196406D01*
X-79339Y196297D01*
X-79381Y196207D01*
X-79428Y196132D01*
X-79466Y196075D01*
X-79499Y196037D01*
X-79523Y196013D01*
X-79532Y196004D01*
X-79608Y195947D01*
X-79684Y195909D01*
X-79760Y195881D01*
X-79826Y195857D01*
X-79887Y195848D01*
X-79939Y195843D01*
X-79958Y195838D01*
X-79982D01*
X-80048Y195843D01*
X-80110Y195848D01*
X-80223Y195881D01*
X-80322Y195919D01*
X-80403Y195971D01*
X-80469Y196018D01*
X-80516Y196056D01*
X-80535Y196075D01*
X-80550Y196089D01*
X-80554Y196094D01*
X-80559Y196099D01*
X-80597Y196151D01*
X-80630Y196212D01*
X-80663Y196278D01*
X-80687Y196349D01*
X-80725Y196496D01*
X-80753Y196643D01*
X-80762Y196713D01*
X-80767Y196775D01*
X-80777Y196836D01*
Y196888D01*
X-80781Y196926D01*
Y196959D01*
Y196983D01*
Y196988D01*
X-80777Y197097D01*
X-80772Y197196D01*
X-80762Y197286D01*
X-80748Y197371D01*
X-80729Y197447D01*
X-80710Y197518D01*
X-80691Y197579D01*
X-80668Y197636D01*
X-80649Y197683D01*
X-80630Y197726D01*
X-80611Y197759D01*
X-80592Y197787D01*
X-80578Y197811D01*
X-80568Y197825D01*
X-80559Y197835D01*
Y197839D01*
X-80516Y197887D01*
X-80469Y197929D01*
X-80422Y197962D01*
X-80370Y197991D01*
X-80270Y198038D01*
X-80176Y198071D01*
X-80095Y198090D01*
X-80058Y198095D01*
X-80029Y198099D01*
X-80001Y198104D01*
X-79968D01*
X-79873Y198099D01*
X-79788Y198081D01*
X-79712Y198057D01*
X-79646Y198028D01*
X-79594Y198000D01*
X-79556Y197976D01*
X-79532Y197958D01*
X-79523Y197953D01*
X-79462Y197896D01*
X-79405Y197830D01*
X-79362Y197764D01*
X-79329Y197697D01*
X-79305Y197641D01*
X-79291Y197598D01*
X-79282Y197579D01*
Y197565D01*
X-79277Y197560D01*
Y197555D01*
X-78624Y197712D01*
X-78672Y197849D01*
X-78724Y197967D01*
X-78781Y198071D01*
X-78833Y198156D01*
X-78885Y198222D01*
X-78903Y198251D01*
X-78922Y198274D01*
X-78937Y198289D01*
X-78951Y198303D01*
X-78956Y198312D01*
X-78960D01*
X-79031Y198374D01*
X-79112Y198431D01*
X-79187Y198478D01*
X-79268Y198516D01*
X-79353Y198554D01*
X-79433Y198582D01*
X-79514Y198606D01*
X-79589Y198624D01*
X-79660Y198639D01*
X-79726Y198648D01*
X-79783Y198658D01*
X-79835Y198662D01*
X-79878Y198667D01*
X-78615D01*
D01*
D02*
G37*
G36*
X-82044Y198606D02*
X-84646D01*
Y195332D01*
X-84035D01*
Y197489D01*
X-82706Y195332D01*
X-82044D01*
Y198606D01*
D02*
G37*
%LPD*%
G36*
X-82654Y196401D02*
X-84007Y198606D01*
X-82654D01*
Y196401D01*
D02*
G37*
%LPC*%
G36*
X-14207Y149606D02*
X-17054D01*
X-15692D01*
X-15791Y149602D01*
X-15881Y149597D01*
X-15971Y149583D01*
X-16052Y149564D01*
X-16127Y149545D01*
X-16198Y149526D01*
X-16264Y149502D01*
X-16326Y149474D01*
X-16378Y149450D01*
X-16425Y149427D01*
X-16468Y149408D01*
X-16501Y149389D01*
X-16529Y149370D01*
X-16548Y149356D01*
X-16558Y149351D01*
X-16563Y149346D01*
X-16624Y149294D01*
X-16681Y149237D01*
X-16785Y149110D01*
X-16870Y148977D01*
X-16936Y148849D01*
X-16964Y148788D01*
X-16988Y148731D01*
X-17007Y148679D01*
X-17026Y148637D01*
X-17040Y148599D01*
X-17050Y148570D01*
X-17054Y148551D01*
Y146215D01*
Y148547D01*
X-16411Y148348D01*
X-16373Y148476D01*
X-16331Y148585D01*
X-16288Y148674D01*
X-16241Y148750D01*
X-16203Y148807D01*
X-16170Y148845D01*
X-16146Y148868D01*
X-16137Y148878D01*
X-16061Y148935D01*
X-15985Y148972D01*
X-15910Y149001D01*
X-15844Y149024D01*
X-15782Y149034D01*
X-15730Y149039D01*
X-15711Y149043D01*
X-15687D01*
X-15621Y149039D01*
X-15560Y149034D01*
X-15446Y149001D01*
X-15347Y148963D01*
X-15266Y148911D01*
X-15200Y148864D01*
X-15153Y148826D01*
X-15134Y148807D01*
X-15120Y148793D01*
X-15115Y148788D01*
X-15110Y148783D01*
X-15073Y148731D01*
X-15039Y148670D01*
X-15006Y148603D01*
X-14983Y148533D01*
X-14945Y148386D01*
X-14916Y148239D01*
X-14907Y148168D01*
X-14902Y148107D01*
X-14893Y148045D01*
Y147993D01*
X-14888Y147956D01*
Y147922D01*
Y147899D01*
Y147894D01*
X-14893Y147785D01*
X-14897Y147686D01*
X-14907Y147596D01*
X-14921Y147511D01*
X-14940Y147435D01*
X-14959Y147364D01*
X-14978Y147303D01*
X-15002Y147246D01*
X-15021Y147199D01*
X-15039Y147156D01*
X-15058Y147123D01*
X-15077Y147095D01*
X-15091Y147071D01*
X-15101Y147057D01*
X-15110Y147047D01*
Y147043D01*
X-15153Y146995D01*
X-15200Y146953D01*
X-15247Y146920D01*
X-15300Y146891D01*
X-15399Y146844D01*
X-15494Y146811D01*
X-15574Y146792D01*
X-15612Y146787D01*
X-15640Y146783D01*
X-15668Y146778D01*
X-15702D01*
X-15796Y146783D01*
X-15881Y146801D01*
X-15957Y146825D01*
X-16023Y146853D01*
X-16075Y146882D01*
X-16113Y146906D01*
X-16137Y146924D01*
X-16146Y146929D01*
X-16208Y146986D01*
X-16264Y147052D01*
X-16307Y147118D01*
X-16340Y147185D01*
X-16364Y147241D01*
X-16378Y147284D01*
X-16387Y147303D01*
Y147317D01*
X-16392Y147322D01*
Y147326D01*
X-17045Y147170D01*
X-16998Y147033D01*
X-16946Y146915D01*
X-16889Y146811D01*
X-16837Y146726D01*
X-16785Y146660D01*
X-16766Y146631D01*
X-16747Y146607D01*
X-16733Y146593D01*
X-16718Y146579D01*
X-16714Y146570D01*
X-16709D01*
X-16638Y146508D01*
X-16558Y146451D01*
X-16482Y146404D01*
X-16402Y146366D01*
X-16317Y146328D01*
X-16236Y146300D01*
X-16156Y146276D01*
X-16080Y146257D01*
X-16009Y146243D01*
X-15943Y146234D01*
X-15886Y146224D01*
X-15834Y146220D01*
X-15791Y146215D01*
X-15735D01*
X-15612Y146220D01*
X-15489Y146234D01*
X-15380Y146257D01*
X-15271Y146286D01*
X-15177Y146319D01*
X-15082Y146357D01*
X-15002Y146399D01*
X-14926Y146442D01*
X-14855Y146484D01*
X-14798Y146527D01*
X-14746Y146565D01*
X-14704Y146598D01*
X-14671Y146626D01*
X-14647Y146650D01*
X-14633Y146664D01*
X-14628Y146669D01*
X-14552Y146759D01*
X-14491Y146853D01*
X-14434Y146953D01*
X-14387Y147057D01*
X-14344Y147166D01*
X-14311Y147270D01*
X-14283Y147374D01*
X-14259Y147473D01*
X-14240Y147572D01*
X-14231Y147658D01*
X-14221Y147738D01*
X-14212Y147804D01*
Y147861D01*
X-14207Y147904D01*
Y147941D01*
X-14212Y148083D01*
X-14226Y148216D01*
X-14245Y148343D01*
X-14273Y148457D01*
X-14301Y148566D01*
X-14339Y148670D01*
X-14377Y148760D01*
X-14415Y148840D01*
X-14453Y148916D01*
X-14491Y148982D01*
X-14529Y149034D01*
X-14557Y149081D01*
X-14585Y149114D01*
X-14604Y149143D01*
X-14618Y149157D01*
X-14623Y149162D01*
X-14704Y149242D01*
X-14789Y149308D01*
X-14879Y149370D01*
X-14968Y149417D01*
X-15058Y149460D01*
X-15148Y149497D01*
X-15233Y149526D01*
X-15314Y149549D01*
X-15394Y149568D01*
X-15465Y149583D01*
X-15531Y149592D01*
X-15583Y149597D01*
X-15631Y149602D01*
X-15664Y149606D01*
X-14207D01*
D02*
G37*
G36*
X-11024Y149549D02*
X-13625D01*
Y146276D01*
X-13015D01*
Y148481D01*
X-11662Y146276D01*
X-11024D01*
Y149549D01*
D02*
G37*
G36*
X-15791Y146215D02*
D01*
X-17054D01*
X-15791D01*
D02*
G37*
%LPD*%
G36*
X-11634Y147393D02*
X-12963Y149549D01*
X-11634D01*
Y147393D01*
D02*
G37*
%LPC*%
G36*
X-35682Y149606D02*
X-35724D01*
D01*
X-36850D01*
X-35724D01*
X-35828Y149602D01*
X-35928Y149587D01*
X-36017Y149568D01*
X-36103Y149540D01*
X-36183Y149507D01*
X-36254Y149469D01*
X-36320Y149431D01*
X-36382Y149389D01*
X-36434Y149351D01*
X-36481Y149313D01*
X-36524Y149275D01*
X-36557Y149242D01*
X-36580Y149214D01*
X-36599Y149195D01*
X-36609Y149181D01*
X-36613Y149176D01*
X-36656Y149114D01*
X-36694Y149053D01*
X-36722Y148991D01*
X-36751Y148925D01*
X-36793Y148802D01*
X-36821Y148689D01*
X-36831Y148641D01*
X-36836Y148594D01*
X-36845Y148551D01*
Y148514D01*
X-36850Y148485D01*
Y148448D01*
X-36845Y148358D01*
X-36836Y148272D01*
X-36821Y148192D01*
X-36803Y148116D01*
X-36784Y148050D01*
X-36755Y147984D01*
X-36732Y147922D01*
X-36703Y147870D01*
X-36675Y147823D01*
X-36651Y147781D01*
X-36623Y147743D01*
X-36604Y147714D01*
X-36585Y147691D01*
X-36571Y147672D01*
X-36561Y147662D01*
X-36557Y147658D01*
X-36500Y147606D01*
X-36443Y147558D01*
X-36382Y147516D01*
X-36320Y147478D01*
X-36263Y147449D01*
X-36202Y147426D01*
X-36093Y147388D01*
X-36041Y147374D01*
X-35994Y147364D01*
X-35951Y147360D01*
X-35918Y147355D01*
X-35890Y147350D01*
X-35847D01*
X-35767Y147355D01*
X-35686Y147369D01*
X-35615Y147383D01*
X-35549Y147402D01*
X-35497Y147426D01*
X-35454Y147440D01*
X-35426Y147454D01*
X-35421Y147459D01*
X-35417D01*
X-35516Y146901D01*
X-36703D01*
Y146314D01*
X-36850D01*
X-34646D01*
X-35043D01*
X-34721Y148022D01*
X-35228Y148093D01*
X-35270Y148050D01*
X-35313Y148012D01*
X-35355Y147979D01*
X-35398Y147951D01*
X-35478Y147908D01*
X-35554Y147880D01*
X-35620Y147866D01*
X-35667Y147856D01*
X-35686Y147852D01*
X-35715D01*
X-35790Y147856D01*
X-35861Y147875D01*
X-35923Y147899D01*
X-35975Y147927D01*
X-36013Y147960D01*
X-36046Y147984D01*
X-36065Y148003D01*
X-36069Y148008D01*
X-36117Y148069D01*
X-36150Y148140D01*
X-36173Y148216D01*
X-36188Y148291D01*
X-36202Y148358D01*
X-36207Y148410D01*
Y148433D01*
Y148448D01*
Y148457D01*
Y148462D01*
X-36202Y148575D01*
X-36188Y148674D01*
X-36164Y148755D01*
X-36140Y148821D01*
X-36112Y148878D01*
X-36093Y148916D01*
X-36074Y148935D01*
X-36069Y148944D01*
X-36017Y148996D01*
X-35961Y149039D01*
X-35904Y149067D01*
X-35852Y149086D01*
X-35805Y149095D01*
X-35767Y149100D01*
X-35743Y149105D01*
X-35734D01*
X-35672Y149100D01*
X-35611Y149086D01*
X-35559Y149067D01*
X-35516Y149043D01*
X-35478Y149020D01*
X-35450Y149001D01*
X-35431Y148987D01*
X-35426Y148982D01*
X-35384Y148930D01*
X-35346Y148878D01*
X-35317Y148821D01*
X-35298Y148769D01*
X-35284Y148722D01*
X-35275Y148679D01*
X-35270Y148656D01*
Y148646D01*
X-34646Y148712D01*
X-34660Y148788D01*
X-34674Y148859D01*
X-34721Y148987D01*
X-34773Y149100D01*
X-34802Y149147D01*
X-34835Y149195D01*
X-34863Y149233D01*
X-34887Y149266D01*
X-34915Y149294D01*
X-34934Y149322D01*
X-34953Y149341D01*
X-34967Y149356D01*
X-34977Y149360D01*
X-34982Y149365D01*
X-35038Y149408D01*
X-35095Y149445D01*
X-35157Y149479D01*
X-35218Y149502D01*
X-35346Y149549D01*
X-35459Y149578D01*
X-35516Y149587D01*
X-35563Y149592D01*
X-35611Y149597D01*
X-35649Y149602D01*
X-35682Y149606D01*
D02*
G37*
G36*
X-38160Y149545D02*
X-40038D01*
X-38874D01*
X-40038Y146272D01*
X-39333D01*
X-38534Y148693D01*
X-37701Y146272D01*
X-38990D01*
X-36987D01*
X-38160Y149545D01*
D02*
G37*
G36*
X-60914D02*
X-62153D01*
X-62281Y149540D01*
X-62399Y149535D01*
X-62498Y149526D01*
X-62579Y149512D01*
X-62645Y149497D01*
X-62697Y149488D01*
X-62711Y149483D01*
X-62725D01*
X-62730Y149479D01*
X-62735D01*
X-62839Y149441D01*
X-62933Y149398D01*
X-63009Y149356D01*
X-63075Y149313D01*
X-63127Y149275D01*
X-63165Y149247D01*
X-63189Y149228D01*
X-63198Y149218D01*
X-63279Y149129D01*
X-63350Y149034D01*
X-63411Y148935D01*
X-63459Y148845D01*
X-63496Y148760D01*
X-63515Y148726D01*
X-63525Y148698D01*
X-63534Y148670D01*
X-63544Y148651D01*
X-63548Y148641D01*
Y148637D01*
X-63582Y148523D01*
X-63610Y148405D01*
X-63629Y148291D01*
X-63638Y148183D01*
X-63643Y148131D01*
X-63648Y148083D01*
Y148045D01*
X-63652Y148008D01*
Y149545D01*
Y147941D01*
X-63648Y147776D01*
X-63634Y147629D01*
X-63629Y147558D01*
X-63619Y147497D01*
X-63610Y147435D01*
X-63600Y147383D01*
X-63586Y147336D01*
X-63577Y147293D01*
X-63567Y147256D01*
X-63563Y147227D01*
X-63553Y147204D01*
X-63548Y147185D01*
X-63544Y147175D01*
Y147170D01*
X-63501Y147057D01*
X-63449Y146953D01*
X-63397Y146863D01*
X-63345Y146787D01*
X-63302Y146726D01*
X-63265Y146678D01*
X-63241Y146650D01*
X-63236Y146641D01*
X-63231D01*
X-63151Y146565D01*
X-63071Y146503D01*
X-62985Y146451D01*
X-62910Y146409D01*
X-62844Y146376D01*
X-62787Y146352D01*
X-62768Y146347D01*
X-62754Y146343D01*
X-62744Y146338D01*
X-62740D01*
X-62650Y146314D01*
X-62550Y146300D01*
X-62446Y146286D01*
X-62347Y146281D01*
X-62257Y146276D01*
X-62219Y146272D01*
X-63652D01*
X-60914D01*
Y149545D01*
D02*
G37*
G36*
X-57612D02*
X-58222D01*
Y147388D01*
X-59552Y149545D01*
X-60214D01*
Y146272D01*
X-57612D01*
Y149545D01*
D02*
G37*
G36*
X-53937Y149606D02*
X-55597D01*
X-55749Y149602D01*
X-55891Y149583D01*
X-56028Y149559D01*
X-56146Y149531D01*
X-56198Y149516D01*
X-56245Y149502D01*
X-56288Y149488D01*
X-56326Y149479D01*
X-56354Y149469D01*
X-56373Y149460D01*
X-56387Y149455D01*
X-56392D01*
X-56534Y149398D01*
X-56652Y149337D01*
X-56756Y149275D01*
X-56846Y149223D01*
X-56912Y149176D01*
X-56936Y149157D01*
X-56959Y149138D01*
X-56974Y149124D01*
X-56988Y149114D01*
X-56997Y149105D01*
Y146210D01*
Y147790D01*
X-55574D01*
Y148343D01*
X-56330D01*
Y148764D01*
X-56274Y148807D01*
X-56212Y148845D01*
X-56151Y148878D01*
X-56094Y148906D01*
X-56047Y148930D01*
X-56004Y148949D01*
X-55980Y148958D01*
X-55976Y148963D01*
X-55971D01*
X-55895Y148991D01*
X-55820Y149010D01*
X-55749Y149024D01*
X-55687Y149034D01*
X-55630Y149039D01*
X-55593Y149043D01*
X-55555D01*
X-55479Y149039D01*
X-55403Y149029D01*
X-55337Y149015D01*
X-55271Y148996D01*
X-55153Y148949D01*
X-55105Y148925D01*
X-55058Y148897D01*
X-55015Y148868D01*
X-54978Y148845D01*
X-54949Y148816D01*
X-54921Y148798D01*
X-54902Y148778D01*
X-54888Y148764D01*
X-54878Y148755D01*
X-54874Y148750D01*
X-54831Y148693D01*
X-54788Y148627D01*
X-54755Y148561D01*
X-54727Y148490D01*
X-54680Y148343D01*
X-54651Y148202D01*
X-54642Y148135D01*
X-54632Y148069D01*
X-54628Y148017D01*
X-54623Y147965D01*
X-54618Y147927D01*
Y147894D01*
Y147875D01*
Y147870D01*
X-54623Y147771D01*
X-54628Y147681D01*
X-54642Y147591D01*
X-54656Y147511D01*
X-54675Y147440D01*
X-54699Y147374D01*
X-54722Y147312D01*
X-54746Y147256D01*
X-54765Y147208D01*
X-54788Y147166D01*
X-54812Y147133D01*
X-54831Y147104D01*
X-54845Y147081D01*
X-54859Y147066D01*
X-54864Y147057D01*
X-54869Y147052D01*
X-54921Y147005D01*
X-54973Y146958D01*
X-55030Y146924D01*
X-55086Y146891D01*
X-55143Y146863D01*
X-55200Y146839D01*
X-55309Y146806D01*
X-55361Y146797D01*
X-55408Y146787D01*
X-55451Y146783D01*
X-55489Y146778D01*
X-55517Y146773D01*
X-55559D01*
X-55664Y146778D01*
X-55753Y146797D01*
X-55834Y146816D01*
X-55905Y146844D01*
X-55957Y146868D01*
X-55999Y146891D01*
X-56023Y146910D01*
X-56032Y146915D01*
X-56099Y146972D01*
X-56155Y147033D01*
X-56203Y147095D01*
X-56236Y147156D01*
X-56264Y147213D01*
X-56283Y147256D01*
X-56293Y147284D01*
X-56297Y147289D01*
Y147293D01*
X-56955Y147170D01*
X-56936Y147090D01*
X-56907Y147010D01*
X-56879Y146939D01*
X-56841Y146872D01*
X-56808Y146806D01*
X-56770Y146749D01*
X-56732Y146697D01*
X-56695Y146650D01*
X-56657Y146607D01*
X-56624Y146570D01*
X-56595Y146537D01*
X-56567Y146513D01*
X-56543Y146494D01*
X-56524Y146475D01*
X-56515Y146470D01*
X-56510Y146466D01*
X-56444Y146418D01*
X-56373Y146380D01*
X-56297Y146347D01*
X-56217Y146319D01*
X-56061Y146272D01*
X-55909Y146243D01*
X-55839Y146229D01*
X-55772Y146224D01*
X-55711Y146220D01*
X-55659Y146215D01*
X-55616Y146210D01*
X-53937D01*
X-55559D01*
X-55389Y146215D01*
X-55238Y146234D01*
X-55172Y146248D01*
X-55105Y146262D01*
X-55044Y146276D01*
X-54992Y146291D01*
X-54944Y146309D01*
X-54897Y146324D01*
X-54864Y146338D01*
X-54831Y146347D01*
X-54807Y146361D01*
X-54788Y146366D01*
X-54779Y146376D01*
X-54774D01*
X-54628Y146461D01*
X-54566Y146513D01*
X-54505Y146560D01*
X-54448Y146612D01*
X-54396Y146664D01*
X-54348Y146716D01*
X-54306Y146764D01*
X-54273Y146811D01*
X-54240Y146853D01*
X-54211Y146891D01*
X-54188Y146924D01*
X-54173Y146953D01*
X-54159Y146972D01*
X-54155Y146986D01*
X-54150Y146991D01*
X-54112Y147066D01*
X-54079Y147142D01*
X-54027Y147298D01*
X-53989Y147454D01*
X-53965Y147591D01*
X-53956Y147658D01*
X-53947Y147714D01*
X-53942Y147766D01*
Y147814D01*
X-53937Y147847D01*
Y147899D01*
X-53947Y148074D01*
X-53965Y148235D01*
X-53999Y148381D01*
X-54013Y148452D01*
X-54032Y148514D01*
X-54050Y148570D01*
X-54065Y148623D01*
X-54084Y148665D01*
X-54098Y148703D01*
X-54107Y148731D01*
X-54117Y148755D01*
X-54126Y148769D01*
Y148774D01*
X-54207Y148916D01*
X-54296Y149039D01*
X-54391Y149147D01*
X-54486Y149233D01*
X-54528Y149270D01*
X-54571Y149304D01*
X-54604Y149332D01*
X-54637Y149351D01*
X-54661Y149370D01*
X-54684Y149384D01*
X-54694Y149389D01*
X-54699Y149393D01*
X-54774Y149431D01*
X-54845Y149464D01*
X-55001Y149516D01*
X-55153Y149554D01*
X-55290Y149578D01*
X-55356Y149587D01*
X-55413Y149597D01*
X-55465Y149602D01*
X-55512D01*
X-55545Y149606D01*
X-53937D01*
D02*
G37*
%LPD*%
G36*
X-61576Y146825D02*
X-62006D01*
X-62068Y146830D01*
X-62125D01*
X-62172Y146835D01*
X-62214D01*
X-62257Y146839D01*
X-62290D01*
X-62342Y146849D01*
X-62380Y146853D01*
X-62404Y146858D01*
X-62409D01*
X-62475Y146877D01*
X-62531Y146901D01*
X-62584Y146924D01*
X-62631Y146953D01*
X-62664Y146976D01*
X-62692Y146995D01*
X-62706Y147010D01*
X-62711Y147014D01*
X-62754Y147062D01*
X-62792Y147114D01*
X-62825Y147166D01*
X-62853Y147213D01*
X-62872Y147260D01*
X-62886Y147298D01*
X-62896Y147322D01*
X-62900Y147326D01*
Y147331D01*
X-62924Y147416D01*
X-62943Y147506D01*
X-62952Y147606D01*
X-62962Y147700D01*
X-62967Y147781D01*
X-62971Y147818D01*
Y147852D01*
Y147875D01*
Y147894D01*
Y147908D01*
Y147913D01*
X-62967Y148045D01*
X-62962Y148168D01*
X-62948Y148268D01*
X-62938Y148353D01*
X-62924Y148424D01*
X-62919Y148452D01*
X-62910Y148471D01*
X-62905Y148490D01*
Y148504D01*
X-62900Y148509D01*
Y148514D01*
X-62872Y148589D01*
X-62848Y148656D01*
X-62815Y148708D01*
X-62792Y148750D01*
X-62768Y148783D01*
X-62749Y148807D01*
X-62735Y148821D01*
X-62730Y148826D01*
X-62687Y148859D01*
X-62645Y148887D01*
X-62602Y148911D01*
X-62560Y148930D01*
X-62522Y148944D01*
X-62494Y148954D01*
X-62475Y148963D01*
X-62465D01*
X-62413Y148972D01*
X-62352Y148977D01*
X-62286Y148987D01*
X-62219D01*
X-62158Y148991D01*
X-61576D01*
Y146825D01*
D02*
G37*
G36*
X-58251Y146272D02*
X-59604D01*
Y148476D01*
X-58251Y146272D01*
D02*
G37*
%LPC*%
G36*
X-83130Y149606D02*
X-83158D01*
X-83257Y149602D01*
X-83347Y149597D01*
X-83437Y149583D01*
X-83517Y149564D01*
X-83593Y149545D01*
X-83664Y149526D01*
X-83730Y149502D01*
X-83792Y149474D01*
X-83844Y149450D01*
X-83891Y149427D01*
X-83934Y149408D01*
X-83967Y149389D01*
X-83995Y149370D01*
X-84014Y149356D01*
X-84024Y149351D01*
X-84028Y149346D01*
X-84090Y149294D01*
X-84147Y149237D01*
X-84251Y149110D01*
X-84336Y148977D01*
X-84402Y148849D01*
X-84430Y148788D01*
X-84454Y148731D01*
X-84473Y148679D01*
X-84492Y148637D01*
X-84506Y148599D01*
X-84516Y148570D01*
X-84520Y148551D01*
Y148547D01*
X-83877Y148348D01*
X-83839Y148476D01*
X-83797Y148585D01*
X-83754Y148674D01*
X-83707Y148750D01*
X-83669Y148807D01*
X-83636Y148845D01*
X-83612Y148868D01*
X-83603Y148878D01*
X-83527Y148935D01*
X-83451Y148972D01*
X-83376Y149001D01*
X-83309Y149024D01*
X-83248Y149034D01*
X-83196Y149039D01*
X-83177Y149043D01*
X-83153D01*
X-83087Y149039D01*
X-83025Y149034D01*
X-82912Y149001D01*
X-82813Y148963D01*
X-82732Y148911D01*
X-82666Y148864D01*
X-82619Y148826D01*
X-82600Y148807D01*
X-82586Y148793D01*
X-82581Y148788D01*
X-82576Y148783D01*
X-82538Y148731D01*
X-82505Y148670D01*
X-82472Y148603D01*
X-82449Y148533D01*
X-82411Y148386D01*
X-82382Y148239D01*
X-82373Y148168D01*
X-82368Y148107D01*
X-82359Y148045D01*
Y147993D01*
X-82354Y147956D01*
Y147922D01*
Y147899D01*
Y147894D01*
X-82359Y147785D01*
X-82363Y147686D01*
X-82373Y147596D01*
X-82387Y147511D01*
X-82406Y147435D01*
X-82425Y147364D01*
X-82444Y147303D01*
X-82467Y147246D01*
X-82486Y147199D01*
X-82505Y147156D01*
X-82524Y147123D01*
X-82543Y147095D01*
X-82557Y147071D01*
X-82567Y147057D01*
X-82576Y147047D01*
Y147043D01*
X-82619Y146995D01*
X-82666Y146953D01*
X-82713Y146920D01*
X-82765Y146891D01*
X-82865Y146844D01*
X-82959Y146811D01*
X-83040Y146792D01*
X-83078Y146787D01*
X-83106Y146783D01*
X-83134Y146778D01*
X-83167D01*
X-83262Y146783D01*
X-83347Y146801D01*
X-83423Y146825D01*
X-83489Y146853D01*
X-83541Y146882D01*
X-83579Y146906D01*
X-83603Y146924D01*
X-83612Y146929D01*
X-83674Y146986D01*
X-83730Y147052D01*
X-83773Y147118D01*
X-83806Y147185D01*
X-83830Y147241D01*
X-83844Y147284D01*
X-83853Y147303D01*
Y147317D01*
X-83858Y147322D01*
Y147326D01*
X-84511Y147170D01*
X-84464Y147033D01*
X-84411Y146915D01*
X-84355Y146811D01*
X-84303Y146726D01*
X-84251Y146660D01*
X-84232Y146631D01*
X-84213Y146607D01*
X-84199Y146593D01*
X-84184Y146579D01*
X-84180Y146570D01*
X-84175D01*
X-84104Y146508D01*
X-84024Y146451D01*
X-83948Y146404D01*
X-83868Y146366D01*
X-83782Y146328D01*
X-83702Y146300D01*
X-83622Y146276D01*
X-83546Y146257D01*
X-83475Y146243D01*
X-83409Y146234D01*
X-83352Y146224D01*
X-83300Y146220D01*
X-83257Y146215D01*
X-84520D01*
D01*
X-81673D01*
D01*
X-83201D01*
X-83078Y146220D01*
X-82955Y146234D01*
X-82846Y146257D01*
X-82737Y146286D01*
X-82642Y146319D01*
X-82548Y146357D01*
X-82467Y146399D01*
X-82392Y146442D01*
X-82321Y146484D01*
X-82264Y146527D01*
X-82212Y146565D01*
X-82169Y146598D01*
X-82136Y146626D01*
X-82113Y146650D01*
X-82099Y146664D01*
X-82094Y146669D01*
X-82018Y146759D01*
X-81957Y146853D01*
X-81900Y146953D01*
X-81853Y147057D01*
X-81810Y147166D01*
X-81777Y147270D01*
X-81748Y147374D01*
X-81725Y147473D01*
X-81706Y147572D01*
X-81696Y147658D01*
X-81687Y147738D01*
X-81678Y147804D01*
Y147861D01*
X-81673Y147904D01*
Y147941D01*
X-81678Y148083D01*
X-81692Y148216D01*
X-81711Y148343D01*
X-81739Y148457D01*
X-81767Y148566D01*
X-81805Y148670D01*
X-81843Y148760D01*
X-81881Y148840D01*
X-81919Y148916D01*
X-81957Y148982D01*
X-81994Y149034D01*
X-82023Y149081D01*
X-82051Y149114D01*
X-82070Y149143D01*
X-82084Y149157D01*
X-82089Y149162D01*
X-82169Y149242D01*
X-82254Y149308D01*
X-82344Y149370D01*
X-82434Y149417D01*
X-82524Y149460D01*
X-82614Y149497D01*
X-82699Y149526D01*
X-82780Y149549D01*
X-82860Y149568D01*
X-82931Y149583D01*
X-82997Y149592D01*
X-83049Y149597D01*
X-83096Y149602D01*
X-83130Y149606D01*
D02*
G37*
G36*
X-78740Y149549D02*
X-81228D01*
Y146276D01*
X-78740D01*
Y149549D01*
D02*
G37*
%LPD*%
G36*
X-79402Y148107D02*
X-81044D01*
Y147554D01*
X-79402D01*
Y146830D01*
X-81167D01*
Y146276D01*
X-81228D01*
Y148996D01*
X-79402D01*
Y148107D01*
D02*
G37*
%LPC*%
G36*
X-117061Y149527D02*
Y148680D01*
X-117917D01*
Y149527D01*
X-118490D01*
Y148680D01*
X-119350D01*
Y148094D01*
X-118490D01*
Y147247D01*
X-119350D01*
X-117061D01*
Y149527D01*
D02*
G37*
G36*
X-113386Y150000D02*
X-113996D01*
Y147427D01*
X-114639Y150000D01*
X-115278D01*
X-115921Y147427D01*
X-115926Y150000D01*
X-116536D01*
Y146727D01*
X-113386D01*
Y150000D01*
D02*
G37*
%LPD*%
G36*
X-117061Y147247D02*
X-117917D01*
Y148094D01*
X-117061D01*
Y147247D01*
D02*
G37*
G36*
X-114374Y146727D02*
X-115543D01*
X-114961Y148964D01*
X-114374Y146727D01*
D02*
G37*
%LPC*%
G36*
X-114315Y196780D02*
X-115550D01*
Y196151D01*
X-114315D01*
Y196780D01*
D02*
G37*
G36*
X-116141Y198549D02*
X-119291D01*
Y195276D01*
X-118681D01*
Y197849D01*
X-118038Y195276D01*
X-117399D01*
X-116756Y197849D01*
X-116751Y195276D01*
X-116141D01*
Y198549D01*
D02*
G37*
%LPD*%
G36*
X-117716Y196311D02*
X-118303Y198549D01*
X-117134D01*
X-117716Y196311D01*
D02*
G37*
D10*
X-9843Y212598D02*
G03*
X-9843Y212598I-19685J0D01*
G01*
X-106299Y3937D02*
X-102362Y11811D01*
X-106299Y3937D02*
X-98425Y3937D01*
X-102362Y11811D02*
X-98425Y3937D01*
X-25591Y3937D02*
X-21654Y11811D01*
X-25591Y3937D02*
X-17717Y3937D01*
X-21654Y11811D02*
X-17717Y3937D01*
X-36220Y200559D02*
Y204559D01*
X-38221Y202559D02*
X-34220D01*
X-88043Y193521D02*
X-78398D01*
X-119343D02*
X-109697D01*
X-119343Y151789D02*
X-109697D01*
X-88240D02*
X-78398D01*
X-119343D02*
Y193521D01*
X-78398Y151789D02*
Y193521D01*
X-63779Y151378D02*
X-11024D01*
X-63779Y177500D02*
Y187874D01*
Y151378D02*
Y165689D01*
Y187874D02*
X-11024D01*
Y177500D02*
Y187874D01*
Y151378D02*
Y165689D01*
X-121850Y201575D02*
X-53347D01*
Y210630D01*
X-121850Y201575D02*
Y210630D01*
D11*
X-108910Y151789D02*
G03*
X-108910Y151789I-787J0D01*
G01*
X-62992Y177500D02*
G03*
X-62992Y177500I-787J0D01*
G01*
X-52165Y210630D02*
G03*
X-52165Y210630I-1181J0D01*
G01*
D12*
X-114385Y243157D02*
X-116385D01*
X-115385D01*
Y238158D01*
X-116385Y237158D01*
X-117385D01*
X-118384Y238158D01*
X-109387Y237158D02*
Y243157D01*
X-112386Y240158D01*
X-108387D01*
X-19110Y174653D02*
X-21109D01*
X-20110D01*
Y169654D01*
X-21109Y168655D01*
X-22109D01*
X-23109Y169654D01*
X-13112Y168655D02*
X-17111D01*
X-13112Y172653D01*
Y173653D01*
X-14111Y174653D01*
X-16111D01*
X-17111Y173653D01*
X-99213Y190794D02*
X-101212D01*
X-100212D01*
Y185796D01*
X-101212Y184796D01*
X-102212D01*
X-103211Y185796D01*
X-97213Y184796D02*
X-95214D01*
X-96214D01*
Y190794D01*
X-97213Y189795D01*
X-43027Y212992D02*
X-44027Y211993D01*
Y209993D01*
X-43027Y208994D01*
X-39028D01*
X-38028Y209993D01*
Y211993D01*
X-39028Y212992D01*
X-38028Y214991D02*
Y216991D01*
Y215991D01*
X-44027D01*
X-43027Y214991D01*
M02*
