G04*
G04 #@! TF.GenerationSoftware,Altium Limited,Altium Designer,24.6.1 (21)*
G04*
G04 Layer_Physical_Order=1*
G04 Layer_Color=255*
%FSLAX44Y44*%
%MOMM*%
G71*
G04*
G04 #@! TF.SameCoordinates,B00BFCD2-5707-4677-9BBC-B61177668CA5*
G04*
G04*
G04 #@! TF.FilePolarity,Positive*
G04*
G01*
G75*
%ADD18R,1.5000X1.5000*%
%ADD19C,1.5000*%
%ADD21C,0.3000*%
%ADD22C,1.2000*%
%ADD23C,0.4000*%
%AMCUSTOMSHAPE24*
4,1,6,-1.5500,-1.2250,-0.7750,-2.0000,0.7750,-2.0000,1.5500,-1.2250,1.5500,1.7500,-1.5500,1.7500,-1.5500,-1.2250,0.0*%
%ADD24CUSTOMSHAPE24*%

%AMCUSTOMSHAPE25*
4,1,6,-1.5500,-1.2250,-0.7750,-2.0000,0.7750,-2.0000,1.5500,-1.2250,1.5500,1.7500,-1.5500,1.7500,-1.5500,-1.2250,0.0*%
%ADD25CUSTOMSHAPE25*%

%ADD26C,1.5300*%
%ADD27R,1.5300X1.5300*%
%ADD28R,1.4000X1.4000*%
%ADD29C,1.4000*%
%ADD30C,3.0000*%
%ADD31C,0.8000*%
%ADD32C,0.7500*%
G36*
X501115Y-636115D02*
X407627D01*
X407141Y-634942D01*
X411916Y-630166D01*
X412400Y-629000D01*
Y-599250D01*
X411916Y-598084D01*
X410750Y-597600D01*
X402589D01*
Y-580644D01*
X414708Y-568524D01*
X421024D01*
Y-562208D01*
X431586Y-551646D01*
X431765Y-551572D01*
X433337Y-550366D01*
X440366Y-543337D01*
X440366Y-543337D01*
X441572Y-541765D01*
X442330Y-539935D01*
X442589Y-537971D01*
X442589Y-537970D01*
Y-502500D01*
X442589Y-502500D01*
X442330Y-500536D01*
X441572Y-498705D01*
X440366Y-497134D01*
X440366Y-497134D01*
X421024Y-477792D01*
Y-471476D01*
X403976D01*
Y-488524D01*
X410292D01*
X427411Y-505643D01*
Y-534827D01*
X423885Y-538354D01*
X423706Y-538428D01*
X422134Y-539634D01*
X422134Y-539634D01*
X410292Y-551476D01*
X403976D01*
Y-557792D01*
X389634Y-572134D01*
X388428Y-573706D01*
X387670Y-575536D01*
X387411Y-577500D01*
X387411Y-577500D01*
Y-597601D01*
X379750D01*
X378584Y-598084D01*
X378100Y-599250D01*
Y-629000D01*
X378584Y-630166D01*
X383359Y-634942D01*
X382873Y-636115D01*
X81877D01*
X81391Y-634942D01*
X86666Y-629666D01*
X87150Y-628500D01*
Y-602583D01*
X117866Y-571866D01*
X117866Y-571866D01*
X119072Y-570294D01*
X119830Y-568464D01*
X120089Y-566500D01*
X120089Y-566500D01*
Y-555793D01*
X139887Y-535996D01*
X141741Y-535499D01*
X143833Y-534291D01*
X145541Y-532583D01*
X146749Y-530491D01*
X147374Y-528158D01*
Y-525742D01*
X146749Y-523409D01*
X145541Y-521317D01*
X143833Y-519609D01*
X141741Y-518401D01*
X139408Y-517776D01*
X136992D01*
X134659Y-518401D01*
X132567Y-519609D01*
X130859Y-521317D01*
X129651Y-523409D01*
X129154Y-525263D01*
X107134Y-547284D01*
X105928Y-548856D01*
X105170Y-550686D01*
X104911Y-552650D01*
X104911Y-552650D01*
Y-563357D01*
X71167Y-597100D01*
X54500Y-597100D01*
X53334Y-597584D01*
X52850Y-598750D01*
Y-628500D01*
X53334Y-629666D01*
X58609Y-634942D01*
X58123Y-636115D01*
X3884D01*
X3884Y-3884D01*
X501115D01*
X501115Y-636115D01*
D02*
G37*
%LPC*%
G36*
X147374Y-9776D02*
X129026D01*
Y-28124D01*
X147374D01*
Y-9776D01*
D02*
G37*
G36*
X479128Y-10976D02*
X475872D01*
X472680Y-11611D01*
X469673Y-12857D01*
X466967Y-14665D01*
X464665Y-16967D01*
X462857Y-19673D01*
X461611Y-22680D01*
X460976Y-25872D01*
Y-29128D01*
X461611Y-32320D01*
X462857Y-35327D01*
X464665Y-38033D01*
X466967Y-40335D01*
X469673Y-42143D01*
X472680Y-43389D01*
X475872Y-44024D01*
X479128D01*
X482320Y-43389D01*
X485327Y-42143D01*
X488033Y-40335D01*
X490335Y-38033D01*
X492143Y-35327D01*
X493389Y-32320D01*
X494024Y-29128D01*
Y-25872D01*
X493389Y-22680D01*
X492143Y-19673D01*
X490335Y-16967D01*
X488033Y-14665D01*
X485327Y-12857D01*
X482320Y-11611D01*
X479128Y-10976D01*
D02*
G37*
G36*
X29128D02*
X25872D01*
X22680Y-11611D01*
X19673Y-12857D01*
X16967Y-14665D01*
X14665Y-16967D01*
X12857Y-19673D01*
X11611Y-22680D01*
X10976Y-25872D01*
Y-29128D01*
X11611Y-32320D01*
X12857Y-35327D01*
X14665Y-38033D01*
X16967Y-40335D01*
X19673Y-42143D01*
X22680Y-43389D01*
X25872Y-44024D01*
X29128D01*
X32320Y-43389D01*
X35327Y-42143D01*
X38033Y-40335D01*
X40335Y-38033D01*
X42143Y-35327D01*
X43389Y-32320D01*
X44024Y-29128D01*
Y-25872D01*
X43389Y-22680D01*
X42143Y-19673D01*
X40335Y-16967D01*
X38033Y-14665D01*
X35327Y-12857D01*
X32320Y-11611D01*
X29128Y-10976D01*
D02*
G37*
G36*
X368008Y-35176D02*
X365592D01*
X363259Y-35801D01*
X361167Y-37009D01*
X359459Y-38717D01*
X358251Y-40809D01*
X357626Y-43142D01*
Y-45558D01*
X358251Y-47891D01*
X359459Y-49983D01*
X361167Y-51691D01*
X363259Y-52899D01*
X365592Y-53524D01*
X368008D01*
X370341Y-52899D01*
X372433Y-51691D01*
X374141Y-49983D01*
X375349Y-47891D01*
X375974Y-45558D01*
Y-43142D01*
X375349Y-40809D01*
X374141Y-38717D01*
X372433Y-37009D01*
X370341Y-35801D01*
X368008Y-35176D01*
D02*
G37*
G36*
X139408D02*
X136992D01*
X134659Y-35801D01*
X132567Y-37009D01*
X130859Y-38717D01*
X129651Y-40809D01*
X129026Y-43142D01*
Y-45558D01*
X129651Y-47891D01*
X130859Y-49983D01*
X132567Y-51691D01*
X134659Y-52899D01*
X136992Y-53524D01*
X139408D01*
X141741Y-52899D01*
X143833Y-51691D01*
X145541Y-49983D01*
X146749Y-47891D01*
X147374Y-45558D01*
Y-43142D01*
X146749Y-40809D01*
X145541Y-38717D01*
X143833Y-37009D01*
X141741Y-35801D01*
X139408Y-35176D01*
D02*
G37*
G36*
X368008Y-60576D02*
X365592D01*
X363259Y-61201D01*
X361167Y-62409D01*
X359459Y-64117D01*
X358251Y-66209D01*
X357626Y-68542D01*
Y-70958D01*
X358251Y-73291D01*
X359459Y-75383D01*
X361167Y-77091D01*
X363259Y-78299D01*
X365592Y-78924D01*
X368008D01*
X370341Y-78299D01*
X372433Y-77091D01*
X374141Y-75383D01*
X375349Y-73291D01*
X375974Y-70958D01*
Y-68542D01*
X375349Y-66209D01*
X374141Y-64117D01*
X372433Y-62409D01*
X370341Y-61201D01*
X368008Y-60576D01*
D02*
G37*
G36*
X139408D02*
X136992D01*
X134659Y-61201D01*
X132567Y-62409D01*
X130859Y-64117D01*
X129651Y-66209D01*
X129026Y-68542D01*
Y-70958D01*
X129651Y-73291D01*
X130859Y-75383D01*
X132567Y-77091D01*
X134659Y-78299D01*
X136992Y-78924D01*
X139408D01*
X141741Y-78299D01*
X143833Y-77091D01*
X145541Y-75383D01*
X146749Y-73291D01*
X147374Y-70958D01*
Y-68542D01*
X146749Y-66209D01*
X145541Y-64117D01*
X143833Y-62409D01*
X141741Y-61201D01*
X139408Y-60576D01*
D02*
G37*
G36*
X413688Y-85976D02*
X411312D01*
X409017Y-86591D01*
X406959Y-87779D01*
X405279Y-89459D01*
X404091Y-91517D01*
X403476Y-93812D01*
Y-96188D01*
X404058Y-98361D01*
X373525Y-128894D01*
X373252Y-128822D01*
X372907Y-127417D01*
X374141Y-126183D01*
X375349Y-124091D01*
X375974Y-121758D01*
Y-119342D01*
X375349Y-117009D01*
X374141Y-114917D01*
X372433Y-113209D01*
X370341Y-112001D01*
X368008Y-111376D01*
X365592D01*
X363259Y-112001D01*
X361167Y-113209D01*
X359459Y-114917D01*
X358251Y-117009D01*
X357626Y-119342D01*
Y-121758D01*
X358251Y-124091D01*
X359459Y-126183D01*
X361167Y-127891D01*
X361593Y-128137D01*
X361253Y-129407D01*
X361000D01*
X359625Y-129681D01*
X358459Y-130459D01*
X167459Y-321459D01*
X166681Y-322625D01*
X166407Y-324000D01*
Y-417462D01*
X141683Y-442186D01*
X139408Y-441576D01*
X136992D01*
X134659Y-442201D01*
X132567Y-443409D01*
X130859Y-445117D01*
X129651Y-447209D01*
X129026Y-449542D01*
Y-451958D01*
X129651Y-454291D01*
X130859Y-456383D01*
X132567Y-458091D01*
X134659Y-459299D01*
X136992Y-459924D01*
X139408D01*
X141741Y-459299D01*
X143833Y-458091D01*
X145541Y-456383D01*
X146749Y-454291D01*
X147374Y-451958D01*
Y-449542D01*
X146764Y-447267D01*
X172541Y-421491D01*
X173319Y-420325D01*
X173593Y-418950D01*
Y-325488D01*
X357102Y-141980D01*
X358172Y-142706D01*
X357626Y-144742D01*
Y-147158D01*
X358251Y-149491D01*
X359459Y-151583D01*
X361167Y-153291D01*
X362632Y-154137D01*
X362292Y-155407D01*
X361000D01*
X359625Y-155681D01*
X358459Y-156459D01*
X184959Y-329959D01*
X184181Y-331125D01*
X183907Y-332500D01*
Y-425362D01*
X141683Y-467586D01*
X139408Y-466976D01*
X136992D01*
X134659Y-467601D01*
X132567Y-468809D01*
X130859Y-470517D01*
X129651Y-472609D01*
X129026Y-474942D01*
Y-477358D01*
X129651Y-479691D01*
X130859Y-481783D01*
X132567Y-483491D01*
X134659Y-484699D01*
X136992Y-485324D01*
X139408D01*
X141741Y-484699D01*
X143833Y-483491D01*
X145541Y-481783D01*
X146749Y-479691D01*
X147374Y-477358D01*
Y-474942D01*
X146764Y-472667D01*
X190041Y-429391D01*
X190819Y-428225D01*
X191093Y-426850D01*
Y-333988D01*
X356814Y-168268D01*
X357952Y-168925D01*
X357626Y-170142D01*
Y-172558D01*
X358251Y-174891D01*
X359459Y-176983D01*
X361167Y-178691D01*
X361939Y-179137D01*
X361599Y-180407D01*
X361000D01*
X359625Y-180681D01*
X358459Y-181459D01*
X199959Y-339959D01*
X199181Y-341125D01*
X198907Y-342500D01*
Y-435762D01*
X141683Y-492986D01*
X139408Y-492376D01*
X136992D01*
X134659Y-493001D01*
X132567Y-494209D01*
X130859Y-495917D01*
X129651Y-498009D01*
X129026Y-500342D01*
Y-502758D01*
X129651Y-505091D01*
X130859Y-507183D01*
X132567Y-508891D01*
X134659Y-510099D01*
X136992Y-510724D01*
X139408D01*
X141741Y-510099D01*
X143833Y-508891D01*
X145541Y-507183D01*
X146749Y-505091D01*
X147374Y-502758D01*
Y-500342D01*
X146764Y-498067D01*
X205041Y-439791D01*
X205820Y-438625D01*
X206093Y-437250D01*
Y-343988D01*
X356960Y-193121D01*
X358098Y-193779D01*
X357626Y-195542D01*
Y-197958D01*
X358251Y-200291D01*
X359459Y-202383D01*
X361167Y-204091D01*
X363259Y-205299D01*
X365592Y-205924D01*
X368008D01*
X370341Y-205299D01*
X372433Y-204091D01*
X374141Y-202383D01*
X375349Y-200291D01*
X375974Y-197958D01*
Y-195542D01*
X375349Y-193209D01*
X374141Y-191117D01*
X372433Y-189409D01*
X371487Y-188863D01*
X371828Y-187593D01*
X373500D01*
X374875Y-187320D01*
X376041Y-186541D01*
X409140Y-153442D01*
X411312Y-154024D01*
X413688D01*
X415983Y-153409D01*
X418041Y-152221D01*
X419721Y-150541D01*
X420909Y-148483D01*
X421524Y-146188D01*
Y-143812D01*
X420909Y-141517D01*
X419721Y-139459D01*
X418041Y-137779D01*
X415983Y-136591D01*
X413688Y-135976D01*
X411312D01*
X409017Y-136591D01*
X406959Y-137779D01*
X405279Y-139459D01*
X404091Y-141517D01*
X403476Y-143812D01*
Y-146188D01*
X404058Y-148361D01*
X375842Y-176576D01*
X374826Y-175797D01*
X375349Y-174891D01*
X375974Y-172558D01*
Y-170142D01*
X375349Y-167809D01*
X374141Y-165717D01*
X372433Y-164009D01*
X372180Y-163863D01*
X372521Y-162593D01*
X373500D01*
X374875Y-162320D01*
X376041Y-161541D01*
X409140Y-128442D01*
X411312Y-129024D01*
X413688D01*
X415983Y-128409D01*
X418041Y-127221D01*
X419721Y-125541D01*
X420909Y-123483D01*
X421524Y-121188D01*
Y-118812D01*
X420909Y-116517D01*
X419721Y-114459D01*
X418041Y-112779D01*
X415983Y-111591D01*
X413688Y-110976D01*
X411312D01*
X409017Y-111591D01*
X406959Y-112779D01*
X405279Y-114459D01*
X404091Y-116517D01*
X403476Y-118812D01*
Y-121188D01*
X404058Y-123361D01*
X375296Y-152123D01*
X374280Y-151343D01*
X375349Y-149491D01*
X375974Y-147158D01*
Y-144742D01*
X375349Y-142409D01*
X374141Y-140317D01*
X372433Y-138609D01*
X371141Y-137863D01*
X371481Y-136593D01*
X374500D01*
X375875Y-136320D01*
X377041Y-135541D01*
X409140Y-103442D01*
X411312Y-104024D01*
X413688D01*
X415983Y-103409D01*
X418041Y-102221D01*
X419721Y-100541D01*
X420909Y-98483D01*
X421524Y-96188D01*
Y-93812D01*
X420909Y-91517D01*
X419721Y-89459D01*
X418041Y-87779D01*
X415983Y-86591D01*
X413688Y-85976D01*
D02*
G37*
G36*
X368008D02*
X365592D01*
X363259Y-86601D01*
X361167Y-87809D01*
X359459Y-89517D01*
X358251Y-91609D01*
X357626Y-93942D01*
Y-96358D01*
X358251Y-98691D01*
X359459Y-100783D01*
X361167Y-102491D01*
X363259Y-103699D01*
X365592Y-104324D01*
X368008D01*
X370341Y-103699D01*
X372433Y-102491D01*
X374141Y-100783D01*
X375349Y-98691D01*
X375974Y-96358D01*
Y-93942D01*
X375349Y-91609D01*
X374141Y-89517D01*
X372433Y-87809D01*
X370341Y-86601D01*
X368008Y-85976D01*
D02*
G37*
G36*
X139408D02*
X136992D01*
X134659Y-86601D01*
X132567Y-87809D01*
X130859Y-89517D01*
X129651Y-91609D01*
X129026Y-93942D01*
Y-96358D01*
X129651Y-98691D01*
X130859Y-100783D01*
X132567Y-102491D01*
X134659Y-103699D01*
X136992Y-104324D01*
X139408D01*
X141741Y-103699D01*
X143833Y-102491D01*
X145541Y-100783D01*
X146749Y-98691D01*
X147374Y-96358D01*
Y-93942D01*
X146749Y-91609D01*
X145541Y-89517D01*
X143833Y-87809D01*
X141741Y-86601D01*
X139408Y-85976D01*
D02*
G37*
G36*
Y-111376D02*
X136992D01*
X134659Y-112001D01*
X132567Y-113209D01*
X130859Y-114917D01*
X129651Y-117009D01*
X129026Y-119342D01*
Y-121758D01*
X129651Y-124091D01*
X130859Y-126183D01*
X132567Y-127891D01*
X134659Y-129099D01*
X136992Y-129724D01*
X139408D01*
X141741Y-129099D01*
X143833Y-127891D01*
X145541Y-126183D01*
X146749Y-124091D01*
X147374Y-121758D01*
Y-119342D01*
X146749Y-117009D01*
X145541Y-114917D01*
X143833Y-113209D01*
X141741Y-112001D01*
X139408Y-111376D01*
D02*
G37*
G36*
X93688Y-135976D02*
X91312D01*
X89017Y-136591D01*
X86959Y-137779D01*
X85279Y-139459D01*
X84091Y-141517D01*
X83476Y-143812D01*
Y-146188D01*
X84091Y-148483D01*
X85279Y-150541D01*
X86959Y-152221D01*
X89017Y-153409D01*
X91312Y-154024D01*
X93688D01*
X95983Y-153409D01*
X98041Y-152221D01*
X99721Y-150541D01*
X100909Y-148483D01*
X101524Y-146188D01*
Y-143812D01*
X100909Y-141517D01*
X99721Y-139459D01*
X98041Y-137779D01*
X95983Y-136591D01*
X93688Y-135976D01*
D02*
G37*
G36*
X139408Y-136776D02*
X136992D01*
X134659Y-137401D01*
X132567Y-138609D01*
X130859Y-140317D01*
X129651Y-142409D01*
X129026Y-144742D01*
Y-147158D01*
X129651Y-149491D01*
X130859Y-151583D01*
X132567Y-153291D01*
X134659Y-154499D01*
X136992Y-155124D01*
X139408D01*
X141741Y-154499D01*
X143833Y-153291D01*
X145541Y-151583D01*
X146749Y-149491D01*
X147374Y-147158D01*
Y-144742D01*
X146749Y-142409D01*
X145541Y-140317D01*
X143833Y-138609D01*
X141741Y-137401D01*
X139408Y-136776D01*
D02*
G37*
G36*
X413688Y-160976D02*
X411312D01*
X409017Y-161591D01*
X406959Y-162779D01*
X405279Y-164459D01*
X404091Y-166517D01*
X403476Y-168812D01*
Y-171188D01*
X404091Y-173483D01*
X405279Y-175541D01*
X406959Y-177221D01*
X409017Y-178409D01*
X411312Y-179024D01*
X413688D01*
X415983Y-178409D01*
X418041Y-177221D01*
X419721Y-175541D01*
X420909Y-173483D01*
X421524Y-171188D01*
Y-168812D01*
X420909Y-166517D01*
X419721Y-164459D01*
X418041Y-162779D01*
X415983Y-161591D01*
X413688Y-160976D01*
D02*
G37*
G36*
X93688D02*
X91312D01*
X89017Y-161591D01*
X86959Y-162779D01*
X85279Y-164459D01*
X84091Y-166517D01*
X83476Y-168812D01*
Y-171188D01*
X84091Y-173483D01*
X85279Y-175541D01*
X86959Y-177221D01*
X89017Y-178409D01*
X91312Y-179024D01*
X93688D01*
X95983Y-178409D01*
X98041Y-177221D01*
X99721Y-175541D01*
X100909Y-173483D01*
X101524Y-171188D01*
Y-168812D01*
X100909Y-166517D01*
X99721Y-164459D01*
X98041Y-162779D01*
X95983Y-161591D01*
X93688Y-160976D01*
D02*
G37*
G36*
X139408Y-162176D02*
X136992D01*
X134659Y-162801D01*
X132567Y-164009D01*
X130859Y-165717D01*
X129651Y-167809D01*
X129026Y-170142D01*
Y-172558D01*
X129651Y-174891D01*
X130859Y-176983D01*
X132567Y-178691D01*
X134659Y-179899D01*
X136992Y-180524D01*
X139408D01*
X141741Y-179899D01*
X143833Y-178691D01*
X145541Y-176983D01*
X146749Y-174891D01*
X147374Y-172558D01*
Y-170142D01*
X146749Y-167809D01*
X145541Y-165717D01*
X143833Y-164009D01*
X141741Y-162801D01*
X139408Y-162176D01*
D02*
G37*
G36*
X413688Y-185976D02*
X411312D01*
X409017Y-186591D01*
X406959Y-187779D01*
X405279Y-189459D01*
X404091Y-191517D01*
X403476Y-193812D01*
Y-196188D01*
X404091Y-198483D01*
X405279Y-200541D01*
X406959Y-202221D01*
X409017Y-203409D01*
X411312Y-204024D01*
X413688D01*
X415983Y-203409D01*
X418041Y-202221D01*
X419721Y-200541D01*
X420909Y-198483D01*
X421524Y-196188D01*
Y-193812D01*
X420909Y-191517D01*
X419721Y-189459D01*
X418041Y-187779D01*
X415983Y-186591D01*
X413688Y-185976D01*
D02*
G37*
G36*
X93688D02*
X91312D01*
X89017Y-186591D01*
X86959Y-187779D01*
X85279Y-189459D01*
X84091Y-191517D01*
X83476Y-193812D01*
Y-196188D01*
X84091Y-198483D01*
X85279Y-200541D01*
X86959Y-202221D01*
X89017Y-203409D01*
X91312Y-204024D01*
X93688D01*
X95983Y-203409D01*
X98041Y-202221D01*
X99721Y-200541D01*
X100909Y-198483D01*
X101524Y-196188D01*
Y-193812D01*
X100909Y-191517D01*
X99721Y-189459D01*
X98041Y-187779D01*
X95983Y-186591D01*
X93688Y-185976D01*
D02*
G37*
G36*
X139408Y-187576D02*
X136992D01*
X134659Y-188201D01*
X132567Y-189409D01*
X130859Y-191117D01*
X129651Y-193209D01*
X129026Y-195542D01*
Y-197958D01*
X129651Y-200291D01*
X130859Y-202383D01*
X132567Y-204091D01*
X134659Y-205299D01*
X136992Y-205924D01*
X139408D01*
X141741Y-205299D01*
X143833Y-204091D01*
X145541Y-202383D01*
X146749Y-200291D01*
X147374Y-197958D01*
Y-195542D01*
X146749Y-193209D01*
X145541Y-191117D01*
X143833Y-189409D01*
X141741Y-188201D01*
X139408Y-187576D01*
D02*
G37*
G36*
X421524Y-210976D02*
X403476D01*
Y-229024D01*
X421524D01*
Y-210976D01*
D02*
G37*
G36*
X93688D02*
X91312D01*
X89017Y-211591D01*
X86959Y-212779D01*
X85279Y-214459D01*
X84091Y-216517D01*
X83476Y-218812D01*
Y-221188D01*
X84091Y-223483D01*
X85279Y-225541D01*
X86959Y-227221D01*
X89017Y-228409D01*
X91312Y-229024D01*
X93688D01*
X95983Y-228409D01*
X98041Y-227221D01*
X99721Y-225541D01*
X100909Y-223483D01*
X101524Y-221188D01*
Y-218812D01*
X100909Y-216517D01*
X99721Y-214459D01*
X98041Y-212779D01*
X95983Y-211591D01*
X93688Y-210976D01*
D02*
G37*
G36*
X368008Y-212976D02*
X365592D01*
X363259Y-213601D01*
X361167Y-214809D01*
X359459Y-216517D01*
X358251Y-218609D01*
X357626Y-220942D01*
Y-223358D01*
X358251Y-225691D01*
X359459Y-227783D01*
X361167Y-229491D01*
X363259Y-230699D01*
X365592Y-231324D01*
X368008D01*
X370341Y-230699D01*
X372433Y-229491D01*
X374141Y-227783D01*
X375349Y-225691D01*
X375974Y-223358D01*
Y-220942D01*
X375349Y-218609D01*
X374141Y-216517D01*
X372433Y-214809D01*
X370341Y-213601D01*
X368008Y-212976D01*
D02*
G37*
G36*
X139408D02*
X136992D01*
X134659Y-213601D01*
X132567Y-214809D01*
X130859Y-216517D01*
X129651Y-218609D01*
X129026Y-220942D01*
Y-223358D01*
X129651Y-225691D01*
X130859Y-227783D01*
X132567Y-229491D01*
X134659Y-230699D01*
X136992Y-231324D01*
X139408D01*
X141741Y-230699D01*
X143833Y-229491D01*
X145541Y-227783D01*
X146749Y-225691D01*
X147374Y-223358D01*
Y-220942D01*
X146749Y-218609D01*
X145541Y-216517D01*
X143833Y-214809D01*
X141741Y-213601D01*
X139408Y-212976D01*
D02*
G37*
G36*
X368008Y-238376D02*
X365592D01*
X363259Y-239001D01*
X361167Y-240209D01*
X359459Y-241917D01*
X358251Y-244009D01*
X357626Y-246342D01*
Y-248758D01*
X358251Y-251091D01*
X358488Y-251502D01*
X259820Y-350170D01*
X259151Y-351170D01*
X258917Y-352350D01*
X258917Y-352350D01*
Y-478723D01*
X163320Y-574320D01*
X162652Y-575320D01*
X162417Y-576500D01*
X162417Y-576500D01*
Y-595125D01*
X161029Y-596512D01*
X160226Y-598451D01*
Y-600549D01*
X161029Y-602487D01*
X162512Y-603971D01*
X164451Y-604774D01*
X166549D01*
X168487Y-603971D01*
X169674Y-602785D01*
X170754Y-602747D01*
X171180Y-602888D01*
X172512Y-604221D01*
X174451Y-605024D01*
X176549D01*
X178487Y-604221D01*
X179971Y-602738D01*
X180774Y-600799D01*
Y-598701D01*
X179971Y-596763D01*
X178583Y-595375D01*
Y-578777D01*
X272384Y-484977D01*
X272384Y-484976D01*
X273052Y-483976D01*
X273287Y-482796D01*
Y-364073D01*
X358280Y-279081D01*
X359459Y-278583D01*
X361167Y-280291D01*
X363259Y-281499D01*
X365592Y-282124D01*
X368008D01*
X370341Y-281499D01*
X372433Y-280291D01*
X374141Y-278583D01*
X375349Y-276491D01*
X375974Y-274158D01*
Y-271742D01*
X375349Y-269409D01*
X374141Y-267317D01*
X372433Y-265609D01*
X370341Y-264401D01*
X368008Y-263776D01*
X365592D01*
X363259Y-264401D01*
X361167Y-265609D01*
X359459Y-267317D01*
X358251Y-269409D01*
X357626Y-271742D01*
Y-272124D01*
X356654Y-272318D01*
X355653Y-272986D01*
X268023Y-360616D01*
X267355Y-361616D01*
X267120Y-362796D01*
X267120Y-362796D01*
Y-481519D01*
X173320Y-575320D01*
X172652Y-576320D01*
X172417Y-577500D01*
X172417Y-577500D01*
Y-595375D01*
X171326Y-596465D01*
X170246Y-596503D01*
X169820Y-596362D01*
X168583Y-595125D01*
Y-577777D01*
X264180Y-482180D01*
X264180Y-482180D01*
X264848Y-481180D01*
X265083Y-480000D01*
X265083Y-480000D01*
Y-353627D01*
X362849Y-255862D01*
X363259Y-256099D01*
X365592Y-256724D01*
X368008D01*
X370341Y-256099D01*
X372433Y-254891D01*
X374141Y-253183D01*
X375349Y-251091D01*
X375974Y-248758D01*
Y-246342D01*
X375349Y-244009D01*
X374141Y-241917D01*
X372433Y-240209D01*
X370341Y-239001D01*
X368008Y-238376D01*
D02*
G37*
G36*
X139408D02*
X136992D01*
X134659Y-239001D01*
X132567Y-240209D01*
X130859Y-241917D01*
X129651Y-244009D01*
X129026Y-246342D01*
Y-248758D01*
X129651Y-251091D01*
X130859Y-253183D01*
X132567Y-254891D01*
X134659Y-256099D01*
X136992Y-256724D01*
X139408D01*
X141741Y-256099D01*
X143833Y-254891D01*
X145541Y-253183D01*
X146749Y-251091D01*
X147374Y-248758D01*
Y-246342D01*
X146749Y-244009D01*
X145541Y-241917D01*
X143833Y-240209D01*
X141741Y-239001D01*
X139408Y-238376D01*
D02*
G37*
G36*
Y-263776D02*
X136992D01*
X134659Y-264401D01*
X132567Y-265609D01*
X130859Y-267317D01*
X129651Y-269409D01*
X129026Y-271742D01*
Y-274158D01*
X129651Y-276491D01*
X130859Y-278583D01*
X132567Y-280291D01*
X134659Y-281499D01*
X136992Y-282124D01*
X139408D01*
X141741Y-281499D01*
X143833Y-280291D01*
X145541Y-278583D01*
X146749Y-276491D01*
X147374Y-274158D01*
Y-271742D01*
X146749Y-269409D01*
X145541Y-267317D01*
X143833Y-265609D01*
X141741Y-264401D01*
X139408Y-263776D01*
D02*
G37*
G36*
X368008Y-289176D02*
X365592D01*
X363259Y-289801D01*
X361167Y-291009D01*
X359459Y-292717D01*
X358251Y-294809D01*
X357626Y-297142D01*
Y-299558D01*
X358251Y-301891D01*
X358488Y-302302D01*
X307360Y-353430D01*
X306691Y-354430D01*
X306457Y-355610D01*
X306457Y-355610D01*
Y-564085D01*
X305069Y-565472D01*
X304266Y-567411D01*
Y-569509D01*
X305069Y-571447D01*
X306553Y-572931D01*
X308491Y-573734D01*
X310589D01*
X312528Y-572931D01*
X313787Y-571671D01*
X314540Y-571540D01*
X315293Y-571671D01*
X316553Y-572931D01*
X318491Y-573734D01*
X320589D01*
X322528Y-572931D01*
X324011Y-571447D01*
X324814Y-569509D01*
Y-567411D01*
X324011Y-565472D01*
X322623Y-564085D01*
Y-372287D01*
X362849Y-332062D01*
X363259Y-332299D01*
X365592Y-332924D01*
X368008D01*
X370341Y-332299D01*
X372433Y-331091D01*
X374141Y-329383D01*
X375349Y-327291D01*
X375974Y-324958D01*
Y-322542D01*
X375349Y-320209D01*
X374141Y-318117D01*
X372433Y-316409D01*
X370341Y-315201D01*
X368008Y-314576D01*
X365592D01*
X363259Y-315201D01*
X361167Y-316409D01*
X359459Y-318117D01*
X358251Y-320209D01*
X357626Y-322542D01*
Y-324958D01*
X358251Y-327291D01*
X358488Y-327701D01*
X317360Y-368830D01*
X316691Y-369830D01*
X316457Y-371010D01*
X316457Y-371010D01*
Y-564085D01*
X315293Y-565248D01*
X314540Y-565380D01*
X313787Y-565248D01*
X312623Y-564085D01*
Y-356887D01*
X362849Y-306662D01*
X363259Y-306899D01*
X365592Y-307524D01*
X368008D01*
X370341Y-306899D01*
X372433Y-305691D01*
X374141Y-303983D01*
X375349Y-301891D01*
X375974Y-299558D01*
Y-297142D01*
X375349Y-294809D01*
X374141Y-292717D01*
X372433Y-291009D01*
X370341Y-289801D01*
X368008Y-289176D01*
D02*
G37*
G36*
X139408D02*
X136992D01*
X134659Y-289801D01*
X132567Y-291009D01*
X130859Y-292717D01*
X129651Y-294809D01*
X129026Y-297142D01*
Y-299558D01*
X129651Y-301891D01*
X130859Y-303983D01*
X132567Y-305691D01*
X134659Y-306899D01*
X136992Y-307524D01*
X139408D01*
X141741Y-306899D01*
X143833Y-305691D01*
X145541Y-303983D01*
X146749Y-301891D01*
X147374Y-299558D01*
Y-297142D01*
X146749Y-294809D01*
X145541Y-292717D01*
X143833Y-291009D01*
X141741Y-289801D01*
X139408Y-289176D01*
D02*
G37*
G36*
Y-314576D02*
X136992D01*
X134659Y-315201D01*
X132567Y-316409D01*
X130859Y-318117D01*
X129651Y-320209D01*
X129026Y-322542D01*
Y-324958D01*
X129651Y-327291D01*
X130859Y-329383D01*
X132567Y-331091D01*
X134659Y-332299D01*
X136992Y-332924D01*
X139408D01*
X141741Y-332299D01*
X143833Y-331091D01*
X145541Y-329383D01*
X146749Y-327291D01*
X147374Y-324958D01*
Y-322542D01*
X146749Y-320209D01*
X145541Y-318117D01*
X143833Y-316409D01*
X141741Y-315201D01*
X139408Y-314576D01*
D02*
G37*
G36*
X413688Y-315976D02*
X411312D01*
X409017Y-316591D01*
X406959Y-317779D01*
X405279Y-319459D01*
X404091Y-321517D01*
X403476Y-323812D01*
Y-326188D01*
X404091Y-328483D01*
X405279Y-330541D01*
X406959Y-332221D01*
X409017Y-333409D01*
X411312Y-334024D01*
X413688D01*
X415983Y-333409D01*
X418041Y-332221D01*
X419721Y-330541D01*
X420909Y-328483D01*
X421524Y-326188D01*
Y-323812D01*
X420909Y-321517D01*
X419721Y-319459D01*
X418041Y-317779D01*
X415983Y-316591D01*
X413688Y-315976D01*
D02*
G37*
G36*
X93688D02*
X91312D01*
X89017Y-316591D01*
X86959Y-317779D01*
X85279Y-319459D01*
X84091Y-321517D01*
X83476Y-323812D01*
Y-326188D01*
X84091Y-328483D01*
X85279Y-330541D01*
X86959Y-332221D01*
X89017Y-333409D01*
X91312Y-334024D01*
X93688D01*
X95983Y-333409D01*
X98041Y-332221D01*
X99721Y-330541D01*
X100909Y-328483D01*
X101524Y-326188D01*
Y-323812D01*
X100909Y-321517D01*
X99721Y-319459D01*
X98041Y-317779D01*
X95983Y-316591D01*
X93688Y-315976D01*
D02*
G37*
G36*
X368008Y-339976D02*
X365592D01*
X363259Y-340601D01*
X361167Y-341809D01*
X359459Y-343517D01*
X358251Y-345609D01*
X357626Y-347942D01*
Y-350358D01*
X358251Y-352691D01*
X359459Y-354783D01*
X361167Y-356491D01*
X363259Y-357699D01*
X365592Y-358324D01*
X368008D01*
X370341Y-357699D01*
X372433Y-356491D01*
X374141Y-354783D01*
X375349Y-352691D01*
X375974Y-350358D01*
Y-347942D01*
X375349Y-345609D01*
X374141Y-343517D01*
X372433Y-341809D01*
X370341Y-340601D01*
X368008Y-339976D01*
D02*
G37*
G36*
X139408D02*
X136992D01*
X134659Y-340601D01*
X132567Y-341809D01*
X130859Y-343517D01*
X129651Y-345609D01*
X129026Y-347942D01*
Y-350358D01*
X129651Y-352691D01*
X130859Y-354783D01*
X132567Y-356491D01*
X134659Y-357699D01*
X136992Y-358324D01*
X139408D01*
X141741Y-357699D01*
X143833Y-356491D01*
X145541Y-354783D01*
X146749Y-352691D01*
X147374Y-350358D01*
Y-347942D01*
X146749Y-345609D01*
X145541Y-343517D01*
X143833Y-341809D01*
X141741Y-340601D01*
X139408Y-339976D01*
D02*
G37*
G36*
X413688Y-340976D02*
X411312D01*
X409017Y-341591D01*
X406959Y-342779D01*
X405279Y-344459D01*
X404091Y-346517D01*
X403476Y-348812D01*
Y-351188D01*
X404091Y-353483D01*
X405279Y-355541D01*
X406959Y-357221D01*
X409017Y-358409D01*
X411312Y-359024D01*
X413688D01*
X415983Y-358409D01*
X418041Y-357221D01*
X419721Y-355541D01*
X420909Y-353483D01*
X421524Y-351188D01*
Y-348812D01*
X420909Y-346517D01*
X419721Y-344459D01*
X418041Y-342779D01*
X415983Y-341591D01*
X413688Y-340976D01*
D02*
G37*
G36*
X93688D02*
X91312D01*
X89017Y-341591D01*
X86959Y-342779D01*
X85279Y-344459D01*
X84091Y-346517D01*
X83476Y-348812D01*
Y-351188D01*
X84091Y-353483D01*
X85279Y-355541D01*
X86959Y-357221D01*
X89017Y-358409D01*
X91312Y-359024D01*
X93688D01*
X95983Y-358409D01*
X98041Y-357221D01*
X99721Y-355541D01*
X100909Y-353483D01*
X101524Y-351188D01*
Y-348812D01*
X100909Y-346517D01*
X99721Y-344459D01*
X98041Y-342779D01*
X95983Y-341591D01*
X93688Y-340976D01*
D02*
G37*
G36*
X368008Y-365376D02*
X365592D01*
X363259Y-366001D01*
X361167Y-367209D01*
X359459Y-368917D01*
X358251Y-371009D01*
X357626Y-373342D01*
Y-375758D01*
X358251Y-378091D01*
X359459Y-380183D01*
X361167Y-381891D01*
X363259Y-383099D01*
X365592Y-383724D01*
X368008D01*
X370341Y-383099D01*
X372433Y-381891D01*
X374141Y-380183D01*
X375349Y-378091D01*
X375974Y-375758D01*
Y-373342D01*
X375349Y-371009D01*
X374141Y-368917D01*
X372433Y-367209D01*
X370341Y-366001D01*
X368008Y-365376D01*
D02*
G37*
G36*
X139408D02*
X136992D01*
X134659Y-366001D01*
X132567Y-367209D01*
X130859Y-368917D01*
X129651Y-371009D01*
X129026Y-373342D01*
Y-375758D01*
X129651Y-378091D01*
X130859Y-380183D01*
X132567Y-381891D01*
X134659Y-383099D01*
X136992Y-383724D01*
X139408D01*
X141741Y-383099D01*
X143833Y-381891D01*
X145541Y-380183D01*
X146749Y-378091D01*
X147374Y-375758D01*
Y-373342D01*
X146749Y-371009D01*
X145541Y-368917D01*
X143833Y-367209D01*
X141741Y-366001D01*
X139408Y-365376D01*
D02*
G37*
G36*
X413688Y-365976D02*
X411312D01*
X409017Y-366591D01*
X406959Y-367779D01*
X405279Y-369459D01*
X404091Y-371517D01*
X403476Y-373812D01*
Y-376188D01*
X404091Y-378483D01*
X405279Y-380541D01*
X406959Y-382221D01*
X409017Y-383409D01*
X411312Y-384024D01*
X413688D01*
X415983Y-383409D01*
X418041Y-382221D01*
X419721Y-380541D01*
X420909Y-378483D01*
X421524Y-376188D01*
Y-373812D01*
X420909Y-371517D01*
X419721Y-369459D01*
X418041Y-367779D01*
X415983Y-366591D01*
X413688Y-365976D01*
D02*
G37*
G36*
X93688D02*
X91312D01*
X89017Y-366591D01*
X86959Y-367779D01*
X85279Y-369459D01*
X84091Y-371517D01*
X83476Y-373812D01*
Y-376188D01*
X84091Y-378483D01*
X85279Y-380541D01*
X86959Y-382221D01*
X89017Y-383409D01*
X91312Y-384024D01*
X93688D01*
X95983Y-383409D01*
X98041Y-382221D01*
X99721Y-380541D01*
X100909Y-378483D01*
X101524Y-376188D01*
Y-373812D01*
X100909Y-371517D01*
X99721Y-369459D01*
X98041Y-367779D01*
X95983Y-366591D01*
X93688Y-365976D01*
D02*
G37*
G36*
X421524Y-390976D02*
X403476D01*
Y-409024D01*
X421524D01*
Y-390976D01*
D02*
G37*
G36*
X93688D02*
X91312D01*
X89017Y-391591D01*
X86959Y-392779D01*
X85279Y-394459D01*
X84091Y-396517D01*
X83476Y-398812D01*
Y-401188D01*
X84091Y-403483D01*
X85279Y-405541D01*
X86959Y-407221D01*
X89017Y-408409D01*
X91312Y-409024D01*
X93688D01*
X95983Y-408409D01*
X98041Y-407221D01*
X99721Y-405541D01*
X100909Y-403483D01*
X101524Y-401188D01*
Y-398812D01*
X100909Y-396517D01*
X99721Y-394459D01*
X98041Y-392779D01*
X95983Y-391591D01*
X93688Y-390976D01*
D02*
G37*
G36*
X368008Y-390776D02*
X365592D01*
X363259Y-391401D01*
X361167Y-392609D01*
X359459Y-394317D01*
X358251Y-396409D01*
X357626Y-398742D01*
Y-401158D01*
X358251Y-403491D01*
X359459Y-405583D01*
X361167Y-407291D01*
X363259Y-408499D01*
X365592Y-409124D01*
X368008D01*
X370341Y-408499D01*
X372433Y-407291D01*
X374141Y-405583D01*
X375349Y-403491D01*
X375974Y-401158D01*
Y-398742D01*
X375349Y-396409D01*
X374141Y-394317D01*
X372433Y-392609D01*
X370341Y-391401D01*
X368008Y-390776D01*
D02*
G37*
G36*
X139408D02*
X136992D01*
X134659Y-391401D01*
X132567Y-392609D01*
X130859Y-394317D01*
X129651Y-396409D01*
X129026Y-398742D01*
Y-401158D01*
X129651Y-403491D01*
X130859Y-405583D01*
X132567Y-407291D01*
X134659Y-408499D01*
X136992Y-409124D01*
X139408D01*
X141741Y-408499D01*
X143833Y-407291D01*
X145541Y-405583D01*
X146749Y-403491D01*
X147374Y-401158D01*
Y-398742D01*
X146749Y-396409D01*
X145541Y-394317D01*
X143833Y-392609D01*
X141741Y-391401D01*
X139408Y-390776D01*
D02*
G37*
G36*
X368008Y-416176D02*
X365592D01*
X363259Y-416801D01*
X361167Y-418009D01*
X359459Y-419717D01*
X358251Y-421809D01*
X357626Y-424142D01*
Y-426558D01*
X358251Y-428891D01*
X359459Y-430983D01*
X361167Y-432691D01*
X363259Y-433899D01*
X365592Y-434524D01*
X368008D01*
X370341Y-433899D01*
X372433Y-432691D01*
X374141Y-430983D01*
X375349Y-428891D01*
X375974Y-426558D01*
Y-424142D01*
X375349Y-421809D01*
X374141Y-419717D01*
X372433Y-418009D01*
X370341Y-416801D01*
X368008Y-416176D01*
D02*
G37*
G36*
X139408D02*
X136992D01*
X134659Y-416801D01*
X132567Y-418009D01*
X130859Y-419717D01*
X129651Y-421809D01*
X129026Y-424142D01*
Y-426558D01*
X129651Y-428891D01*
X130859Y-430983D01*
X132567Y-432691D01*
X134659Y-433899D01*
X136992Y-434524D01*
X139408D01*
X141741Y-433899D01*
X143833Y-432691D01*
X145541Y-430983D01*
X146749Y-428891D01*
X147374Y-426558D01*
Y-424142D01*
X146749Y-421809D01*
X145541Y-419717D01*
X143833Y-418009D01*
X141741Y-416801D01*
X139408Y-416176D01*
D02*
G37*
G36*
X368008Y-441576D02*
X365592D01*
X363259Y-442201D01*
X361167Y-443409D01*
X359459Y-445117D01*
X358251Y-447209D01*
X357626Y-449542D01*
Y-451958D01*
X358251Y-454291D01*
X359459Y-456383D01*
X361167Y-458091D01*
X363259Y-459299D01*
X365592Y-459924D01*
X368008D01*
X370341Y-459299D01*
X372433Y-458091D01*
X374141Y-456383D01*
X375349Y-454291D01*
X375974Y-451958D01*
Y-449542D01*
X375349Y-447209D01*
X374141Y-445117D01*
X372433Y-443409D01*
X370341Y-442201D01*
X368008Y-441576D01*
D02*
G37*
G36*
X101024Y-446476D02*
X83976D01*
Y-463524D01*
X101024D01*
Y-446476D01*
D02*
G37*
G36*
X368008Y-466976D02*
X365592D01*
X363259Y-467601D01*
X361167Y-468809D01*
X359459Y-470517D01*
X358251Y-472609D01*
X357626Y-474942D01*
Y-477358D01*
X358251Y-479691D01*
X359459Y-481783D01*
X361167Y-483491D01*
X363259Y-484699D01*
X365592Y-485324D01*
X368008D01*
X370341Y-484699D01*
X372433Y-483491D01*
X374141Y-481783D01*
X375349Y-479691D01*
X375974Y-477358D01*
Y-474942D01*
X375349Y-472609D01*
X374141Y-470517D01*
X372433Y-468809D01*
X370341Y-467601D01*
X368008Y-466976D01*
D02*
G37*
G36*
Y-492376D02*
X365592D01*
X363259Y-493001D01*
X361167Y-494209D01*
X359459Y-495917D01*
X358251Y-498009D01*
X357626Y-500342D01*
Y-502758D01*
X358251Y-505091D01*
X359459Y-507183D01*
X361167Y-508891D01*
X363259Y-510099D01*
X365592Y-510724D01*
X368008D01*
X370341Y-510099D01*
X372433Y-508891D01*
X374141Y-507183D01*
X375349Y-505091D01*
X375974Y-502758D01*
Y-500342D01*
X375349Y-498009D01*
X374141Y-495917D01*
X372433Y-494209D01*
X370341Y-493001D01*
X368008Y-492376D01*
D02*
G37*
G36*
X101024Y-526476D02*
X83976D01*
Y-543524D01*
X101024D01*
Y-526476D01*
D02*
G37*
G36*
X479128Y-595976D02*
X475873D01*
X472680Y-596611D01*
X469673Y-597857D01*
X466967Y-599665D01*
X464665Y-601967D01*
X462857Y-604673D01*
X461611Y-607680D01*
X460976Y-610872D01*
Y-614128D01*
X461611Y-617320D01*
X462857Y-620327D01*
X464665Y-623033D01*
X466967Y-625335D01*
X469673Y-627143D01*
X472680Y-628389D01*
X475873Y-629024D01*
X479128D01*
X482320Y-628389D01*
X485327Y-627143D01*
X488033Y-625335D01*
X490335Y-623033D01*
X492143Y-620327D01*
X493389Y-617320D01*
X494024Y-614128D01*
Y-610872D01*
X493389Y-607680D01*
X492143Y-604673D01*
X490335Y-601967D01*
X488033Y-599665D01*
X485327Y-597857D01*
X482320Y-596611D01*
X479128Y-595976D01*
D02*
G37*
G36*
X29128D02*
X25872D01*
X22680Y-596611D01*
X19673Y-597857D01*
X16967Y-599665D01*
X14665Y-601967D01*
X12857Y-604673D01*
X11611Y-607680D01*
X10976Y-610872D01*
Y-614128D01*
X11611Y-617320D01*
X12857Y-620327D01*
X14665Y-623033D01*
X16967Y-625335D01*
X19673Y-627143D01*
X22680Y-628389D01*
X25872Y-629024D01*
X29128D01*
X32320Y-628389D01*
X35327Y-627143D01*
X38033Y-625335D01*
X40335Y-623033D01*
X42143Y-620327D01*
X43389Y-617320D01*
X44024Y-614128D01*
Y-610872D01*
X43389Y-607680D01*
X42143Y-604673D01*
X40335Y-601967D01*
X38033Y-599665D01*
X35327Y-597857D01*
X32320Y-596611D01*
X29128Y-595976D01*
D02*
G37*
%LPD*%
D18*
X412500Y-220000D02*
D03*
X92500Y-275000D02*
D03*
X412500Y-400000D02*
D03*
X92500Y-95000D02*
D03*
D19*
X412500Y-195000D02*
D03*
Y-170000D02*
D03*
Y-145000D02*
D03*
Y-120000D02*
D03*
Y-95000D02*
D03*
X92500Y-300000D02*
D03*
Y-325000D02*
D03*
Y-350000D02*
D03*
Y-375000D02*
D03*
Y-400000D02*
D03*
X412500Y-375000D02*
D03*
Y-350000D02*
D03*
Y-325000D02*
D03*
Y-300000D02*
D03*
Y-275000D02*
D03*
X92500Y-120000D02*
D03*
Y-145000D02*
D03*
Y-170000D02*
D03*
Y-195000D02*
D03*
Y-220000D02*
D03*
D21*
X175500Y-599750D02*
Y-577500D01*
X270204Y-482796D01*
X165500Y-599500D02*
Y-576500D01*
X262000Y-480000D01*
X319540Y-568460D02*
Y-371010D01*
X366800Y-323750D01*
X357834Y-275166D02*
X364584D01*
X270204Y-482796D02*
Y-362796D01*
X364584Y-275166D02*
X366800Y-272950D01*
X270204Y-362796D02*
X357834Y-275166D01*
X262000Y-480000D02*
Y-352350D01*
X366800Y-247550D01*
X309540Y-355610D02*
X366800Y-298350D01*
X309540Y-568460D02*
Y-355610D01*
D22*
X395000Y-616500D02*
Y-577500D01*
Y-616500D02*
X395250Y-616750D01*
X395000Y-577500D02*
X412500Y-560000D01*
X112500Y-552650D02*
X138200Y-526950D01*
X112500Y-566500D02*
Y-552650D01*
X70000Y-609000D02*
X112500Y-566500D01*
X70000Y-616250D02*
Y-609000D01*
X412500Y-560000D02*
X427500Y-545000D01*
X427971D01*
X435000Y-537971D01*
Y-502500D01*
X412500Y-480000D02*
X435000Y-502500D01*
D23*
X373500Y-184000D02*
X412500Y-145000D01*
X361000Y-184000D02*
X373500D01*
X202500Y-342500D02*
X361000Y-184000D01*
X202500Y-437250D02*
Y-342500D01*
X187500Y-332500D02*
X361000Y-159000D01*
X373500D02*
X412500Y-120000D01*
X361000Y-159000D02*
X373500D01*
X187500Y-426850D02*
Y-332500D01*
X170000Y-324000D02*
X361000Y-133000D01*
X170000Y-418950D02*
Y-324000D01*
X361000Y-133000D02*
X374500D01*
X412500Y-95000D01*
X138200Y-501550D02*
X202500Y-437250D01*
X138200Y-476150D02*
X187500Y-426850D01*
X138200Y-450750D02*
X170000Y-418950D01*
D24*
X395250Y-616750D02*
D03*
X70000Y-616250D02*
D03*
D25*
X435250Y-616750D02*
D03*
X110000Y-616250D02*
D03*
D26*
X366800Y-18950D02*
D03*
Y-44350D02*
D03*
Y-69750D02*
D03*
Y-95150D02*
D03*
Y-120550D02*
D03*
Y-145950D02*
D03*
Y-171350D02*
D03*
Y-196750D02*
D03*
Y-222150D02*
D03*
Y-247550D02*
D03*
Y-272950D02*
D03*
Y-298350D02*
D03*
Y-323750D02*
D03*
Y-349150D02*
D03*
Y-374550D02*
D03*
Y-399950D02*
D03*
Y-425350D02*
D03*
Y-450750D02*
D03*
Y-476150D02*
D03*
Y-501550D02*
D03*
Y-526950D02*
D03*
X138200Y-44350D02*
D03*
Y-69750D02*
D03*
Y-95150D02*
D03*
Y-120550D02*
D03*
Y-145950D02*
D03*
Y-171350D02*
D03*
Y-196750D02*
D03*
Y-222150D02*
D03*
Y-247550D02*
D03*
Y-272950D02*
D03*
Y-298350D02*
D03*
Y-323750D02*
D03*
Y-349150D02*
D03*
Y-374550D02*
D03*
Y-399950D02*
D03*
Y-425350D02*
D03*
Y-450750D02*
D03*
Y-476150D02*
D03*
Y-501550D02*
D03*
Y-526950D02*
D03*
X366800Y-552350D02*
D03*
X138200D02*
D03*
D27*
Y-18950D02*
D03*
D28*
X92500Y-535000D02*
D03*
X412500Y-560000D02*
D03*
Y-480000D02*
D03*
X92500Y-455000D02*
D03*
D29*
Y-560000D02*
D03*
X412500Y-535000D02*
D03*
Y-455000D02*
D03*
X92500Y-480000D02*
D03*
D30*
X477500Y-27500D02*
D03*
X27500Y-612500D02*
D03*
X477500D02*
D03*
X27500Y-27500D02*
D03*
D31*
X230000Y-445000D02*
D03*
X135000Y-610000D02*
D03*
X370000D02*
D03*
Y-625000D02*
D03*
X275000D02*
D03*
X230000D02*
D03*
X255000D02*
D03*
X400000Y-55000D02*
D03*
X435000D02*
D03*
X30000Y-570000D02*
D03*
X275000Y-590000D02*
D03*
X475000Y-475000D02*
D03*
Y-425000D02*
D03*
Y-375000D02*
D03*
Y-325000D02*
D03*
Y-275000D02*
D03*
Y-225000D02*
D03*
Y-175000D02*
D03*
Y-125000D02*
D03*
Y-75000D02*
D03*
X450000Y-25000D02*
D03*
X400000D02*
D03*
X480000Y-530000D02*
D03*
Y-570000D02*
D03*
X250000Y-590000D02*
D03*
X160000Y-310000D02*
D03*
X180000Y-280000D02*
D03*
X340000Y-380000D02*
D03*
Y-410000D02*
D03*
Y-450000D02*
D03*
Y-490000D02*
D03*
X290000Y-370000D02*
D03*
Y-400000D02*
D03*
Y-450000D02*
D03*
X230000Y-410000D02*
D03*
Y-370000D02*
D03*
X260000Y-320000D02*
D03*
X300000Y-280000D02*
D03*
X25000Y-525000D02*
D03*
Y-450000D02*
D03*
Y-375000D02*
D03*
Y-325000D02*
D03*
Y-275000D02*
D03*
Y-200000D02*
D03*
Y-150000D02*
D03*
Y-100000D02*
D03*
X250000Y-200000D02*
D03*
X200000D02*
D03*
Y-175000D02*
D03*
X275000D02*
D03*
X175000Y-125000D02*
D03*
X225000D02*
D03*
X275000D02*
D03*
X325000D02*
D03*
Y-75000D02*
D03*
X275000D02*
D03*
X225000D02*
D03*
X175000D02*
D03*
Y-25000D02*
D03*
X225000D02*
D03*
X275000D02*
D03*
X325000D02*
D03*
X50000Y-50000D02*
D03*
X100000Y-25000D02*
D03*
X75000D02*
D03*
D32*
X175500Y-599750D02*
D03*
X165500Y-599500D02*
D03*
X319540Y-568460D02*
D03*
X309540D02*
D03*
M02*
