G04*
G04 #@! TF.GenerationSoftware,Altium Limited,Altium Designer,24.6.1 (21)*
G04*
G04 Layer_Color=255*
%FSLAX44Y44*%
%MOMM*%
G71*
G04*
G04 #@! TF.SameCoordinates,B00BFCD2-5707-4677-9BBC-B61177668CA5*
G04*
G04*
G04 #@! TF.FilePolarity,Positive*
G04*
G01*
G75*
%ADD18R,1.5000X1.5000*%
%ADD19C,1.5000*%
%AMCUSTOMSHAPE24*
4,1,6,-1.5500,-1.2250,-0.7750,-2.0000,0.7750,-2.0000,1.5500,-1.2250,1.5500,1.7500,-1.5500,1.7500,-1.5500,-1.2250,0.0*%
%ADD24CUSTOMSHAPE24*%

%AMCUSTOMSHAPE25*
4,1,6,-1.5500,-1.2250,-0.7750,-2.0000,0.7750,-2.0000,1.5500,-1.2250,1.5500,1.7500,-1.5500,1.7500,-1.5500,-1.2250,0.0*%
%ADD25CUSTOMSHAPE25*%

%ADD26C,1.5300*%
%ADD27R,1.5300X1.5300*%
%ADD28R,1.4000X1.4000*%
%ADD29C,1.4000*%
%ADD30C,3.0000*%
D18*
X412500Y-220000D02*
D03*
X92500Y-275000D02*
D03*
X412500Y-400000D02*
D03*
X92500Y-95000D02*
D03*
D19*
X412500Y-195000D02*
D03*
Y-170000D02*
D03*
Y-145000D02*
D03*
Y-120000D02*
D03*
Y-95000D02*
D03*
X92500Y-300000D02*
D03*
Y-325000D02*
D03*
Y-350000D02*
D03*
Y-375000D02*
D03*
Y-400000D02*
D03*
X412500Y-375000D02*
D03*
Y-350000D02*
D03*
Y-325000D02*
D03*
Y-300000D02*
D03*
Y-275000D02*
D03*
X92500Y-120000D02*
D03*
Y-145000D02*
D03*
Y-170000D02*
D03*
Y-195000D02*
D03*
Y-220000D02*
D03*
D24*
X395250Y-616750D02*
D03*
X70000Y-616250D02*
D03*
D25*
X435250Y-616750D02*
D03*
X110000Y-616250D02*
D03*
D26*
X366800Y-18950D02*
D03*
Y-44350D02*
D03*
Y-69750D02*
D03*
Y-95150D02*
D03*
Y-120550D02*
D03*
Y-145950D02*
D03*
Y-171350D02*
D03*
Y-196750D02*
D03*
Y-222150D02*
D03*
Y-247550D02*
D03*
Y-272950D02*
D03*
Y-298350D02*
D03*
Y-323750D02*
D03*
Y-349150D02*
D03*
Y-374550D02*
D03*
Y-399950D02*
D03*
Y-425350D02*
D03*
Y-450750D02*
D03*
Y-476150D02*
D03*
Y-501550D02*
D03*
Y-526950D02*
D03*
X138200Y-44350D02*
D03*
Y-69750D02*
D03*
Y-95150D02*
D03*
Y-120550D02*
D03*
Y-145950D02*
D03*
Y-171350D02*
D03*
Y-196750D02*
D03*
Y-222150D02*
D03*
Y-247550D02*
D03*
Y-272950D02*
D03*
Y-298350D02*
D03*
Y-323750D02*
D03*
Y-349150D02*
D03*
Y-374550D02*
D03*
Y-399950D02*
D03*
Y-425350D02*
D03*
Y-450750D02*
D03*
Y-476150D02*
D03*
Y-501550D02*
D03*
Y-526950D02*
D03*
X366800Y-552350D02*
D03*
X138200D02*
D03*
D27*
Y-18950D02*
D03*
D28*
X92500Y-535000D02*
D03*
X412500Y-560000D02*
D03*
Y-480000D02*
D03*
X92500Y-455000D02*
D03*
D29*
Y-560000D02*
D03*
X412500Y-535000D02*
D03*
Y-455000D02*
D03*
X92500Y-480000D02*
D03*
D30*
X477500Y-27500D02*
D03*
X27500Y-612500D02*
D03*
X477500D02*
D03*
X27500Y-27500D02*
D03*
M02*
