G04*
G04 #@! TF.GenerationSoftware,Altium Limited,Altium Designer,24.6.1 (21)*
G04*
G04 Layer_Color=32768*
%FSLAX44Y44*%
%MOMM*%
G71*
G04*
G04 #@! TF.SameCoordinates,B00BFCD2-5707-4677-9BBC-B61177668CA5*
G04*
G04*
G04 #@! TF.FilePolarity,Positive*
G04*
G01*
G75*
%ADD12C,0.2000*%
%ADD48C,0.1000*%
%ADD53C,0.5080*%
%ADD54C,0.0254*%
%ADD55C,0.0762*%
D12*
X176500Y-533500D02*
Y-501500D01*
Y-533500D02*
X208500D01*
Y-501500D01*
X176500D02*
X208500D01*
D48*
X232000Y-535500D02*
X263000D01*
X232000Y-504500D02*
X263000D01*
X232000Y-535500D02*
Y-504500D01*
X263000Y-535500D02*
Y-504500D01*
D53*
X343350Y-586210D02*
G03*
X343350Y-586210I-3810J0D01*
G01*
X199350D02*
G03*
X199350Y-586210I-3810J0D01*
G01*
D54*
X294568Y-582430D02*
X354512D01*
Y-631960D02*
Y-582430D01*
X294568Y-631960D02*
X354512D01*
X294568D02*
Y-582430D01*
X150568D02*
X210512D01*
Y-631960D02*
Y-582430D01*
X150568Y-631960D02*
X210512D01*
X150568D02*
Y-582430D01*
D55*
X313954Y-614811D02*
X309722D01*
X311838D01*
Y-604231D01*
X309722Y-602115D01*
X307606D01*
X305490Y-604231D01*
X318186Y-614811D02*
X326650D01*
Y-612695D01*
X318186Y-604231D01*
Y-602115D01*
X169954Y-614811D02*
X165722D01*
X167838D01*
Y-604231D01*
X165722Y-602115D01*
X163606D01*
X161490Y-604231D01*
X174186D02*
X176302Y-602115D01*
X180534D01*
X182650Y-604231D01*
Y-612695D01*
X180534Y-614811D01*
X176302D01*
X174186Y-612695D01*
Y-610579D01*
X176302Y-608463D01*
X182650D01*
M02*
