G04*
G04 #@! TF.GenerationSoftware,Altium Limited,Altium Designer,24.6.1 (21)*
G04*
G04 Layer_Color=128*
%FSLAX44Y44*%
%MOMM*%
G71*
G04*
G04 #@! TF.SameCoordinates,B00BFCD2-5707-4677-9BBC-B61177668CA5*
G04*
G04*
G04 #@! TF.FilePolarity,Positive*
G04*
G01*
G75*
%ADD49C,0.1270*%
D49*
X387750Y-616750D02*
X402750D01*
X395250Y-624250D02*
Y-609250D01*
X427750Y-616750D02*
X442750D01*
X435250Y-624250D02*
Y-609250D01*
X62500Y-616250D02*
X77500D01*
X70000Y-623750D02*
Y-608750D01*
X102500Y-616250D02*
X117500D01*
X110000Y-623750D02*
Y-608750D01*
X361700Y-18950D02*
X371900D01*
X366800Y-24050D02*
Y-13850D01*
X361700Y-44350D02*
X371900D01*
X366800Y-49450D02*
Y-39250D01*
X361700Y-69750D02*
X371900D01*
X366800Y-74850D02*
Y-64650D01*
X361700Y-95150D02*
X371900D01*
X366800Y-100250D02*
Y-90050D01*
X361700Y-120550D02*
X371900D01*
X366800Y-125650D02*
Y-115450D01*
X361700Y-145950D02*
X371900D01*
X366800Y-151050D02*
Y-140850D01*
X361700Y-171350D02*
X371900D01*
X366800Y-176450D02*
Y-166250D01*
X361700Y-196750D02*
X371900D01*
X366800Y-201850D02*
Y-191650D01*
X361700Y-222150D02*
X371900D01*
X366800Y-227250D02*
Y-217050D01*
X361700Y-247550D02*
X371900D01*
X366800Y-252650D02*
Y-242450D01*
X361700Y-272950D02*
X371900D01*
X366800Y-278050D02*
Y-267850D01*
X361700Y-298350D02*
X371900D01*
X366800Y-303450D02*
Y-293250D01*
X361700Y-323750D02*
X371900D01*
X366800Y-328850D02*
Y-318650D01*
X361700Y-349150D02*
X371900D01*
X366800Y-354250D02*
Y-344050D01*
X361700Y-374550D02*
X371900D01*
X366800Y-379650D02*
Y-369450D01*
X361700Y-399950D02*
X371900D01*
X366800Y-405050D02*
Y-394850D01*
X361700Y-425350D02*
X371900D01*
X366800Y-430450D02*
Y-420250D01*
X361700Y-450750D02*
X371900D01*
X366800Y-455850D02*
Y-445650D01*
X361700Y-476150D02*
X371900D01*
X366800Y-481250D02*
Y-471050D01*
X361700Y-501550D02*
X371900D01*
X366800Y-506650D02*
Y-496450D01*
X361700Y-526950D02*
X371900D01*
X366800Y-532050D02*
Y-521850D01*
X133100Y-18950D02*
X143300D01*
X138200Y-24050D02*
Y-13850D01*
X133100Y-44350D02*
X143300D01*
X138200Y-49450D02*
Y-39250D01*
X133100Y-69750D02*
X143300D01*
X138200Y-74850D02*
Y-64650D01*
X133100Y-95150D02*
X143300D01*
X138200Y-100250D02*
Y-90050D01*
X133100Y-120550D02*
X143300D01*
X138200Y-125650D02*
Y-115450D01*
X133100Y-145950D02*
X143300D01*
X138200Y-151050D02*
Y-140850D01*
X133100Y-171350D02*
X143300D01*
X138200Y-176450D02*
Y-166250D01*
X133100Y-196750D02*
X143300D01*
X138200Y-201850D02*
Y-191650D01*
X133100Y-222150D02*
X143300D01*
X138200Y-227250D02*
Y-217050D01*
X133100Y-247550D02*
X143300D01*
X138200Y-252650D02*
Y-242450D01*
X133100Y-272950D02*
X143300D01*
X138200Y-278050D02*
Y-267850D01*
X133100Y-298350D02*
X143300D01*
X138200Y-303450D02*
Y-293250D01*
X133100Y-323750D02*
X143300D01*
X138200Y-328850D02*
Y-318650D01*
X133100Y-349150D02*
X143300D01*
X138200Y-354250D02*
Y-344050D01*
X133100Y-374550D02*
X143300D01*
X138200Y-379650D02*
Y-369450D01*
X133100Y-399950D02*
X143300D01*
X138200Y-405050D02*
Y-394850D01*
X133100Y-425350D02*
X143300D01*
X138200Y-430450D02*
Y-420250D01*
X133100Y-450750D02*
X143300D01*
X138200Y-455850D02*
Y-445650D01*
X133100Y-476150D02*
X143300D01*
X138200Y-481250D02*
Y-471050D01*
X133100Y-501550D02*
X143300D01*
X138200Y-506650D02*
Y-496450D01*
X133100Y-526950D02*
X143300D01*
X138200Y-532050D02*
Y-521850D01*
X361700Y-552350D02*
X371900D01*
X366800Y-557450D02*
Y-547250D01*
X133100Y-552350D02*
X143300D01*
X138200Y-557450D02*
Y-547250D01*
X88000Y-535000D02*
X97000D01*
X92500Y-539500D02*
Y-530500D01*
X88000Y-560000D02*
X97000D01*
X92500Y-564500D02*
Y-555500D01*
X408000Y-560000D02*
X417000D01*
X412500Y-564500D02*
Y-555500D01*
X408000Y-535000D02*
X417000D01*
X412500Y-539500D02*
Y-530500D01*
X408000Y-480000D02*
X417000D01*
X412500Y-484500D02*
Y-475500D01*
X408000Y-455000D02*
X417000D01*
X412500Y-459500D02*
Y-450500D01*
X88000Y-455000D02*
X97000D01*
X92500Y-459500D02*
Y-450500D01*
X88000Y-480000D02*
X97000D01*
X92500Y-484500D02*
Y-475500D01*
X407500Y-220000D02*
X417500D01*
X412500Y-225000D02*
Y-215000D01*
X407500Y-195000D02*
X417500D01*
X412500Y-200000D02*
Y-190000D01*
X407500Y-170000D02*
X417500D01*
X412500Y-175000D02*
Y-165000D01*
X407500Y-145000D02*
X417500D01*
X412500Y-150000D02*
Y-140000D01*
X407500Y-120000D02*
X417500D01*
X412500Y-125000D02*
Y-115000D01*
X407500Y-95000D02*
X417500D01*
X412500Y-100000D02*
Y-90000D01*
X87500Y-275000D02*
X97500D01*
X92500Y-280000D02*
Y-270000D01*
X87500Y-300000D02*
X97500D01*
X92500Y-305000D02*
Y-295000D01*
X87500Y-325000D02*
X97500D01*
X92500Y-330000D02*
Y-320000D01*
X87500Y-350000D02*
X97500D01*
X92500Y-355000D02*
Y-345000D01*
X87500Y-375000D02*
X97500D01*
X92500Y-380000D02*
Y-370000D01*
X87500Y-400000D02*
X97500D01*
X92500Y-405000D02*
Y-395000D01*
X407500Y-400000D02*
X417500D01*
X412500Y-405000D02*
Y-395000D01*
X407500Y-375000D02*
X417500D01*
X412500Y-380000D02*
Y-370000D01*
X407500Y-350000D02*
X417500D01*
X412500Y-355000D02*
Y-345000D01*
X407500Y-325000D02*
X417500D01*
X412500Y-330000D02*
Y-320000D01*
X407500Y-300000D02*
X417500D01*
X412500Y-305000D02*
Y-295000D01*
X407500Y-275000D02*
X417500D01*
X412500Y-280000D02*
Y-270000D01*
X87500Y-95000D02*
X97500D01*
X92500Y-100000D02*
Y-90000D01*
X87500Y-120000D02*
X97500D01*
X92500Y-125000D02*
Y-115000D01*
X87500Y-145000D02*
X97500D01*
X92500Y-150000D02*
Y-140000D01*
X87500Y-170000D02*
X97500D01*
X92500Y-175000D02*
Y-165000D01*
X87500Y-195000D02*
X97500D01*
X92500Y-200000D02*
Y-190000D01*
X87500Y-220000D02*
X97500D01*
X92500Y-225000D02*
Y-215000D01*
X466500Y-27500D02*
X488500D01*
X477500Y-38500D02*
Y-16500D01*
X16500Y-612500D02*
X38500D01*
X27500Y-623500D02*
Y-601500D01*
X466500Y-612500D02*
X488500D01*
X477500Y-623500D02*
Y-601500D01*
X16500Y-27500D02*
X38500D01*
X27500Y-38500D02*
Y-16500D01*
X228000Y-445000D02*
X232000D01*
X230000Y-447000D02*
Y-443000D01*
X133000Y-610000D02*
X137000D01*
X135000Y-612000D02*
Y-608000D01*
X368000Y-610000D02*
X372000D01*
X370000Y-612000D02*
Y-608000D01*
X368000Y-625000D02*
X372000D01*
X370000Y-627000D02*
Y-623000D01*
X273000Y-625000D02*
X277000D01*
X275000Y-627000D02*
Y-623000D01*
X228000Y-625000D02*
X232000D01*
X230000Y-627000D02*
Y-623000D01*
X253000Y-625000D02*
X257000D01*
X255000Y-627000D02*
Y-623000D01*
X398000Y-55000D02*
X402000D01*
X400000Y-57000D02*
Y-53000D01*
X433000Y-55000D02*
X437000D01*
X435000Y-57000D02*
Y-53000D01*
X28000Y-570000D02*
X32000D01*
X30000Y-572000D02*
Y-568000D01*
X273000Y-590000D02*
X277000D01*
X275000Y-592000D02*
Y-588000D01*
X473000Y-475000D02*
X477000D01*
X475000Y-477000D02*
Y-473000D01*
X473000Y-425000D02*
X477000D01*
X475000Y-427000D02*
Y-423000D01*
X473000Y-375000D02*
X477000D01*
X475000Y-377000D02*
Y-373000D01*
X473000Y-325000D02*
X477000D01*
X475000Y-327000D02*
Y-323000D01*
X473000Y-275000D02*
X477000D01*
X475000Y-277000D02*
Y-273000D01*
X473000Y-225000D02*
X477000D01*
X475000Y-227000D02*
Y-223000D01*
X473000Y-175000D02*
X477000D01*
X475000Y-177000D02*
Y-173000D01*
X473000Y-125000D02*
X477000D01*
X475000Y-127000D02*
Y-123000D01*
X473000Y-75000D02*
X477000D01*
X475000Y-77000D02*
Y-73000D01*
X448000Y-25000D02*
X452000D01*
X450000Y-27000D02*
Y-23000D01*
X398000Y-25000D02*
X402000D01*
X400000Y-27000D02*
Y-23000D01*
X478000Y-530000D02*
X482000D01*
X480000Y-532000D02*
Y-528000D01*
X478000Y-570000D02*
X482000D01*
X480000Y-572000D02*
Y-568000D01*
X248000Y-590000D02*
X252000D01*
X250000Y-592000D02*
Y-588000D01*
X158000Y-310000D02*
X162000D01*
X160000Y-312000D02*
Y-308000D01*
X178000Y-280000D02*
X182000D01*
X180000Y-282000D02*
Y-278000D01*
X338000Y-380000D02*
X342000D01*
X340000Y-382000D02*
Y-378000D01*
X338000Y-410000D02*
X342000D01*
X340000Y-412000D02*
Y-408000D01*
X338000Y-450000D02*
X342000D01*
X340000Y-452000D02*
Y-448000D01*
X338000Y-490000D02*
X342000D01*
X340000Y-492000D02*
Y-488000D01*
X288000Y-370000D02*
X292000D01*
X290000Y-372000D02*
Y-368000D01*
X288000Y-400000D02*
X292000D01*
X290000Y-402000D02*
Y-398000D01*
X288000Y-450000D02*
X292000D01*
X290000Y-452000D02*
Y-448000D01*
X228000Y-410000D02*
X232000D01*
X230000Y-412000D02*
Y-408000D01*
X228000Y-370000D02*
X232000D01*
X230000Y-372000D02*
Y-368000D01*
X258000Y-320000D02*
X262000D01*
X260000Y-322000D02*
Y-318000D01*
X298000Y-280000D02*
X302000D01*
X300000Y-282000D02*
Y-278000D01*
X23000Y-525000D02*
X27000D01*
X25000Y-527000D02*
Y-523000D01*
X23000Y-450000D02*
X27000D01*
X25000Y-452000D02*
Y-448000D01*
X23000Y-375000D02*
X27000D01*
X25000Y-377000D02*
Y-373000D01*
X23000Y-325000D02*
X27000D01*
X25000Y-327000D02*
Y-323000D01*
X23000Y-275000D02*
X27000D01*
X25000Y-277000D02*
Y-273000D01*
X23000Y-200000D02*
X27000D01*
X25000Y-202000D02*
Y-198000D01*
X23000Y-150000D02*
X27000D01*
X25000Y-152000D02*
Y-148000D01*
X23000Y-100000D02*
X27000D01*
X25000Y-102000D02*
Y-98000D01*
X248000Y-200000D02*
X252000D01*
X250000Y-202000D02*
Y-198000D01*
X198000Y-200000D02*
X202000D01*
X200000Y-202000D02*
Y-198000D01*
X198000Y-175000D02*
X202000D01*
X200000Y-177000D02*
Y-173000D01*
X273000Y-175000D02*
X277000D01*
X275000Y-177000D02*
Y-173000D01*
X173000Y-125000D02*
X177000D01*
X175000Y-127000D02*
Y-123000D01*
X223000Y-125000D02*
X227000D01*
X225000Y-127000D02*
Y-123000D01*
X273000Y-125000D02*
X277000D01*
X275000Y-127000D02*
Y-123000D01*
X323000Y-125000D02*
X327000D01*
X325000Y-127000D02*
Y-123000D01*
X323000Y-75000D02*
X327000D01*
X325000Y-77000D02*
Y-73000D01*
X273000Y-75000D02*
X277000D01*
X275000Y-77000D02*
Y-73000D01*
X223000Y-75000D02*
X227000D01*
X225000Y-77000D02*
Y-73000D01*
X173000Y-75000D02*
X177000D01*
X175000Y-77000D02*
Y-73000D01*
X173000Y-25000D02*
X177000D01*
X175000Y-27000D02*
Y-23000D01*
X223000Y-25000D02*
X227000D01*
X225000Y-27000D02*
Y-23000D01*
X273000Y-25000D02*
X277000D01*
X275000Y-27000D02*
Y-23000D01*
X323000Y-25000D02*
X327000D01*
X325000Y-27000D02*
Y-23000D01*
X48000Y-50000D02*
X52000D01*
X50000Y-52000D02*
Y-48000D01*
X98000Y-25000D02*
X102000D01*
X100000Y-27000D02*
Y-23000D01*
X73000Y-25000D02*
X77000D01*
X75000Y-27000D02*
Y-23000D01*
X173722Y-599750D02*
X177278D01*
X175500Y-601528D02*
Y-597972D01*
X163722Y-599500D02*
X167278D01*
X165500Y-601278D02*
Y-597722D01*
X317762Y-568460D02*
X321318D01*
X319540Y-570238D02*
Y-566682D01*
X307762Y-568460D02*
X311318D01*
X309540Y-570238D02*
Y-566682D01*
M02*
