G04*
G04 #@! TF.GenerationSoftware,Altium Limited,Altium Designer,24.6.1 (21)*
G04*
G04 Layer_Color=8388736*
%FSLAX44Y44*%
%MOMM*%
G71*
G04*
G04 #@! TF.SameCoordinates,B00BFCD2-5707-4677-9BBC-B61177668CA5*
G04*
G04*
G04 #@! TF.FilePolarity,Positive*
G04*
G01*
G75*
%ADD50C,0.1750*%
%ADD51C,0.1500*%
D50*
X286070Y-526590D02*
X308930D01*
Y-483410D01*
X286070D02*
X308930D01*
X286070Y-526590D02*
Y-483410D01*
X225910Y-476070D02*
X269090D01*
Y-498930D02*
Y-476070D01*
X225910Y-498930D02*
X269090D01*
X225910D02*
Y-476070D01*
X230000Y-558250D02*
Y-541750D01*
X200000D02*
X230000D01*
X200000Y-558250D02*
Y-541750D01*
Y-558250D02*
X230000D01*
X220000Y-490750D02*
Y-474250D01*
X190000D02*
X220000D01*
X190000Y-490750D02*
Y-474250D01*
Y-490750D02*
X220000D01*
X267500Y-558250D02*
Y-541750D01*
X237500D02*
X267500D01*
X237500Y-558250D02*
Y-541750D01*
Y-558250D02*
X267500D01*
D51*
X300832Y-505000D02*
X302498Y-506666D01*
Y-509998D01*
X300832Y-511665D01*
X294168D01*
X292502Y-509998D01*
Y-506666D01*
X294168Y-505000D01*
X292502Y-501668D02*
Y-498335D01*
Y-500002D01*
X302498D01*
X300832Y-501668D01*
X245834Y-490832D02*
X244168Y-492498D01*
X240835D01*
X239169Y-490832D01*
Y-484168D01*
X240835Y-482502D01*
X244168D01*
X245834Y-484168D01*
X255831Y-482502D02*
X249166D01*
X255831Y-489166D01*
Y-490832D01*
X254165Y-492498D01*
X250832D01*
X249166Y-490832D01*
X221665Y-554998D02*
Y-545002D01*
X216666D01*
X215000Y-546668D01*
Y-550000D01*
X216666Y-551666D01*
X221665D01*
X218332D02*
X215000Y-554998D01*
X211668D02*
X208335D01*
X210002D01*
Y-545002D01*
X211668Y-546668D01*
X213331Y-487498D02*
Y-477502D01*
X208332D01*
X206666Y-479168D01*
Y-482500D01*
X208332Y-484166D01*
X213331D01*
X209998D02*
X206666Y-487498D01*
X203334Y-479168D02*
X201668Y-477502D01*
X198335D01*
X196669Y-479168D01*
Y-480834D01*
X198335Y-482500D01*
X200002D01*
X198335D01*
X196669Y-484166D01*
Y-485832D01*
X198335Y-487498D01*
X201668D01*
X203334Y-485832D01*
X260831Y-554998D02*
Y-545002D01*
X255832D01*
X254166Y-546668D01*
Y-550000D01*
X255832Y-551666D01*
X260831D01*
X257498D02*
X254166Y-554998D01*
X244169D02*
X250834D01*
X244169Y-548334D01*
Y-546668D01*
X245835Y-545002D01*
X249168D01*
X250834Y-546668D01*
M02*
