G04*
G04 #@! TF.GenerationSoftware,Altium Limited,Altium Designer,24.6.1 (21)*
G04*
G04 Layer_Color=2752767*
%FSLAX44Y44*%
%MOMM*%
G71*
G04*
G04 #@! TF.SameCoordinates,B00BFCD2-5707-4677-9BBC-B61177668CA5*
G04*
G04*
G04 #@! TF.FilePolarity,Positive*
G04*
G01*
G75*
%ADD49C,0.1270*%
%ADD56C,0.1693*%
D49*
X366800Y-24030D02*
X361720Y-13870D01*
X371880D01*
X366800Y-24030D01*
Y-49430D02*
X361720Y-39270D01*
X371880D01*
X366800Y-49430D01*
Y-74830D02*
X361720Y-64670D01*
X371880D01*
X366800Y-74830D01*
Y-100230D02*
X361720Y-90070D01*
X371880D01*
X366800Y-100230D01*
Y-125630D02*
X361720Y-115470D01*
X371880D01*
X366800Y-125630D01*
Y-151030D02*
X361720Y-140870D01*
X371880D01*
X366800Y-151030D01*
Y-176430D02*
X361720Y-166270D01*
X371880D01*
X366800Y-176430D01*
Y-201830D02*
X361720Y-191670D01*
X371880D01*
X366800Y-201830D01*
Y-227230D02*
X361720Y-217070D01*
X371880D01*
X366800Y-227230D01*
Y-252630D02*
X361720Y-242470D01*
X371880D01*
X366800Y-252630D01*
Y-278030D02*
X361720Y-267870D01*
X371880D01*
X366800Y-278030D01*
Y-303430D02*
X361720Y-293270D01*
X371880D01*
X366800Y-303430D01*
Y-328830D02*
X361720Y-318670D01*
X371880D01*
X366800Y-328830D01*
Y-354230D02*
X361720Y-344070D01*
X371880D01*
X366800Y-354230D01*
Y-379630D02*
X361720Y-369470D01*
X371880D01*
X366800Y-379630D01*
Y-405030D02*
X361720Y-394870D01*
X371880D01*
X366800Y-405030D01*
Y-430430D02*
X361720Y-420270D01*
X371880D01*
X366800Y-430430D01*
Y-455830D02*
X361720Y-445670D01*
X371880D01*
X366800Y-455830D01*
Y-481230D02*
X361720Y-471070D01*
X371880D01*
X366800Y-481230D01*
Y-506630D02*
X361720Y-496470D01*
X371880D01*
X366800Y-506630D01*
Y-532030D02*
X361720Y-521870D01*
X371880D01*
X366800Y-532030D01*
X138200Y-24030D02*
X133120Y-13870D01*
X143280D01*
X138200Y-24030D01*
Y-49430D02*
X133120Y-39270D01*
X143280D01*
X138200Y-49430D01*
Y-74830D02*
X133120Y-64670D01*
X143280D01*
X138200Y-74830D01*
Y-100230D02*
X133120Y-90070D01*
X143280D01*
X138200Y-100230D01*
Y-125630D02*
X133120Y-115470D01*
X143280D01*
X138200Y-125630D01*
Y-151030D02*
X133120Y-140870D01*
X143280D01*
X138200Y-151030D01*
Y-176430D02*
X133120Y-166270D01*
X143280D01*
X138200Y-176430D01*
Y-201830D02*
X133120Y-191670D01*
X143280D01*
X138200Y-201830D01*
Y-227230D02*
X133120Y-217070D01*
X143280D01*
X138200Y-227230D01*
Y-252630D02*
X133120Y-242470D01*
X143280D01*
X138200Y-252630D01*
Y-278030D02*
X133120Y-267870D01*
X143280D01*
X138200Y-278030D01*
Y-303430D02*
X133120Y-293270D01*
X143280D01*
X138200Y-303430D01*
Y-328830D02*
X133120Y-318670D01*
X143280D01*
X138200Y-328830D01*
Y-354230D02*
X133120Y-344070D01*
X143280D01*
X138200Y-354230D01*
Y-379630D02*
X133120Y-369470D01*
X143280D01*
X138200Y-379630D01*
Y-405030D02*
X133120Y-394870D01*
X143280D01*
X138200Y-405030D01*
Y-430430D02*
X133120Y-420270D01*
X143280D01*
X138200Y-430430D01*
Y-455830D02*
X133120Y-445670D01*
X143280D01*
X138200Y-455830D01*
Y-481230D02*
X133120Y-471070D01*
X143280D01*
X138200Y-481230D01*
Y-506630D02*
X133120Y-496470D01*
X143280D01*
X138200Y-506630D01*
Y-532030D02*
X133120Y-521870D01*
X143280D01*
X138200Y-532030D01*
X366800Y-557430D02*
X361720Y-547270D01*
X371880D01*
X366800Y-557430D01*
X138200D02*
X133120Y-547270D01*
X143280D01*
X138200Y-557430D01*
X92500Y-540080D02*
X95040Y-537540D01*
X97580D01*
X95040Y-535000D01*
X97580Y-532460D01*
X95040D01*
X92500Y-529920D01*
X89960Y-532460D01*
X87420D01*
X89960Y-535000D01*
X87420Y-537540D01*
X89960D01*
X92500Y-540080D01*
Y-565080D02*
X95040Y-562540D01*
X97580D01*
X95040Y-560000D01*
X97580Y-557460D01*
X95040D01*
X92500Y-554920D01*
X89960Y-557460D01*
X87420D01*
X89960Y-560000D01*
X87420Y-562540D01*
X89960D01*
X92500Y-565080D01*
X412500Y-565080D02*
X415040Y-562540D01*
X417580D01*
X415040Y-560000D01*
X417580Y-557460D01*
X415040D01*
X412500Y-554920D01*
X409960Y-557460D01*
X407420D01*
X409960Y-560000D01*
X407420Y-562540D01*
X409960D01*
X412500Y-565080D01*
Y-540080D02*
X415040Y-537540D01*
X417580D01*
X415040Y-535000D01*
X417580Y-532460D01*
X415040D01*
X412500Y-529920D01*
X409960Y-532460D01*
X407420D01*
X409960Y-535000D01*
X407420Y-537540D01*
X409960D01*
X412500Y-540080D01*
Y-485080D02*
X415040Y-482540D01*
X417580D01*
X415040Y-480000D01*
X417580Y-477460D01*
X415040D01*
X412500Y-474920D01*
X409960Y-477460D01*
X407420D01*
X409960Y-480000D01*
X407420Y-482540D01*
X409960D01*
X412500Y-485080D01*
Y-460080D02*
X415040Y-457540D01*
X417580D01*
X415040Y-455000D01*
X417580Y-452460D01*
X415040D01*
X412500Y-449920D01*
X409960Y-452460D01*
X407420D01*
X409960Y-455000D01*
X407420Y-457540D01*
X409960D01*
X412500Y-460080D01*
X92500D02*
X95040Y-457540D01*
X97580D01*
X95040Y-455000D01*
X97580Y-452460D01*
X95040D01*
X92500Y-449920D01*
X89960Y-452460D01*
X87420D01*
X89960Y-455000D01*
X87420Y-457540D01*
X89960D01*
X92500Y-460080D01*
Y-485080D02*
X95040Y-482540D01*
X97580D01*
X95040Y-480000D01*
X97580Y-477460D01*
X95040D01*
X92500Y-474920D01*
X89960Y-477460D01*
X87420D01*
X89960Y-480000D01*
X87420Y-482540D01*
X89960D01*
X92500Y-485080D01*
X407420Y-225080D02*
Y-214920D01*
X417580D01*
Y-225080D01*
X407420D01*
Y-200080D02*
Y-189920D01*
X417580D01*
Y-200080D01*
X407420D01*
Y-175080D02*
Y-164920D01*
X417580D01*
Y-175080D01*
X407420D01*
Y-150080D02*
Y-139920D01*
X417580D01*
Y-150080D01*
X407420D01*
Y-125080D02*
Y-114920D01*
X417580D01*
Y-125080D01*
X407420D01*
Y-100080D02*
Y-89920D01*
X417580D01*
Y-100080D01*
X407420D01*
X87420Y-280080D02*
Y-269920D01*
X97580D01*
Y-280080D01*
X87420D01*
Y-305080D02*
Y-294920D01*
X97580D01*
Y-305080D01*
X87420D01*
Y-330080D02*
Y-319920D01*
X97580D01*
Y-330080D01*
X87420D01*
Y-355080D02*
Y-344920D01*
X97580D01*
Y-355080D01*
X87420D01*
Y-380080D02*
Y-369920D01*
X97580D01*
Y-380080D01*
X87420D01*
Y-405080D02*
Y-394920D01*
X97580D01*
Y-405080D01*
X87420D01*
X407420D02*
Y-394920D01*
X417580D01*
Y-405080D01*
X407420D01*
Y-380080D02*
Y-369920D01*
X417580D01*
Y-380080D01*
X407420D01*
Y-355080D02*
Y-344920D01*
X417580D01*
Y-355080D01*
X407420D01*
Y-330080D02*
Y-319920D01*
X417580D01*
Y-330080D01*
X407420D01*
Y-305080D02*
Y-294920D01*
X417580D01*
Y-305080D01*
X407420D01*
Y-280080D02*
Y-269920D01*
X417580D01*
Y-280080D01*
X407420D01*
X87420Y-100080D02*
Y-89920D01*
X97580D01*
Y-100080D01*
X87420D01*
Y-125080D02*
Y-114920D01*
X97580D01*
Y-125080D01*
X87420D01*
Y-150080D02*
Y-139920D01*
X97580D01*
Y-150080D01*
X87420D01*
Y-175080D02*
Y-164920D01*
X97580D01*
Y-175080D01*
X87420D01*
Y-200080D02*
Y-189920D01*
X97580D01*
Y-200080D01*
X87420D01*
Y-225080D02*
Y-214920D01*
X97580D01*
Y-225080D01*
X87420D01*
X472420Y-32580D02*
X474960Y-27500D01*
X472420Y-22420D01*
X477500Y-24960D01*
X482580Y-22420D01*
X480040Y-27500D01*
X482580Y-32580D01*
X477500Y-30040D01*
X472420Y-32580D01*
X22420Y-617580D02*
X24960Y-612500D01*
X22420Y-607420D01*
X27500Y-609960D01*
X32580Y-607420D01*
X30040Y-612500D01*
X32580Y-617580D01*
X27500Y-615040D01*
X22420Y-617580D01*
X472420D02*
X474960Y-612500D01*
X472420Y-607420D01*
X477500Y-609960D01*
X482580Y-607420D01*
X480040Y-612500D01*
X482580Y-617580D01*
X477500Y-615040D01*
X472420Y-617580D01*
X22420Y-32580D02*
X24960Y-27500D01*
X22420Y-22420D01*
X27500Y-24960D01*
X32580Y-22420D01*
X30040Y-27500D01*
X32580Y-32580D01*
X27500Y-30040D01*
X22420Y-32580D01*
X227460Y-447540D02*
Y-450080D01*
X232540D01*
Y-447540D01*
X235080D01*
Y-442460D01*
X232540D01*
Y-439920D01*
X227460D01*
Y-442460D01*
X224920D01*
Y-447540D01*
X227460D01*
X132460Y-612540D02*
Y-615080D01*
X137540D01*
Y-612540D01*
X140080D01*
Y-607460D01*
X137540D01*
Y-604920D01*
X132460D01*
Y-607460D01*
X129920D01*
Y-612540D01*
X132460D01*
X367460D02*
Y-615080D01*
X372540D01*
Y-612540D01*
X375080D01*
Y-607460D01*
X372540D01*
Y-604920D01*
X367460D01*
Y-607460D01*
X364920D01*
Y-612540D01*
X367460D01*
Y-627540D02*
Y-630080D01*
X372540D01*
Y-627540D01*
X375080D01*
Y-622460D01*
X372540D01*
Y-619920D01*
X367460D01*
Y-622460D01*
X364920D01*
Y-627540D01*
X367460D01*
X272460D02*
Y-630080D01*
X277540D01*
Y-627540D01*
X280080D01*
Y-622460D01*
X277540D01*
Y-619920D01*
X272460D01*
Y-622460D01*
X269920D01*
Y-627540D01*
X272460D01*
X227460D02*
Y-630080D01*
X232540D01*
Y-627540D01*
X235080D01*
Y-622460D01*
X232540D01*
Y-619920D01*
X227460D01*
Y-622460D01*
X224920D01*
Y-627540D01*
X227460D01*
X252460D02*
Y-630080D01*
X257540D01*
Y-627540D01*
X260080D01*
Y-622460D01*
X257540D01*
Y-619920D01*
X252460D01*
Y-622460D01*
X249920D01*
Y-627540D01*
X252460D01*
X397460Y-57540D02*
Y-60080D01*
X402540D01*
Y-57540D01*
X405080D01*
Y-52460D01*
X402540D01*
Y-49920D01*
X397460D01*
Y-52460D01*
X394920D01*
Y-57540D01*
X397460D01*
X432460D02*
Y-60080D01*
X437540D01*
Y-57540D01*
X440080D01*
Y-52460D01*
X437540D01*
Y-49920D01*
X432460D01*
Y-52460D01*
X429920D01*
Y-57540D01*
X432460D01*
X27460Y-572540D02*
Y-575080D01*
X32540D01*
Y-572540D01*
X35080D01*
Y-567460D01*
X32540D01*
Y-564920D01*
X27460D01*
Y-567460D01*
X24920D01*
Y-572540D01*
X27460D01*
X272460Y-592540D02*
Y-595080D01*
X277540D01*
Y-592540D01*
X280080D01*
Y-587460D01*
X277540D01*
Y-584920D01*
X272460D01*
Y-587460D01*
X269920D01*
Y-592540D01*
X272460D01*
X472460Y-477540D02*
Y-480080D01*
X477540D01*
Y-477540D01*
X480080D01*
Y-472460D01*
X477540D01*
Y-469920D01*
X472460D01*
Y-472460D01*
X469920D01*
Y-477540D01*
X472460D01*
Y-427540D02*
Y-430080D01*
X477540D01*
Y-427540D01*
X480080D01*
Y-422460D01*
X477540D01*
Y-419920D01*
X472460D01*
Y-422460D01*
X469920D01*
Y-427540D01*
X472460D01*
Y-377540D02*
Y-380080D01*
X477540D01*
Y-377540D01*
X480080D01*
Y-372460D01*
X477540D01*
Y-369920D01*
X472460D01*
Y-372460D01*
X469920D01*
Y-377540D01*
X472460D01*
Y-327540D02*
Y-330080D01*
X477540D01*
Y-327540D01*
X480080D01*
Y-322460D01*
X477540D01*
Y-319920D01*
X472460D01*
Y-322460D01*
X469920D01*
Y-327540D01*
X472460D01*
Y-277540D02*
Y-280080D01*
X477540D01*
Y-277540D01*
X480080D01*
Y-272460D01*
X477540D01*
Y-269920D01*
X472460D01*
Y-272460D01*
X469920D01*
Y-277540D01*
X472460D01*
Y-227540D02*
Y-230080D01*
X477540D01*
Y-227540D01*
X480080D01*
Y-222460D01*
X477540D01*
Y-219920D01*
X472460D01*
Y-222460D01*
X469920D01*
Y-227540D01*
X472460D01*
Y-177540D02*
Y-180080D01*
X477540D01*
Y-177540D01*
X480080D01*
Y-172460D01*
X477540D01*
Y-169920D01*
X472460D01*
Y-172460D01*
X469920D01*
Y-177540D01*
X472460D01*
Y-127540D02*
Y-130080D01*
X477540D01*
Y-127540D01*
X480080D01*
Y-122460D01*
X477540D01*
Y-119920D01*
X472460D01*
Y-122460D01*
X469920D01*
Y-127540D01*
X472460D01*
Y-77540D02*
Y-80080D01*
X477540D01*
Y-77540D01*
X480080D01*
Y-72460D01*
X477540D01*
Y-69920D01*
X472460D01*
Y-72460D01*
X469920D01*
Y-77540D01*
X472460D01*
X447460Y-27540D02*
Y-30080D01*
X452540D01*
Y-27540D01*
X455080D01*
Y-22460D01*
X452540D01*
Y-19920D01*
X447460D01*
Y-22460D01*
X444920D01*
Y-27540D01*
X447460D01*
X397460D02*
Y-30080D01*
X402540D01*
Y-27540D01*
X405080D01*
Y-22460D01*
X402540D01*
Y-19920D01*
X397460D01*
Y-22460D01*
X394920D01*
Y-27540D01*
X397460D01*
X477460Y-532540D02*
Y-535080D01*
X482540D01*
Y-532540D01*
X485080D01*
Y-527460D01*
X482540D01*
Y-524920D01*
X477460D01*
Y-527460D01*
X474920D01*
Y-532540D01*
X477460D01*
Y-572540D02*
Y-575080D01*
X482540D01*
Y-572540D01*
X485080D01*
Y-567460D01*
X482540D01*
Y-564920D01*
X477460D01*
Y-567460D01*
X474920D01*
Y-572540D01*
X477460D01*
X247460Y-592540D02*
Y-595080D01*
X252540D01*
Y-592540D01*
X255080D01*
Y-587460D01*
X252540D01*
Y-584920D01*
X247460D01*
Y-587460D01*
X244920D01*
Y-592540D01*
X247460D01*
X157460Y-312540D02*
Y-315080D01*
X162540D01*
Y-312540D01*
X165080D01*
Y-307460D01*
X162540D01*
Y-304920D01*
X157460D01*
Y-307460D01*
X154920D01*
Y-312540D01*
X157460D01*
X177460Y-282540D02*
Y-285080D01*
X182540D01*
Y-282540D01*
X185080D01*
Y-277460D01*
X182540D01*
Y-274920D01*
X177460D01*
Y-277460D01*
X174920D01*
Y-282540D01*
X177460D01*
X337460Y-382540D02*
Y-385080D01*
X342540D01*
Y-382540D01*
X345080D01*
Y-377460D01*
X342540D01*
Y-374920D01*
X337460D01*
Y-377460D01*
X334920D01*
Y-382540D01*
X337460D01*
Y-412540D02*
Y-415080D01*
X342540D01*
Y-412540D01*
X345080D01*
Y-407460D01*
X342540D01*
Y-404920D01*
X337460D01*
Y-407460D01*
X334920D01*
Y-412540D01*
X337460D01*
Y-452540D02*
Y-455080D01*
X342540D01*
Y-452540D01*
X345080D01*
Y-447460D01*
X342540D01*
Y-444920D01*
X337460D01*
Y-447460D01*
X334920D01*
Y-452540D01*
X337460D01*
Y-492540D02*
Y-495080D01*
X342540D01*
Y-492540D01*
X345080D01*
Y-487460D01*
X342540D01*
Y-484920D01*
X337460D01*
Y-487460D01*
X334920D01*
Y-492540D01*
X337460D01*
X287460Y-372540D02*
Y-375080D01*
X292540D01*
Y-372540D01*
X295080D01*
Y-367460D01*
X292540D01*
Y-364920D01*
X287460D01*
Y-367460D01*
X284920D01*
Y-372540D01*
X287460D01*
Y-402540D02*
Y-405080D01*
X292540D01*
Y-402540D01*
X295080D01*
Y-397460D01*
X292540D01*
Y-394920D01*
X287460D01*
Y-397460D01*
X284920D01*
Y-402540D01*
X287460D01*
Y-452540D02*
Y-455080D01*
X292540D01*
Y-452540D01*
X295080D01*
Y-447460D01*
X292540D01*
Y-444920D01*
X287460D01*
Y-447460D01*
X284920D01*
Y-452540D01*
X287460D01*
X227460Y-412540D02*
Y-415080D01*
X232540D01*
Y-412540D01*
X235080D01*
Y-407460D01*
X232540D01*
Y-404920D01*
X227460D01*
Y-407460D01*
X224920D01*
Y-412540D01*
X227460D01*
Y-372540D02*
Y-375080D01*
X232540D01*
Y-372540D01*
X235080D01*
Y-367460D01*
X232540D01*
Y-364920D01*
X227460D01*
Y-367460D01*
X224920D01*
Y-372540D01*
X227460D01*
X257460Y-322540D02*
Y-325080D01*
X262540D01*
Y-322540D01*
X265080D01*
Y-317460D01*
X262540D01*
Y-314920D01*
X257460D01*
Y-317460D01*
X254920D01*
Y-322540D01*
X257460D01*
X297460Y-282540D02*
Y-285080D01*
X302540D01*
Y-282540D01*
X305080D01*
Y-277460D01*
X302540D01*
Y-274920D01*
X297460D01*
Y-277460D01*
X294920D01*
Y-282540D01*
X297460D01*
X22460Y-527540D02*
Y-530080D01*
X27540D01*
Y-527540D01*
X30080D01*
Y-522460D01*
X27540D01*
Y-519920D01*
X22460D01*
Y-522460D01*
X19920D01*
Y-527540D01*
X22460D01*
Y-452540D02*
Y-455080D01*
X27540D01*
Y-452540D01*
X30080D01*
Y-447460D01*
X27540D01*
Y-444920D01*
X22460D01*
Y-447460D01*
X19920D01*
Y-452540D01*
X22460D01*
Y-377540D02*
Y-380080D01*
X27540D01*
Y-377540D01*
X30080D01*
Y-372460D01*
X27540D01*
Y-369920D01*
X22460D01*
Y-372460D01*
X19920D01*
Y-377540D01*
X22460D01*
Y-327540D02*
Y-330080D01*
X27540D01*
Y-327540D01*
X30080D01*
Y-322460D01*
X27540D01*
Y-319920D01*
X22460D01*
Y-322460D01*
X19920D01*
Y-327540D01*
X22460D01*
Y-277540D02*
Y-280080D01*
X27540D01*
Y-277540D01*
X30080D01*
Y-272460D01*
X27540D01*
Y-269920D01*
X22460D01*
Y-272460D01*
X19920D01*
Y-277540D01*
X22460D01*
Y-202540D02*
Y-205080D01*
X27540D01*
Y-202540D01*
X30080D01*
Y-197460D01*
X27540D01*
Y-194920D01*
X22460D01*
Y-197460D01*
X19920D01*
Y-202540D01*
X22460D01*
Y-152540D02*
Y-155080D01*
X27540D01*
Y-152540D01*
X30080D01*
Y-147460D01*
X27540D01*
Y-144920D01*
X22460D01*
Y-147460D01*
X19920D01*
Y-152540D01*
X22460D01*
Y-102540D02*
Y-105080D01*
X27540D01*
Y-102540D01*
X30080D01*
Y-97460D01*
X27540D01*
Y-94920D01*
X22460D01*
Y-97460D01*
X19920D01*
Y-102540D01*
X22460D01*
X247460Y-202540D02*
Y-205080D01*
X252540D01*
Y-202540D01*
X255080D01*
Y-197460D01*
X252540D01*
Y-194920D01*
X247460D01*
Y-197460D01*
X244920D01*
Y-202540D01*
X247460D01*
X197460D02*
Y-205080D01*
X202540D01*
Y-202540D01*
X205080D01*
Y-197460D01*
X202540D01*
Y-194920D01*
X197460D01*
Y-197460D01*
X194920D01*
Y-202540D01*
X197460D01*
Y-177540D02*
Y-180080D01*
X202540D01*
Y-177540D01*
X205080D01*
Y-172460D01*
X202540D01*
Y-169920D01*
X197460D01*
Y-172460D01*
X194920D01*
Y-177540D01*
X197460D01*
X272460D02*
Y-180080D01*
X277540D01*
Y-177540D01*
X280080D01*
Y-172460D01*
X277540D01*
Y-169920D01*
X272460D01*
Y-172460D01*
X269920D01*
Y-177540D01*
X272460D01*
X172460Y-127540D02*
Y-130080D01*
X177540D01*
Y-127540D01*
X180080D01*
Y-122460D01*
X177540D01*
Y-119920D01*
X172460D01*
Y-122460D01*
X169920D01*
Y-127540D01*
X172460D01*
X222460D02*
Y-130080D01*
X227540D01*
Y-127540D01*
X230080D01*
Y-122460D01*
X227540D01*
Y-119920D01*
X222460D01*
Y-122460D01*
X219920D01*
Y-127540D01*
X222460D01*
X272460D02*
Y-130080D01*
X277540D01*
Y-127540D01*
X280080D01*
Y-122460D01*
X277540D01*
Y-119920D01*
X272460D01*
Y-122460D01*
X269920D01*
Y-127540D01*
X272460D01*
X322460D02*
Y-130080D01*
X327540D01*
Y-127540D01*
X330080D01*
Y-122460D01*
X327540D01*
Y-119920D01*
X322460D01*
Y-122460D01*
X319920D01*
Y-127540D01*
X322460D01*
Y-77540D02*
Y-80080D01*
X327540D01*
Y-77540D01*
X330080D01*
Y-72460D01*
X327540D01*
Y-69920D01*
X322460D01*
Y-72460D01*
X319920D01*
Y-77540D01*
X322460D01*
X272460D02*
Y-80080D01*
X277540D01*
Y-77540D01*
X280080D01*
Y-72460D01*
X277540D01*
Y-69920D01*
X272460D01*
Y-72460D01*
X269920D01*
Y-77540D01*
X272460D01*
X222460D02*
Y-80080D01*
X227540D01*
Y-77540D01*
X230080D01*
Y-72460D01*
X227540D01*
Y-69920D01*
X222460D01*
Y-72460D01*
X219920D01*
Y-77540D01*
X222460D01*
X172460D02*
Y-80080D01*
X177540D01*
Y-77540D01*
X180080D01*
Y-72460D01*
X177540D01*
Y-69920D01*
X172460D01*
Y-72460D01*
X169920D01*
Y-77540D01*
X172460D01*
Y-27540D02*
Y-30080D01*
X177540D01*
Y-27540D01*
X180080D01*
Y-22460D01*
X177540D01*
Y-19920D01*
X172460D01*
Y-22460D01*
X169920D01*
Y-27540D01*
X172460D01*
X222460D02*
Y-30080D01*
X227540D01*
Y-27540D01*
X230080D01*
Y-22460D01*
X227540D01*
Y-19920D01*
X222460D01*
Y-22460D01*
X219920D01*
Y-27540D01*
X222460D01*
X272460D02*
Y-30080D01*
X277540D01*
Y-27540D01*
X280080D01*
Y-22460D01*
X277540D01*
Y-19920D01*
X272460D01*
Y-22460D01*
X269920D01*
Y-27540D01*
X272460D01*
X322460D02*
Y-30080D01*
X327540D01*
Y-27540D01*
X330080D01*
Y-22460D01*
X327540D01*
Y-19920D01*
X322460D01*
Y-22460D01*
X319920D01*
Y-27540D01*
X322460D01*
X47460Y-52540D02*
Y-55080D01*
X52540D01*
Y-52540D01*
X55080D01*
Y-47460D01*
X52540D01*
Y-44920D01*
X47460D01*
Y-47460D01*
X44920D01*
Y-52540D01*
X47460D01*
X97460Y-27540D02*
Y-30080D01*
X102540D01*
Y-27540D01*
X105080D01*
Y-22460D01*
X102540D01*
Y-19920D01*
X97460D01*
Y-22460D01*
X94920D01*
Y-27540D01*
X97460D01*
X72460D02*
Y-30080D01*
X77540D01*
Y-27540D01*
X80080D01*
Y-22460D01*
X77540D01*
Y-19920D01*
X72460D01*
Y-22460D01*
X69920D01*
Y-27540D01*
X72460D01*
X170420Y-604830D02*
X172960D01*
X175500Y-602290D01*
X178040Y-604830D01*
X180580D01*
Y-602290D01*
X178040Y-599750D01*
X180580Y-597210D01*
Y-594670D01*
X178040D01*
X175500Y-597210D01*
X172960Y-594670D01*
X170420D01*
Y-597210D01*
X172960Y-599750D01*
X170420Y-602290D01*
Y-604830D01*
X160420Y-604580D02*
X162960D01*
X165500Y-602040D01*
X168040Y-604580D01*
X170580D01*
Y-602040D01*
X168040Y-599500D01*
X170580Y-596960D01*
Y-594420D01*
X168040D01*
X165500Y-596960D01*
X162960Y-594420D01*
X160420D01*
Y-596960D01*
X162960Y-599500D01*
X160420Y-602040D01*
Y-604580D01*
X314460Y-573540D02*
X317000D01*
X319540Y-571000D01*
X322080Y-573540D01*
X324620D01*
Y-571000D01*
X322080Y-568460D01*
X324620Y-565920D01*
Y-563380D01*
X322080D01*
X319540Y-565920D01*
X317000Y-563380D01*
X314460D01*
Y-565920D01*
X317000Y-568460D01*
X314460Y-571000D01*
Y-573540D01*
X304460D02*
X307000D01*
X309540Y-571000D01*
X312080Y-573540D01*
X314620D01*
Y-571000D01*
X312080Y-568460D01*
X314620Y-565920D01*
Y-563380D01*
X312080D01*
X309540Y-565920D01*
X307000Y-563380D01*
X304460D01*
Y-565920D01*
X307000Y-568460D01*
X304460Y-571000D01*
Y-573540D01*
D56*
X400330Y-616750D02*
G03*
X400330Y-616750I-5080J0D01*
G01*
X440330D02*
G03*
X440330Y-616750I-5080J0D01*
G01*
X75080Y-616250D02*
G03*
X75080Y-616250I-5080J0D01*
G01*
X115080D02*
G03*
X115080Y-616250I-5080J0D01*
G01*
M02*
