G04*
G04 #@! TF.GenerationSoftware,Altium Limited,Altium Designer,24.6.1 (21)*
G04*
G04 Layer_Color=8388736*
%FSLAX44Y44*%
%MOMM*%
G71*
G04*
G04 #@! TF.SameCoordinates,B00BFCD2-5707-4677-9BBC-B61177668CA5*
G04*
G04*
G04 #@! TF.FilePolarity,Negative*
G04*
G01*
G75*
%ADD14C,1.6800*%
%ADD15R,1.6800X1.6800*%
%ADD16R,1.5500X1.5500*%
%ADD17C,1.5500*%
%ADD18R,1.5000X1.5000*%
%ADD19C,1.5000*%
%ADD20C,3.1500*%
G36*
X125500Y-597998D02*
X125618Y-598007D01*
X125732Y-598035D01*
X125842Y-598080D01*
X125942Y-598141D01*
X126032Y-598218D01*
X126109Y-598308D01*
X126170Y-598409D01*
X126215Y-598517D01*
X126243Y-598632D01*
X126252Y-598750D01*
Y-628500D01*
X126243Y-628618D01*
X126215Y-628732D01*
X126184Y-628810D01*
X126170Y-628842D01*
X126109Y-628942D01*
X126032Y-629032D01*
X118282Y-636782D01*
X118192Y-636859D01*
X118092Y-636920D01*
X118060Y-636934D01*
X117983Y-636965D01*
X117868Y-636993D01*
X117750Y-637002D01*
X102250D01*
X102132Y-636993D01*
X102017Y-636965D01*
X101940Y-636934D01*
X101909Y-636920D01*
X101808Y-636859D01*
X101718Y-636782D01*
X93968Y-629032D01*
X93891Y-628942D01*
X93830Y-628842D01*
X93816Y-628810D01*
X93785Y-628732D01*
X93757Y-628618D01*
X93748Y-628500D01*
Y-598750D01*
X93757Y-598632D01*
X93785Y-598517D01*
X93830Y-598409D01*
X93891Y-598308D01*
X93968Y-598218D01*
X94058Y-598141D01*
X94158Y-598080D01*
X94268Y-598035D01*
X94382Y-598007D01*
X94500Y-597998D01*
X125500Y-597998D01*
D02*
G37*
G36*
X85618Y-598007D02*
X85732Y-598035D01*
X85842Y-598080D01*
X85942Y-598141D01*
X86032Y-598218D01*
X86109Y-598308D01*
X86170Y-598409D01*
X86215Y-598517D01*
X86243Y-598632D01*
X86252Y-598750D01*
Y-628500D01*
X86243Y-628618D01*
X86215Y-628732D01*
X86184Y-628810D01*
X86170Y-628842D01*
X86109Y-628942D01*
X86032Y-629032D01*
X78282Y-636782D01*
X78192Y-636859D01*
X78092Y-636920D01*
X78060Y-636934D01*
X77983Y-636965D01*
X77868Y-636993D01*
X77750Y-637002D01*
X62250D01*
X62132Y-636993D01*
X62017Y-636965D01*
X61940Y-636934D01*
X61908Y-636920D01*
X61808Y-636859D01*
X61718Y-636782D01*
X53968Y-629032D01*
X53891Y-628942D01*
X53830Y-628842D01*
X53816Y-628810D01*
X53784Y-628732D01*
X53757Y-628618D01*
X53748Y-628500D01*
Y-598750D01*
X53757Y-598632D01*
X53784Y-598517D01*
X53830Y-598409D01*
X53891Y-598308D01*
X53968Y-598218D01*
X54058Y-598141D01*
X54159Y-598080D01*
X54268Y-598035D01*
X54382Y-598007D01*
X54500Y-597998D01*
X85500Y-597998D01*
X85618Y-598007D01*
D02*
G37*
G36*
X450750Y-598498D02*
X450868Y-598507D01*
X450983Y-598535D01*
X451092Y-598580D01*
X451192Y-598641D01*
X451282Y-598718D01*
X451359Y-598808D01*
X451420Y-598909D01*
X451465Y-599017D01*
X451493Y-599132D01*
X451502Y-599250D01*
Y-629000D01*
X451493Y-629118D01*
X451465Y-629232D01*
X451434Y-629310D01*
X451420Y-629342D01*
X451359Y-629442D01*
X451282Y-629532D01*
X443532Y-637282D01*
X443442Y-637359D01*
X443342Y-637420D01*
X443310Y-637434D01*
X443232Y-637466D01*
X443118Y-637493D01*
X443000Y-637502D01*
X427500D01*
X427382Y-637493D01*
X427267Y-637466D01*
X427190Y-637434D01*
X427159Y-637420D01*
X427058Y-637359D01*
X426968Y-637282D01*
X419218Y-629532D01*
X419141Y-629442D01*
X419080Y-629342D01*
X419066Y-629310D01*
X419035Y-629232D01*
X419007Y-629118D01*
X418998Y-629000D01*
Y-599250D01*
X419007Y-599132D01*
X419035Y-599017D01*
X419080Y-598909D01*
X419141Y-598808D01*
X419218Y-598718D01*
X419308Y-598641D01*
X419408Y-598580D01*
X419518Y-598535D01*
X419632Y-598507D01*
X419750Y-598498D01*
X450750Y-598498D01*
D02*
G37*
G36*
X410868Y-598507D02*
X410983Y-598535D01*
X411092Y-598580D01*
X411192Y-598641D01*
X411282Y-598718D01*
X411359Y-598808D01*
X411420Y-598909D01*
X411465Y-599017D01*
X411493Y-599132D01*
X411502Y-599250D01*
Y-629000D01*
X411493Y-629118D01*
X411465Y-629232D01*
X411434Y-629310D01*
X411420Y-629342D01*
X411359Y-629442D01*
X411282Y-629532D01*
X403532Y-637282D01*
X403442Y-637359D01*
X403342Y-637420D01*
X403310Y-637434D01*
X403232Y-637466D01*
X403118Y-637493D01*
X403000Y-637502D01*
X387500D01*
X387382Y-637493D01*
X387267Y-637466D01*
X387190Y-637434D01*
X387159Y-637420D01*
X387058Y-637359D01*
X386968Y-637282D01*
X379218Y-629532D01*
X379141Y-629442D01*
X379080Y-629342D01*
X379067Y-629310D01*
X379035Y-629232D01*
X379007Y-629118D01*
X378998Y-629000D01*
Y-599250D01*
X379007Y-599132D01*
X379035Y-599017D01*
X379080Y-598909D01*
X379141Y-598808D01*
X379218Y-598718D01*
X379308Y-598641D01*
X379408Y-598580D01*
X379518Y-598535D01*
X379632Y-598507D01*
X379750Y-598498D01*
X410750Y-598498D01*
X410868Y-598507D01*
D02*
G37*
D14*
X366800Y-18950D02*
D03*
Y-44350D02*
D03*
Y-69750D02*
D03*
Y-95150D02*
D03*
Y-120550D02*
D03*
Y-145950D02*
D03*
Y-171350D02*
D03*
Y-196750D02*
D03*
Y-222150D02*
D03*
Y-247550D02*
D03*
Y-272950D02*
D03*
Y-298350D02*
D03*
Y-323750D02*
D03*
Y-349150D02*
D03*
Y-374550D02*
D03*
Y-399950D02*
D03*
Y-425350D02*
D03*
Y-450750D02*
D03*
Y-476150D02*
D03*
Y-501550D02*
D03*
Y-526950D02*
D03*
X138200Y-44350D02*
D03*
Y-69750D02*
D03*
Y-95150D02*
D03*
Y-120550D02*
D03*
Y-145950D02*
D03*
Y-171350D02*
D03*
Y-196750D02*
D03*
Y-222150D02*
D03*
Y-247550D02*
D03*
Y-272950D02*
D03*
Y-298350D02*
D03*
Y-323750D02*
D03*
Y-349150D02*
D03*
Y-374550D02*
D03*
Y-399950D02*
D03*
Y-425350D02*
D03*
Y-450750D02*
D03*
Y-476150D02*
D03*
Y-501550D02*
D03*
Y-526950D02*
D03*
X366800Y-552350D02*
D03*
X138200D02*
D03*
D15*
Y-18950D02*
D03*
D16*
X92500Y-535000D02*
D03*
X412500Y-560000D02*
D03*
Y-480000D02*
D03*
X92500Y-455000D02*
D03*
D17*
Y-560000D02*
D03*
X412500Y-535000D02*
D03*
Y-455000D02*
D03*
X92500Y-480000D02*
D03*
D18*
X412500Y-220000D02*
D03*
X92500Y-275000D02*
D03*
X412500Y-400000D02*
D03*
X92500Y-95000D02*
D03*
D19*
X412500Y-195000D02*
D03*
Y-170000D02*
D03*
Y-145000D02*
D03*
Y-120000D02*
D03*
Y-95000D02*
D03*
X92500Y-300000D02*
D03*
Y-325000D02*
D03*
Y-350000D02*
D03*
Y-375000D02*
D03*
Y-400000D02*
D03*
X412500Y-375000D02*
D03*
Y-350000D02*
D03*
Y-325000D02*
D03*
Y-300000D02*
D03*
Y-275000D02*
D03*
X92500Y-120000D02*
D03*
Y-145000D02*
D03*
Y-170000D02*
D03*
Y-195000D02*
D03*
Y-220000D02*
D03*
D20*
X477500Y-27500D02*
D03*
X27500Y-612500D02*
D03*
X477500D02*
D03*
X27500Y-27500D02*
D03*
M02*
