G04*
G04 #@! TF.GenerationSoftware,Altium Limited,Altium Designer,24.6.1 (21)*
G04*
G04 Layer_Physical_Order=2*
G04 Layer_Color=16711680*
%FSLAX44Y44*%
%MOMM*%
G71*
G04*
G04 #@! TF.SameCoordinates,B00BFCD2-5707-4677-9BBC-B61177668CA5*
G04*
G04*
G04 #@! TF.FilePolarity,Positive*
G04*
G01*
G75*
%ADD18R,1.5000X1.5000*%
%ADD19C,1.5000*%
%ADD21C,0.3000*%
%ADD22C,1.2000*%
%ADD23C,0.4000*%
%AMCUSTOMSHAPE24*
4,1,6,-1.5500,-1.2250,-0.7750,-2.0000,0.7750,-2.0000,1.5500,-1.2250,1.5500,1.7500,-1.5500,1.7500,-1.5500,-1.2250,0.0*%
%ADD24CUSTOMSHAPE24*%

%AMCUSTOMSHAPE25*
4,1,6,-1.5500,-1.2250,-0.7750,-2.0000,0.7750,-2.0000,1.5500,-1.2250,1.5500,1.7500,-1.5500,1.7500,-1.5500,-1.2250,0.0*%
%ADD25CUSTOMSHAPE25*%

%ADD26C,1.5300*%
%ADD27R,1.5300X1.5300*%
%ADD28R,1.4000X1.4000*%
%ADD29C,1.4000*%
%ADD30C,3.0000*%
%ADD31C,0.8000*%
%ADD32C,0.7500*%
G04:AMPARAMS|DCode=33|XSize=1.4mm|YSize=1.7mm|CornerRadius=0.175mm|HoleSize=0mm|Usage=FLASHONLY|Rotation=90.000|XOffset=0mm|YOffset=0mm|HoleType=Round|Shape=RoundedRectangle|*
%AMROUNDEDRECTD33*
21,1,1.4000,1.3500,0,0,90.0*
21,1,1.0500,1.7000,0,0,90.0*
1,1,0.3500,0.6750,0.5250*
1,1,0.3500,0.6750,-0.5250*
1,1,0.3500,-0.6750,-0.5250*
1,1,0.3500,-0.6750,0.5250*
%
%ADD33ROUNDEDRECTD33*%
G04:AMPARAMS|DCode=34|XSize=1.4mm|YSize=1.7mm|CornerRadius=0.175mm|HoleSize=0mm|Usage=FLASHONLY|Rotation=0.000|XOffset=0mm|YOffset=0mm|HoleType=Round|Shape=RoundedRectangle|*
%AMROUNDEDRECTD34*
21,1,1.4000,1.3500,0,0,0.0*
21,1,1.0500,1.7000,0,0,0.0*
1,1,0.3500,0.5250,-0.6750*
1,1,0.3500,-0.5250,-0.6750*
1,1,0.3500,-0.5250,0.6750*
1,1,0.3500,0.5250,0.6750*
%
%ADD34ROUNDEDRECTD34*%
G04:AMPARAMS|DCode=35|XSize=0.6604mm|YSize=1.5494mm|CornerRadius=0.1651mm|HoleSize=0mm|Usage=FLASHONLY|Rotation=0.000|XOffset=0mm|YOffset=0mm|HoleType=Round|Shape=RoundedRectangle|*
%AMROUNDEDRECTD35*
21,1,0.6604,1.2192,0,0,0.0*
21,1,0.3302,1.5494,0,0,0.0*
1,1,0.3302,0.1651,-0.6096*
1,1,0.3302,-0.1651,-0.6096*
1,1,0.3302,-0.1651,0.6096*
1,1,0.3302,0.1651,0.6096*
%
%ADD35ROUNDEDRECTD35*%
G04:AMPARAMS|DCode=36|XSize=1.905mm|YSize=1.2954mm|CornerRadius=0.3239mm|HoleSize=0mm|Usage=FLASHONLY|Rotation=0.000|XOffset=0mm|YOffset=0mm|HoleType=Round|Shape=RoundedRectangle|*
%AMROUNDEDRECTD36*
21,1,1.9050,0.6477,0,0,0.0*
21,1,1.2573,1.2954,0,0,0.0*
1,1,0.6477,0.6287,-0.3239*
1,1,0.6477,-0.6287,-0.3239*
1,1,0.6477,-0.6287,0.3239*
1,1,0.6477,0.6287,0.3239*
%
%ADD36ROUNDEDRECTD36*%
G04:AMPARAMS|DCode=37|XSize=0.45mm|YSize=1.55mm|CornerRadius=0.0495mm|HoleSize=0mm|Usage=FLASHONLY|Rotation=90.000|XOffset=0mm|YOffset=0mm|HoleType=Round|Shape=RoundedRectangle|*
%AMROUNDEDRECTD37*
21,1,0.4500,1.4510,0,0,90.0*
21,1,0.3510,1.5500,0,0,90.0*
1,1,0.0990,0.7255,0.1755*
1,1,0.0990,0.7255,-0.1755*
1,1,0.0990,-0.7255,-0.1755*
1,1,0.0990,-0.7255,0.1755*
%
%ADD37ROUNDEDRECTD37*%
G04:AMPARAMS|DCode=38|XSize=0.8mm|YSize=1mm|CornerRadius=0.1mm|HoleSize=0mm|Usage=FLASHONLY|Rotation=180.000|XOffset=0mm|YOffset=0mm|HoleType=Round|Shape=RoundedRectangle|*
%AMROUNDEDRECTD38*
21,1,0.8000,0.8000,0,0,180.0*
21,1,0.6000,1.0000,0,0,180.0*
1,1,0.2000,-0.3000,0.4000*
1,1,0.2000,0.3000,0.4000*
1,1,0.2000,0.3000,-0.4000*
1,1,0.2000,-0.3000,-0.4000*
%
%ADD38ROUNDEDRECTD38*%
%ADD39R,1.2000X1.5000*%
%ADD40C,1.0000*%
%ADD41C,0.6000*%
%ADD42C,0.8000*%
G36*
X442500Y-575000D02*
X419900Y-597600D01*
X419750D01*
X418584Y-598084D01*
X418100Y-599250D01*
Y-599400D01*
X415000Y-602500D01*
X412500D01*
Y-627500D01*
X410000Y-630000D01*
X380000D01*
Y-601000D01*
X328000Y-549000D01*
X287500D01*
Y-530000D01*
X282500Y-525000D01*
X262500D01*
Y-515000D01*
X280000D01*
X287500Y-507500D01*
X328000D01*
X363134Y-542634D01*
X362781Y-544077D01*
X361167Y-545009D01*
X359459Y-546717D01*
X358251Y-548809D01*
X357626Y-551142D01*
Y-553558D01*
X358251Y-555891D01*
X359459Y-557983D01*
X361167Y-559691D01*
X363259Y-560899D01*
X365592Y-561524D01*
X368008D01*
X370341Y-560899D01*
X372433Y-559691D01*
X374141Y-557983D01*
X375349Y-555891D01*
X375974Y-553558D01*
Y-551142D01*
X375349Y-548809D01*
X375228Y-548600D01*
X375863Y-547500D01*
X385000D01*
X385000Y-547500D01*
X417500D01*
X425000Y-540000D01*
Y-525000D01*
X407500Y-507500D01*
X392500D01*
Y-477500D01*
X400000Y-470000D01*
X442500D01*
Y-575000D01*
D02*
G37*
G36*
X188767Y-592203D02*
X188564Y-593223D01*
X188593Y-593371D01*
X188503Y-593588D01*
Y-604305D01*
X188986Y-605471D01*
X190153Y-605954D01*
X202518D01*
X204000Y-607436D01*
Y-611000D01*
X177000D01*
X176000Y-610000D01*
X182000Y-604000D01*
Y-589718D01*
X186282D01*
X188767Y-592203D01*
D02*
G37*
G36*
X501115Y-636115D02*
X407627D01*
X407141Y-634942D01*
X410740Y-631343D01*
X411166Y-631166D01*
X413666Y-628666D01*
X414150Y-627500D01*
Y-604150D01*
X415000D01*
X416166Y-603666D01*
X419267Y-600566D01*
X419498Y-600008D01*
X419624Y-599881D01*
X419846Y-599346D01*
X420381Y-599124D01*
X420508Y-598998D01*
X421066Y-598767D01*
X443666Y-576166D01*
X444150Y-575000D01*
Y-470000D01*
X443666Y-468834D01*
X442500Y-468350D01*
X400000D01*
X398834Y-468834D01*
X391334Y-476334D01*
X390850Y-477500D01*
Y-507500D01*
X391334Y-508666D01*
X392500Y-509150D01*
X406817D01*
X423350Y-525683D01*
Y-539317D01*
X416817Y-545850D01*
X385000D01*
X385000Y-545850D01*
X375863D01*
X375657Y-545936D01*
X375436Y-545907D01*
X375095Y-546169D01*
X374697Y-546334D01*
X374611Y-546539D01*
X374435Y-546675D01*
X373800Y-547775D01*
X373770Y-547996D01*
X373635Y-548173D01*
X373691Y-548600D01*
X373635Y-549027D01*
X373761Y-549192D01*
X373755Y-549236D01*
X373793Y-549377D01*
X373800Y-549425D01*
X373812Y-549446D01*
X374324Y-551359D01*
Y-553341D01*
X373812Y-555254D01*
X372821Y-556970D01*
X371420Y-558371D01*
X369704Y-559362D01*
X367791Y-559874D01*
X365809D01*
X363896Y-559362D01*
X362180Y-558371D01*
X360779Y-556970D01*
X359788Y-555254D01*
X359276Y-553341D01*
Y-551359D01*
X359788Y-549446D01*
X360779Y-547730D01*
X362180Y-546329D01*
X363606Y-545506D01*
X363618Y-545490D01*
X363637Y-545487D01*
X364000Y-544992D01*
X364374Y-544504D01*
X364372Y-544485D01*
X364383Y-544469D01*
X364736Y-543026D01*
X364705Y-542824D01*
X364784Y-542634D01*
X364612Y-542221D01*
X364544Y-541778D01*
X364379Y-541657D01*
X364300Y-541468D01*
X329166Y-506334D01*
X328000Y-505850D01*
X287500D01*
X286334Y-506334D01*
X279317Y-513350D01*
X279178D01*
X278793Y-513093D01*
X278005Y-512937D01*
X263495D01*
X262707Y-513093D01*
X262039Y-513539D01*
X262038Y-513542D01*
X261334Y-513834D01*
X260850Y-515000D01*
Y-525000D01*
X261334Y-526166D01*
X262038Y-526458D01*
X262039Y-526461D01*
X262707Y-526907D01*
X263495Y-527063D01*
X278005D01*
X278793Y-526907D01*
X279178Y-526650D01*
X281817D01*
X285850Y-530683D01*
Y-540917D01*
X266107Y-560661D01*
X128893D01*
X101024Y-532792D01*
Y-526476D01*
X94708D01*
X80089Y-511856D01*
Y-478143D01*
X94708Y-463524D01*
X101024D01*
Y-446476D01*
X83976D01*
Y-452792D01*
X67134Y-469634D01*
X65928Y-471205D01*
X65170Y-473036D01*
X64911Y-475000D01*
X64911Y-475000D01*
Y-515000D01*
X64911Y-515000D01*
X65170Y-516964D01*
X65928Y-518794D01*
X67134Y-520366D01*
X83976Y-537208D01*
Y-543524D01*
X90292D01*
X120384Y-573616D01*
X120384Y-573616D01*
X121956Y-574822D01*
X123786Y-575580D01*
X125750Y-575839D01*
X162597D01*
X162722Y-577109D01*
X162650Y-577123D01*
X161600Y-577825D01*
X160898Y-578875D01*
X160652Y-580114D01*
Y-592306D01*
X160898Y-593545D01*
X161600Y-594595D01*
X161721Y-595821D01*
X161029Y-596512D01*
X160226Y-598451D01*
Y-598728D01*
X159053Y-599214D01*
X142185Y-582347D01*
X140823Y-581301D01*
X139235Y-580644D01*
X137532Y-580420D01*
X94726D01*
X61580Y-547274D01*
Y-96726D01*
X86395Y-71911D01*
X117219D01*
X118922Y-71687D01*
X120509Y-71030D01*
X121872Y-69984D01*
X138332Y-53524D01*
X139408D01*
X141741Y-52899D01*
X143833Y-51691D01*
X145541Y-49983D01*
X146749Y-47891D01*
X147374Y-45558D01*
Y-43142D01*
X146749Y-40809D01*
X145541Y-38717D01*
X144780Y-37956D01*
Y-28124D01*
X147374D01*
Y-9776D01*
X129026D01*
Y-28124D01*
X131620D01*
Y-37956D01*
X130859Y-38717D01*
X129651Y-40809D01*
X129026Y-43142D01*
Y-44218D01*
X114494Y-58751D01*
X83669D01*
X81966Y-58975D01*
X80379Y-59632D01*
X79016Y-60678D01*
X50347Y-89347D01*
X49301Y-90710D01*
X48644Y-92297D01*
X48420Y-94000D01*
Y-550000D01*
X48644Y-551703D01*
X49301Y-553290D01*
X50347Y-554653D01*
X87347Y-591653D01*
X88710Y-592699D01*
X90297Y-593356D01*
X92000Y-593580D01*
X134807D01*
X156764Y-615538D01*
X158127Y-616584D01*
X159714Y-617241D01*
X161417Y-617465D01*
X314115D01*
X315818Y-617241D01*
X317405Y-616584D01*
X318768Y-615538D01*
X319814Y-614175D01*
X320471Y-612588D01*
X320695Y-610885D01*
X320689Y-610835D01*
X333104Y-598420D01*
X334104Y-596923D01*
X334455Y-595158D01*
Y-586512D01*
X334428Y-586379D01*
Y-580114D01*
X334182Y-578875D01*
X333480Y-577825D01*
X332430Y-577123D01*
X331191Y-576877D01*
X327889D01*
X326650Y-577123D01*
X325600Y-577825D01*
X325268Y-578322D01*
X323812D01*
X323480Y-577825D01*
X322623Y-577252D01*
Y-572835D01*
X324011Y-571447D01*
X324814Y-569509D01*
Y-567411D01*
X324011Y-565472D01*
X322528Y-563989D01*
X320589Y-563186D01*
X318491D01*
X316553Y-563989D01*
X315293Y-565248D01*
X314540Y-565380D01*
X313787Y-565248D01*
X312528Y-563989D01*
X310589Y-563186D01*
X308491D01*
X306553Y-563989D01*
X305069Y-565472D01*
X304266Y-567411D01*
Y-569509D01*
X305069Y-571447D01*
X306457Y-572835D01*
Y-577252D01*
X305600Y-577825D01*
X304898Y-578875D01*
X304652Y-580114D01*
Y-592306D01*
X304898Y-593545D01*
X305600Y-594595D01*
X306650Y-595297D01*
X307889Y-595543D01*
X311191D01*
X312430Y-595297D01*
X313480Y-594595D01*
X313812Y-594098D01*
X315268D01*
X315600Y-594595D01*
X316650Y-595297D01*
X317889Y-595543D01*
X321138D01*
X321247Y-595663D01*
X321750Y-596727D01*
X314165Y-604311D01*
X314115Y-604305D01*
X190481D01*
X190249Y-604208D01*
X190153Y-603977D01*
Y-593588D01*
X190182Y-593545D01*
X190428Y-592306D01*
Y-580114D01*
X190182Y-578875D01*
X189480Y-577825D01*
X188430Y-577123D01*
X188358Y-577109D01*
X188483Y-575839D01*
X269250D01*
X269250Y-575839D01*
X271214Y-575580D01*
X273044Y-574822D01*
X274616Y-573616D01*
X297583Y-550650D01*
X324917D01*
X378100Y-603833D01*
Y-629000D01*
X378350Y-629604D01*
Y-630000D01*
X378834Y-631166D01*
X380000Y-631650D01*
X380067D01*
X383359Y-634942D01*
X382873Y-636115D01*
X81877D01*
X81391Y-634942D01*
X86666Y-629666D01*
X87150Y-628500D01*
Y-598750D01*
X86666Y-597584D01*
X85500Y-597100D01*
X54500Y-597100D01*
X53334Y-597584D01*
X52850Y-598750D01*
Y-628500D01*
X53334Y-629666D01*
X58609Y-634942D01*
X58123Y-636115D01*
X3884D01*
X3884Y-3884D01*
X501115D01*
X501115Y-636115D01*
D02*
G37*
%LPC*%
G36*
X479128Y-10976D02*
X475872D01*
X472680Y-11611D01*
X469673Y-12857D01*
X466967Y-14665D01*
X464665Y-16967D01*
X462857Y-19673D01*
X461611Y-22680D01*
X460976Y-25872D01*
Y-29128D01*
X461611Y-32320D01*
X462857Y-35327D01*
X464665Y-38033D01*
X466967Y-40335D01*
X469673Y-42143D01*
X472680Y-43389D01*
X475872Y-44024D01*
X479128D01*
X482320Y-43389D01*
X485327Y-42143D01*
X488033Y-40335D01*
X490335Y-38033D01*
X492143Y-35327D01*
X493389Y-32320D01*
X494024Y-29128D01*
Y-25872D01*
X493389Y-22680D01*
X492143Y-19673D01*
X490335Y-16967D01*
X488033Y-14665D01*
X485327Y-12857D01*
X482320Y-11611D01*
X479128Y-10976D01*
D02*
G37*
G36*
X29128D02*
X25872D01*
X22680Y-11611D01*
X19673Y-12857D01*
X16967Y-14665D01*
X14665Y-16967D01*
X12857Y-19673D01*
X11611Y-22680D01*
X10976Y-25872D01*
Y-29128D01*
X11611Y-32320D01*
X12857Y-35327D01*
X14665Y-38033D01*
X16967Y-40335D01*
X19673Y-42143D01*
X22680Y-43389D01*
X25872Y-44024D01*
X29128D01*
X32320Y-43389D01*
X35327Y-42143D01*
X38033Y-40335D01*
X40335Y-38033D01*
X42143Y-35327D01*
X43389Y-32320D01*
X44024Y-29128D01*
Y-25872D01*
X43389Y-22680D01*
X42143Y-19673D01*
X40335Y-16967D01*
X38033Y-14665D01*
X35327Y-12857D01*
X32320Y-11611D01*
X29128Y-10976D01*
D02*
G37*
G36*
X368008Y-35176D02*
X365592D01*
X363259Y-35801D01*
X361167Y-37009D01*
X359459Y-38717D01*
X358251Y-40809D01*
X357626Y-43142D01*
Y-45558D01*
X358251Y-47891D01*
X359459Y-49983D01*
X361167Y-51691D01*
X363259Y-52899D01*
X365592Y-53524D01*
X368008D01*
X370341Y-52899D01*
X372433Y-51691D01*
X374141Y-49983D01*
X375349Y-47891D01*
X375974Y-45558D01*
Y-43142D01*
X375349Y-40809D01*
X374141Y-38717D01*
X372433Y-37009D01*
X370341Y-35801D01*
X368008Y-35176D01*
D02*
G37*
G36*
Y-60576D02*
X365592D01*
X363259Y-61201D01*
X361167Y-62409D01*
X359459Y-64117D01*
X358251Y-66209D01*
X357626Y-68542D01*
Y-70958D01*
X358251Y-73291D01*
X359459Y-75383D01*
X361167Y-77091D01*
X363259Y-78299D01*
X365592Y-78924D01*
X368008D01*
X370341Y-78299D01*
X372433Y-77091D01*
X374141Y-75383D01*
X375349Y-73291D01*
X375974Y-70958D01*
Y-68542D01*
X375349Y-66209D01*
X374141Y-64117D01*
X372433Y-62409D01*
X370341Y-61201D01*
X368008Y-60576D01*
D02*
G37*
G36*
X139408D02*
X136992D01*
X134659Y-61201D01*
X132567Y-62409D01*
X130859Y-64117D01*
X129651Y-66209D01*
X129026Y-68542D01*
Y-70958D01*
X129651Y-73291D01*
X130859Y-75383D01*
X132567Y-77091D01*
X134659Y-78299D01*
X136992Y-78924D01*
X139408D01*
X141741Y-78299D01*
X143833Y-77091D01*
X145541Y-75383D01*
X146749Y-73291D01*
X147374Y-70958D01*
Y-68542D01*
X146749Y-66209D01*
X145541Y-64117D01*
X143833Y-62409D01*
X141741Y-61201D01*
X139408Y-60576D01*
D02*
G37*
G36*
X413688Y-85976D02*
X411312D01*
X409017Y-86591D01*
X406959Y-87779D01*
X405279Y-89459D01*
X404091Y-91517D01*
X403476Y-93812D01*
Y-96188D01*
X404091Y-98483D01*
X405279Y-100541D01*
X406959Y-102221D01*
X409017Y-103409D01*
X411312Y-104024D01*
X413688D01*
X415983Y-103409D01*
X418041Y-102221D01*
X419721Y-100541D01*
X420909Y-98483D01*
X421524Y-96188D01*
Y-93812D01*
X420909Y-91517D01*
X419721Y-89459D01*
X418041Y-87779D01*
X415983Y-86591D01*
X413688Y-85976D01*
D02*
G37*
G36*
X368008D02*
X365592D01*
X363259Y-86601D01*
X361167Y-87809D01*
X359459Y-89517D01*
X358251Y-91609D01*
X357626Y-93942D01*
Y-96358D01*
X358251Y-98691D01*
X359459Y-100783D01*
X361167Y-102491D01*
X363259Y-103699D01*
X365592Y-104324D01*
X368008D01*
X370341Y-103699D01*
X372433Y-102491D01*
X374141Y-100783D01*
X375349Y-98691D01*
X375974Y-96358D01*
Y-93942D01*
X375349Y-91609D01*
X374141Y-89517D01*
X372433Y-87809D01*
X370341Y-86601D01*
X368008Y-85976D01*
D02*
G37*
G36*
X139408D02*
X136992D01*
X134659Y-86601D01*
X132567Y-87809D01*
X130859Y-89517D01*
X129651Y-91609D01*
X129026Y-93942D01*
Y-96358D01*
X129651Y-98691D01*
X130384Y-99960D01*
X94224Y-136120D01*
X93688Y-135976D01*
X91312D01*
X89017Y-136591D01*
X86959Y-137779D01*
X85279Y-139459D01*
X84091Y-141517D01*
X83476Y-143812D01*
Y-146188D01*
X84091Y-148483D01*
X85279Y-150541D01*
X86959Y-152221D01*
X89017Y-153409D01*
X91312Y-154024D01*
X93688D01*
X95983Y-153409D01*
X98041Y-152221D01*
X99721Y-150541D01*
X100909Y-148483D01*
X101524Y-146188D01*
Y-143812D01*
X100909Y-141517D01*
X100206Y-140300D01*
X136354Y-104153D01*
X136992Y-104324D01*
X139408D01*
X141741Y-103699D01*
X143833Y-102491D01*
X145541Y-100783D01*
X146749Y-98691D01*
X147374Y-96358D01*
Y-93942D01*
X146749Y-91609D01*
X145541Y-89517D01*
X143833Y-87809D01*
X141741Y-86601D01*
X139408Y-85976D01*
D02*
G37*
G36*
X413688Y-110976D02*
X411312D01*
X409017Y-111591D01*
X406959Y-112779D01*
X405279Y-114459D01*
X404091Y-116517D01*
X403476Y-118812D01*
Y-121188D01*
X404091Y-123483D01*
X405279Y-125541D01*
X406959Y-127221D01*
X409017Y-128409D01*
X411312Y-129024D01*
X413688D01*
X415983Y-128409D01*
X418041Y-127221D01*
X419721Y-125541D01*
X420909Y-123483D01*
X421524Y-121188D01*
Y-118812D01*
X420909Y-116517D01*
X419721Y-114459D01*
X418041Y-112779D01*
X415983Y-111591D01*
X413688Y-110976D01*
D02*
G37*
G36*
X368008Y-111376D02*
X365592D01*
X363259Y-112001D01*
X361167Y-113209D01*
X359459Y-114917D01*
X358251Y-117009D01*
X357626Y-119342D01*
Y-121758D01*
X358251Y-124091D01*
X359459Y-126183D01*
X361167Y-127891D01*
X363259Y-129099D01*
X365592Y-129724D01*
X368008D01*
X370341Y-129099D01*
X372433Y-127891D01*
X374141Y-126183D01*
X375349Y-124091D01*
X375974Y-121758D01*
Y-119342D01*
X375349Y-117009D01*
X374141Y-114917D01*
X372433Y-113209D01*
X370341Y-112001D01*
X368008Y-111376D01*
D02*
G37*
G36*
X139408D02*
X136992D01*
X134659Y-112001D01*
X132567Y-113209D01*
X130859Y-114917D01*
X129651Y-117009D01*
X129026Y-119342D01*
Y-121758D01*
X129651Y-124091D01*
X130311Y-125233D01*
X94382Y-161162D01*
X93688Y-160976D01*
X91312D01*
X89017Y-161591D01*
X86959Y-162779D01*
X85279Y-164459D01*
X84091Y-166517D01*
X83476Y-168812D01*
Y-171188D01*
X84091Y-173483D01*
X85279Y-175541D01*
X86959Y-177221D01*
X89017Y-178409D01*
X91312Y-179024D01*
X93688D01*
X95983Y-178409D01*
X98041Y-177221D01*
X99721Y-175541D01*
X100909Y-173483D01*
X101524Y-171188D01*
Y-168812D01*
X100909Y-166517D01*
X100280Y-165427D01*
X136196Y-129511D01*
X136992Y-129724D01*
X139408D01*
X141741Y-129099D01*
X143833Y-127891D01*
X145541Y-126183D01*
X146749Y-124091D01*
X147374Y-121758D01*
Y-119342D01*
X146749Y-117009D01*
X145541Y-114917D01*
X143833Y-113209D01*
X141741Y-112001D01*
X139408Y-111376D01*
D02*
G37*
G36*
X413688Y-135976D02*
X411312D01*
X409017Y-136591D01*
X406959Y-137779D01*
X405279Y-139459D01*
X404091Y-141517D01*
X403476Y-143812D01*
Y-146188D01*
X404091Y-148483D01*
X405279Y-150541D01*
X406959Y-152221D01*
X409017Y-153409D01*
X411312Y-154024D01*
X413688D01*
X415983Y-153409D01*
X418041Y-152221D01*
X419721Y-150541D01*
X420909Y-148483D01*
X421524Y-146188D01*
Y-143812D01*
X420909Y-141517D01*
X419721Y-139459D01*
X418041Y-137779D01*
X415983Y-136591D01*
X413688Y-135976D01*
D02*
G37*
G36*
X139408Y-136776D02*
X136992D01*
X134659Y-137401D01*
X132567Y-138609D01*
X130859Y-140317D01*
X129651Y-142409D01*
X129026Y-144742D01*
Y-147158D01*
X129651Y-149491D01*
X130237Y-150506D01*
X94539Y-186204D01*
X93688Y-185976D01*
X91312D01*
X89017Y-186591D01*
X86959Y-187779D01*
X85279Y-189459D01*
X84091Y-191517D01*
X83476Y-193812D01*
Y-196188D01*
X84091Y-198483D01*
X85279Y-200541D01*
X86959Y-202221D01*
X89017Y-203409D01*
X91312Y-204024D01*
X93688D01*
X95983Y-203409D01*
X98041Y-202221D01*
X99721Y-200541D01*
X100909Y-198483D01*
X101524Y-196188D01*
Y-193812D01*
X100909Y-191517D01*
X100353Y-190553D01*
X136038Y-154868D01*
X136992Y-155124D01*
X139408D01*
X141741Y-154499D01*
X143833Y-153291D01*
X145541Y-151583D01*
X146749Y-149491D01*
X147374Y-147158D01*
Y-144742D01*
X146749Y-142409D01*
X145541Y-140317D01*
X143833Y-138609D01*
X141741Y-137401D01*
X139408Y-136776D01*
D02*
G37*
G36*
X368008D02*
X365592D01*
X363259Y-137401D01*
X361167Y-138609D01*
X359459Y-140317D01*
X358251Y-142409D01*
X357626Y-144742D01*
Y-147158D01*
X358251Y-149491D01*
X359459Y-151583D01*
X361167Y-153291D01*
X362632Y-154137D01*
X362292Y-155407D01*
X175950D01*
X174575Y-155681D01*
X173409Y-156459D01*
X141683Y-188186D01*
X139408Y-187576D01*
X136992D01*
X134659Y-188201D01*
X132567Y-189409D01*
X130859Y-191117D01*
X129651Y-193209D01*
X129026Y-195542D01*
Y-197958D01*
X129651Y-200291D01*
X130859Y-202383D01*
X132567Y-204091D01*
X134659Y-205299D01*
X136992Y-205924D01*
X139408D01*
X141741Y-205299D01*
X143833Y-204091D01*
X145541Y-202383D01*
X146749Y-200291D01*
X147374Y-197958D01*
Y-195542D01*
X146764Y-193267D01*
X177438Y-162593D01*
X361079D01*
X361420Y-163863D01*
X361167Y-164009D01*
X359459Y-165717D01*
X358251Y-167809D01*
X357626Y-170142D01*
Y-172558D01*
X358251Y-174891D01*
X359459Y-176983D01*
X361167Y-178691D01*
X363259Y-179899D01*
X365592Y-180524D01*
X368008D01*
X370341Y-179899D01*
X372433Y-178691D01*
X374141Y-176983D01*
X375349Y-174891D01*
X375974Y-172558D01*
Y-170142D01*
X375349Y-167809D01*
X374141Y-165717D01*
X372433Y-164009D01*
X372180Y-163863D01*
X372521Y-162593D01*
X378332D01*
X388280Y-172541D01*
X389445Y-173319D01*
X390820Y-173593D01*
X404155D01*
X405279Y-175541D01*
X406959Y-177221D01*
X409017Y-178409D01*
X411312Y-179024D01*
X413688D01*
X415983Y-178409D01*
X418041Y-177221D01*
X419721Y-175541D01*
X420909Y-173483D01*
X421524Y-171188D01*
Y-168812D01*
X420909Y-166517D01*
X419721Y-164459D01*
X418041Y-162779D01*
X415983Y-161591D01*
X413688Y-160976D01*
X411312D01*
X409017Y-161591D01*
X406959Y-162779D01*
X405279Y-164459D01*
X404155Y-166407D01*
X392309D01*
X382361Y-156459D01*
X381195Y-155681D01*
X379820Y-155407D01*
X371308D01*
X370968Y-154137D01*
X372433Y-153291D01*
X374141Y-151583D01*
X375349Y-149491D01*
X375974Y-147158D01*
Y-144742D01*
X375349Y-142409D01*
X374141Y-140317D01*
X372433Y-138609D01*
X370341Y-137401D01*
X368008Y-136776D01*
D02*
G37*
G36*
X139408Y-162176D02*
X136992D01*
X134659Y-162801D01*
X132567Y-164009D01*
X130859Y-165717D01*
X129651Y-167809D01*
X129026Y-170142D01*
Y-172558D01*
X129651Y-174891D01*
X130164Y-175779D01*
X94697Y-211246D01*
X93688Y-210976D01*
X91312D01*
X89017Y-211591D01*
X86959Y-212779D01*
X85279Y-214459D01*
X84091Y-216517D01*
X83476Y-218812D01*
Y-221188D01*
X84091Y-223483D01*
X85279Y-225541D01*
X86959Y-227221D01*
X89017Y-228409D01*
X91312Y-229024D01*
X93688D01*
X95983Y-228409D01*
X98041Y-227221D01*
X99721Y-225541D01*
X100909Y-223483D01*
X101524Y-221188D01*
Y-218812D01*
X100909Y-216517D01*
X100426Y-215680D01*
X135880Y-180226D01*
X136992Y-180524D01*
X139408D01*
X141741Y-179899D01*
X143833Y-178691D01*
X145541Y-176983D01*
X146749Y-174891D01*
X147374Y-172558D01*
Y-170142D01*
X146749Y-167809D01*
X145541Y-165717D01*
X143833Y-164009D01*
X141741Y-162801D01*
X139408Y-162176D01*
D02*
G37*
G36*
X413688Y-185976D02*
X411312D01*
X409017Y-186591D01*
X406959Y-187779D01*
X405279Y-189459D01*
X404155Y-191407D01*
X395000D01*
X393625Y-191680D01*
X392459Y-192459D01*
X378512Y-206407D01*
X370913D01*
X370621Y-205137D01*
X372433Y-204091D01*
X374141Y-202383D01*
X375349Y-200291D01*
X375974Y-197958D01*
Y-195542D01*
X375349Y-193209D01*
X374141Y-191117D01*
X372433Y-189409D01*
X370341Y-188201D01*
X368008Y-187576D01*
X365592D01*
X363259Y-188201D01*
X361167Y-189409D01*
X359459Y-191117D01*
X358251Y-193209D01*
X357626Y-195542D01*
Y-197958D01*
X358251Y-200291D01*
X359459Y-202383D01*
X361167Y-204091D01*
X362979Y-205137D01*
X362687Y-206407D01*
X150350D01*
X148975Y-206681D01*
X147809Y-207459D01*
X141683Y-213586D01*
X139408Y-212976D01*
X136992D01*
X134659Y-213601D01*
X132567Y-214809D01*
X130859Y-216517D01*
X129651Y-218609D01*
X129026Y-220942D01*
Y-223358D01*
X129651Y-225691D01*
X130859Y-227783D01*
X132567Y-229491D01*
X134659Y-230699D01*
X136992Y-231324D01*
X139408D01*
X141741Y-230699D01*
X143833Y-229491D01*
X145541Y-227783D01*
X146749Y-225691D01*
X147374Y-223358D01*
Y-220942D01*
X146764Y-218667D01*
X151838Y-213593D01*
X360733D01*
X361098Y-214616D01*
X361113Y-214863D01*
X359459Y-216517D01*
X358251Y-218609D01*
X357626Y-220942D01*
Y-223358D01*
X358251Y-225691D01*
X359459Y-227783D01*
X361167Y-229491D01*
X362286Y-230137D01*
X361946Y-231407D01*
X150750D01*
X149375Y-231681D01*
X148209Y-232459D01*
X141683Y-238986D01*
X139408Y-238376D01*
X136992D01*
X134659Y-239001D01*
X132567Y-240209D01*
X130859Y-241917D01*
X129651Y-244009D01*
X129026Y-246342D01*
Y-248758D01*
X129651Y-251091D01*
X130859Y-253183D01*
X132567Y-254891D01*
X134659Y-256099D01*
X136992Y-256724D01*
X139408D01*
X141741Y-256099D01*
X143833Y-254891D01*
X145541Y-253183D01*
X146749Y-251091D01*
X147374Y-248758D01*
Y-246342D01*
X146764Y-244067D01*
X152238Y-238593D01*
X361426D01*
X361766Y-239863D01*
X361167Y-240209D01*
X359459Y-241917D01*
X358251Y-244009D01*
X357626Y-246342D01*
Y-248758D01*
X358251Y-251091D01*
X359459Y-253183D01*
X361167Y-254891D01*
X361593Y-255137D01*
X361253Y-256407D01*
X151150D01*
X149775Y-256681D01*
X148609Y-257459D01*
X141683Y-264386D01*
X139408Y-263776D01*
X136992D01*
X134659Y-264401D01*
X132567Y-265609D01*
X130859Y-267317D01*
X129651Y-269409D01*
X129026Y-271742D01*
Y-274158D01*
X129651Y-276491D01*
X130859Y-278583D01*
X132567Y-280291D01*
X134659Y-281499D01*
X136992Y-282124D01*
X139408D01*
X141741Y-281499D01*
X143833Y-280291D01*
X145541Y-278583D01*
X146749Y-276491D01*
X147374Y-274158D01*
Y-271742D01*
X146764Y-269467D01*
X152638Y-263593D01*
X362119D01*
X362459Y-264863D01*
X361167Y-265609D01*
X359459Y-267317D01*
X358251Y-269409D01*
X357626Y-271742D01*
Y-274158D01*
X358251Y-276491D01*
X359459Y-278583D01*
X361167Y-280291D01*
X363259Y-281499D01*
X365592Y-282124D01*
X368008D01*
X370341Y-281499D01*
X372433Y-280291D01*
X374141Y-278583D01*
X375349Y-276491D01*
X375974Y-274158D01*
Y-271742D01*
X375349Y-269409D01*
X374141Y-267317D01*
X372433Y-265609D01*
X371141Y-264863D01*
X371481Y-263593D01*
X418512D01*
X426407Y-271488D01*
Y-306012D01*
X415860Y-316558D01*
X413688Y-315976D01*
X411312D01*
X409017Y-316591D01*
X406959Y-317779D01*
X405279Y-319459D01*
X404091Y-321517D01*
X403476Y-323812D01*
Y-326188D01*
X404091Y-328483D01*
X405279Y-330541D01*
X406959Y-332221D01*
X409017Y-333409D01*
X411312Y-334024D01*
X413688D01*
X415983Y-333409D01*
X418041Y-332221D01*
X419721Y-330541D01*
X420909Y-328483D01*
X421524Y-326188D01*
Y-323812D01*
X420942Y-321639D01*
X432541Y-310041D01*
X433320Y-308875D01*
X433593Y-307500D01*
Y-270000D01*
X433320Y-268625D01*
X432541Y-267459D01*
X422541Y-257459D01*
X421375Y-256681D01*
X420000Y-256407D01*
X372347D01*
X372007Y-255137D01*
X372433Y-254891D01*
X374141Y-253183D01*
X375349Y-251091D01*
X375974Y-248758D01*
Y-246342D01*
X375349Y-244009D01*
X374141Y-241917D01*
X372433Y-240209D01*
X371834Y-239863D01*
X372174Y-238593D01*
X375000D01*
X376375Y-238319D01*
X377541Y-237541D01*
X391488Y-223593D01*
X403476D01*
Y-229024D01*
X421524D01*
Y-210976D01*
X403476D01*
Y-216407D01*
X390000D01*
X388625Y-216680D01*
X387459Y-217459D01*
X373512Y-231407D01*
X371655D01*
X371314Y-230137D01*
X372433Y-229491D01*
X374141Y-227783D01*
X375349Y-225691D01*
X375974Y-223358D01*
Y-220942D01*
X375349Y-218609D01*
X374141Y-216517D01*
X372487Y-214863D01*
X372502Y-214616D01*
X372867Y-213593D01*
X380000D01*
X381375Y-213319D01*
X382541Y-212541D01*
X396488Y-198593D01*
X404155D01*
X405279Y-200541D01*
X406959Y-202221D01*
X409017Y-203409D01*
X411312Y-204024D01*
X413688D01*
X415983Y-203409D01*
X418041Y-202221D01*
X419721Y-200541D01*
X420909Y-198483D01*
X421524Y-196188D01*
Y-193812D01*
X420909Y-191517D01*
X419721Y-189459D01*
X418041Y-187779D01*
X415983Y-186591D01*
X413688Y-185976D01*
D02*
G37*
G36*
X368008Y-289176D02*
X365592D01*
X363259Y-289801D01*
X361167Y-291009D01*
X359459Y-292717D01*
X358251Y-294809D01*
X357626Y-297142D01*
Y-299558D01*
X358251Y-301891D01*
X359459Y-303983D01*
X361167Y-305691D01*
X363259Y-306899D01*
X365592Y-307524D01*
X368008D01*
X370341Y-306899D01*
X372433Y-305691D01*
X374141Y-303983D01*
X375349Y-301891D01*
X375974Y-299558D01*
Y-297142D01*
X375349Y-294809D01*
X374141Y-292717D01*
X372433Y-291009D01*
X370341Y-289801D01*
X368008Y-289176D01*
D02*
G37*
G36*
X139408D02*
X136992D01*
X134659Y-289801D01*
X132567Y-291009D01*
X130859Y-292717D01*
X129651Y-294809D01*
X129026Y-297142D01*
Y-299558D01*
X129636Y-301833D01*
X110062Y-321407D01*
X100846D01*
X99721Y-319459D01*
X98041Y-317779D01*
X95983Y-316591D01*
X93688Y-315976D01*
X91312D01*
X89017Y-316591D01*
X86959Y-317779D01*
X85279Y-319459D01*
X84091Y-321517D01*
X83476Y-323812D01*
Y-326188D01*
X84091Y-328483D01*
X85279Y-330541D01*
X86959Y-332221D01*
X89017Y-333409D01*
X91312Y-334024D01*
X93688D01*
X95983Y-333409D01*
X98041Y-332221D01*
X99721Y-330541D01*
X100846Y-328593D01*
X111550D01*
X112925Y-328320D01*
X114091Y-327541D01*
X134717Y-306914D01*
X136992Y-307524D01*
X139408D01*
X141741Y-306899D01*
X143833Y-305691D01*
X145541Y-303983D01*
X146749Y-301891D01*
X147374Y-299558D01*
Y-297142D01*
X146749Y-294809D01*
X145541Y-292717D01*
X143833Y-291009D01*
X141741Y-289801D01*
X139408Y-289176D01*
D02*
G37*
G36*
X368008Y-314576D02*
X365592D01*
X363259Y-315201D01*
X361167Y-316409D01*
X359459Y-318117D01*
X358251Y-320209D01*
X357626Y-322542D01*
Y-324958D01*
X358251Y-327291D01*
X359459Y-329383D01*
X361167Y-331091D01*
X363259Y-332299D01*
X365592Y-332924D01*
X368008D01*
X370341Y-332299D01*
X372433Y-331091D01*
X374141Y-329383D01*
X375349Y-327291D01*
X375974Y-324958D01*
Y-322542D01*
X375349Y-320209D01*
X374141Y-318117D01*
X372433Y-316409D01*
X370341Y-315201D01*
X368008Y-314576D01*
D02*
G37*
G36*
X139408D02*
X136992D01*
X134659Y-315201D01*
X132567Y-316409D01*
X130859Y-318117D01*
X129651Y-320209D01*
X129026Y-322542D01*
Y-324958D01*
X129651Y-327291D01*
X130859Y-329383D01*
X132567Y-331091D01*
X134659Y-332299D01*
X136992Y-332924D01*
X139408D01*
X141741Y-332299D01*
X143833Y-331091D01*
X145541Y-329383D01*
X146749Y-327291D01*
X147374Y-324958D01*
Y-322542D01*
X146749Y-320209D01*
X145541Y-318117D01*
X143833Y-316409D01*
X141741Y-315201D01*
X139408Y-314576D01*
D02*
G37*
G36*
X368008Y-339976D02*
X365592D01*
X363259Y-340601D01*
X361167Y-341809D01*
X359459Y-343517D01*
X358251Y-345609D01*
X357626Y-347942D01*
Y-350358D01*
X358251Y-352691D01*
X359459Y-354783D01*
X361167Y-356491D01*
X363259Y-357699D01*
X365592Y-358324D01*
X368008D01*
X370341Y-357699D01*
X372433Y-356491D01*
X374141Y-354783D01*
X375349Y-352691D01*
X375974Y-350358D01*
Y-347942D01*
X375349Y-345609D01*
X374141Y-343517D01*
X372433Y-341809D01*
X370341Y-340601D01*
X368008Y-339976D01*
D02*
G37*
G36*
X139408D02*
X136992D01*
X134659Y-340601D01*
X132567Y-341809D01*
X130859Y-343517D01*
X129651Y-345609D01*
X129026Y-347942D01*
Y-350358D01*
X129651Y-352691D01*
X130859Y-354783D01*
X132567Y-356491D01*
X134659Y-357699D01*
X136992Y-358324D01*
X139408D01*
X141741Y-357699D01*
X143833Y-356491D01*
X145541Y-354783D01*
X146749Y-352691D01*
X147374Y-350358D01*
Y-347942D01*
X146749Y-345609D01*
X145541Y-343517D01*
X143833Y-341809D01*
X141741Y-340601D01*
X139408Y-339976D01*
D02*
G37*
G36*
X368008Y-365376D02*
X365592D01*
X363259Y-366001D01*
X361167Y-367209D01*
X359459Y-368917D01*
X358251Y-371009D01*
X357626Y-373342D01*
Y-375758D01*
X358251Y-378091D01*
X359459Y-380183D01*
X361167Y-381891D01*
X363259Y-383099D01*
X365592Y-383724D01*
X368008D01*
X370341Y-383099D01*
X372433Y-381891D01*
X374141Y-380183D01*
X375349Y-378091D01*
X375974Y-375758D01*
Y-373342D01*
X375349Y-371009D01*
X374141Y-368917D01*
X372433Y-367209D01*
X370341Y-366001D01*
X368008Y-365376D01*
D02*
G37*
G36*
X93688Y-340976D02*
X91312D01*
X89017Y-341591D01*
X86959Y-342779D01*
X85279Y-344459D01*
X84091Y-346517D01*
X83476Y-348812D01*
Y-351188D01*
X84091Y-353483D01*
X85279Y-355541D01*
X86959Y-357221D01*
X89017Y-358409D01*
X91312Y-359024D01*
X93688D01*
X95861Y-358442D01*
X114509Y-377091D01*
X115675Y-377869D01*
X117050Y-378143D01*
X129681D01*
X130859Y-380183D01*
X132567Y-381891D01*
X134659Y-383099D01*
X136992Y-383724D01*
X139408D01*
X141741Y-383099D01*
X143833Y-381891D01*
X145541Y-380183D01*
X146749Y-378091D01*
X147374Y-375758D01*
Y-373342D01*
X146749Y-371009D01*
X145541Y-368917D01*
X143833Y-367209D01*
X141741Y-366001D01*
X139408Y-365376D01*
X136992D01*
X134659Y-366001D01*
X132567Y-367209D01*
X130859Y-368917D01*
X129681Y-370957D01*
X118538D01*
X100942Y-353360D01*
X101524Y-351188D01*
Y-348812D01*
X100909Y-346517D01*
X99721Y-344459D01*
X98041Y-342779D01*
X95983Y-341591D01*
X93688Y-340976D01*
D02*
G37*
G36*
Y-365976D02*
X91312D01*
X89017Y-366591D01*
X86959Y-367779D01*
X85279Y-369459D01*
X84091Y-371517D01*
X83476Y-373812D01*
Y-376188D01*
X84091Y-378483D01*
X85279Y-380541D01*
X86959Y-382221D01*
X89017Y-383409D01*
X91312Y-384024D01*
X93688D01*
X95861Y-383442D01*
X114909Y-402491D01*
X116075Y-403270D01*
X117450Y-403543D01*
X129681D01*
X130859Y-405583D01*
X132567Y-407291D01*
X134659Y-408499D01*
X136992Y-409124D01*
X139408D01*
X141741Y-408499D01*
X143833Y-407291D01*
X145541Y-405583D01*
X146749Y-403491D01*
X147374Y-401158D01*
Y-398742D01*
X146749Y-396409D01*
X145541Y-394317D01*
X143833Y-392609D01*
X141741Y-391401D01*
X139408Y-390776D01*
X136992D01*
X134659Y-391401D01*
X132567Y-392609D01*
X130859Y-394317D01*
X129681Y-396357D01*
X118938D01*
X100942Y-378360D01*
X101524Y-376188D01*
Y-373812D01*
X100909Y-371517D01*
X99721Y-369459D01*
X98041Y-367779D01*
X95983Y-366591D01*
X93688Y-365976D01*
D02*
G37*
G36*
X413688Y-340976D02*
X411312D01*
X409017Y-341591D01*
X406959Y-342779D01*
X405279Y-344459D01*
X404091Y-346517D01*
X403476Y-348812D01*
Y-351188D01*
X404091Y-353483D01*
X405279Y-355541D01*
X406959Y-357221D01*
X409017Y-358409D01*
X411312Y-359024D01*
X413688D01*
X415860Y-358442D01*
X436407Y-378988D01*
Y-408512D01*
X429824Y-415095D01*
X428593Y-414530D01*
Y-387500D01*
X428320Y-386125D01*
X427541Y-384959D01*
X420942Y-378360D01*
X421524Y-376188D01*
Y-373812D01*
X420909Y-371517D01*
X419721Y-369459D01*
X418041Y-367779D01*
X415983Y-366591D01*
X413688Y-365976D01*
X411312D01*
X409017Y-366591D01*
X406959Y-367779D01*
X405279Y-369459D01*
X404091Y-371517D01*
X403476Y-373812D01*
Y-376188D01*
X404091Y-378483D01*
X405279Y-380541D01*
X406959Y-382221D01*
X409017Y-383409D01*
X411312Y-384024D01*
X413688D01*
X415860Y-383442D01*
X421407Y-388988D01*
Y-390976D01*
X403476D01*
Y-396357D01*
X375319D01*
X374141Y-394317D01*
X372433Y-392609D01*
X370341Y-391401D01*
X368008Y-390776D01*
X365592D01*
X363259Y-391401D01*
X361167Y-392609D01*
X359459Y-394317D01*
X358251Y-396409D01*
X357626Y-398742D01*
Y-401158D01*
X358251Y-403491D01*
X359459Y-405583D01*
X361167Y-407291D01*
X363259Y-408499D01*
X365592Y-409124D01*
X368008D01*
X370341Y-408499D01*
X372433Y-407291D01*
X374141Y-405583D01*
X375319Y-403543D01*
X403476D01*
Y-409024D01*
X421407D01*
Y-413512D01*
X413162Y-421757D01*
X375319D01*
X374141Y-419717D01*
X372433Y-418009D01*
X370341Y-416801D01*
X368008Y-416176D01*
X365592D01*
X363259Y-416801D01*
X361167Y-418009D01*
X359459Y-419717D01*
X358251Y-421809D01*
X357626Y-424142D01*
Y-426558D01*
X358251Y-428891D01*
X359459Y-430983D01*
X361167Y-432691D01*
X363259Y-433899D01*
X365592Y-434524D01*
X368008D01*
X370341Y-433899D01*
X372433Y-432691D01*
X374141Y-430983D01*
X375319Y-428943D01*
X414180D01*
X414745Y-430174D01*
X397837Y-447081D01*
X375275D01*
X374141Y-445117D01*
X372433Y-443409D01*
X370341Y-442201D01*
X368008Y-441576D01*
X365592D01*
X363259Y-442201D01*
X361167Y-443409D01*
X359459Y-445117D01*
X358251Y-447209D01*
X357626Y-449542D01*
Y-451958D01*
X358251Y-454291D01*
X359459Y-456383D01*
X361167Y-458091D01*
X363259Y-459299D01*
X365592Y-459924D01*
X368008D01*
X370341Y-459299D01*
X372433Y-458091D01*
X374141Y-456383D01*
X375349Y-454291D01*
X375355Y-454267D01*
X399326D01*
X400701Y-453994D01*
X401866Y-453215D01*
X442541Y-412541D01*
X443320Y-411375D01*
X443593Y-410000D01*
Y-377500D01*
X443320Y-376125D01*
X442541Y-374959D01*
X420942Y-353360D01*
X421524Y-351188D01*
Y-348812D01*
X420909Y-346517D01*
X419721Y-344459D01*
X418041Y-342779D01*
X415983Y-341591D01*
X413688Y-340976D01*
D02*
G37*
G36*
X93688Y-390976D02*
X91312D01*
X89017Y-391591D01*
X86959Y-392779D01*
X85279Y-394459D01*
X84091Y-396517D01*
X83476Y-398812D01*
Y-401188D01*
X84091Y-403483D01*
X85279Y-405541D01*
X86959Y-407221D01*
X89017Y-408409D01*
X91312Y-409024D01*
X93688D01*
X95861Y-408442D01*
X115309Y-427891D01*
X116475Y-428670D01*
X117850Y-428943D01*
X129681D01*
X130859Y-430983D01*
X132567Y-432691D01*
X134659Y-433899D01*
X136992Y-434524D01*
X139408D01*
X141741Y-433899D01*
X143833Y-432691D01*
X145541Y-430983D01*
X146749Y-428891D01*
X147374Y-426558D01*
Y-424142D01*
X146749Y-421809D01*
X145541Y-419717D01*
X143833Y-418009D01*
X141741Y-416801D01*
X139408Y-416176D01*
X136992D01*
X134659Y-416801D01*
X132567Y-418009D01*
X130859Y-419717D01*
X129681Y-421757D01*
X119338D01*
X100942Y-403360D01*
X101524Y-401188D01*
Y-398812D01*
X100909Y-396517D01*
X99721Y-394459D01*
X98041Y-392779D01*
X95983Y-391591D01*
X93688Y-390976D01*
D02*
G37*
G36*
X139408Y-441576D02*
X136992D01*
X134659Y-442201D01*
X132567Y-443409D01*
X130859Y-445117D01*
X129651Y-447209D01*
X129026Y-449542D01*
Y-451958D01*
X129651Y-454291D01*
X130859Y-456383D01*
X132567Y-458091D01*
X134659Y-459299D01*
X136992Y-459924D01*
X139408D01*
X141741Y-459299D01*
X143833Y-458091D01*
X145541Y-456383D01*
X146749Y-454291D01*
X147374Y-451958D01*
Y-449542D01*
X146749Y-447209D01*
X145541Y-445117D01*
X143833Y-443409D01*
X141741Y-442201D01*
X139408Y-441576D01*
D02*
G37*
G36*
X368008Y-466976D02*
X365592D01*
X363259Y-467601D01*
X361167Y-468809D01*
X359459Y-470517D01*
X358251Y-472609D01*
X357626Y-474942D01*
Y-477358D01*
X358251Y-479691D01*
X359459Y-481783D01*
X361167Y-483491D01*
X363259Y-484699D01*
X365592Y-485324D01*
X368008D01*
X370341Y-484699D01*
X372433Y-483491D01*
X374141Y-481783D01*
X375349Y-479691D01*
X375974Y-477358D01*
Y-474942D01*
X375349Y-472609D01*
X374141Y-470517D01*
X372433Y-468809D01*
X370341Y-467601D01*
X368008Y-466976D01*
D02*
G37*
G36*
X139408D02*
X136992D01*
X134659Y-467601D01*
X132567Y-468809D01*
X130859Y-470517D01*
X129651Y-472609D01*
X129026Y-474942D01*
Y-477358D01*
X129651Y-479691D01*
X130859Y-481783D01*
X132567Y-483491D01*
X134659Y-484699D01*
X136992Y-485324D01*
X139408D01*
X141741Y-484699D01*
X143833Y-483491D01*
X145541Y-481783D01*
X146749Y-479691D01*
X147374Y-477358D01*
Y-474942D01*
X146749Y-472609D01*
X145541Y-470517D01*
X143833Y-468809D01*
X141741Y-467601D01*
X139408Y-466976D01*
D02*
G37*
G36*
X368008Y-492376D02*
X365592D01*
X363259Y-493001D01*
X361167Y-494209D01*
X359459Y-495917D01*
X358251Y-498009D01*
X357626Y-500342D01*
Y-502758D01*
X358251Y-505091D01*
X359459Y-507183D01*
X361167Y-508891D01*
X363259Y-510099D01*
X365592Y-510724D01*
X368008D01*
X370341Y-510099D01*
X372433Y-508891D01*
X374141Y-507183D01*
X375349Y-505091D01*
X375974Y-502758D01*
Y-500342D01*
X375349Y-498009D01*
X374141Y-495917D01*
X372433Y-494209D01*
X370341Y-493001D01*
X368008Y-492376D01*
D02*
G37*
G36*
X139408D02*
X136992D01*
X134659Y-493001D01*
X132567Y-494209D01*
X130859Y-495917D01*
X129651Y-498009D01*
X129026Y-500342D01*
Y-502758D01*
X129651Y-505091D01*
X130859Y-507183D01*
X132567Y-508891D01*
X134659Y-510099D01*
X136992Y-510724D01*
X139408D01*
X141741Y-510099D01*
X143833Y-508891D01*
X145541Y-507183D01*
X146749Y-505091D01*
X147374Y-502758D01*
Y-500342D01*
X146749Y-498009D01*
X145541Y-495917D01*
X143833Y-494209D01*
X141741Y-493001D01*
X139408Y-492376D01*
D02*
G37*
G36*
X204000Y-464350D02*
X191500D01*
X190334Y-464834D01*
X139317Y-515850D01*
X127500D01*
X126334Y-516334D01*
X125850Y-517500D01*
Y-540000D01*
X126334Y-541166D01*
X127500Y-541650D01*
X178317D01*
X193834Y-557166D01*
X195000Y-557650D01*
X212000D01*
X213166Y-557166D01*
X213650Y-556000D01*
Y-534500D01*
X213166Y-533334D01*
X201166Y-521334D01*
X200000Y-520850D01*
X181650D01*
Y-494150D01*
X184048D01*
X184976Y-494976D01*
Y-513024D01*
X194942D01*
X201209Y-519291D01*
X202375Y-520070D01*
X203750Y-520343D01*
X213925D01*
X214936Y-521495D01*
Y-525005D01*
X215093Y-525793D01*
X215516Y-526500D01*
X215093Y-527207D01*
X214936Y-527995D01*
Y-531505D01*
X215093Y-532293D01*
X215539Y-532961D01*
X216207Y-533407D01*
X216995Y-533564D01*
X218907D01*
Y-543545D01*
X218515Y-543622D01*
X217680Y-544180D01*
X217122Y-545015D01*
X216926Y-546000D01*
Y-554000D01*
X217122Y-554985D01*
X217680Y-555820D01*
X218515Y-556378D01*
X219500Y-556573D01*
X225500D01*
X226485Y-556378D01*
X227320Y-555820D01*
X227878Y-554985D01*
X228073Y-554000D01*
Y-546000D01*
X227878Y-545015D01*
X227320Y-544180D01*
X226485Y-543622D01*
X226093Y-543545D01*
Y-533593D01*
X236012D01*
X241407Y-538988D01*
Y-543545D01*
X241015Y-543622D01*
X240180Y-544180D01*
X239622Y-545015D01*
X239426Y-546000D01*
Y-554000D01*
X239622Y-554985D01*
X240180Y-555820D01*
X241015Y-556378D01*
X242000Y-556573D01*
X248000D01*
X248985Y-556378D01*
X249820Y-555820D01*
X250378Y-554985D01*
X250573Y-554000D01*
Y-546000D01*
X250378Y-545015D01*
X249820Y-544180D01*
X248985Y-543622D01*
X248593Y-543545D01*
Y-537500D01*
X248319Y-536125D01*
X247541Y-534959D01*
X240041Y-527459D01*
X238875Y-526680D01*
X237848Y-526476D01*
X237462Y-525542D01*
X237444Y-525137D01*
X242541Y-520041D01*
X243319Y-518875D01*
X243593Y-517500D01*
Y-502715D01*
X243319Y-501340D01*
X242541Y-500174D01*
X241224Y-498858D01*
X241257Y-498423D01*
X241679Y-497517D01*
X242597Y-497334D01*
X243680Y-496610D01*
X244404Y-495527D01*
X244658Y-494250D01*
Y-480750D01*
X244404Y-479473D01*
X243680Y-478390D01*
X242597Y-477666D01*
X241320Y-477412D01*
X235447D01*
X224053Y-466017D01*
X222225Y-464796D01*
X220070Y-464368D01*
X220070Y-464368D01*
X204416D01*
X204416Y-464368D01*
X204163Y-464418D01*
X204000Y-464350D01*
D02*
G37*
G36*
X479128Y-595976D02*
X475873D01*
X472680Y-596611D01*
X469673Y-597857D01*
X466967Y-599665D01*
X464665Y-601967D01*
X462857Y-604673D01*
X461611Y-607680D01*
X460976Y-610872D01*
Y-614128D01*
X461611Y-617320D01*
X462857Y-620327D01*
X464665Y-623033D01*
X466967Y-625335D01*
X469673Y-627143D01*
X472680Y-628389D01*
X475873Y-629024D01*
X479128D01*
X482320Y-628389D01*
X485327Y-627143D01*
X488033Y-625335D01*
X490335Y-623033D01*
X492143Y-620327D01*
X493389Y-617320D01*
X494024Y-614128D01*
Y-610872D01*
X493389Y-607680D01*
X492143Y-604673D01*
X490335Y-601967D01*
X488033Y-599665D01*
X485327Y-597857D01*
X482320Y-596611D01*
X479128Y-595976D01*
D02*
G37*
G36*
X29128D02*
X25872D01*
X22680Y-596611D01*
X19673Y-597857D01*
X16967Y-599665D01*
X14665Y-601967D01*
X12857Y-604673D01*
X11611Y-607680D01*
X10976Y-610872D01*
Y-614128D01*
X11611Y-617320D01*
X12857Y-620327D01*
X14665Y-623033D01*
X16967Y-625335D01*
X19673Y-627143D01*
X22680Y-628389D01*
X25872Y-629024D01*
X29128D01*
X32320Y-628389D01*
X35327Y-627143D01*
X38033Y-625335D01*
X40335Y-623033D01*
X42143Y-620327D01*
X43389Y-617320D01*
X44024Y-614128D01*
Y-610872D01*
X43389Y-607680D01*
X42143Y-604673D01*
X40335Y-601967D01*
X38033Y-599665D01*
X35327Y-597857D01*
X32320Y-596611D01*
X29128Y-595976D01*
D02*
G37*
%LPD*%
G36*
X204000Y-492500D02*
X180000D01*
Y-522500D01*
X200000D01*
X212000Y-534500D01*
Y-556000D01*
X195000D01*
X179000Y-540000D01*
X127500D01*
Y-517500D01*
X140000D01*
X191500Y-466000D01*
X204000D01*
Y-492500D01*
D02*
G37*
D18*
X412500Y-220000D02*
D03*
X92500Y-275000D02*
D03*
X412500Y-400000D02*
D03*
X92500Y-95000D02*
D03*
D19*
X412500Y-195000D02*
D03*
Y-170000D02*
D03*
Y-145000D02*
D03*
Y-120000D02*
D03*
Y-95000D02*
D03*
X92500Y-300000D02*
D03*
Y-325000D02*
D03*
Y-350000D02*
D03*
Y-375000D02*
D03*
Y-400000D02*
D03*
X412500Y-375000D02*
D03*
Y-350000D02*
D03*
Y-325000D02*
D03*
Y-300000D02*
D03*
Y-275000D02*
D03*
X92500Y-120000D02*
D03*
Y-145000D02*
D03*
Y-170000D02*
D03*
Y-195000D02*
D03*
Y-220000D02*
D03*
D21*
X175520Y-599730D02*
Y-586230D01*
X175540Y-586210D01*
X175500Y-599750D02*
X175520Y-599730D01*
X165520Y-599480D02*
Y-586230D01*
X165540Y-586210D01*
X165500Y-599500D02*
X165520Y-599480D01*
X309540Y-586210D02*
Y-568460D01*
X319540Y-586210D02*
Y-568460D01*
D22*
X395000Y-616500D02*
Y-610000D01*
Y-616500D02*
X395250Y-616750D01*
X302430Y-517430D02*
X395000Y-610000D01*
X298500Y-517430D02*
X302430D01*
X297500Y-516430D02*
X298500Y-517430D01*
X72500Y-515000D02*
Y-475000D01*
Y-515000D02*
X92500Y-535000D01*
X72500Y-475000D02*
X92500Y-455000D01*
Y-535000D02*
X125750Y-568250D01*
X269250D02*
X295000Y-542500D01*
X125750Y-568250D02*
X269250D01*
X295000Y-542500D02*
Y-517430D01*
X296000Y-516430D01*
X297500D01*
D23*
X414650Y-425350D02*
X425000Y-415000D01*
X412500Y-375000D02*
X425000Y-387500D01*
Y-415000D02*
Y-387500D01*
X138200Y-196750D02*
X175950Y-159000D01*
X379820D02*
X390820Y-170000D01*
X175950Y-159000D02*
X379820D01*
X150350Y-210000D02*
X380000D01*
X138200Y-222150D02*
X150350Y-210000D01*
X380000D02*
X395000Y-195000D01*
X412500D01*
X375000Y-235000D02*
X390000Y-220000D01*
X150750Y-235000D02*
X375000D01*
X390000Y-220000D02*
X412500D01*
X138200Y-247550D02*
X150750Y-235000D01*
X390820Y-170000D02*
X412500D01*
X420000Y-260000D02*
X430000Y-270000D01*
Y-307500D02*
Y-270000D01*
X151150Y-260000D02*
X420000D01*
X138200Y-272950D02*
X151150Y-260000D01*
X412500Y-325000D02*
X430000Y-307500D01*
X412450Y-399950D02*
X412500Y-400000D01*
X366800Y-399950D02*
X412450D01*
X366800Y-425350D02*
X414650D01*
X440000Y-410000D02*
Y-377500D01*
X399326Y-450674D02*
X440000Y-410000D01*
X366876Y-450674D02*
X399326D01*
X412500Y-350000D02*
X440000Y-377500D01*
X366800Y-450750D02*
X366876Y-450674D01*
X92500Y-142925D02*
X138200Y-97225D01*
Y-95150D01*
X92500Y-145000D02*
Y-142925D01*
Y-168125D02*
X138200Y-122425D01*
Y-120550D01*
X92500Y-170000D02*
Y-168125D01*
X138200Y-147625D02*
Y-145950D01*
X92500Y-195000D02*
Y-193325D01*
X138200Y-147625D01*
X92500Y-218525D02*
X138200Y-172825D01*
Y-171350D01*
X92500Y-220000D02*
Y-218525D01*
X111550Y-325000D02*
X138200Y-298350D01*
X92500Y-325000D02*
X111550D01*
X117050Y-374550D02*
X138200D01*
X92500Y-350000D02*
X117050Y-374550D01*
X117450Y-399950D02*
X138200D01*
X92500Y-375000D02*
X117450Y-399950D01*
X117850Y-425350D02*
X138200D01*
X92500Y-400000D02*
X117850Y-425350D01*
X236942Y-499657D02*
X240000Y-502715D01*
X234500Y-523000D02*
X240000Y-517500D01*
Y-502715D01*
X236070Y-486000D02*
X236942Y-486872D01*
Y-499657D02*
Y-486872D01*
X224250Y-523250D02*
X224500Y-523000D01*
X234500D01*
X224500Y-530000D02*
X237500D01*
X224250Y-529750D02*
X224500Y-530000D01*
X237500D02*
X245000Y-537500D01*
Y-550000D02*
Y-537500D01*
X222500Y-530000D02*
X222750Y-529750D01*
X222500Y-550000D02*
Y-530000D01*
X222750Y-529750D02*
X224250D01*
X222093Y-510000D02*
Y-504343D01*
X222343Y-510250D02*
X224250D01*
X222093Y-510000D02*
X222343Y-510250D01*
X212500Y-494750D02*
X222093Y-504343D01*
X212500Y-494750D02*
Y-482500D01*
X192500Y-505500D02*
X203750Y-516750D01*
X224250D01*
X192500Y-505500D02*
Y-504000D01*
D24*
X395250Y-616750D02*
D03*
X70000Y-616250D02*
D03*
D25*
X435250Y-616750D02*
D03*
X110000Y-616250D02*
D03*
D26*
X366800Y-18950D02*
D03*
Y-44350D02*
D03*
Y-69750D02*
D03*
Y-95150D02*
D03*
Y-120550D02*
D03*
Y-145950D02*
D03*
Y-171350D02*
D03*
Y-196750D02*
D03*
Y-222150D02*
D03*
Y-247550D02*
D03*
Y-272950D02*
D03*
Y-298350D02*
D03*
Y-323750D02*
D03*
Y-349150D02*
D03*
Y-374550D02*
D03*
Y-399950D02*
D03*
Y-425350D02*
D03*
Y-450750D02*
D03*
Y-476150D02*
D03*
Y-501550D02*
D03*
Y-526950D02*
D03*
X138200Y-44350D02*
D03*
Y-69750D02*
D03*
Y-95150D02*
D03*
Y-120550D02*
D03*
Y-145950D02*
D03*
Y-171350D02*
D03*
Y-196750D02*
D03*
Y-222150D02*
D03*
Y-247550D02*
D03*
Y-272950D02*
D03*
Y-298350D02*
D03*
Y-323750D02*
D03*
Y-349150D02*
D03*
Y-374550D02*
D03*
Y-399950D02*
D03*
Y-425350D02*
D03*
Y-450750D02*
D03*
Y-476150D02*
D03*
Y-501550D02*
D03*
Y-526950D02*
D03*
X366800Y-552350D02*
D03*
X138200D02*
D03*
D27*
Y-18950D02*
D03*
D28*
X92500Y-535000D02*
D03*
X412500Y-560000D02*
D03*
Y-480000D02*
D03*
X92500Y-455000D02*
D03*
D29*
Y-560000D02*
D03*
X412500Y-535000D02*
D03*
Y-455000D02*
D03*
X92500Y-480000D02*
D03*
D30*
X477500Y-27500D02*
D03*
X27500Y-612500D02*
D03*
X477500D02*
D03*
X27500Y-27500D02*
D03*
D31*
X230000Y-445000D02*
D03*
X135000Y-610000D02*
D03*
X370000D02*
D03*
Y-625000D02*
D03*
X275000D02*
D03*
X230000D02*
D03*
X255000D02*
D03*
X400000Y-55000D02*
D03*
X435000D02*
D03*
X30000Y-570000D02*
D03*
X275000Y-590000D02*
D03*
X475000Y-475000D02*
D03*
Y-425000D02*
D03*
Y-375000D02*
D03*
Y-325000D02*
D03*
Y-275000D02*
D03*
Y-225000D02*
D03*
Y-175000D02*
D03*
Y-125000D02*
D03*
Y-75000D02*
D03*
X450000Y-25000D02*
D03*
X400000D02*
D03*
X480000Y-530000D02*
D03*
Y-570000D02*
D03*
X250000Y-590000D02*
D03*
X160000Y-310000D02*
D03*
X180000Y-280000D02*
D03*
X340000Y-380000D02*
D03*
Y-410000D02*
D03*
Y-450000D02*
D03*
Y-490000D02*
D03*
X290000Y-370000D02*
D03*
Y-400000D02*
D03*
Y-450000D02*
D03*
X230000Y-410000D02*
D03*
Y-370000D02*
D03*
X260000Y-320000D02*
D03*
X300000Y-280000D02*
D03*
X25000Y-525000D02*
D03*
Y-450000D02*
D03*
Y-375000D02*
D03*
Y-325000D02*
D03*
Y-275000D02*
D03*
Y-200000D02*
D03*
Y-150000D02*
D03*
Y-100000D02*
D03*
X250000Y-200000D02*
D03*
X200000D02*
D03*
Y-175000D02*
D03*
X275000D02*
D03*
X175000Y-125000D02*
D03*
X225000D02*
D03*
X275000D02*
D03*
X325000D02*
D03*
Y-75000D02*
D03*
X275000D02*
D03*
X225000D02*
D03*
X175000D02*
D03*
Y-25000D02*
D03*
X225000D02*
D03*
X275000D02*
D03*
X325000D02*
D03*
X50000Y-50000D02*
D03*
X100000Y-25000D02*
D03*
X75000D02*
D03*
D32*
X175500Y-599750D02*
D03*
X165500Y-599500D02*
D03*
X319540Y-568460D02*
D03*
X309540D02*
D03*
D33*
X297500Y-493570D02*
D03*
Y-516430D02*
D03*
D34*
X236070Y-487500D02*
D03*
X258930D02*
D03*
D35*
X339540Y-586210D02*
D03*
X329540D02*
D03*
X319540D02*
D03*
X309540D02*
D03*
X195540D02*
D03*
X185540D02*
D03*
X175540D02*
D03*
X165540D02*
D03*
D36*
X296540Y-624960D02*
D03*
X352540D02*
D03*
X152540D02*
D03*
X208540D02*
D03*
D37*
X270750Y-510250D02*
D03*
Y-516750D02*
D03*
Y-523250D02*
D03*
Y-529750D02*
D03*
X224250Y-510250D02*
D03*
Y-516750D02*
D03*
Y-523250D02*
D03*
Y-529750D02*
D03*
D38*
X207500Y-550000D02*
D03*
X222500D02*
D03*
X197500Y-482500D02*
D03*
X212500D02*
D03*
X245000Y-550000D02*
D03*
X260000D02*
D03*
D39*
X192500Y-504000D02*
D03*
Y-531000D02*
D03*
D40*
X55000Y-550000D02*
Y-94000D01*
X83669Y-65331D02*
X117219D01*
X55000Y-94000D02*
X83669Y-65331D01*
X55000Y-550000D02*
X92000Y-587000D01*
X137532D02*
X161417Y-610885D01*
X92000Y-587000D02*
X137532D01*
X185000Y-610885D02*
X314115D01*
X161417D02*
X185000D01*
X117219Y-65331D02*
X138200Y-44350D01*
Y-18950D01*
D41*
X185540Y-610345D02*
Y-586210D01*
X185000Y-610885D02*
X185540Y-610345D01*
X314115Y-610885D02*
X329842Y-595158D01*
Y-586512D01*
X329540Y-586210D02*
X329842Y-586512D01*
D42*
X220070Y-470000D02*
X236070Y-486000D01*
X204416Y-470000D02*
X220070D01*
X197500Y-476916D02*
X204416Y-470000D01*
X197500Y-482500D02*
Y-476916D01*
X194500Y-536000D02*
Y-533000D01*
X192500Y-531000D02*
X194500Y-533000D01*
X207500Y-550000D02*
Y-549000D01*
X194500Y-536000D02*
X207500Y-549000D01*
M02*
