G04*
G04 #@! TF.GenerationSoftware,Altium Limited,Altium Designer,24.6.1 (21)*
G04*
G04 Layer_Color=65535*
%FSLAX44Y44*%
%MOMM*%
G71*
G04*
G04 #@! TF.SameCoordinates,B00BFCD2-5707-4677-9BBC-B61177668CA5*
G04*
G04*
G04 #@! TF.FilePolarity,Positive*
G04*
G01*
G75*
%ADD10C,0.2500*%
%ADD11C,0.5000*%
%ADD12C,0.2000*%
%ADD13C,0.2540*%
D10*
X107750Y-534500D02*
G03*
X107750Y-534500I-1250J0D01*
G01*
X399750Y-560500D02*
G03*
X399750Y-560500I-1250J0D01*
G01*
Y-480500D02*
G03*
X399750Y-480500I-1250J0D01*
G01*
X107750Y-454500D02*
G03*
X107750Y-454500I-1250J0D01*
G01*
D11*
X415500Y-244500D02*
G03*
X415500Y-244500I-3000J0D01*
G01*
X95500Y-250500D02*
G03*
X95500Y-250500I-3000J0D01*
G01*
X415500Y-424500D02*
G03*
X415500Y-424500I-3000J0D01*
G01*
X95500Y-70500D02*
G03*
X95500Y-70500I-3000J0D01*
G01*
D12*
X115500Y-510530D02*
Y-510500D01*
Y-584500D02*
Y-510500D01*
X30552D02*
X115360Y-510500D01*
X30552Y-584500D02*
X115360Y-584500D01*
X389500Y-584500D02*
Y-584470D01*
Y-584500D02*
Y-510500D01*
X389640Y-584500D02*
X474448Y-584500D01*
X389640Y-510500D02*
X474448Y-510500D01*
X389500Y-504500D02*
Y-504470D01*
Y-504500D02*
Y-430500D01*
X389640Y-504500D02*
X474448Y-504500D01*
X389640Y-430500D02*
X474448Y-430500D01*
X115500Y-430530D02*
Y-430500D01*
Y-504500D02*
Y-430500D01*
X30552D02*
X115360Y-430500D01*
X30552Y-504500D02*
X115360Y-504500D01*
X389500Y-70500D02*
X412500D01*
X389500Y-244500D02*
X412500D01*
X389500D02*
Y-70500D01*
X92500Y-424500D02*
X115500D01*
X92500Y-250500D02*
X115500D01*
Y-424500D02*
Y-250500D01*
X389500D02*
X412500D01*
X389500Y-424500D02*
X412500D01*
X389500D02*
Y-250500D01*
X92500Y-244500D02*
X115500D01*
X92500Y-70500D02*
X115500D01*
Y-244500D02*
Y-70500D01*
D13*
X441000Y-119882D02*
X435922D01*
X438461D01*
Y-132578D01*
X435922Y-135118D01*
X433383D01*
X430844Y-132578D01*
X446079Y-135118D02*
X451157D01*
X448618D01*
Y-119882D01*
X446079Y-122422D01*
X47461Y-149882D02*
X42382D01*
X44922D01*
Y-162578D01*
X42382Y-165117D01*
X39843D01*
X37304Y-162578D01*
X62696Y-165117D02*
X52539D01*
X62696Y-154961D01*
Y-152422D01*
X60157Y-149882D01*
X55078D01*
X52539Y-152422D01*
X446113Y-542383D02*
X441035D01*
X443574D01*
Y-555078D01*
X441035Y-557618D01*
X438495D01*
X435956Y-555078D01*
X451191Y-557618D02*
X456270D01*
X453730D01*
Y-542383D01*
X451191Y-544922D01*
X463887D02*
X466426Y-542383D01*
X471505D01*
X474044Y-544922D01*
Y-555078D01*
X471505Y-557618D01*
X466426D01*
X463887Y-555078D01*
Y-544922D01*
X48701Y-533104D02*
X43623D01*
X46162D01*
Y-545800D01*
X43623Y-548340D01*
X41083D01*
X38544Y-545800D01*
X53779Y-535644D02*
X56318Y-533104D01*
X61397D01*
X63936Y-535644D01*
Y-538183D01*
X61397Y-540722D01*
X58858D01*
X61397D01*
X63936Y-543261D01*
Y-545800D01*
X61397Y-548340D01*
X56318D01*
X53779Y-545800D01*
X51461Y-304883D02*
X46383D01*
X48922D01*
Y-317578D01*
X46383Y-320118D01*
X43843D01*
X41304Y-317578D01*
X66696Y-304883D02*
X56539D01*
Y-312500D01*
X61618Y-309961D01*
X64157D01*
X66696Y-312500D01*
Y-317578D01*
X64157Y-320118D01*
X59078D01*
X56539Y-317578D01*
X39853Y-458105D02*
X34774D01*
X37314D01*
Y-470800D01*
X34774Y-473340D01*
X32235D01*
X29696Y-470800D01*
X44931Y-473340D02*
X50009D01*
X47470D01*
Y-458105D01*
X44931Y-460644D01*
X67784Y-473340D02*
X57627D01*
X67784Y-463183D01*
Y-460644D01*
X65245Y-458105D01*
X60166D01*
X57627Y-460644D01*
X442961Y-313382D02*
X437882D01*
X440422D01*
Y-326078D01*
X437882Y-328618D01*
X435343D01*
X432804Y-326078D01*
X448039Y-315922D02*
X450578Y-313382D01*
X455657D01*
X458196Y-315922D01*
Y-318461D01*
X455657Y-321000D01*
X458196Y-323539D01*
Y-326078D01*
X455657Y-328618D01*
X450578D01*
X448039Y-326078D01*
Y-323539D01*
X450578Y-321000D01*
X448039Y-318461D01*
Y-315922D01*
X450578Y-321000D02*
X455657D01*
X441152Y-459882D02*
X436074D01*
X438613D01*
Y-472578D01*
X436074Y-475117D01*
X433535D01*
X430995Y-472578D01*
X446231Y-475117D02*
X451309D01*
X448770D01*
Y-459882D01*
X446231Y-462422D01*
X458926Y-475117D02*
X464005D01*
X461465D01*
Y-459882D01*
X458926Y-462422D01*
M02*
