M48
;Layer_Color=9474304
;FILE_FORMAT=4:3
METRIC,LZ
;TYPE=PLATED
T01F00S00C0.356
T02F00S00C0.400
T03F00S00C0.900
T04F00S00C1.000
T05F00S00C1.020
T06F00S00C1.500
T07F00S00C2.200
%
T01
X001655Y-005995
X001755Y-0059975
X0030954Y-0056846
X0031954
T02
X00135Y-0061
X0023Y-00625
X00255
X00275
Y-0059
X0025
X0037Y-0061
Y-00625
X0034Y-0049
Y-0045
Y-0041
Y-0038
X0029Y-0037
Y-004
Y-0045
X0023Y-00445
Y-0041
Y-0037
X0026Y-0032
X003Y-0028
X0018
X0016Y-0031
X00475Y-00325
Y-00375
Y-00425
Y-00475
X0048Y-0053
Y-0057
X00475Y-00275
X00025
Y-00325
Y-00375
Y-0045
Y-00525
X0003Y-0057
X00025Y-002
Y-0015
Y-001
X0005Y-0005
X00075Y-00025
X001
X00175
Y-00075
Y-00125
X00225
X00275
Y-00175
X0025Y-002
X002
Y-00175
X00225Y-00075
X00275
X00325
Y-00125
Y-00025
X00275
X00225
X004
Y-00055
X00435
X0045Y-00025
X00475Y-00075
Y-00125
Y-00175
Y-00225
T03
X004125Y-0056
Y-00535
Y-0048
Y-00455
X000925
Y-0048
Y-00535
Y-0056
T04
X004125Y-004
Y-00375
Y-0035
Y-00325
Y-003
Y-00275
X000925
Y-003
Y-00325
Y-0035
Y-00375
Y-004
X000925Y-0022
Y-00195
Y-0017
Y-00145
Y-0012
Y-00095
X004125
Y-0012
Y-00145
Y-0017
Y-00195
Y-0022
T05
X001382Y-0055235
Y-0052695
Y-0050155
Y-0047615
Y-0045075
Y-0042535
Y-0039995
Y-0037455
Y-0034915
Y-0032375
Y-0029835
Y-0027295
Y-0024755
X003668
Y-0027295
Y-0029835
Y-0032375
Y-0034915
Y-0037455
Y-0039995
Y-0042535
Y-0045075
Y-0047615
Y-0050155
Y-0052695
Y-0055235
Y-0022215
Y-0019675
Y-0017135
Y-0014595
Y-0012055
Y-0009515
Y-0006975
Y-0004435
Y-0001895
X001382
Y-0004435
Y-0006975
Y-0009515
Y-0012055
Y-0014595
Y-0017135
Y-0019675
Y-0022215
T06
X0039525Y-0061675
X0043525
X0011Y-0061625
X0007
T07
X004775Y-006125
X000275
X000275Y-000275
X004775
M30
