ISO-10303-21;
HEADER;
FILE_DESCRIPTION (( 'STEP AP203' ),
    '1' );
FILE_NAME ('Flat Reaction Wheel.STEP',
    '2026-01-22T18:24:02',
    ( '' ),
    ( '' ),
    'SwSTEP 2.0',
    'SolidWorks 2025',
    '' );
FILE_SCHEMA (( 'CONFIG_CONTROL_DESIGN' ));
ENDSEC;

DATA;
#1 = APPLICATION_CONTEXT ( 'configuration controlled 3d designs of mechanical parts and assemblies' ) ;
#2 = CARTESIAN_POINT ( 'NONE',  ( 2.448819147517010974E-13, 4.249999999997601918, -3.900000000000769962 ) ) ;
#3 = CARTESIAN_POINT ( 'NONE',  ( -0.5550024448123682674, 6.622995197936135447, 3.861052502642769557 ) ) ;
#4 = ADVANCED_FACE ( 'NONE', ( #643 ), #507, .T. ) ;
#5 = PERSON_AND_ORGANIZATION_ROLE ( 'creator' ) ;
#6 = VECTOR ( 'NONE', #664, 1000.000000000000000 ) ;
#7 = CARTESIAN_POINT ( 'NONE',  ( -5.000000000000000888, 8.000000000000000000, 14.20575939540016286 ) ) ;
#8 = FACE_OUTER_BOUND ( 'NONE', #739, .T. ) ;
#9 = CARTESIAN_POINT ( 'NONE',  ( -0.7837758582647542660, 4.524380994175452919, 0.4573022791909083784 ) ) ;
#10 = EDGE_LOOP ( 'NONE', ( #565, #713, #704, #594 ) ) ;
#11 = DIRECTION ( 'NONE',  ( -0.000000000000000000, 1.000000000000000000, -0.000000000000000000 ) ) ;
#12 = CARTESIAN_POINT ( 'NONE',  ( -0.6320252705054090203, 4.409186213239578933, 3.851461744255961772 ) ) ;
#13 = ORIENTED_EDGE ( 'NONE', *, *, #56, .T. ) ;
#14 = EDGE_CURVE ( 'NONE', #25, #630, #605, .T. ) ;
#15 = CARTESIAN_POINT ( 'NONE',  ( -0.7700079729254725169, 4.502091289044050093, 3.825035665508627503 ) ) ;
#16 = DIRECTION ( 'NONE',  ( 0.000000000000000000, -0.000000000000000000, 1.000000000000000000 ) ) ;
#17 = ORIENTED_EDGE ( 'NONE', *, *, #656, .T. ) ;
#18 = DIRECTION ( 'NONE',  ( 0.000000000000000000, 0.000000000000000000, -1.000000000000000000 ) ) ;
#19 = DATE_AND_TIME ( #884, #515 ) ;
#20 = CYLINDRICAL_SURFACE ( 'NONE', #61, 0.9000000000000001332 ) ;
#21 = FACE_OUTER_BOUND ( 'NONE', #690, .T. ) ;
#22 = CARTESIAN_POINT ( 'NONE',  ( -5.000000000000000888, 8.000000000000000000, 23.98436991042291311 ) ) ;
#23 = ORIENTED_EDGE ( 'NONE', *, *, #877, .T. ) ;
#24 = CLOSED_SHELL ( 'NONE', ( #207, #187, #481, #714, #302, #693, #576, #562, #744, #846, #349, #249, #82, #786, #492, #415, #522, #733, #4, #289, #182 ) ) ;
#25 = VERTEX_POINT ( 'NONE', #502 ) ;
#26 = APPROVAL_STATUS ( 'not_yet_approved' ) ;
#27 = CARTESIAN_POINT ( 'NONE',  ( 1.102187092246434861E-16, 6.750000000000000888, 0.9000000000000001332 ) ) ;
#28 = ORIENTED_EDGE ( 'NONE', *, *, #441, .F. ) ;
#29 = DIRECTION ( 'NONE',  ( -0.000000000000000000, 1.000000000000000000, -0.000000000000000000 ) ) ;
#30 = CARTESIAN_POINT ( 'NONE',  ( -0.7194214407557929514, 6.526464543171033306, 0.5526252564525574451 ) ) ;
#31 = EDGE_LOOP ( 'NONE', ( #905, #17 ) ) ;
#32 = EDGE_CURVE ( 'NONE', #476, #378, #219, .T. ) ;
#33 = PERSON_AND_ORGANIZATION_ROLE ( 'classification_officer' ) ;
#34 = CARTESIAN_POINT ( 'NONE',  ( 0.7695398910855736352, 4.501585134926682663, -3.825149243927598697 ) ) ;
#35 = CARTESIAN_POINT ( 'NONE',  ( 5.000000000000001776, 12.34324633458323817, -14.20575939540016286 ) ) ;
#36 = CARTESIAN_POINT ( 'NONE',  ( 1.216734900024469379, 5.170403594605454956, 3.705921404802861030 ) ) ;
#37 = CARTESIAN_POINT ( 'NONE',  ( -0.1242538143856842803, 6.750000000000000000, -0.9000000000000001332 ) ) ;
#38 = ORIENTED_EDGE ( 'NONE', *, *, #262, .F. ) ;
#39 = CARTESIAN_POINT ( 'NONE',  ( -5.000000000000000000, 2.000000000000000000, 23.98436991042291666 ) ) ;
#40 = DIRECTION ( 'NONE',  ( -0.000000000000000000, -1.000000000000000000, -0.000000000000000000 ) ) ;
#41 = DIRECTION ( 'NONE',  ( -0.000000000000000000, 1.000000000000000000, -0.000000000000000000 ) ) ;
#42 = LINE ( 'NONE', #345, #200 ) ;
#43 = EDGE_CURVE ( 'NONE', #759, #120, #907, .T. ) ;
#44 = DIRECTION ( 'NONE',  ( -1.445602896647339163E-16, 1.000000000000000000, 0.000000000000000000 ) ) ;
#45 = VERTEX_POINT ( 'NONE', #657 ) ;
#46 = CARTESIAN_POINT ( 'NONE',  ( 0.9934469491358842719, 4.737004054613746185, -3.771639195363007069 ) ) ;
#47 = APPLICATION_CONTEXT ( 'configuration controlled 3d designs of mechanical parts and assemblies' ) ;
#48 = ORIENTED_EDGE ( 'NONE', *, *, #650, .F. ) ;
#49 = PRODUCT_RELATED_PRODUCT_CATEGORY ( 'detail', '', ( #180 ) ) ;
#50 = ORIENTED_EDGE ( 'NONE', *, *, #892, .T. ) ;
#51 = AXIS2_PLACEMENT_3D ( 'NONE', #674, #792, #857 ) ;
#52 = CARTESIAN_POINT ( 'NONE',  ( 2.928610138575728249E-20, 6.750000000000000888, 3.900000000000001688 ) ) ;
#53 = FACE_OUTER_BOUND ( 'NONE', #277, .T. ) ;
#54 = CARTESIAN_POINT ( 'NONE',  ( 0.000000000000000000, 4.249999999999998224, -0.9000000000000001332 ) ) ;
#55 = CARTESIAN_POINT ( 'NONE',  ( 0.1225211790619946395, 4.249999999999998224, 0.9000000000000002442 ) ) ;
#56 = EDGE_CURVE ( 'NONE', #635, #883, #366, .T. ) ;
#57 = CARTESIAN_POINT ( 'NONE',  ( 0.000000000000000000, 8.000000000000000000, 0.000000000000000000 ) ) ;
#58 = CARTESIAN_POINT ( 'NONE',  ( 1.083848045621084388, 4.872008704338495200, -3.746661510565007180 ) ) ;
#59 = AXIS2_PLACEMENT_3D ( 'NONE', #873, #94, #591 ) ;
#60 = CARTESIAN_POINT ( 'NONE',  ( -0.3296838682560211398, 4.283319893276122947, -3.888990893761417489 ) ) ;
#61 = AXIS2_PLACEMENT_3D ( 'NONE', #91, #178, #325 ) ;
#62 = EDGE_LOOP ( 'NONE', ( #425, #497, #186, #878 ) ) ;
#63 = VERTEX_POINT ( 'NONE', #323 ) ;
#64 = CARTESIAN_POINT ( 'NONE',  ( 0.1656377522021860726, 6.741673386815844715, -3.897309297840165776 ) ) ;
#65 = APPLICATION_PROTOCOL_DEFINITION ( 'international standard', 'config_control_design', 1994, #1 ) ;
#66 = CARTESIAN_POINT ( 'NONE',  ( -1.090905997008277950, 4.868156396202905967, -3.744898984890888904 ) ) ;
#67 = DIRECTION ( 'NONE',  ( -1.000000000000000000, 1.445602896647339163E-16, 0.000000000000000000 ) ) ;
#68 = CARTESIAN_POINT ( 'NONE',  ( 0.000000000000000000, 2.000000000000000000, 0.000000000000000000 ) ) ;
#69 = APPROVAL_STATUS ( 'not_yet_approved' ) ;
#70 = B_SPLINE_CURVE_WITH_KNOTS ( 'NONE', 3,
 ( #389, #627, #36, #840, #636, #409, #118, #695, #554, #769 ),
 .UNSPECIFIED., .F., .F.,
 ( 4, 2, 2, 2, 4 ),
 ( 0.005900744090743341962, 0.006392403111273508264, 0.006884062131803675433, 0.007375721152333841735, 0.007867380172864008037 ),
 .UNSPECIFIED. ) ;
#71 = CARTESIAN_POINT ( 'NONE',  ( -5.000000000000000000, 2.000000000000000000, 24.50000000000000000 ) ) ;
#72 = EDGE_CURVE ( 'NONE', #598, #209, #168, .T. ) ;
#73 = CARTESIAN_POINT ( 'NONE',  ( -0.7632157568558869398, 6.493280855857721079, 3.825207279648836778 ) ) ;
#74 = CARTESIAN_POINT ( 'NONE',  ( 4.776122516674680244E-16, 12.34324633458323817, -3.900000000000001688 ) ) ;
#75 = APPROVAL_DATE_TIME ( #152, #77 ) ;
#76 = CARTESIAN_POINT ( 'NONE',  ( -0.9989170796661822616, 4.731300616806707993, 3.771733658244311282 ) ) ;
#77 = APPROVAL ( #69, 'UNSPECIFIED' ) ;
#78 = DIRECTION ( 'NONE',  ( 0.000000000000000000, 0.000000000000000000, 1.000000000000000000 ) ) ;
#79 = ORIENTED_EDGE ( 'NONE', *, *, #427, .T. ) ;
#80 = FACE_OUTER_BOUND ( 'NONE', #912, .T. ) ;
#81 = CARTESIAN_POINT ( 'NONE',  ( 0.000000000000000000, 0.000000000000000000, 0.000000000000000000 ) ) ;
#82 = ADVANCED_FACE ( 'NONE', ( #870, #92 ), #542, .F. ) ;
#83 = LOCAL_TIME ( 11, 24, 2.000000000000000000, #654 ) ;
#84 = CARTESIAN_POINT ( 'NONE',  ( 1.102182119232618034E-16, 8.000000000000000000, 0.9000000000000001332 ) ) ;
#85 = DIRECTION ( 'NONE',  ( 0.000000000000000000, 0.000000000000000000, -1.000000000000000000 ) ) ;
#86 = B_SPLINE_CURVE_WITH_KNOTS ( 'NONE', 3,
 ( #915, #702, #845, #348, #130, #286, #708, #904, #276, #567, #211, #848, #216, #500, #781, #136, #55, #668 ),
 .UNSPECIFIED., .F., .F.,
 ( 4, 2, 2, 2, 2, 2, 2, 2, 4 ),
 ( 0.000000000000000000, 0.0003667360273425240174, 0.0007334720546850480348, 0.001100208082027572106, 0.001466944109370096070, 0.001833680136712620033, 0.002200416164055144213, 0.002567152191397668176, 0.002933888218740192139 ),
 .UNSPECIFIED. ) ;
#87 = DIRECTION ( 'NONE',  ( -0.000000000000000000, 1.000000000000000000, -0.000000000000000000 ) ) ;
#88 = VERTEX_POINT ( 'NONE', #867 ) ;
#89 = EDGE_CURVE ( 'NONE', #798, #756, #470, .T. ) ;
#90 = CARTESIAN_POINT ( 'NONE',  ( -0.1647403778513768513, 6.750000000000002665, -3.900000000000003020 ) ) ;
#91 = CARTESIAN_POINT ( 'NONE',  ( 0.000000000000000000, 8.000000000000000000, 0.000000000000000000 ) ) ;
#92 = FACE_OUTER_BOUND ( 'NONE', #204, .T. ) ;
#93 = ORIENTED_EDGE ( 'NONE', *, *, #399, .F. ) ;
#94 = DIRECTION ( 'NONE',  ( -0.000000000000000000, 1.000000000000000000, 0.000000000000000000 ) ) ;
#95 = APPROVAL_ROLE ( '' ) ;
#96 = CARTESIAN_POINT ( 'NONE',  ( -1.250000000000000666, 5.500000000000000000, 3.694252292413176431 ) ) ;
#97 = CARTESIAN_POINT ( 'NONE',  ( -5.000000000000000000, 2.000000000000000000, -24.50000000000000000 ) ) ;
#98 = B_SPLINE_CURVE_WITH_KNOTS ( 'NONE', 3,
 ( #429, #352, #711, #66, #281, #365, #222, #60, #372, #495 ),
 .UNSPECIFIED., .F., .F.,
 ( 4, 2, 2, 2, 4 ),
 ( 0.000000000000000000, 0.0004919048029085229101, 0.0009838096058170458201, 0.001475714408725568730, 0.001967619211634092074 ),
 .UNSPECIFIED. ) ;
#99 = CARTESIAN_POINT ( 'NONE',  ( 0.000000000000000000, 2.000000000000000000, 0.000000000000000000 ) ) ;
#100 = EDGE_LOOP ( 'NONE', ( #360, #134, #568, #549, #156, #347, #194, #368 ) ) ;
#101 = DESIGN_CONTEXT ( 'detailed design', #47, 'design' ) ;
#102 = CARTESIAN_POINT ( 'NONE',  ( -0.2455940696690326053, 6.730876320850838646, -0.8738960100020641830 ) ) ;
#103 = ORIENTED_EDGE ( 'NONE', *, *, #171, .F. ) ;
#104 = VECTOR ( 'NONE', #270, 1000.000000000000000 ) ;
#105 = ORIENTED_EDGE ( 'NONE', *, *, #551, .T. ) ;
#106 = CARTESIAN_POINT ( 'NONE',  ( 0.6325620383372817512, 4.409362954145400693, -3.851407168209954879 ) ) ;
#107 = EDGE_CURVE ( 'NONE', #663, #811, #70, .T. ) ;
#108 = CARTESIAN_POINT ( 'NONE',  ( -0.5591468561584365116, 6.621851799951579132, 0.7143645265104734410 ) ) ;
#109 = ORIENTED_EDGE ( 'NONE', *, *, #583, .T. ) ;
#110 = ORIENTED_EDGE ( 'NONE', *, *, #682, .T. ) ;
#111 = PERSON_AND_ORGANIZATION ( #597, #246 ) ;
#112 = CARTESIAN_POINT ( 'NONE',  ( 0.1655650044165731527, 4.258304384249477437, -3.897316213440676247 ) ) ;
#113 = B_SPLINE_CURVE_WITH_KNOTS ( 'NONE', 3,
 ( #662, #797, #457, #527, #155, #179, #9, #452, #300, #306, #868, #871, #239, #404, #561, #555, #125, #899 ),
 .UNSPECIFIED., .F., .F.,
 ( 4, 2, 2, 2, 2, 2, 2, 2, 4 ),
 ( 0.002933888218740192139, 0.003300137405079609041, 0.003666386591419025943, 0.004032635777758443278, 0.004398884964097860180, 0.004765134150437277082, 0.005131383336776693983, 0.005497632523116110885, 0.005863881709455527787 ),
 .UNSPECIFIED. ) ;
#114 = CARTESIAN_POINT ( 'NONE',  ( 5.000000000000001776, 12.34324633458323817, 14.20575939540016286 ) ) ;
#115 = VERTEX_POINT ( 'NONE', #39 ) ;
#116 = ORIENTED_EDGE ( 'NONE', *, *, #682, .F. ) ;
#117 = AXIS2_PLACEMENT_3D ( 'NONE', #353, #826, #569 ) ;
#118 = CARTESIAN_POINT ( 'NONE',  ( 0.6318018593760482693, 4.409094304554113108, 3.851489192576450282 ) ) ;
#119 = CARTESIAN_POINT ( 'NONE',  ( -0.4649081004358517899, 6.665978462692114803, 0.7798538674866423159 ) ) ;
#120 = VERTEX_POINT ( 'NONE', #337 ) ;
#121 = LOCAL_TIME ( 11, 24, 2.000000000000000000, #686 ) ;
#122 = VERTEX_POINT ( 'NONE', #893 ) ;
#123 = EDGE_CURVE ( 'NONE', #883, #63, #773, .T. ) ;
#124 = AXIS2_PLACEMENT_3D ( 'NONE', #795, #311, #729 ) ;
#125 = CARTESIAN_POINT ( 'NONE',  ( -0.1240888678106947529, 4.249999999999999112, -0.9000000000000002442 ) ) ;
#126 = ORIENTED_EDGE ( 'NONE', *, *, #242, .T. ) ;
#127 = DIRECTION ( 'NONE',  ( 0.000000000000000000, 1.000000000000000000, 0.000000000000000000 ) ) ;
#128 = CARTESIAN_POINT ( 'NONE',  ( 0.000000000000000000, 8.000000000000000000, -0.9000000000000001332 ) ) ;
#129 = DIRECTION ( 'NONE',  ( -0.000000000000000000, 1.000000000000000000, -0.000000000000000000 ) ) ;
#130 = CARTESIAN_POINT ( 'NONE',  ( 0.5597134190740763460, 4.378466668214873181, -0.7138401120016977242 ) ) ;
#131 = VERTEX_POINT ( 'NONE', #856 ) ;
#132 = CARTESIAN_POINT ( 'NONE',  ( 1.123062069197586776, 4.945138832039722487, -3.734943490933411603 ) ) ;
#133 = DIRECTION ( 'NONE',  ( 0.000000000000000000, 0.000000000000000000, 1.000000000000000000 ) ) ;
#134 = ORIENTED_EDGE ( 'NONE', *, *, #842, .T. ) ;
#135 = ORIENTED_EDGE ( 'NONE', *, *, #532, .F. ) ;
#136 = CARTESIAN_POINT ( 'NONE',  ( 0.2450425414394134249, 4.268903143453913529, 0.8742229403130870047 ) ) ;
#137 = EDGE_CURVE ( 'NONE', #444, #212, #369, .T. ) ;
#138 = CARTESIAN_POINT ( 'NONE',  ( 0.6308200319834539327, 6.591434915492439650, 3.851642153027713622 ) ) ;
#139 = ORIENTED_EDGE ( 'NONE', *, *, #361, .F. ) ;
#140 = APPROVAL ( #832, 'UNSPECIFIED' ) ;
#141 = ORIENTED_EDGE ( 'NONE', *, *, #877, .F. ) ;
#142 = CARTESIAN_POINT ( 'NONE',  ( 0.000000000000000000, 8.000000000000000000, 0.000000000000000000 ) ) ;
#143 = FACE_OUTER_BOUND ( 'NONE', #163, .T. ) ;
#144 = LINE ( 'NONE', #642, #644 ) ;
#145 = CIRCLE ( 'NONE', #332, 15.06000000000000050 ) ;
#146 = B_SPLINE_CURVE_WITH_KNOTS ( 'NONE', 3,
 ( #640, #442, #906, #855, #496, #288, #710, #511, #504, #64, #280, #370 ),
 .UNSPECIFIED., .F., .F.,
 ( 4, 2, 2, 2, 2, 4 ),
 ( 0.003934119293511091978, 0.004425732356910623382, 0.004917345420310154785, 0.005408958483709685322, 0.005654765015409451458, 0.005900571547109217593 ),
 .UNSPECIFIED. ) ;
#147 = AXIS2_PLACEMENT_3D ( 'NONE', #757, #621, #418 ) ;
#148 = EDGE_CURVE ( 'NONE', #25, #488, #508, .T. ) ;
#149 = PERSON_AND_ORGANIZATION ( #597, #246 ) ;
#150 = CARTESIAN_POINT ( 'NONE',  ( -1.209446184640283972, 5.826279346810897763, 3.707765963653201435 ) ) ;
#151 = PLANE ( 'NONE',  #703 ) ;
#152 = DATE_AND_TIME ( #294, #83 ) ;
#153 = CARTESIAN_POINT ( 'NONE',  ( -5.000000000000000888, 8.000000000000000000, 24.50000000000000000 ) ) ;
#154 = CARTESIAN_POINT ( 'NONE',  ( 2.928610138575728249E-20, 6.750000000000000888, 3.900000000000001688 ) ) ;
#155 = CARTESIAN_POINT ( 'NONE',  ( -0.5600664951014946435, 4.378637660117837171, 0.7135828446353681409 ) ) ;
#156 = ORIENTED_EDGE ( 'NONE', *, *, #851, .F. ) ;
#157 = B_SPLINE_CURVE_WITH_KNOTS ( 'NONE', 3,
 ( #309, #874, #535, #173, #603, #541, #813, #234, #669, #312, #600, #521, #250, #538, #176, #810, #390, #383 ),
 .UNSPECIFIED., .F., .F.,
 ( 4, 2, 2, 2, 2, 2, 2, 2, 4 ),
 ( 0.002933888218740192139, 0.003300137405079609041, 0.003666386591419025943, 0.004032635777758443278, 0.004398884964097860180, 0.004765134150437277082, 0.005131383336776693983, 0.005497632523116110885, 0.005863881709455527787 ),
 .UNSPECIFIED. ) ;
#158 = DIRECTION ( 'NONE',  ( -1.000000000000000000, -1.445602896647339163E-16, 0.000000000000000000 ) ) ;
#159 = DIRECTION ( 'NONE',  ( -0.000000000000000000, 1.000000000000000000, -0.000000000000000000 ) ) ;
#160 = CARTESIAN_POINT ( 'NONE',  ( 0.000000000000000000, 12.34324633458323817, 3.900000000000001688 ) ) ;
#161 = CARTESIAN_POINT ( 'NONE',  ( 5.000000000000000000, 2.000000000000000000, 24.50000000000000000 ) ) ;
#162 = AXIS2_PLACEMENT_3D ( 'NONE', #577, #290, #525 ) ;
#163 = EDGE_LOOP ( 'NONE', ( #540, #675, #624, #779 ) ) ;
#164 = DIRECTION ( 'NONE',  ( -0.000000000000000000, 1.000000000000000000, -0.000000000000000000 ) ) ;
#165 = AXIS2_PLACEMENT_3D ( 'NONE', #167, #655, #85 ) ;
#166 = CARTESIAN_POINT ( 'NONE',  ( 1.066121183027468137E-14, 6.750000000000134115, -3.900000000000044320 ) ) ;
#167 = CARTESIAN_POINT ( 'NONE',  ( 0.000000000000000000, 2.000000000000000000, 0.000000000000000000 ) ) ;
#168 = LINE ( 'NONE', #97, #503 ) ;
#169 = LINE ( 'NONE', #471, #217 ) ;
#170 = AXIS2_PLACEMENT_3D ( 'NONE', #566, #844, #785 ) ;
#171 = EDGE_CURVE ( 'NONE', #115, #122, #437, .T. ) ;
#172 = EDGE_LOOP ( 'NONE', ( #749, #327, #260, #355, #410, #373, #103, #344, #343, #385 ) ) ;
#173 = CARTESIAN_POINT ( 'NONE',  ( 0.4636318386958483417, 6.666429468863808161, 0.7805168148908286918 ) ) ;
#174 = DIRECTION ( 'NONE',  ( -0.000000000000000000, 1.000000000000000000, 0.000000000000000000 ) ) ;
#175 = MANIFOLD_SOLID_BREP ( 'Mirror1', #24 ) ;
#176 = CARTESIAN_POINT ( 'NONE',  ( 0.4628355576818240502, 6.666674389993223038, -0.7808729111642939147 ) ) ;
#177 = ORIENTED_EDGE ( 'NONE', *, *, #56, .F. ) ;
#178 = DIRECTION ( 'NONE',  ( -0.000000000000000000, -1.000000000000000000, -0.000000000000000000 ) ) ;
#179 = CARTESIAN_POINT ( 'NONE',  ( -0.7196557854301532942, 4.473733208791116134, 0.5522413472297099668 ) ) ;
#180 = PRODUCT ( 'Flat Reaction Wheel', 'Flat Reaction Wheel', '', ( #371 ) ) ;
#181 = VERTEX_POINT ( 'NONE', #54 ) ;
#182 = ADVANCED_FACE ( 'NONE', ( #143 ), #443, .F. ) ;
#183 = CIRCLE ( 'NONE', #297, 0.9000000000000001332 ) ;
#184 = CARTESIAN_POINT ( 'NONE',  ( 1.250000000000147882, 5.499999999999786837, 3.694252292413145788 ) ) ;
#185 = APPROVAL_PERSON_ORGANIZATION ( #617, #220, #95 ) ;
#186 = ORIENTED_EDGE ( 'NONE', *, *, #506, .T. ) ;
#187 = ADVANCED_FACE ( 'NONE', ( #364 ), #788, .T. ) ;
#188 = DIRECTION ( 'NONE',  ( -0.000000000000000000, -0.000000000000000000, -1.000000000000000000 ) ) ;
#189 = CARTESIAN_POINT ( 'NONE',  ( 5.000000000000000000, 2.000000000000000000, 14.20575939540016286 ) ) ;
#190 = CARTESIAN_POINT ( 'NONE',  ( -0.4632010855924594828, 6.666540920239771850, -0.7806762694357324284 ) ) ;
#191 = ORIENTED_EDGE ( 'NONE', *, *, #436, .F. ) ;
#192 = CARTESIAN_POINT ( 'NONE',  ( 0.000000000000000000, 8.000000000000000000, 0.000000000000000000 ) ) ;
#193 = EDGE_CURVE ( 'NONE', #458, #718, #632, .T. ) ;
#194 = ORIENTED_EDGE ( 'NONE', *, *, #645, .T. ) ;
#195 = VERTEX_POINT ( 'NONE', #7 ) ;
#196 = PERSON_AND_ORGANIZATION ( #597, #246 ) ;
#197 = VECTOR ( 'NONE', #422, 1000.000000000000000 ) ;
#198 = CIRCLE ( 'NONE', #761, 3.900000000000001688 ) ;
#199 = DIRECTION ( 'NONE',  ( 0.000000000000000000, -1.000000000000000000, 0.000000000000000000 ) ) ;
#200 = VECTOR ( 'NONE', #264, 1000.000000000000000 ) ;
#201 = DIRECTION ( 'NONE',  ( 0.000000000000000000, -1.000000000000000000, 0.000000000000000000 ) ) ;
#202 = CIRCLE ( 'NONE', #634, 24.50000000000000000 ) ;
#203 = ORIENTED_EDGE ( 'NONE', *, *, #107, .F. ) ;
#204 = EDGE_LOOP ( 'NONE', ( #685, #544 ) ) ;
#205 = AXIS2_PLACEMENT_3D ( 'NONE', #572, #652, #439 ) ;
#206 = DIRECTION ( 'NONE',  ( 0.000000000000000000, 0.000000000000000000, 1.000000000000000000 ) ) ;
#207 = ADVANCED_FACE ( 'NONE', ( #298, #865 ), #833, .F. ) ;
#208 = CARTESIAN_POINT ( 'NONE',  ( 5.000000000000000000, 2.000000000000000000, -23.98436991042291666 ) ) ;
#209 = VERTEX_POINT ( 'NONE', #493 ) ;
#210 = CARTESIAN_POINT ( 'NONE',  ( 0.9992977720434336186, 6.268460940483616461, 3.771662503502532182 ) ) ;
#211 = CARTESIAN_POINT ( 'NONE',  ( 0.8739677182866588678, 4.604249002334279695, 0.2444095681298385503 ) ) ;
#212 = VERTEX_POINT ( 'NONE', #763 ) ;
#213 = VECTOR ( 'NONE', #303, 1000.000000000000000 ) ;
#214 = CARTESIAN_POINT ( 'NONE',  ( 1.250000000000014211, 5.582371907434647618, 3.694252292413173322 ) ) ;
#215 = EDGE_CURVE ( 'NONE', #793, #811, #753, .T. ) ;
#216 = CARTESIAN_POINT ( 'NONE',  ( 0.7194214407557929514, 4.473535456828965806, 0.5526252564525574451 ) ) ;
#217 = VECTOR ( 'NONE', #324, 1000.000000000000000 ) ;
#218 = EDGE_LOOP ( 'NONE', ( #815, #767, #680, #498 ) ) ;
#219 = CIRCLE ( 'NONE', #405, 0.9000000000000001332 ) ;
#220 = APPROVAL ( #26, 'UNSPECIFIED' ) ;
#221 = DIRECTION ( 'NONE',  ( 0.000000000000000000, 0.000000000000000000, 1.000000000000000000 ) ) ;
#222 = CARTESIAN_POINT ( 'NONE',  ( -0.6303106178099278090, 4.408345081922888653, -3.851707433051419383 ) ) ;
#223 = ORIENTED_EDGE ( 'NONE', *, *, #506, .F. ) ;
#224 = EDGE_CURVE ( 'NONE', #45, #782, #489, .T. ) ;
#225 = ORIENTED_EDGE ( 'NONE', *, *, #812, .T. ) ;
#226 = CARTESIAN_POINT ( 'NONE',  ( 1.209517739166278805, 5.825961850384164364, 3.707742389275433759 ) ) ;
#227 = DIRECTION ( 'NONE',  ( 0.000000000000000000, 1.000000000000000000, 0.000000000000000000 ) ) ;
#228 = VECTOR ( 'NONE', #794, 1000.000000000000000 ) ;
#229 = CC_DESIGN_PERSON_AND_ORGANIZATION_ASSIGNMENT ( #196, #33, ( #647 ) ) ;
#230 = AXIS2_PLACEMENT_3D ( 'NONE', #593, #174, #796 ) ;
#231 = CARTESIAN_POINT ( 'NONE',  ( -5.000000000000001776, 12.34324633458323817, -14.20575939540016286 ) ) ;
#232 = DIRECTION ( 'NONE',  ( 0.000000000000000000, 0.000000000000000000, 1.000000000000000000 ) ) ;
#233 = CARTESIAN_POINT ( 'NONE',  ( 0.000000000000000000, 0.000000000000000000, 0.000000000000000000 ) ) ;
#234 = CARTESIAN_POINT ( 'NONE',  ( 0.8740569350599234344, 6.395634699416219426, 0.2438328214689406415 ) ) ;
#235 = ORIENTED_EDGE ( 'NONE', *, *, #678, .T. ) ;
#236 = DIRECTION ( 'NONE',  ( -0.000000000000000000, 1.000000000000000000, -0.000000000000000000 ) ) ;
#237 = DIRECTION ( 'NONE',  ( -0.000000000000000000, -1.000000000000000000, -0.000000000000000000 ) ) ;
#238 = CARTESIAN_POINT ( 'NONE',  ( -1.250000000000000666, 5.500000000000000000, 3.694252292413176431 ) ) ;
#239 = CARTESIAN_POINT ( 'NONE',  ( -0.7182568176507316826, 4.472750107777981654, -0.5540332590775015609 ) ) ;
#240 = ORIENTED_EDGE ( 'NONE', *, *, #886, .T. ) ;
#241 = CARTESIAN_POINT ( 'NONE',  ( 1.066121183027468137E-14, 6.750000000000134115, -3.900000000000044320 ) ) ;
#242 = EDGE_CURVE ( 'NONE', #393, #131, #291, .T. ) ;
#243 = CARTESIAN_POINT ( 'NONE',  ( 5.000000000000000000, 2.000000000000000000, 23.98436991042291311 ) ) ;
#244 = ORIENTED_EDGE ( 'NONE', *, *, #193, .T. ) ;
#245 = DIRECTION ( 'NONE',  ( 0.000000000000000000, 0.000000000000000000, 1.000000000000000000 ) ) ;
#246 = ORGANIZATION ( 'UNSPECIFIED', 'UNSPECIFIED', '' ) ;
#247 = CARTESIAN_POINT ( 'NONE',  ( -0.6307885208897838769, 6.591422908078867771, -3.851639579229437782 ) ) ;
#248 = CARTESIAN_POINT ( 'NONE',  ( 2.928610138575728249E-20, 6.750000000000000888, 3.900000000000001688 ) ) ;
#249 = ADVANCED_FACE ( 'NONE', ( #843, #53 ), #356, .T. ) ;
#250 = CARTESIAN_POINT ( 'NONE',  ( 0.7182568176507316826, 6.527249892222017458, -0.5540332590775015609 ) ) ;
#251 = DIRECTION ( 'NONE',  ( 1.445602896647339163E-16, -1.000000000000000000, 0.000000000000000000 ) ) ;
#252 = CARTESIAN_POINT ( 'NONE',  ( -5.000000000000000000, 2.000000000000000000, -23.98436991042291666 ) ) ;
#253 = ORIENTED_EDGE ( 'NONE', *, *, #456, .T. ) ;
#254 = EDGE_CURVE ( 'NONE', #120, #416, #716, .T. ) ;
#255 = CARTESIAN_POINT ( 'NONE',  ( 0.4045049060655281914, 4.314396037665660266, -3.879722123798306388 ) ) ;
#256 = AXIS2_PLACEMENT_3D ( 'NONE', #666, #379, #18 ) ;
#257 = ORIENTED_EDGE ( 'NONE', *, *, #436, .T. ) ;
#258 = DATE_TIME_ROLE ( 'classification_date' ) ;
#259 = DIRECTION ( 'NONE',  ( -1.000000000000000000, 0.000000000000000000, 0.000000000000000000 ) ) ;
#260 = ORIENTED_EDGE ( 'NONE', *, *, #828, .F. ) ;
#261 = PERSON_AND_ORGANIZATION_ROLE ( 'creator' ) ;
#262 = EDGE_CURVE ( 'NONE', #131, #458, #146, .T. ) ;
#263 = ORIENTED_EDGE ( 'NONE', *, *, #89, .F. ) ;
#264 = DIRECTION ( 'NONE',  ( -0.000000000000000000, -1.000000000000000000, -0.000000000000000000 ) ) ;
#265 = LINE ( 'NONE', #689, #908 ) ;
#266 = EDGE_LOOP ( 'NONE', ( #743, #613 ) ) ;
#267 = CARTESIAN_POINT ( 'NONE',  ( 0.3263088734877428454, 4.290561166513703562, -3.887159368654465208 ) ) ;
#268 = CARTESIAN_POINT ( 'NONE',  ( 0.000000000000000000, 12.34324633458323817, 0.000000000000000000 ) ) ;
#269 = AXIS2_PLACEMENT_3D ( 'NONE', #99, #882, #732 ) ;
#270 = DIRECTION ( 'NONE',  ( 0.000000000000000000, 0.000000000000000000, -1.000000000000000000 ) ) ;
#271 = CARTESIAN_POINT ( 'NONE',  ( 0.000000000000000000, 8.000000000000000000, 0.000000000000000000 ) ) ;
#272 = ORIENTED_EDGE ( 'NONE', *, *, #671, .F. ) ;
#273 = AXIS2_PLACEMENT_3D ( 'NONE', #707, #67, #358 ) ;
#274 = ORIENTED_EDGE ( 'NONE', *, *, #279, .F. ) ;
#275 = DIRECTION ( 'NONE',  ( 0.000000000000000000, 0.000000000000000000, -1.000000000000000000 ) ) ;
#276 = CARTESIAN_POINT ( 'NONE',  ( 0.9000769356423152789, 4.632612242262916347, -0.1220266430315907202 ) ) ;
#277 = EDGE_LOOP ( 'NONE', ( #79, #887 ) ) ;
#278 = VERTEX_POINT ( 'NONE', #426 ) ;
#279 = EDGE_CURVE ( 'NONE', #798, #663, #501, .T. ) ;
#280 = CARTESIAN_POINT ( 'NONE',  ( 0.08236354854050031982, 6.750000000000003553, -3.900000000000003020 ) ) ;
#281 = CARTESIAN_POINT ( 'NONE',  ( -0.9980854172072859409, 4.730224152549323158, -3.771957192524775238 ) ) ;
#282 = ORIENTED_EDGE ( 'NONE', *, *, #262, .T. ) ;
#283 = PRODUCT_DEFINITION ( 'UNKNOWN', '', #850, #101 ) ;
#284 = AXIS2_PLACEMENT_3D ( 'NONE', #902, #619, #768 ) ;
#285 = DIRECTION ( 'NONE',  ( 0.000000000000000000, 0.000000000000000000, 1.000000000000000000 ) ) ;
#286 = CARTESIAN_POINT ( 'NONE',  ( 0.7192276289282959478, 4.473438874892087469, -0.5527734027432673614 ) ) ;
#287 = VECTOR ( 'NONE', #679, 1000.000000000000000 ) ;
#288 = CARTESIAN_POINT ( 'NONE',  ( 0.7686767630154210940, 6.499134510191749925, -3.825332514316147403 ) ) ;
#289 = ADVANCED_FACE ( 'NONE', ( #880 ), #151, .F. ) ;
#290 = DIRECTION ( 'NONE',  ( -0.000000000000000000, 1.000000000000000000, -0.000000000000000000 ) ) ;
#291 = B_SPLINE_CURVE_WITH_KNOTS ( 'NONE', 3,
 ( #885, #898, #112, #267, #255, #106, #34, #408, #46, #58, #132, #575, #434, #787 ),
 .UNSPECIFIED., .F., .F.,
 ( 4, 2, 2, 2, 2, 2, 4 ),
 ( 0.001967619211634092074, 0.002213431721868717658, 0.002459244232103342809, 0.002950869252572593110, 0.003196681762807218694, 0.003442494273041843845, 0.003934119293511091978 ),
 .UNSPECIFIED. ) ;
#292 = ORIENTED_EDGE ( 'NONE', *, *, #778, .T. ) ;
#293 = LINE ( 'NONE', #231, #228 ) ;
#294 = CALENDAR_DATE ( 2026, 22, 1 ) ;
#295 = CARTESIAN_POINT ( 'NONE',  ( -1.185620230970821920, 5.904449605904220633, 3.715562071106292663 ) ) ;
#296 = ORIENTED_EDGE ( 'NONE', *, *, #107, .T. ) ;
#297 = AXIS2_PLACEMENT_3D ( 'NONE', #547, #755, #684 ) ;
#298 = FACE_BOUND ( 'NONE', #31, .T. ) ;
#299 = CYLINDRICAL_SURFACE ( 'NONE', #431, 15.06000000000000050 ) ;
#300 = CARTESIAN_POINT ( 'NONE',  ( -0.9001326584279716325, 4.632670054672235693, 0.1230571497135624082 ) ) ;
#301 = VERTEX_POINT ( 'NONE', #394 ) ;
#302 = ADVANCED_FACE ( 'NONE', ( #595 ), #524, .T. ) ;
#303 = DIRECTION ( 'NONE',  ( -0.000000000000000000, 1.000000000000000000, -0.000000000000000000 ) ) ;
#304 = LINE ( 'NONE', #803, #837 ) ;
#305 = CARTESIAN_POINT ( 'NONE',  ( -1.216683527313625612, 5.170368271976199637, 3.705935484331856600 ) ) ;
#306 = CARTESIAN_POINT ( 'NONE',  ( -0.8998663038189000929, 4.632393711363165245, -0.1249900000621844559 ) ) ;
#307 = ORIENTED_EDGE ( 'NONE', *, *, #783, .F. ) ;
#308 = CARTESIAN_POINT ( 'NONE',  ( 1.250000000000147882, 5.499999999999786837, 3.694252292413145788 ) ) ;
#309 = CARTESIAN_POINT ( 'NONE',  ( 1.102187092246434861E-16, 6.750000000000000888, 0.9000000000000001332 ) ) ;
#310 = CC_DESIGN_PERSON_AND_ORGANIZATION_ASSIGNMENT ( #111, #261, ( #850 ) ) ;
#311 = DIRECTION ( 'NONE',  ( -0.000000000000000000, 1.000000000000000000, -0.000000000000000000 ) ) ;
#312 = CARTESIAN_POINT ( 'NONE',  ( 0.8998663038189000929, 6.367606288636835643, -0.1249900000621844559 ) ) ;
#313 = CIRCLE ( 'NONE', #381, 0.9000000000000001332 ) ;
#314 = ORIENTED_EDGE ( 'NONE', *, *, #137, .F. ) ;
#315 = EDGE_CURVE ( 'NONE', #340, #793, #198, .T. ) ;
#316 = CIRCLE ( 'NONE', #269, 3.900000000000001688 ) ;
#317 = APPROVAL_ROLE ( '' ) ;
#318 = CIRCLE ( 'NONE', #876, 0.9000000000000001332 ) ;
#319 = CC_DESIGN_APPROVAL ( #140, ( #850 ) ) ;
#320 = CARTESIAN_POINT ( 'NONE',  ( -0.3296402842405609657, 6.716731443405429935, -3.889004871349334813 ) ) ;
#321 = CARTESIAN_POINT ( 'NONE',  ( -0.3296304329306615766, 4.283170333353929493, 3.889030378861878301 ) ) ;
#322 = EDGE_CURVE ( 'NONE', #88, #635, #359, .T. ) ;
#323 = CARTESIAN_POINT ( 'NONE',  ( 5.000000000000000888, 8.000000000000000000, 14.20575939540016286 ) ) ;
#324 = DIRECTION ( 'NONE',  ( 0.000000000000000000, -1.000000000000000000, 0.000000000000000000 ) ) ;
#325 = DIRECTION ( 'NONE',  ( 0.000000000000000000, 0.000000000000000000, -1.000000000000000000 ) ) ;
#326 = CARTESIAN_POINT ( 'NONE',  ( -0.5597134190740763460, 6.621533331785125931, -0.7138401120016977242 ) ) ;
#327 = ORIENTED_EDGE ( 'NONE', *, *, #384, .F. ) ;
#328 = PERSON_AND_ORGANIZATION ( #597, #246 ) ;
#329 = LINE ( 'NONE', #128, #802 ) ;
#330 = B_SPLINE_CURVE_WITH_KNOTS ( 'NONE', 3,
 ( #463, #737, #321, #12, #15, #76, #809, #305, #382, #96 ),
 .UNSPECIFIED., .F., .F.,
 ( 4, 2, 2, 2, 4 ),
 ( 0.000000000000000000, 0.0004919255515211572389, 0.0009838511030423144777, 0.001475776654563471825, 0.001967702206084629389 ),
 .UNSPECIFIED. ) ;
#331 = DIRECTION ( 'NONE',  ( 0.000000000000000000, -0.000000000000000000, -1.000000000000000000 ) ) ;
#332 = AXIS2_PLACEMENT_3D ( 'NONE', #683, #29, #824 ) ;
#333 = ORIENTED_EDGE ( 'NONE', *, *, #315, .T. ) ;
#334 = ORIENTED_EDGE ( 'NONE', *, *, #123, .T. ) ;
#335 = COORDINATED_UNIVERSAL_TIME_OFFSET ( 7, 0, .BEHIND. ) ;
#336 = CIRCLE ( 'NONE', #889, 24.50000000000000000 ) ;
#337 = CARTESIAN_POINT ( 'NONE',  ( 5.000000000000000888, 8.000000000000000000, -23.98436991042291311 ) ) ;
#338 = CARTESIAN_POINT ( 'NONE',  ( 0.000000000000000000, 8.000000000000000000, 0.000000000000000000 ) ) ;
#339 = CARTESIAN_POINT ( 'NONE',  ( -0.7192276289282959478, 6.526561125107912531, -0.5527734027432673614 ) ) ;
#340 = VERTEX_POINT ( 'NONE', #585 ) ;
#341 = EDGE_CURVE ( 'NONE', #700, #88, #719, .T. ) ;
#342 = CARTESIAN_POINT ( 'NONE',  ( -1.250000000000000666, 5.500000000000000000, -3.694252292413176431 ) ) ;
#343 = ORIENTED_EDGE ( 'NONE', *, *, #322, .T. ) ;
#344 = ORIENTED_EDGE ( 'NONE', *, *, #849, .T. ) ;
#345 = CARTESIAN_POINT ( 'NONE',  ( 0.000000000000000000, 8.000000000000000000, -0.9000000000000001332 ) ) ;
#346 = FACE_OUTER_BOUND ( 'NONE', #350, .T. ) ;
#347 = ORIENTED_EDGE ( 'NONE', *, *, #14, .F. ) ;
#348 = CARTESIAN_POINT ( 'NONE',  ( 0.4632010855924594828, 4.333459079760226373, -0.7806762694357324284 ) ) ;
#349 = ADVANCED_FACE ( 'NONE', ( #374 ), #740, .F. ) ;
#350 = EDGE_LOOP ( 'NONE', ( #240, #484, #830, #424 ) ) ;
#351 = LOCAL_TIME ( 11, 24, 2.000000000000000000, #335 ) ;
#352 = CARTESIAN_POINT ( 'NONE',  ( -1.250000000000001110, 5.333577731797329413, -3.694252292413176875 ) ) ;
#353 = CARTESIAN_POINT ( 'NONE',  ( 0.000000000000000000, 12.34324633458323817, 0.000000000000000000 ) ) ;
#354 = CC_DESIGN_PERSON_AND_ORGANIZATION_ASSIGNMENT ( #149, #592, ( #180 ) ) ;
#355 = ORIENTED_EDGE ( 'NONE', *, *, #799, .F. ) ;
#356 = PLANE ( 'NONE',  #510 ) ;
#357 = DIRECTION ( 'NONE',  ( -0.000000000000000000, 1.000000000000000000, -0.000000000000000000 ) ) ;
#358 = DIRECTION ( 'NONE',  ( -1.445602896647339163E-16, -1.000000000000000000, 0.000000000000000000 ) ) ;
#359 = CIRCLE ( 'NONE', #59, 24.50000000000000000 ) ;
#360 = ORIENTED_EDGE ( 'NONE', *, *, #224, .F. ) ;
#361 = EDGE_CURVE ( 'NONE', #340, #393, #466, .T. ) ;
#362 = CIRCLE ( 'NONE', #162, 15.05999999999999872 ) ;
#363 = FACE_OUTER_BOUND ( 'NONE', #433, .T. ) ;
#364 = FACE_OUTER_BOUND ( 'NONE', #430, .T. ) ;
#365 = CARTESIAN_POINT ( 'NONE',  ( -0.7689523082180423907, 4.501279967635377410, -3.825251352521474413 ) ) ;
#366 = LINE ( 'NONE', #911, #518 ) ;
#367 = APPROVAL_PERSON_ORGANIZATION ( #720, #77, #375 ) ;
#368 = ORIENTED_EDGE ( 'NONE', *, *, #799, .T. ) ;
#369 = CIRCLE ( 'NONE', #752, 15.06000000000000050 ) ;
#370 = CARTESIAN_POINT ( 'NONE',  ( 1.066121183027468137E-14, 6.750000000000134115, -3.900000000000044320 ) ) ;
#371 = MECHANICAL_CONTEXT ( 'NONE', #1, 'mechanical' ) ;
#372 = CARTESIAN_POINT ( 'NONE',  ( -0.1643796120310496989, 4.249999999999940492, -3.900000000000020783 ) ) ;
#373 = ORIENTED_EDGE ( 'NONE', *, *, #441, .T. ) ;
#374 = FACE_OUTER_BOUND ( 'NONE', #391, .T. ) ;
#375 = APPROVAL_ROLE ( '' ) ;
#376 = DIRECTION ( 'NONE',  ( 0.000000000000000000, 0.000000000000000000, 1.000000000000000000 ) ) ;
#377 = CARTESIAN_POINT ( 'NONE',  ( -0.6281723538787479244, 6.583745654639031386, 3.849689405343498905 ) ) ;
#378 = VERTEX_POINT ( 'NONE', #397 ) ;
#379 = DIRECTION ( 'NONE',  ( -0.000000000000000000, -1.000000000000000000, -0.000000000000000000 ) ) ;
#380 = PERSON_AND_ORGANIZATION ( #597, #246 ) ;
#381 = AXIS2_PLACEMENT_3D ( 'NONE', #428, #637, #133 ) ;
#382 = CARTESIAN_POINT ( 'NONE',  ( -1.250000000000000888, 5.335646824813842670, 3.694252292413177763 ) ) ;
#383 = CARTESIAN_POINT ( 'NONE',  ( 0.000000000000000000, 6.750000000000000888, -0.9000000000000001332 ) ) ;
#384 = EDGE_CURVE ( 'NONE', #759, #212, #726, .T. ) ;
#385 = ORIENTED_EDGE ( 'NONE', *, *, #622, .T. ) ;
#386 = CIRCLE ( 'NONE', #51, 24.50000000000000000 ) ;
#387 = CYLINDRICAL_SURFACE ( 'NONE', #117, 3.900000000000001688 ) ;
#388 = CARTESIAN_POINT ( 'NONE',  ( 5.000000000000000888, 8.000000000000000000, 23.98436991042291311 ) ) ;
#389 = CARTESIAN_POINT ( 'NONE',  ( 1.250000000000147882, 5.499999999999786837, 3.694252292413145788 ) ) ;
#390 = CARTESIAN_POINT ( 'NONE',  ( 0.1240888678106947529, 6.750000000000001776, -0.9000000000000002442 ) ) ;
#391 = EDGE_LOOP ( 'NONE', ( #838, #257, #105, #771 ) ) ;
#392 = CC_DESIGN_PERSON_AND_ORGANIZATION_ASSIGNMENT ( #557, #407, ( #850 ) ) ;
#393 = VERTEX_POINT ( 'NONE', #2 ) ;
#394 = CARTESIAN_POINT ( 'NONE',  ( -1.250000000000000666, 5.500000000000000000, 3.694252292413176431 ) ) ;
#395 = CYLINDRICAL_SURFACE ( 'NONE', #820, 0.9000000000000001332 ) ;
#396 = EDGE_LOOP ( 'NONE', ( #563, #191 ) ) ;
#397 = CARTESIAN_POINT ( 'NONE',  ( 0.000000000000000000, 0.000000000000000000, -0.9000000000000001332 ) ) ;
#398 = APPROVAL_DATE_TIME ( #604, #220 ) ;
#399 = EDGE_CURVE ( 'NONE', #209, #488, #293, .T. ) ;
#400 = CARTESIAN_POINT ( 'NONE',  ( -0.9984016805779226678, 6.269380661757423923, -3.771873914653167681 ) ) ;
#401 = CARTESIAN_POINT ( 'NONE',  ( 0.000000000000000000, 4.249999999999998224, 3.900000000000001688 ) ) ;
#402 = VERTEX_POINT ( 'NONE', #658 ) ;
#403 = CIRCLE ( 'NONE', #499, 24.50000000000000000 ) ;
#404 = CARTESIAN_POINT ( 'NONE',  ( -0.5584681976488461430, 4.377837592241323961, -0.7148139481575912502 ) ) ;
#405 = AXIS2_PLACEMENT_3D ( 'NONE', #435, #722, #448 ) ;
#406 = ORIENTED_EDGE ( 'NONE', *, *, #89, .T. ) ;
#407 = PERSON_AND_ORGANIZATION_ROLE ( 'design_supplier' ) ;
#408 = CARTESIAN_POINT ( 'NONE',  ( 0.9421393044691093177, 4.674467140165030621, -3.784952196071628361 ) ) ;
#409 = CARTESIAN_POINT ( 'NONE',  ( 0.7696052776265820405, 4.501771117971864022, 3.825119261752184308 ) ) ;
#410 = ORIENTED_EDGE ( 'NONE', *, *, #72, .T. ) ;
#411 = APPROVAL_DATE_TIME ( #881, #140 ) ;
#412 = CARTESIAN_POINT ( 'NONE',  ( -1.250000000000000666, 5.500000000000000000, 24.50000000000000000 ) ) ;
#413 = CARTESIAN_POINT ( 'NONE',  ( 0.000000000000000000, 8.000000000000000000, -24.50000000000000000 ) ) ;
#414 = ORIENTED_EDGE ( 'NONE', *, *, #427, .F. ) ;
#415 = ADVANCED_FACE ( 'NONE', ( #80 ), #387, .T. ) ;
#416 = VERTEX_POINT ( 'NONE', #816 ) ;
#417 = CIRCLE ( 'NONE', #748, 15.05999999999999872 ) ;
#418 = DIRECTION ( 'NONE',  ( -1.000000000000000000, 0.000000000000000000, 0.000000000000000000 ) ) ;
#419 = CARTESIAN_POINT ( 'NONE',  ( -0.8999227082546116252, 6.367547769010509562, 0.1231588845861504855 ) ) ;
#420 = ORIENTED_EDGE ( 'NONE', *, *, #215, .T. ) ;
#421 = ORIENTED_EDGE ( 'NONE', *, *, #886, .F. ) ;
#422 = DIRECTION ( 'NONE',  ( -0.000000000000000000, 1.000000000000000000, -0.000000000000000000 ) ) ;
#423 = CARTESIAN_POINT ( 'NONE',  ( -5.000000000000000888, 8.000000000000000000, 24.50000000000000000 ) ) ;
#424 = ORIENTED_EDGE ( 'NONE', *, *, #123, .F. ) ;
#425 = ORIENTED_EDGE ( 'NONE', *, *, #851, .T. ) ;
#426 = CARTESIAN_POINT ( 'NONE',  ( 0.000000000000000000, 8.000000000000000000, -0.9000000000000001332 ) ) ;
#427 = EDGE_CURVE ( 'NONE', #756, #574, #573, .T. ) ;
#428 = CARTESIAN_POINT ( 'NONE',  ( 0.000000000000000000, 8.000000000000000000, 0.000000000000000000 ) ) ;
#429 = CARTESIAN_POINT ( 'NONE',  ( -1.250000000000000666, 5.500000000000000000, -3.694252292413176431 ) ) ;
#430 = EDGE_LOOP ( 'NONE', ( #735, #807, #126, #282, #776, #414, #263, #888, #296, #545 ) ) ;
#431 = AXIS2_PLACEMENT_3D ( 'NONE', #721, #159, #866 ) ;
#432 = CARTESIAN_POINT ( 'NONE',  ( -5.000000000000000888, 8.000000000000000000, -24.50000000000000000 ) ) ;
#433 = EDGE_LOOP ( 'NONE', ( #28, #590, #556, #223 ) ) ;
#434 = CARTESIAN_POINT ( 'NONE',  ( 1.250000000000001110, 5.336161316394816723, -3.694252292413178207 ) ) ;
#435 = CARTESIAN_POINT ( 'NONE',  ( 0.000000000000000000, 0.000000000000000000, 0.000000000000000000 ) ) ;
#436 = EDGE_CURVE ( 'NONE', #479, #278, #313, .T. ) ;
#437 = LINE ( 'NONE', #71, #579 ) ;
#438 = DIRECTION ( 'NONE',  ( 0.000000000000000000, -1.000000000000000000, 0.000000000000000000 ) ) ;
#439 = DIRECTION ( 'NONE',  ( 0.000000000000000000, 0.000000000000000000, 1.000000000000000000 ) ) ;
#440 = EDGE_LOOP ( 'NONE', ( #528, #523, #514, #841 ) ) ;
#441 = EDGE_CURVE ( 'NONE', #209, #122, #145, .T. ) ;
#442 = CARTESIAN_POINT ( 'NONE',  ( 1.250000000000000888, 5.663834698798713596, -3.694252292413176875 ) ) ;
#443 = PLANE ( 'NONE',  #170 ) ;
#444 = VERTEX_POINT ( 'NONE', #189 ) ;
#445 = CARTESIAN_POINT ( 'NONE',  ( -5.000000000000000888, 8.000000000000000000, -24.50000000000000000 ) ) ;
#446 = APPLICATION_PROTOCOL_DEFINITION ( 'international standard', 'config_control_design', 1994, #47 ) ;
#447 = CARTESIAN_POINT ( 'NONE',  ( -1.090713722125603802, 6.132410341139663323, 3.744960737002520634 ) ) ;
#448 = DIRECTION ( 'NONE',  ( 0.000000000000000000, 0.000000000000000000, 1.000000000000000000 ) ) ;
#449 = EDGE_CURVE ( 'NONE', #479, #891, #144, .T. ) ;
#450 = DIRECTION ( 'NONE',  ( -0.000000000000000000, -1.000000000000000000, -0.000000000000000000 ) ) ;
#451 = DIRECTION ( 'NONE',  ( 0.000000000000000000, 0.000000000000000000, 1.000000000000000000 ) ) ;
#452 = CARTESIAN_POINT ( 'NONE',  ( -0.8740569350599234344, 4.604365300583779685, 0.2438328214689406415 ) ) ;
#453 = CARTESIAN_POINT ( 'NONE',  ( 0.000000000000000000, 12.34324633458323817, 24.50000000000000000 ) ) ;
#454 = CARTESIAN_POINT ( 'NONE',  ( 0.000000000000000000, 8.000000000000001776, 0.000000000000000000 ) ) ;
#455 = CARTESIAN_POINT ( 'NONE',  ( -0.9985631840444501028, 6.269341353214246126, 3.771851334965985458 ) ) ;
#456 = EDGE_CURVE ( 'NONE', #63, #416, #362, .T. ) ;
#457 = CARTESIAN_POINT ( 'NONE',  ( -0.2448426074132755981, 4.268917433605094125, 0.8741928149869953035 ) ) ;
#458 = VERTEX_POINT ( 'NONE', #166 ) ;
#459 = APPROVAL_PERSON_ORGANIZATION ( #328, #140, #317 ) ;
#460 = DIRECTION ( 'NONE',  ( -0.000000000000000000, 1.000000000000000000, -0.000000000000000000 ) ) ;
#461 = VECTOR ( 'NONE', #376, 1000.000000000000000 ) ;
#462 = FACE_OUTER_BOUND ( 'NONE', #440, .T. ) ;
#463 = CARTESIAN_POINT ( 'NONE',  ( 0.000000000000000000, 4.249999999999998224, 3.900000000000001688 ) ) ;
#464 = EDGE_CURVE ( 'NONE', #630, #195, #741, .T. ) ;
#465 = ORIENTED_EDGE ( 'NONE', *, *, #148, .T. ) ;
#466 = LINE ( 'NONE', #74, #213 ) ;
#467 =( NAMED_UNIT ( * ) SI_UNIT ( $, .STERADIAN. ) SOLID_ANGLE_UNIT ( ) );
#468 = CARTESIAN_POINT ( 'NONE',  ( -0.7692465117612741210, 6.498505043858178176, -3.825192615799228868 ) ) ;
#469 = LINE ( 'NONE', #742, #6 ) ;
#470 = LINE ( 'NONE', #160, #287 ) ;
#471 = CARTESIAN_POINT ( 'NONE',  ( -5.000000000000001776, 12.34324633458323817, -23.98436991042291311 ) ) ;
#472 = EDGE_LOOP ( 'NONE', ( #235, #109 ) ) ;
#473 = CC_DESIGN_PERSON_AND_ORGANIZATION_ASSIGNMENT ( #380, #5, ( #283 ) ) ;
#474 = VECTOR ( 'NONE', #285, 1000.000000000000000 ) ;
#475 = CARTESIAN_POINT ( 'NONE',  ( 0.000000000000000000, 0.000000000000000000, 0.000000000000000000 ) ) ;
#476 = VERTEX_POINT ( 'NONE', #660 ) ;
#477 = VECTOR ( 'NONE', #199, 1000.000000000000000 ) ;
#478 = CARTESIAN_POINT ( 'NONE',  ( 0.000000000000000000, 0.000000000000000000, 24.50000000000000000 ) ) ;
#479 = VERTEX_POINT ( 'NONE', #84 ) ;
#480 = CALENDAR_DATE ( 2026, 22, 1 ) ;
#481 = ADVANCED_FACE ( 'NONE', ( #462 ), #20, .F. ) ;
#482 = CARTESIAN_POINT ( 'NONE',  ( -0.7831103690850351740, 6.476171765612591003, -0.4585142072226739973 ) ) ;
#483 = ADVANCED_BREP_SHAPE_REPRESENTATION ( 'Flat Reaction Wheel', ( #175, #646 ), #691 ) ;
#484 = ORIENTED_EDGE ( 'NONE', *, *, #254, .T. ) ;
#485 = COORDINATED_UNIVERSAL_TIME_OFFSET ( 7, 0, .BEHIND. ) ;
#486 = LINE ( 'NONE', #412, #584 ) ;
#487 = DIRECTION ( 'NONE',  ( 0.000000000000000000, 0.000000000000000000, -1.000000000000000000 ) ) ;
#488 = VERTEX_POINT ( 'NONE', #609 ) ;
#489 = LINE ( 'NONE', #558, #762 ) ;
#490 = FACE_OUTER_BOUND ( 'NONE', #172, .T. ) ;
#491 = CARTESIAN_POINT ( 'NONE',  ( -0.2450425414394134249, 6.731096856546085583, 0.8742229403130870047 ) ) ;
#492 = ADVANCED_FACE ( 'NONE', ( #553, #490 ), #754, .F. ) ;
#493 = CARTESIAN_POINT ( 'NONE',  ( -5.000000000000000000, 2.000000000000000000, -14.20575939540016286 ) ) ;
#494 = CARTESIAN_POINT ( 'NONE',  ( 4.776122516674680244E-16, 8.000000000000000000, -3.900000000000001688 ) ) ;
#495 = CARTESIAN_POINT ( 'NONE',  ( 2.448819147517010974E-13, 4.249999999997601918, -3.900000000000769962 ) ) ;
#496 = CARTESIAN_POINT ( 'NONE',  ( 0.9994298731695837601, 6.268292694272310506, -3.771627333088515943 ) ) ;
#497 = ORIENTED_EDGE ( 'NONE', *, *, #171, .T. ) ;
#498 = ORIENTED_EDGE ( 'NONE', *, *, #551, .F. ) ;
#499 = AXIS2_PLACEMENT_3D ( 'NONE', #81, #586, #858 ) ;
#500 = CARTESIAN_POINT ( 'NONE',  ( 0.5591468561584365116, 4.378148200048420868, 0.7143645265104734410 ) ) ;
#501 = B_SPLINE_CURVE_WITH_KNOTS ( 'NONE', 3,
 ( #52, #784, #582, #138, #580, #210, #777, #570, #226, #705, #214, #308 ),
 .UNSPECIFIED., .F., .F.,
 ( 4, 2, 2, 2, 2, 4 ),
 ( 0.003934205742476540833, 0.004425840329543241115, 0.004917474916609942265, 0.005409109503676643414, 0.005654926797209992688, 0.005900744090743341962 ),
 .UNSPECIFIED. ) ;
#502 = CARTESIAN_POINT ( 'NONE',  ( -5.000000000000000888, 8.000000000000000000, -23.98436991042291311 ) ) ;
#503 = VECTOR ( 'NONE', #451, 1000.000000000000000 ) ;
#504 = CARTESIAN_POINT ( 'NONE',  ( 0.3260120586329413039, 6.709506015738342377, -3.887180439034430002 ) ) ;
#505 = DIRECTION ( 'NONE',  ( 0.000000000000000000, -0.000000000000000000, -1.000000000000000000 ) ) ;
#506 = EDGE_CURVE ( 'NONE', #122, #195, #818, .T. ) ;
#507 = PLANE ( 'NONE',  #273 ) ;
#508 = LINE ( 'NONE', #432, #461 ) ;
#509 = DIRECTION ( 'NONE',  ( -0.000000000000000000, 1.000000000000000000, -0.000000000000000000 ) ) ;
#510 = AXIS2_PLACEMENT_3D ( 'NONE', #142, #127, #909 ) ;
#511 = CARTESIAN_POINT ( 'NONE',  ( 0.4041460983590484668, 6.685728953851130640, -3.879760370195423302 ) ) ;
#512 = DIRECTION ( 'NONE',  ( 0.000000000000000000, 0.000000000000000000, 1.000000000000000000 ) ) ;
#513 = VECTOR ( 'NONE', #806, 1000.000000000000000 ) ;
#514 = ORIENTED_EDGE ( 'NONE', *, *, #863, .F. ) ;
#515 = LOCAL_TIME ( 11, 24, 2.000000000000000000, #485 ) ;
#516 = ORIENTED_EDGE ( 'NONE', *, *, #517, .T. ) ;
#517 = EDGE_CURVE ( 'NONE', #181, #378, #329, .T. ) ;
#518 = VECTOR ( 'NONE', #537, 1000.000000000000000 ) ;
#519 = DIRECTION ( 'NONE',  ( -0.000000000000000000, 1.000000000000000000, -0.000000000000000000 ) ) ;
#520 = DIRECTION ( 'NONE',  ( 0.000000000000000000, 0.000000000000000000, 1.000000000000000000 ) ) ;
#521 = CARTESIAN_POINT ( 'NONE',  ( 0.7827496656293407851, 6.476454107444696184, -0.4590042545448874689 ) ) ;
#522 = ADVANCED_FACE ( 'NONE', ( #834, #614 ), #697, .F. ) ;
#523 = ORIENTED_EDGE ( 'NONE', *, *, #900, .T. ) ;
#524 = CYLINDRICAL_SURFACE ( 'NONE', #529, 24.50000000000000000 ) ;
#525 = DIRECTION ( 'NONE',  ( 0.000000000000000000, 0.000000000000000000, 1.000000000000000000 ) ) ;
#526 = CARTESIAN_POINT ( 'NONE',  ( -1.250000000000000666, 5.582126527891618117, 3.694252292413177319 ) ) ;
#527 = CARTESIAN_POINT ( 'NONE',  ( -0.4636318386958483417, 4.333570531136191839, 0.7805168148908286918 ) ) ;
#528 = ORIENTED_EDGE ( 'NONE', *, *, #656, .F. ) ;
#529 = AXIS2_PLACEMENT_3D ( 'NONE', #530, #11, #790 ) ;
#530 = CARTESIAN_POINT ( 'NONE',  ( 0.000000000000000000, 12.34324633458323817, 0.000000000000000000 ) ) ;
#531 = VECTOR ( 'NONE', #164, 1000.000000000000000 ) ;
#532 = EDGE_CURVE ( 'NONE', #301, #718, #486, .T. ) ;
#533 = VERTEX_POINT ( 'NONE', #687 ) ;
#534 = CIRCLE ( 'NONE', #165, 24.50000000000000000 ) ;
#535 = CARTESIAN_POINT ( 'NONE',  ( 0.2448426074132755981, 6.731082566394905875, 0.8741928149869953035 ) ) ;
#536 = DIRECTION ( 'NONE',  ( -0.000000000000000000, 1.000000000000000000, -0.000000000000000000 ) ) ;
#537 = DIRECTION ( 'NONE',  ( -0.000000000000000000, 1.000000000000000000, -0.000000000000000000 ) ) ;
#538 = CARTESIAN_POINT ( 'NONE',  ( 0.5584681976488461430, 6.622162407758677816, -0.7148139481575912502 ) ) ;
#539 = EDGE_LOOP ( 'NONE', ( #50, #801, #738, #775, #421, #177, #897, #578 ) ) ;
#540 = ORIENTED_EDGE ( 'NONE', *, *, #384, .T. ) ;
#541 = CARTESIAN_POINT ( 'NONE',  ( 0.7196557854301532942, 6.526266791208882978, 0.5522413472297099668 ) ) ;
#542 = PLANE ( 'NONE',  #852 ) ;
#543 = LINE ( 'NONE', #814, #728 ) ;
#544 = ORIENTED_EDGE ( 'NONE', *, *, #842, .F. ) ;
#545 = ORIENTED_EDGE ( 'NONE', *, *, #215, .F. ) ;
#546 = DATE_AND_TIME ( #677, #351 ) ;
#547 = CARTESIAN_POINT ( 'NONE',  ( 0.000000000000000000, 8.000000000000000000, 0.000000000000000000 ) ) ;
#548 = ORIENTED_EDGE ( 'NONE', *, *, #559, .T. ) ;
#549 = ORIENTED_EDGE ( 'NONE', *, *, #849, .F. ) ;
#550 = SHAPE_DEFINITION_REPRESENTATION ( #808, #483 ) ;
#551 = EDGE_CURVE ( 'NONE', #278, #533, #42, .T. ) ;
#552 = DIRECTION ( 'NONE',  ( -0.000000000000000000, 1.000000000000000000, -0.000000000000000000 ) ) ;
#553 = FACE_BOUND ( 'NONE', #266, .T. ) ;
#554 = CARTESIAN_POINT ( 'NONE',  ( 0.1663251502583111829, 4.249999999999998224, 3.900000000000002132 ) ) ;
#555 = CARTESIAN_POINT ( 'NONE',  ( -0.2454437088597556382, 4.269104687025794043, -0.8739202724654075993 ) ) ;
#556 = ORIENTED_EDGE ( 'NONE', *, *, #665, .T. ) ;
#557 = PERSON_AND_ORGANIZATION ( #597, #246 ) ;
#558 = CARTESIAN_POINT ( 'NONE',  ( 3.000384657911015469E-15, 12.34324633458323817, -24.50000000000000000 ) ) ;
#559 = EDGE_CURVE ( 'NONE', #416, #212, #701, .T. ) ;
#560 = ORIENTED_EDGE ( 'NONE', *, *, #671, .T. ) ;
#561 = CARTESIAN_POINT ( 'NONE',  ( -0.4628355576818240502, 4.333325610006776962, -0.7808729111642939147 ) ) ;
#562 = ADVANCED_FACE ( 'NONE', ( #626 ), #694, .T. ) ;
#563 = ORIENTED_EDGE ( 'NONE', *, *, #706, .F. ) ;
#564 = DIRECTION ( 'NONE',  ( 0.000000000000000000, 0.000000000000000000, 1.000000000000000000 ) ) ;
#565 = ORIENTED_EDGE ( 'NONE', *, *, #665, .F. ) ;
#566 = CARTESIAN_POINT ( 'NONE',  ( 5.000000000000000000, 2.000000000000000000, -24.50000000000000000 ) ) ;
#567 = CARTESIAN_POINT ( 'NONE',  ( 0.8999227082546116252, 4.632452230989493103, 0.1231588845861504855 ) ) ;
#568 = ORIENTED_EDGE ( 'NONE', *, *, #341, .T. ) ;
#569 = DIRECTION ( 'NONE',  ( 0.000000000000000000, 0.000000000000000000, 1.000000000000000000 ) ) ;
#570 = CARTESIAN_POINT ( 'NONE',  ( 1.185754971545692538, 5.904061622717240887, 3.715518991262021231 ) ) ;
#571 = CARTESIAN_POINT ( 'NONE',  ( 0.000000000000000000, 8.000000000000000000, -24.50000000000000000 ) ) ;
#572 = CARTESIAN_POINT ( 'NONE',  ( 0.000000000000000000, 8.000000000000001776, 0.000000000000000000 ) ) ;
#573 = CIRCLE ( 'NONE', #629, 3.900000000000001688 ) ;
#574 = VERTEX_POINT ( 'NONE', #494 ) ;
#575 = CARTESIAN_POINT ( 'NONE',  ( 1.216854249389317300, 5.170875337196386923, -3.705880583975694975 ) ) ;
#576 = ADVANCED_FACE ( 'NONE', ( #363 ), #736, .F. ) ;
#577 = CARTESIAN_POINT ( 'NONE',  ( 0.000000000000000000, 8.000000000000000000, 0.000000000000000000 ) ) ;
#578 = ORIENTED_EDGE ( 'NONE', *, *, #341, .F. ) ;
#579 = VECTOR ( 'NONE', #275, 1000.000000000000000 ) ;
#580 = CARTESIAN_POINT ( 'NONE',  ( 0.7685322943694417042, 6.499242896782947199, 3.825361707087212348 ) ) ;
#581 = PLANE ( 'NONE',  #791 ) ;
#582 = CARTESIAN_POINT ( 'NONE',  ( 0.3292807667925312098, 6.716855892917530824, 3.889042988236577791 ) ) ;
#583 = EDGE_CURVE ( 'NONE', #891, #533, #157, .T. ) ;
#584 = VECTOR ( 'NONE', #633, 1000.000000000000000 ) ;
#585 = CARTESIAN_POINT ( 'NONE',  ( 4.776122516674680244E-16, 2.000000000000000000, -3.900000000000001688 ) ) ;
#586 = DIRECTION ( 'NONE',  ( -0.000000000000000000, 1.000000000000000000, -0.000000000000000000 ) ) ;
#587 = AXIS2_PLACEMENT_3D ( 'NONE', #57, #607, #78 ) ;
#588 = CARTESIAN_POINT ( 'NONE',  ( -0.3291624257955894084, 6.716854884850874008, 3.889044698263460109 ) ) ;
#589 = CIRCLE ( 'NONE', #587, 3.900000000000001688 ) ;
#590 = ORIENTED_EDGE ( 'NONE', *, *, #399, .T. ) ;
#591 = DIRECTION ( 'NONE',  ( 0.000000000000000000, 0.000000000000000000, 1.000000000000000000 ) ) ;
#592 = PERSON_AND_ORGANIZATION_ROLE ( 'design_owner' ) ;
#593 = CARTESIAN_POINT ( 'NONE',  ( 0.000000000000000000, 2.000000000000000000, 0.000000000000000000 ) ) ;
#594 = ORIENTED_EDGE ( 'NONE', *, *, #464, .T. ) ;
#595 = FACE_OUTER_BOUND ( 'NONE', #539, .T. ) ;
#596 =( LENGTH_UNIT ( ) NAMED_UNIT ( * ) SI_UNIT ( .MILLI., .METRE. ) );
#597 = PERSON ( 'UNSPECIFIED', 'UNSPECIFIED', 'UNSPECIFIED', ('UNSPECIFIED'), ('UNSPECIFIED'), ('UNSPECIFIED') ) ;
#598 = VERTEX_POINT ( 'NONE', #252 ) ;
#599 = CARTESIAN_POINT ( 'NONE',  ( 0.000000000000000000, 0.000000000000000000, 0.000000000000000000 ) ) ;
#600 = CARTESIAN_POINT ( 'NONE',  ( 0.8733838735613511650, 6.396303671972526139, -0.2461352354623829175 ) ) ;
#601 = EDGE_LOOP ( 'NONE', ( #465, #93, #890, #780 ) ) ;
#602 = DIRECTION ( 'NONE',  ( 0.000000000000000000, 0.000000000000000000, 1.000000000000000000 ) ) ;
#603 = CARTESIAN_POINT ( 'NONE',  ( 0.5600664951014946435, 6.621362339882161940, 0.7135828446353681409 ) ) ;
#604 = DATE_AND_TIME ( #817, #861 ) ;
#605 = CIRCLE ( 'NONE', #205, 24.50000000000000000 ) ;
#606 = CARTESIAN_POINT ( 'NONE',  ( -1.216727335604683713, 5.829841965001684834, -3.705928495411422219 ) ) ;
#607 = DIRECTION ( 'NONE',  ( -0.000000000000000000, 1.000000000000000000, -0.000000000000000000 ) ) ;
#608 = ORIENTED_EDGE ( 'NONE', *, *, #32, .T. ) ;
#609 = CARTESIAN_POINT ( 'NONE',  ( -5.000000000000000000, 8.000000000000000000, -14.20575939540016108 ) ) ;
#610 = FACE_OUTER_BOUND ( 'NONE', #10, .T. ) ;
#611 = ORIENTED_EDGE ( 'NONE', *, *, #778, .F. ) ;
#612 = EDGE_CURVE ( 'NONE', #793, #340, #316, .T. ) ;
#613 = ORIENTED_EDGE ( 'NONE', *, *, #315, .F. ) ;
#614 = FACE_BOUND ( 'NONE', #472, .T. ) ;
#615 = CYLINDRICAL_SURFACE ( 'NONE', #859, 0.9000000000000001332 ) ;
#616 = EDGE_LOOP ( 'NONE', ( #823, #608 ) ) ;
#617 = PERSON_AND_ORGANIZATION ( #597, #246 ) ;
#618 = CC_DESIGN_APPROVAL ( #220, ( #647 ) ) ;
#619 = DIRECTION ( 'NONE',  ( 0.000000000000000000, -1.000000000000000000, 0.000000000000000000 ) ) ;
#620 = FACE_OUTER_BOUND ( 'NONE', #218, .T. ) ;
#621 = DIRECTION ( 'NONE',  ( -0.000000000000000000, -0.000000000000000000, -1.000000000000000000 ) ) ;
#622 = EDGE_CURVE ( 'NONE', #635, #444, #709, .T. ) ;
#623 = FACE_OUTER_BOUND ( 'NONE', #62, .T. ) ;
#624 = ORIENTED_EDGE ( 'NONE', *, *, #254, .F. ) ;
#625 = CARTESIAN_POINT ( 'NONE',  ( 0.000000000000000000, 5.500000000000000000, 24.50000000000000000 ) ) ;
#626 = FACE_OUTER_BOUND ( 'NONE', #100, .T. ) ;
#627 = CARTESIAN_POINT ( 'NONE',  ( 1.249999999999974687, 5.335247997622384553, 3.694252292413185756 ) ) ;
#628 = DIRECTION ( 'NONE',  ( 1.000000000000000000, 1.445602896647339163E-16, 0.000000000000000000 ) ) ;
#629 = AXIS2_PLACEMENT_3D ( 'NONE', #338, #129, #774 ) ;
#630 = VERTEX_POINT ( 'NONE', #22 ) ;
#631 = AXIS2_PLACEMENT_3D ( 'NONE', #723, #236, #727 ) ;
#632 = B_SPLINE_CURVE_WITH_KNOTS ( 'NONE', 3,
 ( #241, #90, #320, #247, #468, #400, #672, #606, #724, #745 ),
 .UNSPECIFIED., .F., .F.,
 ( 4, 2, 2, 2, 4 ),
 ( 0.005900571547109217593, 0.006392224245762213701, 0.006883876944415209809, 0.007375529643068205916, 0.007867182341721202024 ),
 .UNSPECIFIED. ) ;
#633 = DIRECTION ( 'NONE',  ( -0.000000000000000000, -0.000000000000000000, -1.000000000000000000 ) ) ;
#634 = AXIS2_PLACEMENT_3D ( 'NONE', #661, #536, #520 ) ;
#635 = VERTEX_POINT ( 'NONE', #243 ) ;
#636 = CARTESIAN_POINT ( 'NONE',  ( 0.9986806664553558033, 4.730981072590461523, 3.771798851533118668 ) ) ;
#637 = DIRECTION ( 'NONE',  ( 0.000000000000000000, 1.000000000000000000, 0.000000000000000000 ) ) ;
#638 = ORIENTED_EDGE ( 'NONE', *, *, #900, .F. ) ;
#639 = EDGE_CURVE ( 'NONE', #574, #756, #589, .T. ) ;
#640 = CARTESIAN_POINT ( 'NONE',  ( 1.250000000000000666, 5.500000000000000000, -3.694252292413176431 ) ) ;
#641 = B_SPLINE_CURVE_WITH_KNOTS ( 'NONE', 3,
 ( #238, #526, #800, #150, #295, #447, #455, #730, #73, #377, #3, #588, #860, #154 ),
 .UNSPECIFIED., .F., .F.,
 ( 4, 2, 2, 2, 2, 2, 4 ),
 ( 0.001967702206084629389, 0.002213515148133618320, 0.002459328090182607250, 0.002950953974280585111, 0.003196766916329574042, 0.003442579858378563406, 0.003934205742476540833 ),
 .UNSPECIFIED. ) ;
#642 = CARTESIAN_POINT ( 'NONE',  ( 1.102182119232618034E-16, 8.000000000000000000, 0.9000000000000001332 ) ) ;
#643 = FACE_OUTER_BOUND ( 'NONE', #872, .T. ) ;
#644 = VECTOR ( 'NONE', #910, 1000.000000000000000 ) ;
#645 = EDGE_CURVE ( 'NONE', #25, #598, #169, .T. ) ;
#646 = AXIS2_PLACEMENT_3D ( 'NONE', #599, #245, #649 ) ;
#647 = SECURITY_CLASSIFICATION ( '', '', #760 ) ;
#648 = VECTOR ( 'NONE', #552, 1000.000000000000000 ) ;
#649 = DIRECTION ( 'NONE',  ( 1.000000000000000000, 0.000000000000000000, 0.000000000000000000 ) ) ;
#650 = EDGE_CURVE ( 'NONE', #458, #574, #543, .T. ) ;
#651 = CARTESIAN_POINT ( 'NONE',  ( 3.000384657911015469E-15, 2.000000000000000000, -24.50000000000000000 ) ) ;
#652 = DIRECTION ( 'NONE',  ( -0.000000000000000000, 1.000000000000000000, -0.000000000000000000 ) ) ;
#653 = DIRECTION ( 'NONE',  ( 0.000000000000000000, 0.000000000000000000, 1.000000000000000000 ) ) ;
#654 = COORDINATED_UNIVERSAL_TIME_OFFSET ( 7, 0, .BEHIND. ) ;
#655 = DIRECTION ( 'NONE',  ( 0.000000000000000000, -1.000000000000000000, 0.000000000000000000 ) ) ;
#656 = EDGE_CURVE ( 'NONE', #402, #181, #113, .T. ) ;
#657 = CARTESIAN_POINT ( 'NONE',  ( 3.000384657911015469E-15, 0.000000000000000000, -24.50000000000000000 ) ) ;
#658 = CARTESIAN_POINT ( 'NONE',  ( 1.102177146232921571E-16, 4.249999999999998224, 0.9000000000000001332 ) ) ;
#659 =( NAMED_UNIT ( * ) PLANE_ANGLE_UNIT ( ) SI_UNIT ( $, .RADIAN. ) );
#660 = CARTESIAN_POINT ( 'NONE',  ( 1.102182119232618034E-16, 0.000000000000000000, 0.9000000000000001332 ) ) ;
#661 = CARTESIAN_POINT ( 'NONE',  ( 0.000000000000000000, 0.000000000000000000, 0.000000000000000000 ) ) ;
#662 = CARTESIAN_POINT ( 'NONE',  ( 1.102177146232921571E-16, 4.249999999999998224, 0.9000000000000001332 ) ) ;
#663 = VERTEX_POINT ( 'NONE', #184 ) ;
#664 = DIRECTION ( 'NONE',  ( 0.000000000000000000, -1.000000000000000000, 0.000000000000000000 ) ) ;
#665 = EDGE_CURVE ( 'NONE', #488, #195, #417, .T. ) ;
#666 = CARTESIAN_POINT ( 'NONE',  ( 0.000000000000000000, 8.000000000000000000, 0.000000000000000000 ) ) ;
#667 = CARTESIAN_POINT ( 'NONE',  ( 1.102187092246434861E-16, 6.750000000000000888, 0.9000000000000001332 ) ) ;
#668 = CARTESIAN_POINT ( 'NONE',  ( 1.102177146232921571E-16, 4.249999999999998224, 0.9000000000000001332 ) ) ;
#669 = CARTESIAN_POINT ( 'NONE',  ( 0.9001326584279716325, 6.367329945327764307, 0.1230571497135624082 ) ) ;
#670 = CARTESIAN_POINT ( 'NONE',  ( 5.000000000000000000, 2.000000000000000000, -24.50000000000000000 ) ) ;
#671 = EDGE_CURVE ( 'NONE', #663, #131, #265, .T. ) ;
#672 = CARTESIAN_POINT ( 'NONE',  ( -1.090993088338154449, 6.131629014756462936, -3.744871894138491975 ) ) ;
#673 = DIRECTION ( 'NONE',  ( 0.000000000000000000, 0.000000000000000000, -1.000000000000000000 ) ) ;
#674 = CARTESIAN_POINT ( 'NONE',  ( 0.000000000000000000, 2.000000000000000000, 0.000000000000000000 ) ) ;
#675 = ORIENTED_EDGE ( 'NONE', *, *, #559, .F. ) ;
#676 = CC_DESIGN_APPROVAL ( #77, ( #283 ) ) ;
#677 = CALENDAR_DATE ( 2026, 22, 1 ) ;
#678 = EDGE_CURVE ( 'NONE', #533, #891, #766, .T. ) ;
#679 = DIRECTION ( 'NONE',  ( -0.000000000000000000, 1.000000000000000000, -0.000000000000000000 ) ) ;
#680 = ORIENTED_EDGE ( 'NONE', *, *, #678, .F. ) ;
#681 = COORDINATED_UNIVERSAL_TIME_OFFSET ( 7, 0, .BEHIND. ) ;
#682 = EDGE_CURVE ( 'NONE', #63, #444, #819, .T. ) ;
#683 = CARTESIAN_POINT ( 'NONE',  ( 0.000000000000000000, 2.000000000000000000, 0.000000000000000000 ) ) ;
#684 = DIRECTION ( 'NONE',  ( 0.000000000000000000, 0.000000000000000000, 1.000000000000000000 ) ) ;
#685 = ORIENTED_EDGE ( 'NONE', *, *, #892, .F. ) ;
#686 = COORDINATED_UNIVERSAL_TIME_OFFSET ( 7, 0, .BEHIND. ) ;
#687 = CARTESIAN_POINT ( 'NONE',  ( 0.000000000000000000, 6.750000000000000888, -0.9000000000000001332 ) ) ;
#688 = VECTOR ( 'NONE', #673, 1000.000000000000000 ) ;
#689 = CARTESIAN_POINT ( 'NONE',  ( 1.250000000000000666, 5.500000000000000000, 24.50000000000000000 ) ) ;
#690 = EDGE_LOOP ( 'NONE', ( #638, #307, #516, #692 ) ) ;
#691 =( GEOMETRIC_REPRESENTATION_CONTEXT ( 3 ) GLOBAL_UNCERTAINTY_ASSIGNED_CONTEXT ( ( #864 ) ) GLOBAL_UNIT_ASSIGNED_CONTEXT ( ( #596, #659, #467 ) ) REPRESENTATION_CONTEXT ( 'NONE', 'WORKASPACE' ) );
#692 = ORIENTED_EDGE ( 'NONE', *, *, #32, .F. ) ;
#693 = ADVANCED_FACE ( 'NONE', ( #610 ), #894, .F. ) ;
#694 = CYLINDRICAL_SURFACE ( 'NONE', #715, 24.50000000000000000 ) ;
#695 = CARTESIAN_POINT ( 'NONE',  ( 0.3298693761696572802, 4.283268714739058680, 3.889001000862517987 ) ) ;
#696 = DIRECTION ( 'NONE',  ( 0.000000000000000000, -1.000000000000000000, 0.000000000000000000 ) ) ;
#697 = CYLINDRICAL_SURFACE ( 'NONE', #147, 1.250000000000000666 ) ;
#698 = CARTESIAN_POINT ( 'NONE',  ( 5.000000000000000888, 8.000000000000000000, 24.50000000000000000 ) ) ;
#699 = CARTESIAN_POINT ( 'NONE',  ( -0.7830016840983844428, 6.476267271358318922, 0.4587635254678563701 ) ) ;
#700 = VERTEX_POINT ( 'NONE', #478 ) ;
#701 = LINE ( 'NONE', #35, #477 ) ;
#702 = CARTESIAN_POINT ( 'NONE',  ( 0.1242538143856842803, 4.249999999999998224, -0.9000000000000001332 ) ) ;
#703 = AXIS2_PLACEMENT_3D ( 'NONE', #445, #158, #251 ) ;
#704 = ORIENTED_EDGE ( 'NONE', *, *, #14, .T. ) ;
#705 = CARTESIAN_POINT ( 'NONE',  ( 1.241671409519599090, 5.665639367438377150, 3.697098713500820644 ) ) ;
#706 = EDGE_CURVE ( 'NONE', #278, #479, #183, .T. ) ;
#707 = CARTESIAN_POINT ( 'NONE',  ( 5.000000000000000000, 2.000000000000000000, 24.50000000000000000 ) ) ;
#708 = CARTESIAN_POINT ( 'NONE',  ( 0.7831103690850351740, 4.523828234387408109, -0.4585142072226739973 ) ) ;
#709 = LINE ( 'NONE', #161, #513 ) ;
#710 = CARTESIAN_POINT ( 'NONE',  ( 0.6323341822823603797, 6.590780621938361783, -3.851448023503411644 ) ) ;
#711 = CARTESIAN_POINT ( 'NONE',  ( -1.216826968754704419, 5.170402727439740609, -3.705897520096403053 ) ) ;
#712 = CARTESIAN_POINT ( 'NONE',  ( 5.000000000000001776, 12.34324633458323817, -23.98436991042291311 ) ) ;
#713 = ORIENTED_EDGE ( 'NONE', *, *, #148, .F. ) ;
#714 = ADVANCED_FACE ( 'NONE', ( #620 ), #615, .F. ) ;
#715 = AXIS2_PLACEMENT_3D ( 'NONE', #268, #839, #206 ) ;
#716 = LINE ( 'NONE', #913, #474 ) ;
#717 = CIRCLE ( 'NONE', #230, 24.50000000000000000 ) ;
#718 = VERTEX_POINT ( 'NONE', #342 ) ;
#719 = LINE ( 'NONE', #453, #531 ) ;
#720 = PERSON_AND_ORGANIZATION ( #597, #246 ) ;
#721 = CARTESIAN_POINT ( 'NONE',  ( 0.000000000000000000, 12.34324633458323817, 0.000000000000000000 ) ) ;
#722 = DIRECTION ( 'NONE',  ( 0.000000000000000000, 1.000000000000000000, 0.000000000000000000 ) ) ;
#723 = CARTESIAN_POINT ( 'NONE',  ( 0.000000000000000000, 12.34324633458323817, 0.000000000000000000 ) ) ;
#724 = CARTESIAN_POINT ( 'NONE',  ( -1.250000000000000666, 5.666336975760351891, -3.694252292413176431 ) ) ;
#725 = DIRECTION ( 'NONE',  ( 0.000000000000000000, 0.000000000000000000, -1.000000000000000000 ) ) ;
#726 = LINE ( 'NONE', #670, #764 ) ;
#727 = DIRECTION ( 'NONE',  ( 0.000000000000000000, 0.000000000000000000, 1.000000000000000000 ) ) ;
#728 = VECTOR ( 'NONE', #87, 1000.000000000000000 ) ;
#729 = DIRECTION ( 'NONE',  ( 0.000000000000000000, 0.000000000000000000, 1.000000000000000000 ) ) ;
#730 = CARTESIAN_POINT ( 'NONE',  ( -0.8257494272432274185, 6.441948258123201043, 3.812038249389812172 ) ) ;
#731 = AXIS2_PLACEMENT_3D ( 'NONE', #423, #628, #44 ) ;
#732 = DIRECTION ( 'NONE',  ( 0.000000000000000000, 0.000000000000000000, 1.000000000000000000 ) ) ;
#733 = ADVANCED_FACE ( 'NONE', ( #623 ), #770, .T. ) ;
#734 = CC_DESIGN_SECURITY_CLASSIFICATION ( #647, ( #850 ) ) ;
#735 = ORIENTED_EDGE ( 'NONE', *, *, #612, .T. ) ;
#736 = CYLINDRICAL_SURFACE ( 'NONE', #631, 15.06000000000000050 ) ;
#737 = CARTESIAN_POINT ( 'NONE',  ( -0.1664153160139953402, 4.249999999999997335, 3.900000000000002132 ) ) ;
#738 = ORIENTED_EDGE ( 'NONE', *, *, #828, .T. ) ;
#739 = EDGE_LOOP ( 'NONE', ( #253, #548, #314, #116 ) ) ;
#740 = CYLINDRICAL_SURFACE ( 'NONE', #256, 0.9000000000000001332 ) ;
#741 = LINE ( 'NONE', #153, #688 ) ;
#742 = CARTESIAN_POINT ( 'NONE',  ( -5.000000000000001776, 12.34324633458323817, 23.98436991042291311 ) ) ;
#743 = ORIENTED_EDGE ( 'NONE', *, *, #612, .F. ) ;
#744 = ADVANCED_FACE ( 'NONE', ( #346 ), #581, .F. ) ;
#745 = CARTESIAN_POINT ( 'NONE',  ( -1.250000000000000666, 5.500000000000000000, -3.694252292413176431 ) ) ;
#746 = DIRECTION ( 'NONE',  ( 0.000000000000000000, 1.000000000000000000, 0.000000000000000000 ) ) ;
#747 = CARTESIAN_POINT ( 'NONE',  ( -0.9000769356423152789, 6.367387757737085430, -0.1220266430315907202 ) ) ;
#748 = AXIS2_PLACEMENT_3D ( 'NONE', #271, #896, #564 ) ;
#749 = ORIENTED_EDGE ( 'NONE', *, *, #137, .T. ) ;
#750 = EDGE_LOOP ( 'NONE', ( #272, #274, #141, #821, #901, #38 ) ) ;
#751 = DATE_TIME_ROLE ( 'creation_date' ) ;
#752 = AXIS2_PLACEMENT_3D ( 'NONE', #914, #357, #221 ) ;
#753 = LINE ( 'NONE', #895, #648 ) ;
#754 = PLANE ( 'NONE',  #284 ) ;
#755 = DIRECTION ( 'NONE',  ( 0.000000000000000000, 1.000000000000000000, 0.000000000000000000 ) ) ;
#756 = VERTEX_POINT ( 'NONE', #853 ) ;
#757 = CARTESIAN_POINT ( 'NONE',  ( 0.000000000000000000, 5.500000000000000000, 24.50000000000000000 ) ) ;
#758 = CARTESIAN_POINT ( 'NONE',  ( -0.1225211790619946395, 6.750000000000001776, 0.9000000000000002442 ) ) ;
#759 = VERTEX_POINT ( 'NONE', #208 ) ;
#760 = SECURITY_CLASSIFICATION_LEVEL ( 'unclassified' ) ;
#761 = AXIS2_PLACEMENT_3D ( 'NONE', #68, #519, #653 ) ;
#762 = VECTOR ( 'NONE', #41, 1000.000000000000000 ) ;
#763 = CARTESIAN_POINT ( 'NONE',  ( 5.000000000000000000, 2.000000000000000000, -14.20575939540016286 ) ) ;
#764 = VECTOR ( 'NONE', #602, 1000.000000000000000 ) ;
#765 = CARTESIAN_POINT ( 'NONE',  ( 0.000000000000000000, 6.750000000000000888, -0.9000000000000001332 ) ) ;
#766 = B_SPLINE_CURVE_WITH_KNOTS ( 'NONE', 3,
 ( #765, #37, #102, #190, #326, #339, #482, #835, #747, #419, #829, #699, #30, #108, #119, #491, #758, #27 ),
 .UNSPECIFIED., .F., .F.,
 ( 4, 2, 2, 2, 2, 2, 2, 2, 4 ),
 ( 0.000000000000000000, 0.0003667360273425240174, 0.0007334720546850480348, 0.001100208082027572106, 0.001466944109370096070, 0.001833680136712620033, 0.002200416164055144213, 0.002567152191397668176, 0.002933888218740192139 ),
 .UNSPECIFIED. ) ;
#767 = ORIENTED_EDGE ( 'NONE', *, *, #449, .T. ) ;
#768 = DIRECTION ( 'NONE',  ( 0.000000000000000000, -0.000000000000000000, -1.000000000000000000 ) ) ;
#769 = CARTESIAN_POINT ( 'NONE',  ( 0.000000000000000000, 4.249999999999998224, 3.900000000000001688 ) ) ;
#770 = PLANE ( 'NONE',  #731 ) ;
#771 = ORIENTED_EDGE ( 'NONE', *, *, #583, .F. ) ;
#772 = CARTESIAN_POINT ( 'NONE',  ( -5.000000000000001776, 12.34324633458323817, 14.20575939540016286 ) ) ;
#773 = LINE ( 'NONE', #698, #104 ) ;
#774 = DIRECTION ( 'NONE',  ( 0.000000000000000000, 0.000000000000000000, 1.000000000000000000 ) ) ;
#775 = ORIENTED_EDGE ( 'NONE', *, *, #43, .T. ) ;
#776 = ORIENTED_EDGE ( 'NONE', *, *, #650, .T. ) ;
#777 = CARTESIAN_POINT ( 'NONE',  ( 1.090875964837911827, 6.132148890160991961, 3.744913154832162139 ) ) ;
#778 = EDGE_CURVE ( 'NONE', #718, #393, #98, .T. ) ;
#779 = ORIENTED_EDGE ( 'NONE', *, *, #43, .F. ) ;
#780 = ORIENTED_EDGE ( 'NONE', *, *, #645, .F. ) ;
#781 = CARTESIAN_POINT ( 'NONE',  ( 0.4649081004358517899, 4.334021537307884309, 0.7798538674866423159 ) ) ;
#782 = VERTEX_POINT ( 'NONE', #651 ) ;
#783 = EDGE_CURVE ( 'NONE', #181, #402, #86, .T. ) ;
#784 = CARTESIAN_POINT ( 'NONE',  ( 0.1638527233641710046, 6.750000000000000000, 3.900000000000001688 ) ) ;
#785 = DIRECTION ( 'NONE',  ( 1.445602896647339163E-16, 1.000000000000000000, 0.000000000000000000 ) ) ;
#786 = ADVANCED_FACE ( 'NONE', ( #21 ), #395, .F. ) ;
#787 = CARTESIAN_POINT ( 'NONE',  ( 1.250000000000000666, 5.500000000000000000, -3.694252292413176431 ) ) ;
#788 = CYLINDRICAL_SURFACE ( 'NONE', #124, 3.900000000000001688 ) ;
#789 = CC_DESIGN_DATE_AND_TIME_ASSIGNMENT ( #19, #751, ( #283 ) ) ;
#790 = DIRECTION ( 'NONE',  ( 0.000000000000000000, 0.000000000000000000, 1.000000000000000000 ) ) ;
#791 = AXIS2_PLACEMENT_3D ( 'NONE', #571, #438, #505 ) ;
#792 = DIRECTION ( 'NONE',  ( 0.000000000000000000, -1.000000000000000000, 0.000000000000000000 ) ) ;
#793 = VERTEX_POINT ( 'NONE', #804 ) ;
#794 = DIRECTION ( 'NONE',  ( -0.000000000000000000, 1.000000000000000000, -0.000000000000000000 ) ) ;
#795 = CARTESIAN_POINT ( 'NONE',  ( 0.000000000000000000, 12.34324633458323817, 0.000000000000000000 ) ) ;
#796 = DIRECTION ( 'NONE',  ( 0.000000000000000000, 0.000000000000000000, 1.000000000000000000 ) ) ;
#797 = CARTESIAN_POINT ( 'NONE',  ( -0.1223585325553270819, 4.249999999999997335, 0.9000000000000000222 ) ) ;
#798 = VERTEX_POINT ( 'NONE', #248 ) ;
#799 = EDGE_CURVE ( 'NONE', #598, #782, #534, .T. ) ;
#800 = CARTESIAN_POINT ( 'NONE',  ( -1.241696655384679104, 5.665552715781978499, 3.697090468297009380 ) ) ;
#801 = ORIENTED_EDGE ( 'NONE', *, *, #224, .T. ) ;
#802 = VECTOR ( 'NONE', #827, 1000.000000000000000 ) ;
#803 = CARTESIAN_POINT ( 'NONE',  ( 1.102182119232618034E-16, 8.000000000000000000, 0.9000000000000001332 ) ) ;
#804 = CARTESIAN_POINT ( 'NONE',  ( 0.000000000000000000, 2.000000000000000000, 3.900000000000001688 ) ) ;
#805 = CC_DESIGN_DATE_AND_TIME_ASSIGNMENT ( #546, #258, ( #647 ) ) ;
#806 = DIRECTION ( 'NONE',  ( 0.000000000000000000, 0.000000000000000000, -1.000000000000000000 ) ) ;
#807 = ORIENTED_EDGE ( 'NONE', *, *, #361, .T. ) ;
#808 = PRODUCT_DEFINITION_SHAPE ( 'NONE', 'NONE',  #283 ) ;
#809 = CARTESIAN_POINT ( 'NONE',  ( -1.091750937566166257, 4.869876383493142669, 3.744643709352027283 ) ) ;
#810 = CARTESIAN_POINT ( 'NONE',  ( 0.2454437088597556382, 6.730895312974205069, -0.8739202724654075993 ) ) ;
#811 = VERTEX_POINT ( 'NONE', #401 ) ;
#812 = EDGE_CURVE ( 'NONE', #811, #301, #330, .T. ) ;
#813 = CARTESIAN_POINT ( 'NONE',  ( 0.7837758582647542660, 6.475619005824549745, 0.4573022791909083784 ) ) ;
#814 = CARTESIAN_POINT ( 'NONE',  ( 4.776122516674680244E-16, 12.34324633458323817, -3.900000000000001688 ) ) ;
#815 = ORIENTED_EDGE ( 'NONE', *, *, #706, .T. ) ;
#816 = CARTESIAN_POINT ( 'NONE',  ( 5.000000000000000888, 8.000000000000000000, -14.20575939540016286 ) ) ;
#817 = CALENDAR_DATE ( 2026, 22, 1 ) ;
#818 = LINE ( 'NONE', #772, #197 ) ;
#819 = LINE ( 'NONE', #114, #875 ) ;
#820 = AXIS2_PLACEMENT_3D ( 'NONE', #869, #450, #725 ) ;
#821 = ORIENTED_EDGE ( 'NONE', *, *, #532, .T. ) ;
#822 = AXIS2_PLACEMENT_3D ( 'NONE', #413, #201, #331 ) ;
#823 = ORIENTED_EDGE ( 'NONE', *, *, #863, .T. ) ;
#824 = DIRECTION ( 'NONE',  ( 0.000000000000000000, 0.000000000000000000, 1.000000000000000000 ) ) ;
#825 = DIRECTION ( 'NONE',  ( -0.000000000000000000, -0.000000000000000000, -1.000000000000000000 ) ) ;
#826 = DIRECTION ( 'NONE',  ( -0.000000000000000000, 1.000000000000000000, -0.000000000000000000 ) ) ;
#827 = DIRECTION ( 'NONE',  ( -0.000000000000000000, -1.000000000000000000, -0.000000000000000000 ) ) ;
#828 = EDGE_CURVE ( 'NONE', #782, #759, #386, .T. ) ;
#829 = CARTESIAN_POINT ( 'NONE',  ( -0.8739677182866588678, 6.395750997665720305, 0.2444095681298385503 ) ) ;
#830 = ORIENTED_EDGE ( 'NONE', *, *, #456, .F. ) ;
#831 = ORIENTED_EDGE ( 'NONE', *, *, #242, .F. ) ;
#832 = APPROVAL_STATUS ( 'not_yet_approved' ) ;
#833 = CYLINDRICAL_SURFACE ( 'NONE', #879, 1.250000000000000666 ) ;
#834 = FACE_OUTER_BOUND ( 'NONE', #750, .T. ) ;
#835 = CARTESIAN_POINT ( 'NONE',  ( -0.8738750864925871609, 6.395832294213197322, -0.2446210571498509678 ) ) ;
#836 = ORIENTED_EDGE ( 'NONE', *, *, #622, .F. ) ;
#837 = VECTOR ( 'NONE', #237, 1000.000000000000000 ) ;
#838 = ORIENTED_EDGE ( 'NONE', *, *, #449, .F. ) ;
#839 = DIRECTION ( 'NONE',  ( -0.000000000000000000, 1.000000000000000000, -0.000000000000000000 ) ) ;
#840 = CARTESIAN_POINT ( 'NONE',  ( 1.091499925155658079, 4.869361021842328441, 3.744719640894194512 ) ) ;
#841 = ORIENTED_EDGE ( 'NONE', *, *, #517, .F. ) ;
#842 = EDGE_CURVE ( 'NONE', #45, #700, #202, .T. ) ;
#843 = FACE_BOUND ( 'NONE', #396, .T. ) ;
#844 = DIRECTION ( 'NONE',  ( 1.000000000000000000, -1.445602896647339163E-16, 0.000000000000000000 ) ) ;
#845 = CARTESIAN_POINT ( 'NONE',  ( 0.2455940696690326053, 4.269123679149162243, -0.8738960100020641830 ) ) ;
#846 = ADVANCED_FACE ( 'NONE', ( #8 ), #299, .F. ) ;
#847 = EDGE_LOOP ( 'NONE', ( #203, #560, #831, #611, #135, #854 ) ) ;
#848 = CARTESIAN_POINT ( 'NONE',  ( 0.7830016840983844428, 4.523732728641683742, 0.4587635254678563701 ) ) ;
#849 = EDGE_CURVE ( 'NONE', #115, #88, #717, .T. ) ;
#850 = PRODUCT_DEFINITION_FORMATION_WITH_SPECIFIED_SOURCE ( 'ANY', '', #180, .NOT_KNOWN. ) ;
#851 = EDGE_CURVE ( 'NONE', #630, #115, #469, .T. ) ;
#852 = AXIS2_PLACEMENT_3D ( 'NONE', #475, #746, #16 ) ;
#853 = CARTESIAN_POINT ( 'NONE',  ( 0.000000000000000000, 8.000000000000000000, 3.900000000000001688 ) ) ;
#854 = ORIENTED_EDGE ( 'NONE', *, *, #812, .F. ) ;
#855 = CARTESIAN_POINT ( 'NONE',  ( 1.091513453146952584, 6.130667456746916599, -3.744716720308475910 ) ) ;
#856 = CARTESIAN_POINT ( 'NONE',  ( 1.250000000000000666, 5.500000000000000000, -3.694252292413176431 ) ) ;
#857 = DIRECTION ( 'NONE',  ( 0.000000000000000000, 0.000000000000000000, -1.000000000000000000 ) ) ;
#858 = DIRECTION ( 'NONE',  ( 0.000000000000000000, 0.000000000000000000, 1.000000000000000000 ) ) ;
#859 = AXIS2_PLACEMENT_3D ( 'NONE', #192, #40, #487 ) ;
#860 = CARTESIAN_POINT ( 'NONE',  ( -0.1638498228255103328, 6.750000000000000888, 3.900000000000001688 ) ) ;
#861 = LOCAL_TIME ( 11, 24, 2.000000000000000000, #681 ) ;
#862 = ORIENTED_EDGE ( 'NONE', *, *, #639, .F. ) ;
#863 = EDGE_CURVE ( 'NONE', #378, #476, #318, .T. ) ;
#864 = UNCERTAINTY_MEASURE_WITH_UNIT (LENGTH_MEASURE( 1.000000000000000082E-05 ), #596, 'distance_accuracy_value', 'NONE');
#865 = FACE_OUTER_BOUND ( 'NONE', #847, .T. ) ;
#866 = DIRECTION ( 'NONE',  ( 0.000000000000000000, 0.000000000000000000, 1.000000000000000000 ) ) ;
#867 = CARTESIAN_POINT ( 'NONE',  ( 0.000000000000000000, 2.000000000000000000, 24.50000000000000000 ) ) ;
#868 = CARTESIAN_POINT ( 'NONE',  ( -0.8733838735613511650, 4.603696328027473861, -0.2461352354623829175 ) ) ;
#869 = CARTESIAN_POINT ( 'NONE',  ( 0.000000000000000000, 8.000000000000000000, 0.000000000000000000 ) ) ;
#870 = FACE_BOUND ( 'NONE', #616, .T. ) ;
#871 = CARTESIAN_POINT ( 'NONE',  ( -0.7827496656293407851, 4.523545892555305592, -0.4590042545448874689 ) ) ;
#872 = EDGE_LOOP ( 'NONE', ( #13, #334, #110, #836 ) ) ;
#873 = CARTESIAN_POINT ( 'NONE',  ( 0.000000000000000000, 2.000000000000000000, 0.000000000000000000 ) ) ;
#874 = CARTESIAN_POINT ( 'NONE',  ( 0.1223585325553270819, 6.749999999999998224, 0.9000000000000000222 ) ) ;
#875 = VECTOR ( 'NONE', #696, 1000.000000000000000 ) ;
#876 = AXIS2_PLACEMENT_3D ( 'NONE', #233, #227, #512 ) ;
#877 = EDGE_CURVE ( 'NONE', #301, #798, #641, .T. ) ;
#878 = ORIENTED_EDGE ( 'NONE', *, *, #464, .F. ) ;
#879 = AXIS2_PLACEMENT_3D ( 'NONE', #625, #188, #259 ) ;
#880 = FACE_OUTER_BOUND ( 'NONE', #601, .T. ) ;
#881 = DATE_AND_TIME ( #480, #121 ) ;
#882 = DIRECTION ( 'NONE',  ( -0.000000000000000000, 1.000000000000000000, -0.000000000000000000 ) ) ;
#883 = VERTEX_POINT ( 'NONE', #388 ) ;
#884 = CALENDAR_DATE ( 2026, 22, 1 ) ;
#885 = CARTESIAN_POINT ( 'NONE',  ( 2.448819147517010974E-13, 4.249999999997601918, -3.900000000000769962 ) ) ;
#886 = EDGE_CURVE ( 'NONE', #883, #120, #336, .T. ) ;
#887 = ORIENTED_EDGE ( 'NONE', *, *, #639, .T. ) ;
#888 = ORIENTED_EDGE ( 'NONE', *, *, #279, .T. ) ;
#889 = AXIS2_PLACEMENT_3D ( 'NONE', #454, #460, #232 ) ;
#890 = ORIENTED_EDGE ( 'NONE', *, *, #72, .F. ) ;
#891 = VERTEX_POINT ( 'NONE', #667 ) ;
#892 = EDGE_CURVE ( 'NONE', #700, #45, #403, .T. ) ;
#893 = CARTESIAN_POINT ( 'NONE',  ( -5.000000000000000000, 2.000000000000000000, 14.20575939540016286 ) ) ;
#894 = PLANE ( 'NONE',  #822 ) ;
#895 = CARTESIAN_POINT ( 'NONE',  ( 0.000000000000000000, 12.34324633458323817, 3.900000000000001688 ) ) ;
#896 = DIRECTION ( 'NONE',  ( -0.000000000000000000, 1.000000000000000000, -0.000000000000000000 ) ) ;
#897 = ORIENTED_EDGE ( 'NONE', *, *, #322, .F. ) ;
#898 = CARTESIAN_POINT ( 'NONE',  ( 0.08214305862874067554, 4.250000000000029310, -3.899999999999991918 ) ) ;
#899 = CARTESIAN_POINT ( 'NONE',  ( 0.000000000000000000, 4.249999999999998224, -0.9000000000000001332 ) ) ;
#900 = EDGE_CURVE ( 'NONE', #402, #476, #304, .T. ) ;
#901 = ORIENTED_EDGE ( 'NONE', *, *, #193, .F. ) ;
#902 = CARTESIAN_POINT ( 'NONE',  ( 0.000000000000000000, 2.000000000000000000, -3.900000000000001688 ) ) ;
#903 = VECTOR ( 'NONE', #509, 1000.000000000000000 ) ;
#904 = CARTESIAN_POINT ( 'NONE',  ( 0.8738750864925871609, 4.604167705786805342, -0.2446210571498509678 ) ) ;
#905 = ORIENTED_EDGE ( 'NONE', *, *, #783, .T. ) ;
#906 = CARTESIAN_POINT ( 'NONE',  ( 1.216859251341598114, 5.829236422384852290, -3.705881608495207757 ) ) ;
#907 = LINE ( 'NONE', #712, #903 ) ;
#908 = VECTOR ( 'NONE', #825, 1000.000000000000000 ) ;
#909 = DIRECTION ( 'NONE',  ( 0.000000000000000000, -0.000000000000000000, 1.000000000000000000 ) ) ;
#910 = DIRECTION ( 'NONE',  ( -0.000000000000000000, -1.000000000000000000, -0.000000000000000000 ) ) ;
#911 = CARTESIAN_POINT ( 'NONE',  ( 5.000000000000001776, 12.34324633458323817, 23.98436991042291311 ) ) ;
#912 = EDGE_LOOP ( 'NONE', ( #139, #333, #420, #225, #23, #406, #862, #48, #244, #292 ) ) ;
#913 = CARTESIAN_POINT ( 'NONE',  ( 5.000000000000000888, 8.000000000000000000, -24.50000000000000000 ) ) ;
#914 = CARTESIAN_POINT ( 'NONE',  ( 0.000000000000000000, 2.000000000000000000, 0.000000000000000000 ) ) ;
#915 = CARTESIAN_POINT ( 'NONE',  ( 0.000000000000000000, 4.249999999999998224, -0.9000000000000001332 ) ) ;
ENDSEC;
END-ISO-10303-21;
